<svg width="142" height="37" viewBox="0 0 142 37" fill="none" xmlns="http://www.w3.org/2000/svg">
<rect width="140" height="20" transform="translate(0 16.4141)" fill="#FEE6B2"/>
<path d="M119.702 28.2428C119.017 28.3425 118.711 28.0037 118.783 27.2263L118.729 20.619C118.297 21.2568 117.847 21.795 117.378 22.2335H116.946C116.694 22.1139 116.514 21.9146 116.406 21.6355V21.1572C117.018 20.2004 117.595 19.2338 118.135 18.2571C118.675 17.2805 119.18 16.2739 119.648 15.2375C119.864 15.0381 120.134 14.9584 120.458 14.9983C120.711 15.1179 120.891 15.3172 120.999 15.5962V16.1344L120.458 17.4499L124.268 17.5695L125.294 14.8787C125.511 14.7192 125.763 14.6594 126.051 14.6993C126.303 14.8189 126.483 15.0182 126.591 15.2973V15.7756L125.997 17.5695C126.933 17.5296 127.798 17.6492 128.59 17.9282C128.735 18.1275 128.789 18.3867 128.753 18.7056C128.644 18.9846 128.464 19.1839 128.212 19.3035H125.186L125.24 20.3798C125.961 20.3001 126.609 20.4197 127.186 20.7386C127.33 20.9379 127.384 21.197 127.348 21.5159C127.24 21.795 127.059 21.9943 126.807 22.1139H125.24V23.2201L127.294 23.2799C127.618 23.3995 127.852 23.6386 127.996 23.9974V24.4758C127.888 24.7548 127.708 24.9541 127.456 25.0737L125.24 24.9541L125.186 26.5088L129.077 26.449C129.329 26.5686 129.509 26.7679 129.617 27.0469V27.5253C129.509 27.8043 129.329 28.0037 129.077 28.1233L119.702 28.2428ZM139.965 28.0635L139.37 27.7047L134.858 21.0974C134.498 22.2135 134.075 23.2948 133.589 24.3412C133.102 25.3876 132.535 26.3892 131.886 27.3459C131.598 27.625 131.256 27.7446 130.86 27.7047L130.32 27.4057C130.103 27.1267 130.013 26.7679 130.049 26.3294C131.274 24.3761 132.238 22.2883 132.94 20.0659C133.643 17.8435 134.102 16.1194 134.318 14.8936C134.534 13.6678 134.696 12.2677 134.804 10.6931C134.84 10.3741 134.948 10.0951 135.129 9.85593C135.381 9.61675 135.714 9.51709 136.128 9.55695L136.668 9.85593L136.939 10.4539C136.795 13.2044 136.605 14.9684 136.371 15.7457C136.137 16.5231 135.93 17.3104 135.75 18.1076C137.659 21.1771 138.866 23.0955 139.37 23.8629C139.874 24.6302 140.298 25.2332 140.64 25.6717C140.982 26.1102 141.171 26.6084 141.207 27.1665L140.937 27.7645C140.685 28.0037 140.361 28.1033 139.965 28.0635ZM123.835 26.449L123.673 24.9541H120.35V26.5088L123.835 26.449ZM123.673 23.2201V22.0541L120.35 21.9943V23.2201H123.673ZM123.673 20.32L123.727 19.3035L120.35 19.1839V20.2602L123.673 20.32ZM118.027 14.5498C117.468 14.4701 117.149 14.2857 117.068 13.9967C116.987 13.7077 116.946 12.0883 116.946 9.13839C117.036 8.44078 117.396 8.2016 118.027 8.42085L122.214 8.54044C122.467 8.66003 122.647 8.85935 122.755 9.13839L122.701 13.7426C122.719 14.2409 122.503 14.4601 122.052 14.4003L118.027 14.5498ZM124.592 14.1014C123.944 14.1612 123.583 13.8423 123.511 13.1446V8.60024C123.619 8.32119 123.799 8.12188 124.052 8.00229H127.672C128.428 7.98236 128.834 8.19662 128.888 8.64508C128.942 9.09354 128.96 9.836 128.942 10.8724C128.924 11.9089 128.888 12.7211 128.834 13.3091C128.78 13.8971 128.446 14.1412 127.834 14.0416L124.592 14.1014ZM130.428 13.6828C130.139 13.6429 129.887 13.5233 129.671 13.324C129.455 13.045 129.365 12.6862 129.401 12.2477C130.121 10.6532 130.635 8.97395 130.941 7.21001C131.247 5.44606 131.616 3.70703 132.049 1.99291C132.301 1.75373 132.625 1.65407 133.021 1.69393L133.562 1.99291C133.814 2.35168 133.904 2.79017 133.832 3.30839C133.616 4.18538 133.453 5.08231 133.345 5.99916C137.938 5.99916 140.55 6.05397 141.18 6.1636C141.811 6.27322 141.964 6.76653 141.64 7.64352C140.991 9.67654 140.505 11.012 140.181 11.6498C139.928 11.889 139.604 11.9886 139.208 11.9487L138.668 11.6498C138.452 11.3309 138.362 10.9522 138.398 10.5137L139.208 8.48065L132.805 8.36106C132.661 9.23805 132.472 10.0951 132.238 10.9322C132.004 11.7694 131.67 12.5666 131.238 13.324C130.986 13.5233 130.716 13.6429 130.428 13.6828ZM121.053 12.7261V10.2745H118.567L118.621 12.7261H121.053ZM127.24 12.3075L127.294 9.73634H125.078V12.3075H127.24ZM120.566 8.06208L120.026 7.76311C119.666 7.14523 119.504 6.43766 119.54 5.64039L117.324 5.70019C117.036 5.66032 116.784 5.54073 116.568 5.34142C116.352 5.06237 116.262 4.70361 116.298 4.26511L116.568 3.66716C116.964 3.42798 117.396 3.30839 117.865 3.30839C118.333 3.30839 118.801 3.30839 119.27 3.30839L119.162 2.1125L119.432 1.51455C119.72 1.27537 120.062 1.17571 120.458 1.21557L120.999 1.51455C121.251 2.03277 121.377 2.63072 121.377 3.30839L124.97 3.42798C124.862 2.71044 124.97 2.07263 125.294 1.51455C125.547 1.27537 125.871 1.17571 126.267 1.21557L126.807 1.51455C127.095 2.07263 127.186 2.71044 127.077 3.42798C127.906 3.30839 128.644 3.42798 129.293 3.78675C129.509 4.06579 129.599 4.42456 129.563 4.86306L129.293 5.46101C128.969 5.70019 128.608 5.81978 128.212 5.81978L126.807 5.75998C126.807 6.19848 126.699 6.59711 126.483 6.95588C126.231 7.19506 125.907 7.29472 125.511 7.25485L124.97 6.95588C124.79 6.67684 124.7 6.2782 124.7 5.75998L121.647 5.64039L121.836 7.13526L121.539 7.76311C121.287 8.00229 120.963 8.10195 120.566 8.06208Z" fill="#212529"/>
<path d="M93.8749 28.7221C93.3345 28.6424 93.0058 28.3833 92.8887 27.9448C92.7717 27.5063 92.6951 26.0114 92.6591 23.4602C92.6771 22.5632 92.8482 22.0849 93.1724 22.0251C93.4966 21.9653 97.9454 21.9354 106.519 21.9354C107.077 21.9752 107.356 22.2593 107.356 22.7875C107.356 23.3156 107.356 24.8554 107.356 27.4066C107.32 28.0245 107.091 28.3683 106.667 28.4381C106.244 28.5078 101.98 28.6025 93.8749 28.7221ZM105.222 26.7489L105.168 23.6993H94.7934L94.8475 26.988L105.222 26.7489ZM108.329 21.1581L89.309 20.8591C89.0208 20.8192 88.7687 20.6996 88.5525 20.5003C88.3364 20.2213 88.2464 19.8625 88.2824 19.424L88.5525 18.8261L89.0929 18.5271L95.4418 18.5869L95.3338 17.6302C95.3698 17.3112 95.4779 17.0322 95.658 16.793C95.9101 16.5538 96.2343 16.4542 96.6306 16.4941L97.1709 16.793C97.4231 17.3511 97.5492 17.9491 97.5492 18.5869L103.115 18.7065C103.115 17.9092 103.259 17.1917 103.547 16.5538C103.799 16.3147 104.123 16.215 104.519 16.2549L105.06 16.5538C105.312 16.9525 105.402 17.4508 105.33 18.0487L105.222 18.7065L110.598 18.7663L111.139 19.0652C111.355 19.3443 111.445 19.703 111.409 20.1415L111.139 20.7395C110.742 21.0185 110.301 21.1581 109.815 21.1581C109.328 21.1581 108.833 21.1581 108.329 21.1581ZM93.7668 16.0157C93.1544 15.8961 92.7807 15.6769 92.6456 15.358C92.5105 15.039 92.461 14.5607 92.497 13.9229C92.533 13.2851 92.5285 12.6921 92.4835 12.144C92.4385 11.5959 92.5781 11.2221 92.9023 11.0228C93.2265 10.8235 97.9904 10.7537 107.194 10.8135C107.771 10.7139 108.095 11.0328 108.167 11.7703V14.8796C108.023 15.4775 107.753 15.7765 107.356 15.7765L93.7668 16.0157ZM106.032 14.0425V12.5476L94.6313 12.6672V14.2816L106.032 14.0425ZM93.0914 10.1558C92.8032 10.1159 92.551 9.99635 92.3349 9.79703C92.1188 9.47813 92.0287 9.09942 92.0647 8.66093L92.3349 8.06298C93.2535 7.8238 95.4599 7.64442 98.954 7.52483V5.70108L89.7413 6.05985C89.4531 6.01999 89.2009 5.9004 88.9848 5.70108C88.7687 5.42204 88.6786 5.06327 88.7146 4.62478L88.9848 4.02683C89.7773 3.70792 90.6238 3.50861 91.5244 3.42888L99.0081 3.36909C98.972 2.61168 99.0981 1.91408 99.3863 1.27627C99.6385 1.03709 99.9627 0.937429 100.359 0.977292L100.899 1.27627C101.187 1.83435 101.259 2.53196 101.115 3.36909H110.22C110.616 3.36909 110.977 3.48868 111.301 3.72785C111.517 4.04676 111.607 4.42546 111.571 4.86396L111.301 5.46191C110.941 5.74095 110.526 5.84061 110.058 5.76088L101.061 5.70108V7.52483H107.059C107.365 7.56469 107.644 7.68428 107.897 7.8836C108.113 8.16264 108.203 8.52141 108.167 8.9599L107.897 9.55785C107.608 9.79703 107.275 9.91662 106.897 9.91662L93.0914 10.1558Z" fill="#212529"/>
<path d="M68.9933 28.5409C68.453 28.4213 67.9487 28.1722 67.4804 27.7935C67.0121 27.4148 66.5618 27.0261 66.1295 26.6275C65.9134 26.3484 65.8234 25.9897 65.8594 25.5512L66.1295 24.9532C66.3817 24.714 66.7059 24.6144 67.1021 24.6542C67.4624 24.8536 67.8046 25.0728 68.1288 25.312L68.0748 23.3388H63.4008V27.345L63.1307 27.943C62.8785 28.1821 62.5543 28.2818 62.1581 28.2419L61.6177 27.943C61.4376 27.6241 61.3115 27.2852 61.2395 26.9264L61.1855 14.5788C61.2035 13.7417 61.4601 13.2932 61.9554 13.2334C62.4507 13.1736 63.7926 13.1637 65.9809 13.2035C68.1693 13.2434 69.4166 13.2833 69.7228 13.3231C70.029 13.363 70.1731 13.7018 70.1551 14.3396C70.137 14.9774 70.1821 19.3724 70.2901 27.5244C70.146 28.2818 69.7138 28.6206 68.9933 28.5409ZM80.3674 28.0028C79.3948 27.923 78.4267 27.8234 77.4631 27.7038C76.4995 27.5842 75.635 27.1507 74.8695 26.4032C74.104 25.6558 73.6357 24.8237 73.4646 23.9068C73.2935 22.99 73.1719 20.4586 73.0999 16.3129C73.1359 15.994 73.244 15.7149 73.4241 15.4757C73.7123 15.1967 74.0725 15.097 74.5048 15.1768L75.0451 15.4757C75.2612 15.7548 75.3513 16.1135 75.3153 16.552L75.2612 18.4057L81.1779 18.2263L81.7183 18.5253C81.9344 18.8043 82.0245 19.1631 81.9884 19.6016L81.7183 20.1995C81.4661 20.3988 81.1959 20.5184 80.9078 20.5583L75.2072 20.7377C75.2792 21.814 75.3693 22.6561 75.4774 23.264C75.5854 23.8719 75.8916 24.3752 76.3959 24.7738C76.9003 25.1725 77.5442 25.4116 78.3276 25.4914C79.1111 25.5711 79.8991 25.6309 80.6916 25.6708C80.5836 24.8735 80.6916 24.1559 81.0158 23.5181C81.268 23.279 81.5922 23.1793 81.9884 23.2192L82.5288 23.5181C82.7449 23.9965 82.844 24.5446 82.8259 25.1625C82.8079 25.7804 82.7944 26.3584 82.7854 26.8965C82.7764 27.4347 82.5783 27.7636 82.1911 27.8832C81.8038 28.0028 81.1959 28.0426 80.3674 28.0028ZM68.0207 20.9769V19.2428L63.4008 19.183V20.9769H68.0207ZM67.9667 16.9108L67.9127 15.5953L63.2928 15.6551L63.3468 16.851L67.9667 16.9108ZM79.773 14.8778C78.8725 14.7981 77.9854 14.7084 77.1119 14.6087C76.2383 14.509 75.4323 14.0706 74.6939 13.2932C73.9554 12.5159 73.5412 11.4695 73.4511 10.154C73.361 8.8385 73.262 6.57627 73.1539 3.36728C73.1899 3.04837 73.298 2.76933 73.4781 2.53015C73.7663 2.29097 74.1085 2.19131 74.5048 2.23117L75.0451 2.53015C75.2612 2.80919 75.3513 3.16796 75.3153 3.60646L75.2612 4.86215C78.4852 4.66283 80.5655 4.52331 81.5021 4.44358L82.0425 4.74256C82.2586 5.0216 82.3487 5.38037 82.3126 5.81887L82.0425 6.41681C81.0338 6.77558 78.8094 7.03469 75.3693 7.19415C75.4413 8.37011 75.5044 9.28697 75.5584 9.94471C75.6125 10.6025 75.9276 11.1705 76.504 11.6489C77.0804 12.1272 77.8053 12.3963 78.6789 12.4561C79.5524 12.5159 80.6556 12.5259 81.9884 12.486L82.5288 12.785C82.7449 13.064 82.835 13.4228 82.7989 13.8613L82.5288 14.4592C82.1325 14.7383 81.7002 14.8778 81.232 14.8778C80.7637 14.8778 80.2774 14.8778 79.773 14.8778ZM71.3708 12.8448L70.8305 12.5458L69.8579 10.6921C68.1288 10.8516 66.5753 11.0011 65.1975 11.1406C63.8196 11.2801 62.4462 11.3898 61.0774 11.4695C60.1948 11.33 59.8346 10.8715 59.9967 10.0942L64.2113 2.05179C64.5175 1.77275 64.8688 1.65316 65.265 1.69302L65.8053 1.992C66.0215 2.3109 66.1115 2.6896 66.0755 3.1281C65.8594 3.60646 64.8597 5.57969 63.0766 9.04779C64.1393 8.90827 65.1029 8.79864 65.9674 8.71892C66.832 8.63919 67.6965 8.53953 68.5611 8.41994C67.9847 7.86186 67.6785 7.19415 67.6425 6.41681L67.9127 5.81887C68.2008 5.53982 68.5611 5.44016 68.9933 5.51989L69.5337 5.81887C70.3262 7.11442 70.9746 8.21066 71.4789 9.10758C71.9832 10.0045 72.3614 10.9513 72.6136 11.9478L72.3434 12.5458C72.0913 12.785 71.7671 12.8846 71.3708 12.8448Z" fill="#212529"/>
<path d="M48.975 28.3634C48.4347 28.2039 47.9304 27.9349 47.4621 27.5562C46.9938 27.1775 46.5435 26.7689 46.1113 26.3304C45.8591 26.0115 45.751 25.6328 45.7871 25.1943L46.0572 24.5963C46.3094 24.3571 46.6336 24.2575 47.0298 24.2973C47.4621 24.6163 47.8944 24.9352 48.3266 25.2541C48.3447 18.1584 48.2906 11.9597 48.1645 6.65787L32.6839 7.07643C32.3957 7.03657 32.1436 6.91698 31.9274 6.71766C31.7113 6.43862 31.6212 6.07985 31.6573 5.64136L31.9274 5.04341C32.3957 4.84409 32.909 4.7245 33.4674 4.68464C34.0257 4.64477 40.6989 4.46539 53.4869 4.14648L54.0272 4.44546C54.2433 4.7245 54.3334 5.08327 54.2974 5.52177L54.0272 6.11971C53.4869 6.39876 52.8925 6.52831 52.2441 6.50838C51.5957 6.48845 50.9473 6.49841 50.2989 6.53828C50.4069 11.7604 50.461 18.0787 50.461 25.4932C50.461 26.4101 50.3484 27.1376 50.1233 27.6758C49.8981 28.2139 49.5154 28.4431 48.975 28.3634ZM43.9499 21.1581L37.4118 21.0385C36.6374 21.1183 36.2186 20.8093 36.1556 20.1117C36.0925 19.4141 35.9439 16.8828 35.7098 12.5178C35.7998 11.6806 36.133 11.2322 36.7094 11.1724C37.2858 11.1126 38.6636 11.0578 40.843 11.0079C43.0223 10.9581 44.2966 10.988 44.6659 11.0976C45.0351 11.2073 45.1747 11.8102 45.0846 12.9064L45.1927 19.8426C45.1747 20.7196 44.7604 21.1581 43.9499 21.1581ZM43.0854 18.7663L42.9233 13.325L38.0062 13.4446L38.2223 18.7065L43.0854 18.7663Z" fill="#212529"/>
<path d="M6.28948 28.9593L5.74915 28.6603C5.42494 27.7834 5.28085 26.8266 5.31688 25.7902L5.10074 13.6219C4.77654 14.18 4.51538 14.7381 4.31725 15.2962C4.11913 15.8543 3.89399 16.4124 3.64183 16.9705C3.38968 17.2096 3.06547 17.3093 2.66923 17.2694L2.12889 16.9705C1.91275 16.6516 1.80469 16.2928 1.80469 15.8941C2.74127 13.6219 3.67786 11.3448 4.61444 9.06259C5.55102 6.78042 6.55065 4.5431 7.61331 2.35062C7.90149 2.07158 8.26171 1.95199 8.69398 1.99185L9.23432 2.29082C9.48648 2.60973 9.59454 2.98843 9.55852 3.42693C9.05421 4.34378 8.25271 6.29708 7.15402 9.28682L7.55927 28.0624L7.28911 28.6603C7.01894 28.8995 6.68573 28.9992 6.28948 28.9593ZM17.4474 28.481C16.727 28.1222 16.0606 27.604 15.4482 26.9263C14.8358 26.3682 14.4936 25.6905 14.4216 24.8933L14.6917 24.2953C14.9439 24.0561 15.2681 23.9565 15.6643 23.9963C15.9525 24.1159 16.2227 24.2953 16.4748 24.5345L16.5829 9.25692L11.5578 9.19713C11.3416 9.8748 11.1525 10.5525 10.9904 11.2302C10.8283 11.9078 10.6032 12.5656 10.315 13.2034C10.0628 13.4426 9.73863 13.5422 9.34239 13.5024L8.80205 13.2034C8.58591 12.8845 8.49586 12.5058 8.53188 12.0673C8.92813 10.5126 9.39642 8.95297 9.93676 7.38833C10.4771 5.8237 10.9814 4.28398 11.4497 2.76918C11.7379 2.53 12.0801 2.43034 12.4763 2.47021L13.0167 2.76918C13.2328 3.08809 13.3229 3.46679 13.2868 3.90528C12.8186 5.38022 12.5304 6.35687 12.4223 6.83523L25.2013 6.89503C26.0478 6.89503 26.318 7.38335 26.0118 8.36C25.8677 9.07754 25.6516 9.74525 25.3634 10.3631C25.0752 10.981 24.769 11.6089 24.4448 12.2467C24.1926 12.4858 23.8684 12.5855 23.4722 12.5456L22.9319 12.2467C22.7157 11.9278 22.6257 11.5491 22.6617 11.1106L23.4182 9.31672H18.7442L18.6902 27.584C18.5821 28.461 18.1679 28.76 17.4474 28.481ZM23.9585 22.8304L23.4182 22.5314C23.0219 21.774 22.6257 21.0166 22.2294 20.2592C21.8332 19.5018 21.0497 18.5451 19.879 17.389L19.8249 16.6715L20.0951 16.0735C20.3833 15.7945 20.7525 15.6948 21.2028 15.7746L21.7431 16.0735C23.148 17.8674 24.0486 19.0932 24.4448 19.7509C24.841 20.4087 25.0932 21.1362 25.2013 21.9334L24.9311 22.5314C24.6789 22.7706 24.3547 22.8702 23.9585 22.8304ZM10.9094 22.651C10.6212 22.6111 10.369 22.4915 10.1529 22.2922C9.97278 22.0132 9.86471 21.6942 9.82869 21.3355C10.1169 20.4585 10.4231 19.5915 10.7473 18.7344C11.0715 17.8773 11.4497 17.0303 11.882 16.1931C12.2062 15.8742 12.5844 15.7546 13.0167 15.8344L13.557 16.1333C13.7731 16.4124 13.8632 16.7711 13.8272 17.2096C13.1428 18.6447 12.6835 19.6911 12.4493 20.3489C12.2152 21.0066 11.972 21.6544 11.7199 22.2922C11.4677 22.4915 11.1975 22.6111 10.9094 22.651Z" fill="#212529"/>
</svg>
