<svg width="200" height="36" viewBox="0 0 200 36" fill="none" xmlns="http://www.w3.org/2000/svg">
<rect width="200" height="20" transform="translate(0 15.293)" fill="#FEE6B2"/>
<path d="M168.425 35.0651C167.447 35.1932 167.009 34.7576 167.112 33.7582L167.035 25.2636C166.418 26.0835 165.774 26.7754 165.105 27.3392H164.488C164.128 27.1854 163.87 26.9292 163.716 26.5704V25.9554C164.591 24.7254 165.414 23.4826 166.186 22.227C166.958 20.9714 167.678 19.6773 168.347 18.3448C168.656 18.0886 169.042 17.9861 169.505 18.0373C169.865 18.1911 170.123 18.4473 170.277 18.8061V19.4979L169.505 21.1892L174.947 21.3429L176.414 17.8836C176.723 17.6786 177.083 17.6017 177.495 17.6529C177.855 17.8067 178.112 18.0629 178.266 18.4217V19.0367L177.417 21.3429C178.755 21.2917 179.99 21.4454 181.123 21.8042C181.328 22.0604 181.406 22.3936 181.354 22.8036C181.2 23.1623 180.942 23.4186 180.582 23.5723H176.259L176.337 24.9561C177.366 24.8536 178.292 25.0073 179.116 25.4173C179.321 25.6736 179.399 26.0067 179.347 26.4167C179.193 26.7754 178.935 27.0317 178.575 27.1854H176.337V28.6076L179.27 28.6845C179.733 28.8382 180.068 29.1457 180.273 29.607V30.222C180.119 30.5807 179.862 30.837 179.502 30.9907L176.337 30.837L176.259 32.8357L181.817 32.7589C182.177 32.9126 182.435 33.1689 182.589 33.5276V34.1426C182.435 34.5014 182.177 34.7576 181.817 34.9114L168.425 35.0651ZM197.371 34.8345L196.522 34.3732L190.077 25.8785C189.562 27.3136 188.957 28.7037 188.263 30.049C187.568 31.3943 186.757 32.682 185.831 33.912C185.419 34.2707 184.931 34.4245 184.365 34.3732L183.593 33.9889C183.284 33.6301 183.155 33.1689 183.207 32.6051C184.956 30.0939 186.333 27.4096 187.336 24.5525C188.34 21.6953 188.996 19.4787 189.305 17.9028C189.614 16.3268 189.845 14.5267 189.999 12.5023C190.051 12.0923 190.205 11.7336 190.463 11.4261C190.823 11.1186 191.299 10.9904 191.891 11.0417L192.663 11.4261L193.049 12.1948C192.843 15.7311 192.573 17.9989 192.238 18.9982C191.904 19.9976 191.608 21.0098 191.35 22.0348C194.078 25.9811 195.802 28.4475 196.522 29.434C197.243 30.4206 197.847 31.1957 198.336 31.7595C198.825 32.3232 199.095 32.9639 199.147 33.6814L198.761 34.4501C198.4 34.7576 197.937 34.8857 197.371 34.8345ZM174.33 32.7589L174.098 30.837H169.351V32.8357L174.33 32.7589ZM174.098 28.6076V27.1086L169.351 27.0317V28.6076H174.098ZM174.098 24.8792L174.175 23.5723L169.351 23.4186V24.8023L174.098 24.8792ZM166.032 17.4607C165.234 17.3582 164.777 17.1212 164.662 16.7496C164.546 16.3781 164.488 14.2961 164.488 10.5036C164.617 9.60668 165.131 9.29918 166.032 9.58106L172.014 9.73481C172.374 9.88856 172.632 10.1448 172.786 10.5036L172.709 16.4229C172.734 17.0636 172.426 17.3454 171.782 17.2686L166.032 17.4607ZM175.41 16.8842C174.484 16.9611 173.969 16.5511 173.867 15.6542V9.81168C174.021 9.45293 174.278 9.19668 174.638 9.04293H179.81C180.891 9.01731 181.47 9.29278 181.547 9.86934C181.624 10.4459 181.65 11.4004 181.624 12.7329C181.599 14.0654 181.547 15.1096 181.47 15.8656C181.393 16.6215 180.917 16.9354 180.042 16.8073L175.41 16.8842ZM183.747 16.3461C183.335 16.2948 182.975 16.1411 182.666 15.8848C182.358 15.5261 182.229 15.0648 182.28 14.5011C183.31 12.4511 184.043 10.2922 184.48 8.02434C184.918 5.75653 185.445 3.52075 186.063 1.317C186.423 1.0095 186.886 0.881373 187.452 0.932623L188.224 1.317C188.584 1.77825 188.713 2.342 188.61 3.00825C188.301 4.13575 188.07 5.28887 187.915 6.46762C194.477 6.46762 198.207 6.53809 199.108 6.67903C200.009 6.81996 200.227 7.45418 199.764 8.58168C198.838 11.1954 198.143 12.9123 197.68 13.7323C197.32 14.0398 196.857 14.1679 196.291 14.1167L195.519 13.7323C195.21 13.3223 195.081 12.8354 195.133 12.2717L196.291 9.65793L187.143 9.50418C186.938 10.6317 186.667 11.7336 186.333 12.8098C185.998 13.8861 185.522 14.9111 184.905 15.8848C184.545 16.1411 184.159 16.2948 183.747 16.3461ZM170.354 15.1161V11.9642H166.804L166.881 15.1161H170.354ZM179.193 14.5779L179.27 11.2723H176.105V14.5779H179.193ZM169.66 9.11981L168.888 8.73543C168.373 7.94106 168.142 7.03137 168.193 6.00637L165.028 6.08325C164.617 6.032 164.256 5.87825 163.948 5.622C163.639 5.26325 163.51 4.802 163.562 4.23825L163.948 3.4695C164.514 3.162 165.131 3.00825 165.8 3.00825C166.469 3.00825 167.138 3.00825 167.807 3.00825L167.653 1.47075L168.039 0.701998C168.45 0.394498 168.939 0.266373 169.505 0.317623L170.277 0.701998C170.637 1.36825 170.818 2.137 170.818 3.00825L175.951 3.162C175.796 2.2395 175.951 1.4195 176.414 0.701998C176.774 0.394498 177.237 0.266373 177.803 0.317623L178.575 0.701998C178.987 1.4195 179.116 2.2395 178.961 3.162C180.145 3.00825 181.2 3.162 182.126 3.62325C182.435 3.982 182.563 4.44325 182.512 5.007L182.126 5.77575C181.663 6.08325 181.148 6.237 180.582 6.237L178.575 6.16012C178.575 6.72387 178.421 7.23637 178.112 7.69762C177.752 8.00512 177.289 8.13325 176.723 8.082L175.951 7.69762C175.693 7.33887 175.565 6.82637 175.565 6.16012L171.203 6.00637L171.474 7.92825L171.049 8.73543C170.689 9.04293 170.226 9.17106 169.66 9.11981Z" fill="#212529"/>
<path d="M131.529 35.681C130.757 35.5785 130.287 35.2453 130.12 34.6816C129.953 34.1178 129.844 32.196 129.792 28.916C129.818 27.7628 130.062 27.1478 130.525 27.071C130.989 26.9941 137.344 26.9557 149.592 26.9557C150.389 27.0069 150.788 27.3721 150.788 28.0511C150.788 28.7302 150.788 30.7097 150.788 33.9897C150.737 34.7841 150.409 35.2261 149.804 35.3158C149.199 35.4055 143.108 35.5272 131.529 35.681ZM147.739 33.1441L147.662 29.2235H132.841L132.918 33.4516L147.739 33.1441ZM152.177 25.9563L125.006 25.5719C124.595 25.5207 124.234 25.3669 123.926 25.1107C123.617 24.7519 123.488 24.2907 123.54 23.7269L123.926 22.9582L124.697 22.5738L133.767 22.6507L133.613 21.4207C133.664 21.0107 133.819 20.6519 134.076 20.3444C134.436 20.0369 134.9 19.9088 135.466 19.96L136.238 20.3444C136.598 21.0619 136.778 21.8307 136.778 22.6507L144.729 22.8044C144.729 21.7794 144.934 20.8569 145.346 20.0369C145.706 19.7294 146.169 19.6013 146.735 19.6525L147.507 20.0369C147.868 20.5494 147.996 21.19 147.893 21.9588L147.739 22.8044L155.419 22.8813L156.191 23.2657C156.5 23.6244 156.629 24.0857 156.577 24.6494L156.191 25.4182C155.625 25.7769 154.995 25.9563 154.3 25.9563C153.605 25.9563 152.898 25.9563 152.177 25.9563ZM131.374 19.345C130.5 19.1913 129.966 18.9094 129.773 18.4994C129.58 18.0894 129.509 17.4744 129.56 16.6544C129.612 15.8344 129.606 15.0721 129.541 14.3674C129.477 13.6627 129.676 13.1822 130.139 12.926C130.603 12.6697 137.408 12.58 150.556 12.6569C151.38 12.5288 151.843 12.9388 151.946 13.8869V17.8844C151.74 18.6532 151.354 19.0375 150.788 19.0375L131.374 19.345ZM148.897 16.8082V14.8863L132.61 15.04V17.1157L148.897 16.8082ZM130.41 11.8113C129.998 11.76 129.638 11.6063 129.329 11.35C129.02 10.94 128.892 10.4532 128.943 9.88942L129.329 9.12067C130.641 8.81317 133.793 8.58254 138.785 8.42879V6.08411L125.624 6.54535C125.212 6.4941 124.852 6.34036 124.543 6.08411C124.234 5.72536 124.106 5.26411 124.157 4.70036L124.543 3.93161C125.675 3.52161 126.885 3.26536 128.171 3.16286L138.862 3.08598C138.811 2.11223 138.991 1.21536 139.402 0.395357C139.763 0.0878571 140.226 -0.0402678 140.792 0.0109821L141.564 0.395357C141.975 1.11286 142.078 2.00973 141.872 3.08598H154.879C155.445 3.08598 155.96 3.23973 156.423 3.54723C156.732 3.95723 156.86 4.44411 156.809 5.00786L156.423 5.77661C155.908 6.13536 155.317 6.26348 154.648 6.16098L141.795 6.08411V8.42879H150.363C150.801 8.48004 151.2 8.63379 151.56 8.89004C151.869 9.24879 151.997 9.71004 151.946 10.2738L151.56 11.0425C151.148 11.35 150.672 11.5038 150.132 11.5038L130.41 11.8113Z" fill="#212529"/>
<path d="M95.9841 35.4503C95.2122 35.2966 94.4917 34.9762 93.8227 34.4894C93.1538 34.0025 92.5105 33.5028 91.893 32.9903C91.5842 32.6316 91.4555 32.1703 91.507 31.6066L91.893 30.8378C92.2532 30.5303 92.7163 30.4022 93.2824 30.4534C93.797 30.7097 94.2859 30.9916 94.749 31.2991L94.6718 28.7622H87.9948V33.9128L87.6089 34.6816C87.2486 34.989 86.7855 35.1172 86.2194 35.0659L85.4475 34.6816C85.1902 34.2716 85.0101 33.8359 84.9072 33.3747L84.83 17.5C84.8557 16.4237 85.2224 15.8472 85.93 15.7703C86.6375 15.6934 88.5545 15.6806 91.6807 15.7319C94.8069 15.7831 96.5888 15.8344 97.0262 15.8856C97.4636 15.9369 97.6694 16.3725 97.6437 17.1925C97.618 18.0125 97.6823 23.6628 97.8367 34.1434C97.6308 35.1172 97.0133 35.5528 95.9841 35.4503ZM112.233 34.7584C110.843 34.6559 109.46 34.5278 108.084 34.3741C106.707 34.2203 105.472 33.663 104.379 32.702C103.285 31.7411 102.616 30.6712 102.372 29.4925C102.127 28.3137 101.954 25.0594 101.851 19.7294C101.902 19.3194 102.056 18.9606 102.314 18.6531C102.725 18.2944 103.24 18.1662 103.858 18.2687L104.629 18.6531C104.938 19.0119 105.067 19.4731 105.015 20.0369L104.938 22.42L113.391 22.1894L114.163 22.5737C114.471 22.9325 114.6 23.3937 114.549 23.9575L114.163 24.7262C113.802 24.9825 113.416 25.1362 113.005 25.1875L104.861 25.4181C104.964 26.8019 105.093 27.8845 105.247 28.6661C105.401 29.4476 105.839 30.0947 106.559 30.6072C107.28 31.1197 108.2 31.4272 109.319 31.5297C110.438 31.6322 111.564 31.7091 112.696 31.7603C112.542 30.7353 112.696 29.8128 113.159 28.9928C113.519 28.6853 113.982 28.5572 114.549 28.6084L115.32 28.9928C115.629 29.6078 115.771 30.3125 115.745 31.1069C115.719 31.9012 115.7 32.6444 115.687 33.3362C115.674 34.0281 115.391 34.4509 114.838 34.6047C114.285 34.7584 113.416 34.8097 112.233 34.7584ZM94.5946 25.7256V23.4962L87.9948 23.4194V25.7256H94.5946ZM94.5175 20.4981L94.4403 18.8069L87.8404 18.8837L87.9176 20.4212L94.5175 20.4981ZM111.384 17.8844C110.097 17.7819 108.83 17.6666 107.582 17.5384C106.334 17.4103 105.183 16.8466 104.128 15.8472C103.073 14.8478 102.481 13.5025 102.352 11.8112C102.224 10.12 102.082 7.21156 101.928 3.08594C101.979 2.67594 102.134 2.31719 102.391 2.00969C102.803 1.70219 103.292 1.57406 103.858 1.62531L104.629 2.00969C104.938 2.36844 105.067 2.82969 105.015 3.39344L104.938 5.00781C109.544 4.75156 112.516 4.57219 113.854 4.46969L114.626 4.85406C114.934 5.21281 115.063 5.67406 115.012 6.23781L114.626 7.00656C113.185 7.46781 110.007 7.80094 105.093 8.00594C105.196 9.51781 105.286 10.6966 105.363 11.5422C105.44 12.3878 105.89 13.1181 106.714 13.7331C107.537 14.3481 108.573 14.6941 109.821 14.7709C111.069 14.8478 112.644 14.8606 114.549 14.8094L115.32 15.1937C115.629 15.5525 115.758 16.0137 115.706 16.5775L115.32 17.3462C114.754 17.705 114.137 17.8844 113.468 17.8844C112.799 17.8844 112.104 17.8844 111.384 17.8844ZM99.3805 15.2706L98.6086 14.8862L97.2191 12.5031C94.749 12.7081 92.5298 12.9003 90.5614 13.0797C88.593 13.2591 86.6311 13.4 84.6756 13.5025C83.4148 13.3231 82.9002 12.7337 83.1318 11.7344L89.1527 1.39469C89.5901 1.03594 90.0918 0.882188 90.6579 0.933437L91.4298 1.31781C91.7386 1.72781 91.8672 2.21469 91.8158 2.77844C91.507 3.39344 90.079 5.93031 87.5317 10.3891C89.0498 10.2097 90.4263 10.0687 91.6614 9.96625C92.8964 9.86375 94.1315 9.73562 95.3666 9.58187C94.5432 8.86437 94.1058 8.00594 94.0543 7.00656L94.4403 6.23781C94.852 5.87906 95.3666 5.75094 95.9841 5.85344L96.756 6.23781C97.8881 7.90344 98.8144 9.31281 99.5349 10.4659C100.255 11.6191 100.796 12.8362 101.156 14.1175L100.77 14.8862C100.41 15.1937 99.9466 15.3219 99.3805 15.2706Z" fill="#212529"/>
<path d="M67.3862 35.2203C66.6143 35.0153 65.8939 34.6694 65.2249 34.1825C64.5559 33.6956 63.9127 33.1703 63.2951 32.6066C62.9349 32.1966 62.7805 31.7097 62.832 31.1459L63.2179 30.3772C63.5782 30.0697 64.0413 29.9416 64.6074 29.9928C65.2249 30.4028 65.8424 30.8128 66.46 31.2228C66.4857 22.1003 66.4085 14.1309 66.2284 7.31469L44.1132 7.85281C43.7015 7.80156 43.3412 7.64781 43.0325 7.39156C42.7237 7.03281 42.5951 6.57156 42.6465 6.00781L43.0325 5.23906C43.7015 4.98281 44.4348 4.82906 45.2324 4.77781C46.0301 4.72656 55.5632 4.49594 73.8317 4.08594L74.6036 4.47031C74.9124 4.82906 75.041 5.29031 74.9896 5.85406L74.6036 6.62281C73.8317 6.98156 72.9826 7.14812 72.0563 7.1225C71.13 7.09687 70.2037 7.10969 69.2774 7.16094C69.4318 13.8747 69.509 21.9978 69.509 31.5303C69.509 32.7091 69.3482 33.6444 69.0266 34.3362C68.7049 35.0281 68.1582 35.3228 67.3862 35.2203ZM60.2075 25.9569L50.8674 25.8031C49.761 25.9056 49.1627 25.5084 49.0727 24.6116C48.9826 23.7147 48.7703 20.4603 48.4359 14.8484C48.5645 13.7722 49.0405 13.1956 49.8639 13.1187C50.6873 13.0419 52.6556 12.9714 55.769 12.9073C58.8824 12.8433 60.7028 12.8817 61.2303 13.0227C61.7577 13.1636 61.9571 13.9387 61.8285 15.3481L61.9829 24.2656C61.9571 25.3931 61.3653 25.9569 60.2075 25.9569ZM58.9724 22.8819L58.7409 15.8862L51.7165 16.04L52.0252 22.805L58.9724 22.8819Z" fill="#212529"/>
<path d="M6.40686 35.9888L5.63495 35.6044C5.1718 34.4769 4.96596 33.2469 5.01742 31.9144L4.70865 16.2704C4.24551 16.9879 3.87242 17.7054 3.58938 18.4229C3.30635 19.1404 2.98472 19.8579 2.6245 20.5754C2.26427 20.8829 1.80112 21.011 1.23506 20.9598L0.463146 20.5754C0.154382 20.1654 0 19.7041 0 19.1916C1.33798 16.2704 2.67596 13.3427 4.01393 10.4087C5.35191 7.47461 6.77995 4.5982 8.29804 1.77945C8.70972 1.4207 9.22433 1.26695 9.84186 1.3182L10.6138 1.70258C10.974 2.11258 11.1284 2.59945 11.0769 3.1632C10.3565 4.34195 9.21146 6.8532 7.64191 10.697L8.22084 34.8357L7.83489 35.6044C7.44893 35.9119 6.97292 36.0401 6.40686 35.9888ZM22.3468 35.3738C21.3176 34.9126 20.3656 34.2463 19.4907 33.3751C18.6159 32.6576 18.127 31.7863 18.0241 30.7613L18.4101 29.9926C18.7703 29.6851 19.2334 29.5569 19.7995 29.6082C20.2112 29.7619 20.5971 29.9926 20.9574 30.3001L21.1117 10.6585L13.933 10.5816C13.6242 11.4529 13.354 12.3241 13.1225 13.1954C12.8909 14.0666 12.5693 14.9123 12.1576 15.7323C11.7974 16.0398 11.3342 16.1679 10.7681 16.1166L9.99624 15.7323C9.68747 15.3223 9.55882 14.8354 9.61028 14.2716C10.1764 12.2729 10.8453 10.2677 11.6173 8.25617C12.3892 6.24461 13.1096 4.26508 13.7786 2.31758C14.1903 2.01008 14.6792 1.88195 15.2452 1.9332L16.0171 2.31758C16.3259 2.72758 16.4546 3.21445 16.4031 3.7782C15.7341 5.67445 15.3224 6.93008 15.168 7.54508L33.4237 7.62195C34.633 7.62195 35.019 8.24976 34.5816 9.50539C34.3757 10.4279 34.067 11.2863 33.6553 12.0807C33.2436 12.8751 32.8062 13.6823 32.343 14.5023C31.9828 14.8098 31.5197 14.9379 30.9536 14.8866L30.1817 14.5023C29.8729 14.0923 29.7443 13.6054 29.7957 13.0416L30.8764 10.7354H24.1994L24.1222 34.2207C23.9678 35.3482 23.376 35.7326 22.3468 35.3738ZM31.6483 28.1091L30.8764 27.7248C30.3103 26.751 29.7443 25.7773 29.1782 24.8035C28.6121 23.8298 27.4929 22.5998 25.8204 21.1135L25.7432 20.191L26.1292 19.4223C26.5409 19.0635 27.0683 18.9354 27.7116 19.0379L28.4835 19.4223C30.4905 21.7285 31.777 23.3044 32.343 24.1501C32.9091 24.9957 33.2693 25.931 33.4237 26.956L33.0378 27.7248C32.6775 28.0323 32.2144 28.1604 31.6483 28.1091ZM13.0067 27.8785C12.595 27.8273 12.2348 27.6735 11.926 27.4173C11.6687 27.0585 11.5143 26.6485 11.4629 26.1873C11.8746 25.0598 12.312 23.9451 12.7751 22.8432C13.2383 21.7413 13.7786 20.6523 14.3961 19.576C14.8593 19.166 15.3996 19.0123 16.0171 19.1148L16.7891 19.4991C17.0978 19.8579 17.2265 20.3191 17.175 20.8829C16.1973 22.7279 15.5411 24.0732 15.2066 24.9188C14.8721 25.7644 14.5248 26.5973 14.1646 27.4173C13.8043 27.6735 13.4184 27.8273 13.0067 27.8785Z" fill="#212529"/>
</svg>
