<svg width="140" height="112" viewBox="0 0 140 112" fill="none" xmlns="http://www.w3.org/2000/svg">
<path d="M32.9033 71.3604C35.3435 66.4265 40.7723 63.1041 46.2402 63.7627C49.2038 64.1199 52.1378 65.8171 52.6748 68.8252C53.1995 71.7642 52.4223 75.0987 51.2627 78.0752L50.9932 78.7666L51.7354 78.7559C54.2043 78.7211 56.6362 79.4357 58.5078 81.083C60.8667 83.16 61.6526 86.2094 61.3086 89.2988C60.9639 92.3939 59.488 95.4615 57.4229 97.4834C53.4808 101.343 47.5277 101.847 42.8262 99.3428L42.165 98.9902L42.0938 99.7354C41.5396 105.493 37.2215 110.421 31.4375 111.349C28.2581 111.859 25.2048 111.116 23.2148 108.614L23.0254 108.367L22.7324 107.955C21.2931 105.871 20.2422 103.403 19.4775 100.891L19.2227 100.052L18.6309 100.698C16.9911 102.49 14.6404 103.545 12.1025 103.7C5.09748 104.128 -0.870798 97.3401 0.777344 90.3447C1.55099 87.0628 3.9654 84.474 6.66895 82.4443L7.21289 82.0459C9.80922 80.1904 12.746 78.8405 15.8213 78.0137L16.4189 77.8535L16.1367 77.3027C14.9112 74.9138 14.6017 72.1476 15.2793 69.7422C15.9325 67.4237 17.502 65.4338 20.083 64.4092L20.3359 64.3135C22.9677 63.3564 25.7328 63.9213 27.8477 65.7725C28.7088 66.5258 29.4149 67.4269 30.0791 68.4004C30.4112 68.8871 30.73 69.3874 31.0527 69.8955C31.3741 70.4015 31.7005 70.9157 32.041 71.4189L32.5225 72.1309L32.9033 71.3604Z" fill="#FEE6B2" stroke="black"/>
<path d="M111.019 8.18066C113.459 3.24685 118.888 -0.0755906 124.355 0.583008C127.319 0.940168 130.253 2.63737 130.79 5.64551C131.315 8.58453 130.538 11.919 129.378 14.8955L129.108 15.5869L129.851 15.5762C132.32 15.5414 134.751 16.256 136.623 17.9033C138.982 19.9803 139.768 23.0297 139.424 26.1191C139.079 29.2142 137.603 32.2818 135.538 34.3037C131.596 38.1634 125.643 38.6671 120.941 36.1631L120.28 35.8105L120.209 36.5557C119.655 42.3136 115.337 47.2416 109.553 48.1689C106.373 48.6789 103.32 47.9362 101.33 45.4346L101.141 45.1875L100.848 44.7754C99.4083 42.6912 98.3574 40.2233 97.5928 37.7109L97.3379 36.8721L96.7461 37.5186C95.1064 39.3105 92.7557 40.3652 90.2178 40.5205C83.2127 40.9479 77.2444 34.1604 78.8926 27.165C79.6662 23.8831 82.0806 21.2943 84.7842 19.2646L85.3281 18.8662C87.9245 17.0107 90.8612 15.6608 93.9365 14.834L94.5342 14.6738L94.252 14.123C93.0264 11.7341 92.7169 8.9679 93.3945 6.5625C94.0477 4.24401 95.6173 2.25412 98.1982 1.22949L98.4512 1.13379C101.083 0.176738 103.848 0.741629 105.963 2.59277C106.824 3.34612 107.53 4.2472 108.194 5.2207C108.526 5.70745 108.845 6.20768 109.168 6.71582C109.489 7.2218 109.816 7.73597 110.156 8.23926L110.638 8.95117L111.019 8.18066Z" fill="#FEE6B2" stroke="black"/>
</svg>
