<svg width="229" height="28" viewBox="0 0 229 28" fill="none" xmlns="http://www.w3.org/2000/svg">
<rect width="228" height="20" transform="translate(0 8)" fill="#FEE6B2"/>
<path d="M217.593 27.9916L217.047 27.6957C216.755 27.2619 216.646 26.7688 216.719 26.2167L216.883 22.2527C215.607 23.1205 214.313 23.9093 213.001 24.6193C211.689 25.3292 210.35 25.9011 208.983 26.335L208.436 26.0392C208.218 25.7236 208.126 25.3489 208.163 24.9151L208.436 24.3234C209.73 23.7318 211.006 23.0958 212.263 22.4154C213.521 21.7351 214.714 20.8624 215.844 19.7975H208.436C208.145 19.758 207.89 19.6397 207.671 19.4425C207.452 19.1664 207.361 18.8114 207.398 18.3775L207.671 17.7859C207.962 17.5493 208.291 17.4309 208.655 17.4309L216.937 17.5493C216.828 16.5632 216.937 15.6758 217.265 14.8869C217.521 14.6503 217.849 14.5517 218.249 14.5911L218.796 14.8869C219.088 15.6758 219.179 16.5632 219.07 17.5493L224.618 17.4901C225.129 17.4507 225.584 17.569 225.985 17.8451C226.204 18.1212 226.295 18.4761 226.259 18.91L225.985 19.5016C225.548 19.8172 225.038 19.9355 224.454 19.8566H219.78C220.91 20.7638 222.108 21.5181 223.375 22.1196C224.641 22.7211 225.912 23.2388 227.188 23.6726C227.407 23.9487 227.498 24.3037 227.461 24.7376L227.188 25.3292C226.896 25.6053 226.532 25.7039 226.095 25.625C224.855 25.27 223.648 24.8066 222.473 24.2347C221.297 23.6628 220.145 23.0613 219.015 22.4302L218.96 25.5067C218.997 26.2955 218.869 27.0252 218.577 27.6957C218.322 27.9324 217.994 28.031 217.593 27.9916ZM210.486 16.1885L209.885 15.8335C209.739 15.6363 209.685 15.3799 209.721 15.0644C209.83 14.7883 210.013 14.5911 210.268 14.4728C211.215 14.3939 212.136 14.246 213.029 14.0291C213.921 13.8121 214.787 13.4867 215.625 13.0529C214.058 12.7768 213.12 12.5845 212.81 12.476C212.5 12.3676 212.363 12.0076 212.4 11.3963L212.892 9.50308L210.65 9.56224L210.049 9.20726C209.903 9.01005 209.849 8.75368 209.885 8.43814C209.994 8.16204 210.177 7.96483 210.432 7.84651L213.439 7.72818C213.621 7.13655 213.858 6.5745 214.149 6.04203C214.368 5.84482 214.641 5.76594 214.969 5.80538C215.224 5.92371 215.407 6.12092 215.516 6.39701V6.95906L215.188 7.78735L220.108 7.84651C220.327 7.3732 220.564 6.89004 220.819 6.39701C221.001 6.23924 221.238 6.18008 221.53 6.21952C221.785 6.33785 221.967 6.54492 222.076 6.84074V7.43237L221.912 7.96483C222.386 7.96483 222.874 7.96483 223.375 7.96483C223.876 7.96483 224.327 8.08316 224.728 8.31981C224.874 8.51702 224.928 8.7734 224.892 9.08893C224.782 9.36503 224.6 9.56224 224.345 9.68057L221.147 9.6214C220.418 10.923 219.908 11.7907 219.616 12.2246C220.236 12.3429 220.874 12.4612 221.53 12.5796C222.186 12.6979 222.805 12.8951 223.388 13.1712C223.534 13.3684 223.589 13.6248 223.552 13.9403C223.443 14.2164 223.261 14.4136 223.006 14.5319H222.35C221.657 14.3347 220.956 14.177 220.245 14.0586C219.534 13.9403 218.833 13.822 218.14 13.7037C216.974 14.4925 215.753 15.0743 214.477 15.449C213.202 15.8237 211.871 16.0702 210.486 16.1885ZM217.757 11.8104C218.413 11.1005 218.905 10.3314 219.234 9.50308H214.641L214.204 10.9822L217.757 11.8104ZM207.124 9.6214L206.578 9.32559C206.25 8.53674 206.095 7.67395 206.113 6.7372C206.131 5.80045 206.104 5.03626 206.031 4.44463C205.958 3.853 206.058 3.41914 206.332 3.14304C206.605 2.86695 206.988 2.7289 207.48 2.7289C207.972 2.7289 210.814 2.80778 216.008 2.96555L215.844 0.954005L216.117 0.362374C216.409 0.0862795 216.755 -0.0320467 217.156 0.00739539L217.703 0.303211C218.031 1.13149 218.177 2.03866 218.14 3.02471C224.354 3.06416 227.657 3.16276 228.049 3.32053C228.441 3.4783 228.577 3.98118 228.459 4.82919C228.341 5.67719 228.281 6.42166 228.281 7.0626C228.281 7.70353 228.154 8.30009 227.899 8.85228C227.607 9.08893 227.279 9.22698 226.915 9.26642C226.623 9.22698 226.368 9.10865 226.149 8.91144C225.931 8.63535 225.839 8.28037 225.876 7.84651C226.095 7.09711 226.222 6.29841 226.259 5.4504L208.163 5.03626L208.382 8.73395L208.108 9.32559C207.853 9.56224 207.525 9.66084 207.124 9.6214Z" fill="#212529"/>
<path d="M180.2 27.1044C179.434 26.8283 178.778 26.2958 178.231 25.507C177.758 25.0731 177.521 24.5407 177.521 23.9096L177.794 23.318C178.049 23.0813 178.377 22.9827 178.778 23.0221L179.161 23.1405L179.325 17.1946C178.778 17.3918 178.259 17.5495 177.767 17.6679C177.275 17.7862 176.792 17.9045 176.318 18.0229C176.026 17.9834 175.771 17.8651 175.553 17.6679C175.334 17.3918 175.243 17.0368 175.279 16.6029L175.553 16.0113C176.172 15.7352 176.81 15.5183 177.466 15.3605C178.122 15.2027 178.76 15.0055 179.38 14.7689L179.434 7.46224L176.373 7.5214C176.081 7.48196 175.826 7.35377 175.607 7.13684C175.389 6.86075 175.298 6.50577 175.334 6.0719L175.607 5.48027C175.935 5.24362 176.3 5.12529 176.701 5.12529H179.434V2.2263C179.471 1.91076 179.58 1.63467 179.762 1.39802C180.054 1.16136 180.409 1.06276 180.828 1.1022L181.375 1.39802C181.594 1.67411 181.667 2.04881 181.594 2.52212V5.12529L183.89 5.00697L184.436 5.30278C184.655 5.57888 184.746 5.93386 184.71 6.36772L184.436 6.95935C184.036 7.21572 183.58 7.35377 183.07 7.37349C182.559 7.39321 182.067 7.42279 181.594 7.46224V13.8223C182.177 13.6251 182.705 13.5265 183.179 13.5265L183.726 13.8223C183.944 14.0984 184.036 14.4533 183.999 14.8872L183.726 15.4788C183.033 15.8338 182.304 16.1296 181.539 16.3663L181.43 26.1578C181.32 27.0255 180.91 27.341 180.2 27.1044ZM185.092 27.1636L184.546 26.8677C184.327 26.5916 184.236 26.2367 184.272 25.8028C185.074 24.659 185.721 23.4313 186.213 22.1199C186.705 20.8084 187.061 19.4625 187.279 18.082C187.534 17.8454 187.862 17.7468 188.263 17.7862L188.81 18.082C189.102 18.5553 189.193 19.1075 189.083 19.7386L188.755 21.4839C189.266 21.76 189.785 22.0065 190.313 22.2234C190.842 22.4404 191.379 22.6474 191.926 22.8446L191.981 15.4197L186.022 15.3605L185.475 15.0647C185.256 14.7886 185.165 14.4336 185.202 13.9998L185.475 13.4081C185.694 13.2109 185.949 13.0926 186.241 13.0532H199.061L199.607 13.349C199.826 13.6251 199.917 13.98 199.881 14.4139L199.607 15.0055C198.842 15.2816 198.031 15.4295 197.174 15.4493C196.318 15.469 195.297 15.4591 194.113 15.4197L194.058 18.2595L198.076 18.3187L198.623 18.6145C198.842 18.93 198.933 19.3047 198.897 19.7386L198.623 20.3302C198.186 20.6458 197.694 20.7641 197.147 20.6852L194.058 20.5669V23.318C195.097 23.6335 196.154 23.8603 197.229 23.9983C198.304 24.1364 199.352 24.3237 200.373 24.5604C200.591 24.8365 200.682 25.1915 200.646 25.6253L200.373 26.2169C199.935 26.5325 199.407 26.6508 198.787 26.5719C196.928 26.2958 195.083 25.9606 193.252 25.5662C191.42 25.1717 189.648 24.5407 187.935 23.6729C187.607 24.5012 187.206 25.2703 186.733 25.9803L186.131 26.8086C185.84 27.0847 185.493 27.203 185.092 27.1636ZM188.755 11.8699C188.209 11.9093 187.821 11.6727 187.594 11.1599C187.366 10.6472 187.115 7.83694 186.842 2.72919C186.842 2.07839 186.988 1.70862 187.279 1.61988C187.571 1.53113 189.297 1.49662 192.459 1.51634C195.621 1.53606 197.402 1.5903 197.803 1.67904C198.204 1.76779 198.386 2.09811 198.35 2.67002C198.24 8.05387 198.177 10.9331 198.158 11.3078C198.14 11.6825 197.853 11.9093 197.297 11.9882C196.742 12.0671 193.894 12.0277 188.755 11.8699ZM195.999 9.79918L196.163 7.90596L189.357 7.8468L189.466 9.56253L195.999 9.79918ZM196.218 5.56902V3.91245L188.974 3.79412L189.138 5.56902H196.218Z" fill="#212529"/>
<path d="M168.338 27.5782C167.882 27.4795 167.468 27.2823 167.094 26.9865C166.72 26.6907 166.361 26.3555 166.014 25.9807C165.777 25.6652 165.668 25.3004 165.686 24.8862L165.96 24.2946C166.215 24.0579 166.543 23.9593 166.944 23.9988L167.408 24.1763L167.627 12.6986L162.297 12.7578C161.714 12.6 161.404 12.038 161.367 11.0716C161.185 6.35832 161.103 3.62695 161.121 2.87755C161.14 2.12815 161.299 1.68936 161.6 1.56117C161.9 1.43299 163.208 1.37875 165.522 1.39848C167.837 1.4182 169.158 1.44778 169.486 1.48722C169.814 1.52666 169.951 2.00983 169.896 2.93672C169.732 17.8458 169.632 25.754 169.595 26.6611C169.431 27.4697 169.012 27.7754 168.338 27.5782ZM148.821 27.1344L148.274 26.8386C147.964 26.1878 147.809 25.4384 147.809 24.5904C147.664 10.3715 147.623 3.03039 147.686 2.56695C147.75 2.1035 147.923 1.79783 148.206 1.64992C148.488 1.50201 150.935 1.42806 155.545 1.42806C156.165 1.42806 156.429 2.00983 156.338 3.17337C156.301 7.17674 156.265 9.49396 156.228 10.125C156.192 10.7561 156.183 11.3034 156.201 11.7668C156.219 12.2303 155.978 12.462 155.477 12.462C154.976 12.462 153.112 12.5014 149.887 12.5803L150.023 26.247L149.777 26.8386C149.522 27.0753 149.203 27.1739 148.821 27.1344ZM155.873 25.5074C155.235 25.3891 154.916 25.0046 154.916 24.3538L154.725 15.6272C154.707 15.0947 154.857 14.7496 155.176 14.5919C155.495 14.4341 157.832 14.3946 162.187 14.4735C162.935 14.5524 163.244 15.0553 163.117 15.9822L163.171 24.5904C163.226 25.3793 162.734 25.7047 161.695 25.5666L155.873 25.5074ZM161.012 23.3184V20.7152L156.966 20.7744V23.3184H161.012ZM161.067 18.467V16.7217L156.857 16.6626L156.912 18.5262L161.067 18.467ZM167.709 10.3913V8.02474H163.445V10.4504L167.709 10.3913ZM154.151 10.1546L154.206 8.20223L149.887 8.14307V10.3321L154.151 10.1546ZM154.26 5.92445L154.206 3.67626H149.777L149.832 5.86529L154.26 5.92445ZM167.709 5.74696L167.654 3.67626L163.171 3.61709L163.335 5.6878L167.709 5.74696Z" fill="#212529"/>
<path d="M121.269 26.6918C120.613 26.6918 120.03 26.5341 119.52 26.2185C119.301 25.9424 119.21 25.5875 119.247 25.1536L119.52 24.562C119.884 24.2859 120.303 24.1873 120.777 24.2661L127.966 24.207L127.912 17.8469H124.577L124.03 17.5511C123.775 17.2356 123.666 16.8609 123.702 16.427L123.975 15.8354L124.522 15.5396C128.495 15.6185 130.918 15.6776 131.793 15.7171C132.668 15.7565 133.488 15.9143 134.253 16.1904C134.472 16.5059 134.563 16.8806 134.527 17.3145L134.253 17.9061C133.998 18.1428 133.67 18.2414 133.269 18.2019C132.759 18.123 132.231 18.0639 131.684 18.0244C131.137 17.985 130.59 17.9455 130.044 17.9061L130.098 24.1478L138.6 23.9703L139.201 24.3253C139.42 24.6014 139.511 24.9564 139.474 25.3902L139.201 25.9819C138.545 26.3368 137.798 26.4749 136.959 26.396L121.269 26.6918ZM139.365 16.1312C138.454 15.9734 137.529 15.8255 136.59 15.6875C135.652 15.5494 134.846 15.1353 134.171 14.4451C133.497 13.7548 133.06 12.966 132.859 12.0785C132.659 11.1911 132.54 10.2741 132.504 9.32746C132.54 9.01192 132.65 8.73583 132.832 8.49917C133.087 8.26252 133.415 8.16392 133.816 8.20336L134.363 8.49917C134.618 9.13025 134.754 9.82048 134.773 10.5699C134.791 11.3193 135.169 11.9997 135.907 12.611C136.645 13.2224 137.442 13.5576 138.299 13.6168C139.155 13.6759 139.966 13.8436 140.732 14.1197C140.987 14.4352 141.096 14.8099 141.06 15.2438L140.786 15.8354C140.385 16.1115 139.912 16.2101 139.365 16.1312ZM120.231 16.0129L119.684 15.7171C119.465 15.441 119.374 15.086 119.411 14.6521L119.684 14.0605C120.741 13.6266 121.62 12.9167 122.322 11.9306C123.023 10.9446 123.575 9.91909 123.975 8.85415L124.413 7.84838C124.704 7.61173 125.051 7.51312 125.452 7.55256L125.998 7.84838C126.217 8.12447 126.308 8.47945 126.272 8.91331C125.907 9.89937 125.47 10.8657 124.959 11.8123C124.449 12.7589 123.912 13.528 123.347 14.1197C122.782 14.7113 122.258 15.155 121.775 15.4508C121.292 15.7467 120.777 15.934 120.231 16.0129ZM118.919 11.2798L118.372 10.984C118.007 10.0769 117.807 9.0908 117.77 8.02587C117.734 6.96093 117.679 5.90586 117.606 4.86064C117.643 4.5451 117.77 4.26901 117.989 4.03236C118.208 3.79571 118.518 3.6971 118.919 3.73654L127.912 3.67738L127.802 1.25169C127.839 0.936155 127.948 0.66006 128.13 0.423408C128.385 0.186756 128.713 0.0881504 129.114 0.127592L129.661 0.423408C129.88 0.936155 129.98 1.4982 129.962 2.10956C129.944 2.72091 129.989 3.30268 130.098 3.85487L140.185 4.03236C140.713 4.15068 141.019 4.36762 141.101 4.68315C141.183 4.99869 141.169 5.50651 141.06 6.2066C140.95 6.9067 140.859 7.58214 140.786 8.23294C140.713 8.88373 140.549 9.48522 140.294 10.0374C140.003 10.3135 139.638 10.4121 139.201 10.3332L138.654 10.0374C138.436 9.76132 138.344 9.40634 138.381 8.97248C138.672 8.14419 138.836 7.27647 138.873 6.3693L119.848 6.10307C120.03 8.44987 120.158 9.85992 120.231 10.3332L119.903 10.984C119.647 11.2207 119.319 11.3193 118.919 11.2798Z" fill="#212529"/>
<path d="M100.877 27.7565L98.7449 25.9225L98.6902 25.2125L98.9636 24.6209C99.2187 24.3842 99.5467 24.2856 99.9476 24.3251L100.385 24.5026V23.3193L91.0092 23.2601L90.4625 22.9643C90.2438 22.6882 90.1527 22.3333 90.1891 21.8994L90.4625 21.3078C91.0092 20.9331 91.647 20.7654 92.3759 20.8049L100.002 20.9824L99.4009 20.3316C98.9454 19.5822 98.9271 19.0103 99.3463 18.6158L101.752 17.3142L97.9249 17.4326C97.1595 17.4326 96.467 17.2551 95.8474 16.9001C95.6287 16.624 95.5376 16.269 95.5741 15.8352L95.8474 15.2435C96.1754 14.9674 96.5763 14.8688 97.0501 14.9477H105.087C105.979 15.2633 106.253 15.7168 105.907 16.3085C104.85 17.5706 103.519 18.675 101.916 19.6216L102.244 20.9232L110.526 20.6865L111.073 20.9824C111.292 21.2782 111.383 21.643 111.346 22.0769L111.073 22.6685C110.599 22.984 110.071 23.1221 109.487 23.0827L102.517 23.2601C102.554 24.0884 102.526 24.8181 102.435 25.4492C102.344 26.0802 102.166 26.6669 101.902 27.2093C101.638 27.7516 101.296 27.934 100.877 27.7565ZM110.964 17.1959C110.672 17.1565 110.417 17.0382 110.198 16.8409V16.7226H110.089C109.87 16.4465 109.779 16.0915 109.815 15.6577L110.143 13.8828L90.8452 14.0011L91.1732 16.1901L90.8998 16.7818C90.6083 17.0184 90.262 17.117 89.8611 17.0776L89.3144 16.7818C89.0228 16.1901 88.8497 15.5492 88.795 14.859C88.7404 14.1687 88.6812 13.4637 88.6174 12.7439C88.5536 12.0241 88.7267 11.6297 89.1367 11.5606C89.5468 11.4916 90.426 11.4965 91.7745 11.5754L91.5559 2.90803C91.5194 2.09947 91.729 1.64095 92.1846 1.53249C92.6401 1.42402 93.2278 1.31063 93.9476 1.1923C94.6675 1.07397 95.3918 0.99509 96.1208 0.955647L96.6675 1.25146C96.8861 1.52756 96.9772 1.88254 96.9408 2.3164L96.6675 2.90803C96.2301 3.14468 95.246 3.36161 93.7153 3.55882L93.77 5.21539H96.6675C96.9226 5.33372 97.1048 5.53093 97.2142 5.80702V6.30991C97.1048 6.586 96.9226 6.78321 96.6675 6.90154L93.8246 6.9607V8.20313H96.3394C96.5946 8.32145 96.7768 8.51867 96.8861 8.79476V9.26806C96.7768 9.54416 96.5946 9.74137 96.3394 9.8597L93.8793 9.97802L93.9887 11.6938L107.465 11.5754V9.74137C106.535 9.8597 105.688 9.74137 104.923 9.38639C104.777 9.18918 104.722 8.93281 104.759 8.61727C104.868 8.34118 105.05 8.14397 105.305 8.02564H107.355L107.273 6.90154L105.087 7.07903L104.485 6.72405C104.339 6.52684 104.285 6.26061 104.321 5.92535L104.54 5.51121C104.941 5.314 105.378 5.20553 105.852 5.18581C106.326 5.16609 106.8 5.15623 107.273 5.15623V3.49966L105.305 3.38134L104.759 3.08552C104.503 2.76998 104.394 2.37556 104.431 1.90226L104.704 1.31063C105.068 1.03453 105.506 0.935926 106.016 1.01481C107.638 1.21202 108.613 1.32049 108.941 1.34021C109.269 1.35993 109.433 1.68533 109.433 2.3164L109.597 11.5163C110.836 11.4374 111.679 11.4965 112.125 11.6938C112.572 11.891 112.64 12.4925 112.33 13.4982L111.784 16.8409C111.528 17.0382 111.255 17.1565 110.964 17.1959ZM102.353 10.5697C101.806 10.2541 101.26 9.89914 100.713 9.50472C100.166 10.0963 99.492 10.4119 98.6902 10.4513C98.4351 10.333 98.2529 10.1358 98.1435 9.8597V9.38639C98.2529 9.1103 98.4351 8.91309 98.6902 8.79476L99.3463 8.43978L98.7996 7.84815C98.6538 7.65094 98.5991 7.39457 98.6356 7.07903C98.7449 6.80293 98.9271 6.60572 99.1823 6.4874H99.7289L100.877 7.31568C101.46 6.46768 102.189 6.02395 103.064 5.98451C103.319 6.10284 103.501 6.30991 103.61 6.60572V7.07903C103.501 7.35512 103.027 7.82843 102.189 8.49894C102.699 8.69615 103.118 9.03141 103.446 9.50472V9.97802C103.337 10.2541 103.155 10.4513 102.9 10.5697H102.353ZM98.2529 5.33372C97.9977 5.21539 97.8155 5.01818 97.7062 4.74209V4.20962L98.2529 3.55882L99.1823 3.08552L98.6356 2.67138C98.4533 2.43473 98.3804 2.13891 98.4169 1.78393C98.5262 1.50784 98.7085 1.31063 98.9636 1.1923H99.5103C99.9112 1.50784 100.349 1.76421 100.822 1.96142C101.369 1.25146 102.062 0.896484 102.9 0.896484C103.155 1.01481 103.337 1.21202 103.446 1.48812V1.96142C103.337 2.23751 102.954 2.55305 102.298 2.90803L102.79 3.38134C102.936 3.61799 102.991 3.89408 102.954 4.20962C102.845 4.48571 102.663 4.68292 102.408 4.80125H101.97L100.604 4.09129C99.9112 4.72237 99.1276 5.13651 98.2529 5.33372Z" fill="#212529"/>
<path d="M80.5419 26.2185C80.2503 26.179 79.9769 26.041 79.7218 25.8043C78.9929 24.8971 78.2047 23.9949 77.3574 23.0976C76.51 22.2003 75.7765 21.2586 75.1569 20.2726L75.1023 19.5626L75.3756 18.971C75.6672 18.7343 76.0134 18.6357 76.4143 18.6752L76.961 18.971C77.4348 19.7993 78.0134 20.5684 78.6968 21.2783C79.3801 21.9883 80.2685 22.9645 81.3619 24.2069C81.5806 24.483 81.6717 24.838 81.6353 25.2718L81.3619 25.8635C81.1068 26.0607 80.8334 26.179 80.5419 26.2185ZM63.813 26.1001C63.5214 26.0607 63.2663 25.9424 63.0476 25.7451C62.8289 25.4296 62.7378 25.0549 62.7743 24.621C63.5943 23.3983 64.223 22.3482 64.6604 21.4706C65.0977 20.593 65.4986 19.7007 65.8631 18.7935C66.1547 18.5568 66.5009 18.4582 66.9018 18.4977L67.4485 18.7935C67.6672 19.0696 67.7583 19.4246 67.7219 19.8584C67.3938 20.9234 66.9565 21.9341 66.4098 22.8905C65.8631 23.847 65.3164 24.7985 64.7697 25.7451C64.4781 25.9424 64.1592 26.0607 63.813 26.1001ZM60.4235 16.1311C60.1319 16.0917 59.8768 15.9734 59.6581 15.7762C59.4394 15.4606 59.3483 15.0859 59.3848 14.6521L59.6581 14.0604L60.2048 13.7646H66.0271L65.5351 8.14412C64.9519 8.10468 64.3642 8.0751 63.772 8.05538C63.1797 8.03566 62.6467 7.88775 62.1729 7.61165C61.9542 7.31584 61.8631 6.951 61.8996 6.51714L62.1729 5.92551C62.5009 5.64941 62.9018 5.55081 63.3756 5.62969L65.4257 5.80718L65.3711 3.26317C65.4075 2.94763 65.5169 2.67153 65.6991 2.43488C65.9542 2.19823 66.2822 2.09962 66.6831 2.13907L67.2298 2.43488L67.5032 3.02651L67.5579 5.80718L74.1729 5.68885V3.08568C74.2093 2.77014 74.3187 2.49404 74.5009 2.25739C74.7925 2.02074 75.1387 1.92213 75.5396 1.96158L76.0863 2.25739C76.305 2.53349 76.3961 2.88847 76.3596 3.32233L76.305 5.68885H78.5191C78.8836 5.68885 79.2116 5.80718 79.5031 6.04383C79.7218 6.31993 79.8129 6.6749 79.7765 7.10877L79.5031 7.72998C79.1751 7.96663 78.7924 8.08496 78.3551 8.08496L76.2503 8.0258V13.7646L82.0179 13.6463L82.5646 13.9421C82.7833 14.2576 82.8744 14.6323 82.838 15.0662L82.5646 15.6578C82.0179 15.9734 81.3984 16.1114 80.7059 16.072L60.4235 16.1311ZM74.0635 13.6463L74.1182 8.0258L67.6672 8.14412L68.2686 13.8238L74.0635 13.6463Z" fill="#212529"/>
<path d="M42.1651 26.9568C41.5091 26.6807 40.8895 26.2961 40.3064 25.8031C39.7232 25.3101 39.1583 24.7875 38.6116 24.2353C38.3929 23.9592 38.3018 23.6042 38.3383 23.1703L38.6116 22.5787C38.8667 22.3421 39.1948 22.2435 39.5957 22.2829C39.9966 22.4801 40.3702 22.7759 40.7164 23.1703C41.0626 23.5648 41.4362 23.8803 41.8371 24.117C42.0194 23.5253 42.1925 22.9337 42.3565 22.3421C42.5205 21.7504 42.6298 20.9172 42.6845 19.8424C42.7392 18.7676 42.6936 17.3724 42.5478 15.6566L31.4773 15.8341L30.9306 15.5383C30.6754 15.2228 30.5661 14.8481 30.6025 14.4142L30.8759 13.8226C31.4955 13.507 32.188 13.3887 32.9533 13.4676L42.0558 13.2901C41.8371 12.6985 41.6458 12.1463 41.4818 11.6335C41.3178 11.1208 40.926 10.5094 40.3064 9.79948C39.9055 9.16841 39.9055 8.5965 40.3064 8.08375C41.0353 7.61045 41.7096 7.01388 42.3291 6.29407C42.9487 5.57425 43.5683 4.91852 44.1879 4.32689L35.8781 4.50438C35.5866 4.46494 35.3315 4.34661 35.1128 4.1494C34.8759 3.87331 34.7756 3.51833 34.8121 3.08447L35.1128 2.49284C35.7688 2.21674 36.4613 2.05897 37.1902 2.01953H46.9214C47.8325 2.19702 48.1059 2.69005 47.7414 3.49861C46.648 4.99741 45.7187 6.087 44.9533 6.76737C44.1879 7.44775 43.4772 8.20208 42.8212 9.03036C43.1127 9.8192 43.3861 10.5489 43.6412 11.2194C43.8963 11.8899 44.1515 12.5604 44.4066 13.2309L52.9077 13.1718L53.5091 13.5268C53.7277 13.8423 53.8189 14.217 53.7824 14.6509L53.5091 15.2425C52.7801 15.558 51.9783 15.6764 51.1036 15.5975H44.7346C44.8986 17.2738 44.9214 18.8071 44.8029 20.1974C44.6845 21.5877 44.4977 22.7759 44.2426 23.762C43.9875 24.748 43.6594 25.5171 43.2585 26.0693C42.8576 26.6215 42.4932 26.9173 42.1651 26.9568Z" fill="#212529"/>
<path d="M12.3438 26.631L11.7971 26.3351C11.5784 26.059 11.4873 25.7041 11.5237 25.2702L11.7971 24.6786C12.7447 23.9686 13.5556 23.1157 14.2299 22.1198C14.9041 21.1239 15.4053 20.2118 15.7333 19.3835C16.0613 18.5552 16.28 17.8058 16.3893 17.1353H15.9519C15.1137 17.2536 14.6125 16.9972 14.4485 16.3662C14.2845 15.7351 14.1843 11.4458 14.1479 3.49818C14.1479 2.57129 14.3574 2.10292 14.7766 2.09306C15.1957 2.0832 17.838 2.03882 22.7036 1.95994C23.7241 1.94022 24.2799 2.20152 24.3711 2.74385C24.4622 3.28618 24.5442 7.62974 24.6171 15.7745C24.6353 16.5634 24.3437 16.9775 23.7424 17.017H21.3916C21.4645 18.4763 21.5282 19.7434 21.5829 20.8182C21.6376 21.893 21.8927 22.7361 22.3483 23.3474C22.8039 23.9588 23.3597 24.2447 24.0157 24.2053C23.9064 23.1798 24.0157 22.2529 24.3437 21.4246C24.5988 21.188 24.9269 21.0893 25.3278 21.1288L25.8745 21.4246C26.0931 22.0162 26.1843 22.6769 26.1478 23.4066C26.1114 24.1362 26.1205 24.7821 26.1751 25.3442C26.2298 25.9062 26.1114 26.2316 25.8198 26.3204C25.5282 26.4091 25.1455 26.4633 24.6717 26.483C24.1979 26.5028 23.6102 26.4584 22.9086 26.3499C22.207 26.2415 21.4827 25.7682 20.7355 24.93C19.9884 24.0919 19.5784 22.9382 19.5055 21.469C19.4326 19.9998 19.305 18.5355 19.1228 17.0761H18.5761C18.3939 18.8116 17.8563 20.4139 16.9633 21.8831C16.0704 23.3523 15.0408 24.718 13.8745 25.9802C13.4736 26.4535 12.9633 26.6704 12.3438 26.631ZM7.04082 27.1634L6.49412 26.8676C6.239 25.9604 6.11143 24.9941 6.11143 23.9686C6.11143 22.9431 6.09321 21.9078 6.05676 20.8626L2.80393 25.5069C2.5488 25.7435 2.22079 25.8421 1.81988 25.8027L1.27318 25.5069C1.05451 25.1913 0.963389 24.8166 0.999835 24.3828C3.3324 20.971 4.77203 18.6341 5.31873 17.3719H2.42124C2.12967 17.3325 1.87455 17.2142 1.65587 17.017C1.43719 16.7409 1.34608 16.3859 1.38252 15.952L1.65587 15.3604L2.20256 15.0646L6.0021 15.1237L5.81075 12.4614L1.71054 12.5206C1.41897 12.4811 1.16384 12.3628 0.945166 12.1656C0.726488 11.8895 0.635372 11.5345 0.671818 11.1006L0.945166 10.509C1.63765 10.1935 2.42124 10.0949 3.29595 10.2132L3.07728 5.74638L1.54653 5.80554C1.25496 5.7661 0.999835 5.64777 0.781157 5.45056C0.562479 5.17447 0.471364 4.81949 0.50781 4.38563L0.781157 3.794C1.47364 3.5179 2.21168 3.38972 2.99527 3.40944C3.77887 3.42916 4.55335 3.4193 5.31873 3.37986L5.20939 1.42747C5.24583 1.11194 5.35517 0.835842 5.5374 0.599189C5.79253 0.362537 6.12966 0.263932 6.54879 0.303374L7.09549 0.599189C7.35061 1.03305 7.46906 1.46691 7.45084 1.90078C7.43261 2.33464 7.44173 2.82767 7.47817 3.37986L11.6331 3.26153L12.1797 3.55734C12.3984 3.83344 12.4895 4.18842 12.4531 4.62228L12.1797 5.21391C11.5237 5.56889 10.7766 5.70694 9.9383 5.62805V9.97654C10.7037 9.9371 11.3962 10.0751 12.0157 10.3907C12.2344 10.6668 12.3255 11.0218 12.2891 11.4556L12.0157 12.0473C11.6877 12.2839 11.305 12.4022 10.8677 12.4022L8.02487 12.3431L8.13421 15.0646H11.305L11.8517 15.3604C12.0704 15.6759 12.1615 16.0506 12.1251 16.4845L11.8517 17.0761L11.305 17.3719H8.35288L12.0157 20.7442C12.2709 21.0598 12.362 21.464 12.2891 21.9571L12.0157 22.5487C11.7606 22.7854 11.4326 22.884 11.0317 22.8445L10.485 22.5487L8.18888 20.5667L8.29821 26.276L8.02487 26.8676C7.76974 27.1043 7.44173 27.2029 7.04082 27.1634ZM22.485 14.8279L22.3756 12.5797H16.2253L16.3893 14.8871L22.485 14.8279ZM22.2663 10.2132L22.2116 8.91161H16.116V10.2724L22.2663 10.2132ZM7.80619 10.0357V5.68722H5.26406L5.42807 10.2132L7.80619 10.0357ZM22.2116 4.2673L16.28 4.32647V6.60424H22.2663L22.2116 4.2673Z" fill="#212529"/>
</svg>
