<svg width="240" height="240" viewBox="0 0 240 240" fill="none" xmlns="http://www.w3.org/2000/svg">
<path d="M189.458 95.3647C185.08 87.6299 179.647 80.3705 174.053 73.5447C162.963 60.0117 149.363 48.2758 133.001 42.3591C130.874 41.5906 128.714 40.9487 126.528 40.4164C126.243 40.1373 125.865 39.921 125.359 39.8253C123.819 39.5343 122.28 39.3778 120.744 39.2781C120.717 39.2741 120.69 39.2681 120.663 39.2641C120.458 39.2342 120.262 39.2292 120.073 39.2422C112.745 38.8884 105.481 40.4961 98.4449 42.7947C91.0467 45.2118 83.8275 48.3795 77.11 52.4084C63.4853 60.5788 52.1974 72.4373 46.073 87.589C39.651 103.476 39.0089 121.222 41.4419 138.078C42.7272 146.985 44.6904 156.092 48.9989 164.004C52.9753 171.306 58.7137 177.635 65.0143 182.847C88.4808 202.258 122.005 207.292 149.448 194.231C176.234 181.483 196.077 152.072 196.353 121.242C196.435 111.964 193.972 103.339 189.458 95.3647ZM157.006 183.991C133.401 200.104 102.288 200.139 77.8918 185.728C64.5656 177.856 53.2391 165.915 48.9941 150.366C44.8194 135.077 43.6371 118.148 46.8009 102.542C49.9223 87.1444 57.7278 73.8088 69.5616 63.9279C81.1336 54.2674 96.0398 47.5253 110.671 44.9058C113.702 44.3636 116.791 44.1473 119.861 44.3157C135.783 46.8106 149.857 55.5721 161.349 67.0069C167.256 72.8838 172.558 79.3936 177.438 86.1965C182.191 92.82 187.075 99.7893 189.534 107.729C194.105 122.483 190.113 139.781 183.469 153.231C177.365 165.586 168.207 176.344 157.006 183.991Z" fill="#E38277"/>
<path d="M181.172 59.5191C181.386 59.9846 181.726 60.4032 182.157 60.7311C184.709 62.6698 187.515 59.9766 189.33 58.2741C191.073 56.6404 192.692 54.8662 194.172 52.9744C195.691 51.0327 197.098 48.9983 198.329 46.8483C199.655 44.5348 200.88 41.6093 199.277 39.0865C198.546 37.9363 197.079 37.416 195.876 38.1635C188.86 42.5234 183.52 49.1548 180.459 56.9853C180.111 57.8724 180.508 58.8682 181.172 59.5191Z" fill="#E38277"/>
<path d="M139.05 29.2748C139.243 29.3297 139.453 29.3446 139.667 29.3426C140.729 30.2895 142.548 30.451 143.532 28.8662C147.888 21.858 149.788 13.7085 151.858 5.74935C152.316 3.98807 152.316 1.82809 150.727 0.66089C148.671 -0.848203 146.503 0.441605 145.312 2.37432C143.276 5.67658 141.73 9.42539 140.428 13.0915C138.934 17.3018 137.903 21.6676 137.313 26.1091C137.132 27.4847 137.635 28.8722 139.05 29.2748ZM147.159 4.08077C147.178 3.91431 147.263 3.86846 147.159 4.08077V4.08077Z" fill="#E38277"/>
<path d="M81.98 32.3373C83.8277 30.7275 83.9894 28.3612 83.249 26.0149C82.3921 23.2997 81.3715 20.6264 80.3355 17.98C79.2967 15.3266 78.202 12.6952 77.0418 10.0966C76.5016 8.88755 76.0347 7.52697 75.1113 6.5631C73.8915 5.29124 72.3914 5.10285 70.8558 5.8275C70.1568 6.15742 69.5213 7.24888 69.6243 8.04927C70.7412 16.6972 73.3841 24.9832 77.6204 32.5406C78.7373 34.5342 81.1539 33.8833 81.98 32.3373Z" fill="#E38277"/>
<path d="M236.914 107.835C234.563 106.966 231.532 107.305 229.079 107.421C222.622 107.729 216.229 109.124 210.212 111.567C208.963 112.074 208.093 113.291 208.476 114.732C208.596 115.186 208.874 115.617 209.237 115.956C209.155 116.873 209.435 117.808 210.146 118.492C211.259 119.563 213.196 119.687 214.635 119.882C217.468 120.262 220.266 120.107 223.085 119.675C225.884 119.247 228.627 118.514 231.34 117.692C233.857 116.928 237.02 116.326 238.934 114.334C241.207 111.97 239.518 108.799 236.914 107.835ZM230.063 112.531C230.26 112.525 230.457 112.535 230.653 112.531C230.027 112.724 229.398 112.907 228.768 113.091C228.788 112.928 228.796 112.766 228.79 112.603C229.215 112.581 229.639 112.543 230.063 112.531Z" fill="#E38277"/>
<path d="M23.0899 70.7367C26.2074 73.9283 30.0192 76.0664 34.3759 76.6684C35.1423 76.7741 36.213 76.1192 36.522 75.3936C36.6953 74.9869 36.7868 74.5812 36.8686 74.1755C37.1478 74.0499 37.4039 73.8835 37.6071 73.6742C38.646 72.5987 38.4447 71.1264 37.6071 70.035C35.2906 67.0138 32.9644 63.9906 30.386 61.2017C29.0891 59.7983 27.7287 58.4556 26.2816 57.2187C24.8451 55.9907 23.3094 54.67 21.6466 53.7789C19.6218 52.6934 16.9366 52.6266 15.6272 54.9092C14.5045 56.8648 15.3181 59.1115 16.2992 60.9127C18.2065 64.4153 20.3131 67.895 23.0899 70.7367ZM18.9257 58.1347C18.5647 57.9852 18.8343 58.1586 18.9257 58.1347V58.1347Z" fill="#E38277"/>
<path d="M27.8424 128.56C27.4582 127.114 26.1113 126.522 24.7845 126.763C19.4303 127.736 14.0261 128.729 8.94054 130.781C6.45939 131.783 3.49105 132.941 1.51248 134.855C0.433177 135.9 -0.309144 137.496 0.127008 139.042C0.59397 140.698 2.03241 141.447 3.49299 141.96C8.92419 143.866 15.3124 141.472 20.32 139.26C21.5485 138.716 22.7568 138.127 23.9372 137.48C25.1764 136.802 26.6071 136.101 27.6026 135.051C29.1971 133.369 29.2616 130.641 27.9156 129.084C27.9088 128.905 27.8876 128.729 27.8424 128.56ZM4.55111 136.89C4.39129 136.818 4.44231 136.818 4.55111 136.89V136.89ZM6.83872 137.419C7.18437 137.225 7.53869 137.051 7.89012 136.87C7.89878 137.066 7.93247 137.256 7.9758 137.445C7.59741 137.454 7.21807 137.446 6.83872 137.419Z" fill="#E38277"/>
<path d="M50.4391 186.15C49.8556 186.168 49.3261 186.329 48.8177 186.542C48.3623 186.366 47.8694 186.336 47.4091 186.535C43.2171 188.354 38.9836 190.675 36.1058 194.432C34.5932 196.407 33.1557 198.861 33.0364 201.445C32.9622 203.069 33.6978 204.702 35.1044 205.494C36.4601 206.259 38.0564 206.079 39.4361 205.497C43.8891 203.619 47.9117 200.485 50.9003 196.585C51.6907 195.554 52.4417 194.494 53.1051 193.371C53.9274 191.979 54.7014 190.493 54.22 188.815C53.7483 187.173 52.0518 186.099 50.4391 186.15Z" fill="#E38277"/>
<path d="M106.359 213.319C106.121 213.136 105.859 212.99 105.579 212.91C104.206 212.52 102.969 213.392 102.521 214.708C100.747 219.919 99.906 225.513 100.1 231.039C100.142 232.264 100.24 233.485 100.384 234.701C100.55 236.096 100.641 237.531 101.51 238.678C103.382 241.146 106.39 239.734 108.137 237.906C111.394 234.499 111.732 229.184 112.154 224.69C112.386 222.221 112.912 219.325 112.077 216.925C111.246 214.538 108.868 212.736 106.359 213.319Z" fill="#E38277"/>
<path d="M163.458 225.646C162.965 222.645 162.115 219.733 160.98 216.927C159.859 214.156 158.549 211.114 155.981 209.465C153.487 207.863 148.942 207.714 148.189 211.418C148.183 211.453 148.184 211.491 148.177 211.525C147.631 212.085 147.33 212.903 147.563 213.901C147.94 215.525 148.344 217.143 148.734 218.763C148.896 219.623 149.09 220.476 149.325 221.321C149.355 221.429 149.397 221.532 149.427 221.64C149.58 222.258 149.72 222.879 149.875 223.496C150.637 226.541 151.317 229.649 152.267 232.639C153.11 235.294 154.648 237.863 157.43 238.59C160.16 239.303 163.095 237.927 163.849 235.002C164.209 233.611 164.09 232.059 164.014 230.64C163.925 228.966 163.729 227.296 163.458 225.646ZM158.928 233.638C158.621 233.636 158.628 233.622 158.427 233.52C157.976 233.291 157.637 232.772 157.366 232.149C157.944 232.263 158.557 232.186 159.083 231.935C159.084 232.009 159.095 232.082 159.096 232.156C159.1 232.39 158.949 233.348 159.079 233.568C159.083 233.577 159.073 233.609 159.062 233.638C159 233.638 158.94 233.638 158.928 233.638ZM159.115 233.638C159.118 233.636 159.118 233.634 159.121 233.632C159.223 233.635 159.195 233.637 159.115 233.638ZM159.128 233.626C159.167 233.597 159.208 233.571 159.208 233.571C159.195 233.545 159.34 233.62 159.128 233.626Z" fill="#E38277"/>
<path d="M207.015 183.892C205.533 182.696 204.04 181.512 202.487 180.414C199.181 178.076 195.534 176.119 191.59 175.264C189.944 174.907 187.763 176.465 188.532 178.43C189.236 180.227 190.147 181.906 191.215 183.457C192.609 186.089 194.326 188.543 196.329 190.71C198.829 193.414 202.069 195.714 205.794 195.847C207.605 195.913 209.559 195.364 210.767 193.895C212.231 192.117 212.134 189.644 210.924 187.749C209.909 186.155 208.451 185.05 207.015 183.892ZM198.644 184.224C198.404 184.026 198.148 183.841 197.922 183.631C197.799 183.517 197.677 183.391 197.554 183.27C197.94 183.503 198.321 183.748 198.7 183.998C198.683 184.074 198.653 184.148 198.644 184.224Z" fill="#E38277"/>
<path d="M81.5796 111.383C75.3569 109.706 69.0063 113.021 66.5039 119.082C64.897 122.974 63.5626 127.477 64.2635 131.72C64.4897 133.091 66.1188 133.859 67.3214 133.517C68.7222 133.119 69.2845 131.726 69.0573 130.352C68.7588 128.547 69.3163 126.685 69.7958 124.969C70.2762 123.253 70.7432 121.501 71.6097 119.943C72.82 117.768 75.045 116.401 77.3163 116.147C79.8716 115.861 82.1303 116.676 83.9115 118.747C85.9035 121.063 86.695 124.313 87.2197 127.286C87.4614 128.654 89.0644 129.428 90.2776 129.083C91.6669 128.688 92.2562 127.29 92.0135 125.917C90.9246 119.754 87.9553 113.102 81.5796 111.383Z" fill="#E38277"/>
<path d="M170.192 109.531C167.913 106.224 164.46 103.819 160.493 103.459C150.966 102.594 147.922 114.349 146.402 121.785C146.125 123.143 146.789 124.567 148.138 124.95C149.374 125.302 150.917 124.519 151.196 123.153C151.934 119.545 152.639 115.79 154.43 112.554C155.732 110.201 157.743 108.215 160.493 108.606C166.933 109.522 168.585 117.678 169.71 123.093C169.992 124.453 171.525 125.244 172.767 124.891C174.125 124.505 174.786 123.088 174.503 121.725C173.628 117.509 172.654 113.102 170.192 109.531Z" fill="#E38277"/>
<path d="M130.898 126.193C129.479 126.193 128.499 127.375 128.412 128.767C128.156 132.852 127.954 136.946 127.631 141.026C127.373 144.279 126.815 147.903 124.307 150.159C119.029 154.909 113.918 145.631 112.363 141.403C110.96 137.59 110.416 133.608 110.723 129.543C110.828 128.156 109.505 126.97 108.237 126.97C106.805 126.97 105.856 128.152 105.751 129.543C105.116 137.946 107.963 147.553 114.066 153.378C117.237 156.405 121.402 157.616 125.398 155.561C129.219 153.595 131.346 149.379 132.093 145.196C133.052 139.827 133.042 134.205 133.384 128.768C133.47 127.379 132.178 126.193 130.898 126.193Z" fill="#E38277"/>
</svg>
