<svg width="24" height="24" viewBox="0 0 24 24" fill="none" xmlns="http://www.w3.org/2000/svg">
<path d="M7.21875 3.75C5.31738 3.75 3.75 5.31738 3.75 7.21875V16.7812C3.75 18.6826 5.31738 20.25 7.21875 20.25H16.7812C18.6826 20.25 20.25 18.6826 20.25 16.7812V7.21875C20.25 5.31738 18.6826 3.75 16.7812 3.75H7.21875ZM7.21875 5.25H16.7812C17.8711 5.25 18.75 6.12891 18.75 7.21875V16.7812C18.75 17.8711 17.8711 18.75 16.7812 18.75H7.21875C6.12891 18.75 5.25 17.8711 5.25 16.7812V7.21875C5.25 6.12891 6.12891 5.25 7.21875 5.25ZM12 6.91406C8.98828 6.91406 6.53906 8.90039 6.53906 11.3438C6.53906 13.5352 8.48438 15.3574 11.1094 15.7031C11.2881 15.7412 11.5166 15.832 11.5781 15.9844C11.6338 16.1221 11.6191 16.3359 11.6016 16.4766C11.6016 16.4766 11.5459 16.8633 11.5312 16.9453C11.5078 17.083 11.417 17.4961 12 17.25C12.583 17.0039 15.1436 15.3809 16.2891 14.0625C17.0801 13.1953 17.4609 12.3223 17.4609 11.3438C17.4609 8.90039 15.0117 6.91406 12 6.91406ZM8.78906 10.0547C8.94727 10.0547 9.07031 10.1777 9.07031 10.3359V12.2109H9.86719C10.0254 12.2109 10.1484 12.3574 10.1484 12.5156C10.1484 12.6738 10.0254 12.7969 9.86719 12.7969H8.78906C8.63086 12.7969 8.48438 12.6738 8.48438 12.5156V10.3359C8.48438 10.1777 8.63086 10.0547 8.78906 10.0547ZM10.7109 10.0547C10.8691 10.0547 10.9922 10.1777 10.9922 10.3359V12.5156C10.9922 12.6738 10.8691 12.7969 10.7109 12.7969C10.5527 12.7969 10.4062 12.6738 10.4062 12.5156V10.3359C10.4062 10.1777 10.5527 10.0547 10.7109 10.0547ZM11.6016 10.0547C11.6309 10.0459 11.666 10.0547 11.6953 10.0547C11.7832 10.0547 11.8535 10.0986 11.9062 10.1719L13.0312 11.6719V10.3359C13.0312 10.1777 13.1543 10.0547 13.3125 10.0547C13.4707 10.0547 13.5938 10.1777 13.5938 10.3359V12.5156C13.5938 12.6387 13.5234 12.7354 13.4062 12.7734C13.377 12.7822 13.3418 12.7969 13.3125 12.7969C13.2246 12.7969 13.1309 12.7529 13.0781 12.6797L11.9766 11.1562V12.5156C11.9766 12.6738 11.8535 12.7969 11.6953 12.7969C11.5371 12.7969 11.3906 12.6738 11.3906 12.5156V10.3359C11.3906 10.2129 11.4844 10.0928 11.6016 10.0547ZM14.2734 10.0547H15.3516C15.5098 10.0547 15.6328 10.1777 15.6328 10.3359C15.6328 10.4941 15.5098 10.6172 15.3516 10.6172H14.5547V11.1328H15.3516C15.5098 11.1328 15.6328 11.2559 15.6328 11.4141C15.6328 11.5723 15.5098 11.7188 15.3516 11.7188H14.5547V12.2109H15.3516C15.5098 12.2109 15.6328 12.3574 15.6328 12.5156C15.6328 12.6738 15.5098 12.7969 15.3516 12.7969H14.2734C14.1152 12.7969 13.9922 12.6738 13.9922 12.5156V10.3359C13.9922 10.1777 14.1152 10.0547 14.2734 10.0547Z" fill="#495057"/>
</svg>
