<svg width="161" height="28" viewBox="0 0 161 28" fill="none" xmlns="http://www.w3.org/2000/svg">
<path d="M155.715 26.9803C155.129 26.8163 154.606 26.5088 154.146 26.0578C153.393 25.3198 152.954 24.4589 152.828 23.4749L153.142 22.8599C153.435 22.6139 153.812 22.5114 154.272 22.5524L154.899 22.8599L155.464 23.5364C156.071 21.6299 156.583 19.8209 157.001 18.1092C157.42 16.3975 157.733 13.2252 157.943 8.59231L147.495 8.53081C147.118 11.1957 146.172 13.9888 144.655 16.91C143.139 19.8311 141.586 22.5934 139.996 25.1968C139.662 25.5658 139.212 25.7298 138.647 25.6888L138.02 25.3813C137.769 25.0944 137.664 24.7254 137.706 24.2744C139.107 22.0399 140.566 19.5031 142.083 16.664C143.599 13.8248 144.546 11.1342 144.922 8.59231C142.496 8.51031 140.88 8.47956 140.075 8.50006C139.269 8.52056 138.532 8.38731 137.863 8.10032C137.612 7.81333 137.507 7.44434 137.549 6.99335L137.863 6.37837C138.699 6.05038 139.62 5.94788 140.624 6.07088L145.361 6.13237C145.529 5.3329 145.696 4.39505 145.863 3.31883C146.031 2.24261 146.282 1.33551 146.616 0.597527C146.909 0.351534 147.286 0.249037 147.746 0.290035L148.373 0.597527C148.624 0.925518 148.729 1.31501 148.687 1.76599C148.478 2.33998 148.311 3.05233 148.185 3.90306C148.06 4.75379 147.955 5.49689 147.871 6.13237C155.004 6.05038 158.926 6.06575 159.637 6.1785C160.348 6.29125 160.62 6.89085 160.453 7.97732C160.076 13.5532 159.652 17.4686 159.182 19.7235C158.711 21.9784 158.204 23.8131 157.66 25.2276C157.116 26.6421 156.468 27.2263 155.715 26.9803Z" fill="#212529"/>
<path d="M107.807 26.6713C106.908 26.6713 106.385 26.3844 106.238 25.8104C106.092 25.2364 105.94 24.0013 105.783 22.1051C105.627 20.2089 105.506 18.4511 105.423 16.8316C105.339 15.9706 105.579 15.4735 106.144 15.3403C106.709 15.207 109.052 15.2634 113.172 15.5094C114.594 14.3409 115.442 13.6337 115.714 13.3877C115.985 13.1417 116.477 12.9777 117.188 12.8957L117.816 13.2032C118.067 13.4902 118.171 13.8489 118.129 14.2794L117.063 15.4479C122.605 15.5709 125.555 15.6683 125.91 15.74C126.266 15.8118 126.36 16.4934 126.193 17.7848L126.067 25.4721C126.13 26.1691 125.942 26.5432 125.502 26.5945C125.063 26.6457 119.165 26.6713 107.807 26.6713ZM123.589 24.0577V22.2127L108.372 22.1512L108.529 24.1807L123.589 24.0577ZM123.651 19.8143L123.714 17.9078L107.933 17.6618L108.058 19.8143H123.651ZM126.412 13.7567C125.534 13.4287 124.687 12.906 123.871 12.1885C123.641 11.9015 123.547 11.5325 123.589 11.0815L123.871 10.4665C124.164 10.241 124.551 10.1488 125.032 10.1898L125.879 10.5895L125.628 2.933H117.941L117.345 2.65625C117.031 2.32826 116.895 1.93877 116.937 1.48779L117.251 0.872803L117.878 0.565311H126.601C127.374 0.565311 127.814 0.852304 127.918 1.42629C128.023 2.00027 128.148 5.74142 128.295 12.6497C127.981 13.6952 127.354 14.0642 126.412 13.7567ZM113.925 13.5722C113.298 13.4492 112.707 13.2493 112.152 12.9726C111.598 12.6959 111.06 12.373 110.537 12.004C110.286 11.6965 110.181 11.3275 110.223 10.897L110.537 10.282C110.83 10.0566 111.196 9.9643 111.635 10.0053L113.109 10.7125L113.36 2.65625L103.76 2.53326L103.164 2.22577C102.871 1.89777 102.745 1.50829 102.787 1.0573L103.101 0.473064C104.021 0.0630752 105.595 -0.0804209 107.823 0.0425757C110.05 0.165572 111.677 0.23732 112.702 0.25782C113.726 0.278319 114.527 0.355192 115.102 0.488438C115.677 0.621685 115.923 1.20079 115.839 2.22577C115.672 7.28913 115.578 10.2154 115.557 11.0046C115.536 11.7939 115.415 12.4499 115.196 12.9726C114.976 13.4953 114.553 13.6952 113.925 13.5722ZM118.318 11.881L117.69 11.5428C117.46 11.2763 117.366 10.9175 117.408 10.4665L117.69 9.88231C118.631 9.47232 119.588 9.08283 120.561 8.71384C121.534 8.34485 122.522 8.02711 123.526 7.76061L124.122 8.03736C124.373 8.34485 124.478 8.71384 124.436 9.14433L124.122 9.75931C123.202 10.2308 122.26 10.6459 121.298 11.0046C120.336 11.3634 119.343 11.6555 118.318 11.881ZM105.234 10.897C104.9 10.856 104.617 10.733 104.387 10.528C104.136 10.2615 104.032 9.9028 104.074 9.45182L104.387 8.86758C105.287 8.3961 106.254 8.05273 107.289 7.83749C108.325 7.62224 109.344 7.37112 110.348 7.08413L110.976 7.39162C111.206 7.65812 111.3 8.02711 111.258 8.49859L110.976 9.08283C110.097 9.57481 109.161 9.90793 108.168 10.0822C107.174 10.2564 106.197 10.528 105.234 10.897ZM120.953 7.08413C120.012 6.79714 119.092 6.5204 118.192 6.2539C117.941 5.96691 117.837 5.59792 117.878 5.14693L118.192 4.5012C118.59 4.23471 119.06 4.13221 119.604 4.19371C120.462 4.31671 121.288 4.59345 122.083 5.02394C122.334 5.35193 122.438 5.74142 122.396 6.19241L122.083 6.77664C121.79 7.02263 121.413 7.12513 120.953 7.08413ZM108.435 6.65364C107.807 6.51015 107.159 6.4179 106.489 6.3769C105.82 6.3359 105.203 6.19241 104.638 5.94641C104.387 5.65942 104.283 5.28018 104.324 4.80869L104.638 4.19371C105.119 3.88622 105.684 3.79397 106.332 3.91697C107.441 3.99897 108.445 4.21421 109.344 4.5627C109.595 4.87019 109.7 5.24943 109.658 5.70042L109.344 6.3154C109.052 6.4999 108.748 6.61264 108.435 6.65364Z" fill="#212529"/>
<path d="M82.5521 27.9319L80.1049 26.0255L80.0422 25.2875L80.3559 24.6725C80.6488 24.4265 81.0252 24.324 81.4854 24.365L81.9874 24.5495V23.3196L71.2259 23.2581L70.5984 22.9506C70.3474 22.6636 70.2428 22.2946 70.2846 21.8436L70.5984 21.2286C71.2259 20.8391 71.958 20.6649 72.7946 20.7059L81.5482 20.8904L80.8579 20.2139C80.335 19.4349 80.3141 18.8404 80.7952 18.4305L83.5561 17.0775L79.1637 17.2005C78.2852 17.2005 77.4904 17.016 76.7792 16.647C76.5282 16.36 76.4236 15.991 76.4655 15.54L76.7792 14.9251C77.1557 14.6381 77.6159 14.5356 78.1597 14.6176H87.3838C88.4088 14.9456 88.7225 15.417 88.3251 16.032C87.1119 17.344 85.585 18.492 83.7444 19.4759L84.1209 20.8289L93.6274 20.5829L94.2549 20.8904C94.5059 21.1979 94.6105 21.5771 94.5686 22.0281L94.2549 22.6431C93.7111 22.9711 93.1045 23.1146 92.4352 23.0736L84.4346 23.2581C84.4765 24.1191 84.4451 24.8775 84.3405 25.5335C84.2359 26.1895 84.032 26.7994 83.7287 27.3631C83.4254 27.9268 83.0332 28.1164 82.5521 27.9319ZM94.1294 16.9545C93.7947 16.9135 93.5019 16.7905 93.2509 16.5855V16.4625H93.1254C92.8744 16.1755 92.7698 15.8065 92.8117 15.3555L93.1882 13.5106L71.0376 13.6336L71.4141 15.909L71.1004 16.524C70.7657 16.77 70.3683 16.8725 69.9082 16.8315L69.2807 16.524C68.946 15.909 68.7473 15.2428 68.6845 14.5253C68.6218 13.8078 68.5538 13.075 68.4806 12.3268C68.4074 11.5785 68.6061 11.1685 69.0767 11.0968C69.5473 11.025 70.5566 11.0302 72.1044 11.1122L71.8534 2.10266C71.8115 1.26218 72.0521 0.785572 72.575 0.672826C73.0979 0.560079 73.7725 0.442207 74.5987 0.31921C75.4249 0.196214 76.2563 0.114216 77.093 0.0732171L77.7204 0.380709C77.9714 0.667701 78.076 1.03669 78.0342 1.48768L77.7204 2.10266C77.2185 2.34865 76.089 2.57415 74.332 2.77914L74.3947 4.50109H77.7204C78.0133 4.62409 78.2224 4.82909 78.3479 5.11608V5.63881C78.2224 5.92581 78.0133 6.1308 77.7204 6.2538L74.4575 6.31529V7.60676H77.344C77.6368 7.72976 77.8459 7.93475 77.9714 8.22174V8.71373C77.8459 9.00072 77.6368 9.20572 77.344 9.32871L74.5202 9.45171L74.6457 11.2352L90.1134 11.1122V9.20572C89.0467 9.32871 88.0741 9.20572 87.1956 8.83673C87.0283 8.63173 86.9655 8.36524 87.0074 8.03725C87.1329 7.75026 87.342 7.54526 87.6348 7.42226H89.9879L89.8938 6.2538L87.3838 6.43829L86.6936 6.0693C86.5263 5.86431 86.4635 5.58756 86.5054 5.23907L86.7564 4.80859C87.2165 4.60359 87.7185 4.49085 88.2623 4.47035C88.8062 4.44985 89.35 4.4396 89.8938 4.4396V2.71764L87.6348 2.59465L87.0074 2.28716C86.7145 1.95916 86.589 1.54918 86.6309 1.05719L86.9446 0.442207C87.3629 0.155215 87.8649 0.0527176 88.4506 0.134715C90.3122 0.33971 91.4312 0.452457 91.8077 0.472956C92.1842 0.493455 92.3724 0.831696 92.3724 1.48768L92.5607 11.0507C93.983 10.9687 94.9504 11.0302 95.4628 11.2352C95.9753 11.4402 96.0537 12.0654 95.6981 13.1109L95.0706 16.5855C94.7778 16.7905 94.4641 16.9135 94.1294 16.9545ZM84.2464 10.0667C83.6189 9.7387 82.9914 9.36971 82.3639 8.95972C81.7364 9.57471 80.9625 9.9027 80.0422 9.9437C79.7493 9.8207 79.5402 9.6157 79.4147 9.32871V8.83673C79.5402 8.54973 79.7493 8.34474 80.0422 8.22174L80.7952 7.85275L80.1677 7.23777C80.0003 7.03277 79.9376 6.76628 79.9794 6.43829C80.1049 6.1513 80.3141 5.9463 80.6069 5.82331H81.2344L82.5521 6.68428C83.2215 5.80281 84.0581 5.34157 85.0621 5.30057C85.355 5.42357 85.5641 5.63881 85.6896 5.9463V6.43829C85.5641 6.72528 85.0203 7.21727 84.0581 7.91425C84.6438 8.11924 85.1249 8.46774 85.5014 8.95972V9.45171C85.3759 9.7387 85.1667 9.9437 84.8739 10.0667H84.2464ZM79.5402 4.62409C79.2473 4.50109 79.0382 4.2961 78.9127 4.00911V3.45562L79.5402 2.77914L80.6069 2.28716L79.9794 1.85667C79.7703 1.61067 79.6866 1.30318 79.7284 0.934193C79.8539 0.647201 80.0631 0.442207 80.3559 0.31921H80.9834C81.4436 0.647201 81.9456 0.913694 82.4894 1.11869C83.1169 0.380709 83.9117 0.0117188 84.8739 0.0117188C85.1667 0.134715 85.3759 0.33971 85.5014 0.626702V1.11869C85.3759 1.40568 84.9366 1.73367 84.1836 2.10266L84.7484 2.59465C84.9157 2.84064 84.9785 3.12763 84.9366 3.45562C84.8111 3.74262 84.602 3.94761 84.3091 4.07061H83.8071L82.2384 3.33263C81.4436 3.98861 80.5442 4.4191 79.5402 4.62409Z" fill="#212529"/>
<path d="M38.8166 26.1488C38.1473 26.1898 37.6087 26.1436 37.2008 26.0104C36.7929 25.8772 36.5785 25.3698 36.5576 24.4883V16.8933L36.8714 16.2783C37.206 16.0323 37.6034 15.9298 38.0636 15.9708L38.6911 16.2783L39.0048 16.8933V23.7503L47.0681 23.8733L47.1936 11.2354L39.3813 11.3584C38.5028 11.3584 38.0009 11.0919 37.8754 10.559C37.7499 10.026 37.708 7.39179 37.7499 2.65642L38.0636 2.04144C38.3564 1.79544 38.7329 1.69295 39.1931 1.73394L39.8206 2.04144L40.1971 2.77942L40.2598 8.96L47.1936 8.837L47.0681 1.61095L47.3819 0.995964C47.7165 0.749971 48.114 0.647474 48.5741 0.688473L49.2016 0.995964C49.4944 1.52895 49.6199 2.12343 49.5781 2.77942L49.6409 8.837L57.2022 9.02149C57.1603 7.70953 57.1185 6.60769 57.0767 5.71596C57.0348 4.82423 56.9512 3.94788 56.8257 3.08691L57.1394 2.47192C57.4741 2.22593 57.8715 2.12343 58.3316 2.16443L58.9591 2.47192C59.3356 3.70189 59.5239 5.00873 59.5239 6.39244C59.5239 7.77615 59.6075 9.14449 59.7749 10.4975C59.754 11.1534 59.2311 11.4814 58.2061 11.4814L49.6409 11.2354L49.5154 23.9348H58.5199L58.2061 18.0002C58.248 17.6723 58.3735 17.3853 58.5826 17.1393C58.8755 16.8933 59.252 16.7908 59.7121 16.8318L60.3396 17.1393C60.758 17.9182 60.9671 18.7792 60.9671 19.7222L61.0926 25.1033C60.9671 25.9848 60.3815 26.3948 59.3356 26.3333L38.8166 26.1488Z" fill="#212529"/>
<path d="M12.0235 27.0091L11.396 26.7016C11.145 26.4147 11.0404 26.0457 11.0822 25.5947C12.7137 23.5447 13.9582 21.3052 14.8158 18.876C15.6734 16.4468 16.0394 13.9202 15.9139 11.2963H12.8392C12.4627 11.2553 12.1281 11.1118 11.8352 10.8658C11.5842 10.5788 11.4796 10.2098 11.5215 9.75886L11.8352 9.14388C12.1699 8.89788 12.5673 8.79539 13.0275 8.83639L27.9932 8.95938L28.6207 9.26687C28.8717 9.55387 28.9763 9.92286 28.9344 10.3738L28.6207 10.9888C28.3278 11.1938 28.0141 11.3168 27.6794 11.3578H23.036C23.2033 15.4577 23.3393 18.1893 23.4439 19.5525C23.5484 20.9157 23.9459 22.0483 24.6361 22.9502C25.3263 23.8522 26.1944 24.3032 27.2402 24.3032C27.1147 23.2372 27.2402 22.2738 27.6167 21.4128C27.9095 21.1463 28.286 21.0336 28.7462 21.0745L29.3737 21.4128L29.6874 22.0278V25.8407C29.7292 26.5991 29.1436 26.9271 27.9304 26.8246C26.9264 26.7836 25.9643 26.6299 25.044 26.3634C24.1236 26.0969 23.2608 25.4409 22.4556 24.3955C21.6503 23.35 21.1744 22.0124 21.028 20.3827C20.8816 18.753 20.7247 15.7242 20.5574 11.2963H18.3612C18.4448 13.8382 18.1311 16.3238 17.4199 18.753C16.7088 21.1822 15.3701 23.7497 13.404 26.4557C13.0275 26.8656 12.5673 27.0501 12.0235 27.0091ZM1.7012 20.9516C1.36654 20.9106 1.07371 20.7876 0.822711 20.5826C0.571714 20.2546 0.467131 19.8651 0.508964 19.4141L0.822711 18.7991C1.11554 18.5531 1.49204 18.4506 1.9522 18.4916L5.27792 18.3686L5.40341 13.6333L2.39145 13.8792L1.76395 13.5718C1.51295 13.2438 1.40837 12.8543 1.4502 12.4033L1.76395 11.7883C2.30778 11.5423 2.89344 11.3988 3.52093 11.3578C4.14843 11.3168 4.77592 11.2758 5.40341 11.2348L5.34067 6.74544L1.63845 6.99144L0.88546 6.62245C0.634463 6.33546 0.529881 5.95622 0.571714 5.48473L0.88546 4.86975C1.80578 4.58275 2.76794 4.42901 3.77193 4.40851C4.77592 4.38801 7.10811 4.33676 10.7685 4.25476L11.396 4.56225C11.647 4.89025 11.7516 5.28998 11.7097 5.76147L11.396 6.37645L10.7685 6.68395H7.81927L7.88201 11.0503L9.82724 10.9888L10.4547 11.2963C10.7057 11.6243 10.8103 12.0138 10.7685 12.4648L10.4547 13.0798C9.70175 13.4078 8.86509 13.5513 7.94476 13.5103L7.75652 17.9381C8.886 17.7741 9.88999 17.6716 10.7685 17.6306L11.396 17.9381C11.647 18.2251 11.7516 18.5941 11.7097 19.0451L11.396 19.6601C9.84816 20.0291 8.26374 20.3366 6.64271 20.5826C5.02169 20.8286 3.37452 20.9516 1.7012 20.9516ZM24.793 3.63978L14.5962 3.57828C14.2615 3.53728 13.9687 3.41429 13.7177 3.20929C13.4667 2.9223 13.3621 2.55331 13.404 2.10232L13.7177 1.48734C14.4707 1.15935 15.3074 1.03635 16.2277 1.11835H24.1027C24.8139 1.03635 25.4623 1.15935 26.048 1.48734C26.299 1.81533 26.4035 2.20482 26.3617 2.65581L26.048 3.27079C25.7133 3.55778 25.295 3.68078 24.793 3.63978Z" fill="#212529"/>
</svg>
