<svg width="526" height="60" viewBox="0 0 526 60" fill="none" xmlns="http://www.w3.org/2000/svg">
<rect width="248" height="20" transform="translate(278 40)" fill="#FAD586"/>
<path d="M477.232 55.3307C475.441 55.3307 474.399 54.7473 474.107 53.5807C473.816 52.414 473.514 49.9036 473.201 46.0494C472.889 42.1953 472.649 38.6223 472.482 35.3307C472.316 33.5807 472.795 32.5703 473.92 32.2994C475.045 32.0286 479.712 32.1432 487.92 32.6432C490.753 30.2682 492.441 28.8307 492.982 28.3307C493.524 27.8307 494.503 27.4973 495.92 27.3307L497.17 27.9557C497.67 28.539 497.878 29.2682 497.795 30.1432L495.67 32.5182C506.712 32.7682 512.587 32.9661 513.295 33.1119C514.003 33.2578 514.191 34.6432 513.857 37.2682L513.607 52.8932C513.732 54.3098 513.357 55.0703 512.482 55.1744C511.607 55.2786 499.857 55.3307 477.232 55.3307ZM508.67 50.0182V46.2682L478.357 46.1432L478.67 50.2682L508.67 50.0182ZM508.795 41.3932L508.92 37.5182L477.482 37.0182L477.732 41.3932H508.795ZM514.295 29.0807C512.545 28.414 510.857 27.3515 509.232 25.8932C508.774 25.3098 508.587 24.5598 508.67 23.6432L509.232 22.3932C509.816 21.9348 510.587 21.7473 511.545 21.8307L513.232 22.6432L512.732 7.08068H497.42L496.232 6.51818C495.607 5.85151 495.337 5.05985 495.42 4.14318L496.045 2.89318L497.295 2.26818H514.67C516.212 2.26818 517.087 2.85151 517.295 4.01818C517.503 5.18485 517.753 12.789 518.045 26.8307C517.42 28.9557 516.17 29.7057 514.295 29.0807ZM489.42 28.7057C488.17 28.4557 486.993 28.0494 485.889 27.4869C484.785 26.9244 483.712 26.2682 482.67 25.5182C482.17 24.8932 481.962 24.1432 482.045 23.2682L482.67 22.0182C483.253 21.5598 483.982 21.3723 484.857 21.4557L487.795 22.8932L488.295 6.51818L469.17 6.26818L467.982 5.64318C467.399 4.97651 467.149 4.18485 467.232 3.26818L467.857 2.08068C469.691 1.24735 472.826 0.955679 477.264 1.20568C481.701 1.45568 484.941 1.60151 486.982 1.64318C489.024 1.68485 490.618 1.8411 491.764 2.11193C492.91 2.38276 493.399 3.55985 493.232 5.64318C492.899 15.9348 492.712 21.8828 492.67 23.4869C492.628 25.0911 492.389 26.4244 491.951 27.4869C491.514 28.5494 490.67 28.9557 489.42 28.7057ZM498.17 25.2682L496.92 24.5807C496.462 24.039 496.274 23.3098 496.357 22.3932L496.92 21.2057C498.795 20.3723 500.701 19.5807 502.639 18.8307C504.576 18.0807 506.545 17.4348 508.545 16.8932L509.732 17.4557C510.232 18.0807 510.441 18.8307 510.357 19.7057L509.732 20.9557C507.899 21.914 506.024 22.7578 504.107 23.4869C502.191 24.2161 500.212 24.8098 498.17 25.2682ZM472.107 23.2682C471.441 23.1848 470.878 22.9348 470.42 22.5182C469.92 21.9765 469.712 21.2473 469.795 20.3307L470.42 19.1432C472.212 18.1848 474.139 17.4869 476.201 17.0494C478.264 16.6119 480.295 16.1015 482.295 15.5182L483.545 16.1432C484.003 16.6848 484.191 17.4348 484.107 18.3932L483.545 19.5807C481.795 20.5807 479.93 21.2578 477.951 21.6119C475.972 21.9661 474.024 22.5182 472.107 23.2682ZM503.42 15.5182C501.545 14.9348 499.712 14.3723 497.92 13.8307C497.42 13.2473 497.212 12.4973 497.295 11.5807L497.92 10.2682C498.712 9.72651 499.649 9.51818 500.732 9.64318C502.441 9.89318 504.087 10.4557 505.67 11.3307C506.17 11.9973 506.378 12.789 506.295 13.7057L505.67 14.8932C505.087 15.3932 504.337 15.6015 503.42 15.5182ZM478.482 14.6432C477.232 14.3515 475.941 14.164 474.607 14.0807C473.274 13.9973 472.045 13.7057 470.92 13.2057C470.42 12.6223 470.212 11.8515 470.295 10.8932L470.92 9.64318C471.878 9.01818 473.003 8.83068 474.295 9.08068C476.503 9.24735 478.503 9.68485 480.295 10.3932C480.795 11.0182 481.003 11.789 480.92 12.7057L480.295 13.9557C479.712 14.3307 479.107 14.5598 478.482 14.6432Z" fill="#212529"/>
<path d="M426.922 57.8926L422.047 54.0176L421.922 52.5176L422.547 51.2676C423.13 50.7676 423.88 50.5592 424.797 50.6426L425.797 51.0176V48.5176L404.36 48.3926L403.11 47.7676C402.61 47.1842 402.401 46.4342 402.485 45.5176L403.11 44.2676C404.36 43.4759 405.818 43.1217 407.485 43.2051L424.922 43.5801L423.547 42.2051C422.505 40.6217 422.464 39.4134 423.422 38.5801L428.922 35.8301L420.172 36.0801C418.422 36.0801 416.839 35.7051 415.422 34.9551C414.922 34.3717 414.714 33.6217 414.797 32.7051L415.422 31.4551C416.172 30.8717 417.089 30.6634 418.172 30.8301H436.547C438.589 31.4967 439.214 32.4551 438.422 33.7051C436.005 36.3717 432.964 38.7051 429.297 40.7051L430.047 43.4551L448.985 42.9551L450.235 43.5801C450.735 44.2051 450.943 44.9759 450.86 45.8926L450.235 47.1426C449.151 47.8092 447.943 48.1009 446.61 48.0176L430.672 48.3926C430.755 50.1426 430.693 51.6842 430.485 53.0176C430.276 54.3509 429.87 55.5905 429.266 56.7363C428.662 57.8822 427.88 58.2676 426.922 57.8926ZM449.985 35.5801C449.318 35.4967 448.735 35.2467 448.235 34.8301V34.5801H447.985C447.485 33.9967 447.276 33.2467 447.36 32.3301L448.11 28.5801L403.985 28.8301L404.735 33.4551L404.11 34.7051C403.443 35.2051 402.651 35.4134 401.735 35.3301L400.485 34.7051C399.818 33.4551 399.422 32.1009 399.297 30.6426C399.172 29.1842 399.037 27.6947 398.891 26.1738C398.745 24.653 399.141 23.8197 400.078 23.6738C401.016 23.528 403.026 23.5384 406.11 23.7051L405.61 5.39258C405.526 3.68424 406.005 2.71549 407.047 2.48633C408.089 2.25716 409.432 2.01758 411.078 1.76758C412.724 1.51758 414.38 1.35091 416.047 1.26758L417.297 1.89258C417.797 2.47591 418.005 3.22591 417.922 4.14258L417.297 5.39258C416.297 5.89258 414.047 6.35091 410.547 6.76758L410.672 10.2676H417.297C417.88 10.5176 418.297 10.9342 418.547 11.5176V12.5801C418.297 13.1634 417.88 13.5801 417.297 13.8301L410.797 13.9551V16.5801H416.547C417.13 16.8301 417.547 17.2467 417.797 17.8301V18.8301C417.547 19.4134 417.13 19.8301 416.547 20.0801L410.922 20.3301L411.172 23.9551L441.985 23.7051V19.8301C439.86 20.0801 437.922 19.8301 436.172 19.0801C435.839 18.6634 435.714 18.1217 435.797 17.4551C436.047 16.8717 436.464 16.4551 437.047 16.2051H441.735L441.547 13.8301L436.547 14.2051L435.172 13.4551C434.839 13.0384 434.714 12.4759 434.797 11.7676L435.297 10.8926C436.214 10.4759 437.214 10.2467 438.297 10.2051C439.38 10.1634 440.464 10.1426 441.547 10.1426V6.64258L437.047 6.39258L435.797 5.76758C435.214 5.10091 434.964 4.26758 435.047 3.26758L435.672 2.01758C436.505 1.43424 437.505 1.22591 438.672 1.39258C442.38 1.80924 444.61 2.03841 445.36 2.08008C446.11 2.12174 446.485 2.80924 446.485 4.14258L446.86 23.5801C449.693 23.4134 451.62 23.5384 452.641 23.9551C453.662 24.3717 453.818 25.6426 453.11 27.7676L451.86 34.8301C451.276 35.2467 450.651 35.4967 449.985 35.5801ZM430.297 21.5801C429.047 20.9134 427.797 20.1634 426.547 19.3301C425.297 20.5801 423.755 21.2467 421.922 21.3301C421.339 21.0801 420.922 20.6634 420.672 20.0801V19.0801C420.922 18.4967 421.339 18.0801 421.922 17.8301L423.422 17.0801L422.172 15.8301C421.839 15.4134 421.714 14.8717 421.797 14.2051C422.047 13.6217 422.464 13.2051 423.047 12.9551H424.297L426.922 14.7051C428.255 12.9134 429.922 11.9759 431.922 11.8926C432.505 12.1426 432.922 12.5801 433.172 13.2051V14.2051C432.922 14.7884 431.839 15.7884 429.922 17.2051C431.089 17.6217 432.047 18.3301 432.797 19.3301V20.3301C432.547 20.9134 432.13 21.3301 431.547 21.5801H430.297ZM420.922 10.5176C420.339 10.2676 419.922 9.85091 419.672 9.26758V8.14258L420.922 6.76758L423.047 5.76758L421.797 4.89258C421.38 4.39258 421.214 3.76758 421.297 3.01758C421.547 2.43424 421.964 2.01758 422.547 1.76758H423.797C424.714 2.43424 425.714 2.97591 426.797 3.39258C428.047 1.89258 429.63 1.14258 431.547 1.14258C432.13 1.39258 432.547 1.80924 432.797 2.39258V3.39258C432.547 3.97591 431.672 4.64258 430.172 5.39258L431.297 6.39258C431.63 6.89258 431.755 7.47591 431.672 8.14258C431.422 8.72591 431.005 9.14258 430.422 9.39258H429.422L426.297 7.89258C424.714 9.22591 422.922 10.1009 420.922 10.5176Z" fill="#212529"/>
<path d="M358.738 56.3926L357.488 55.7676C357.071 55.2676 356.821 54.6842 356.738 54.0176L356.488 43.9551C353.405 45.8301 350.061 47.8509 346.457 50.0176C342.853 52.1842 339.405 53.7259 336.113 54.6426L334.863 54.0176C334.363 53.4342 334.155 52.6842 334.238 51.7676L334.863 50.5176C337.78 49.1842 341.03 47.4655 344.613 45.3613C348.196 43.2572 351.363 41.1634 354.113 39.0801C344.488 38.9134 339.05 38.8509 337.8 38.8926C336.55 38.9342 335.467 38.6634 334.55 38.0801C334.05 37.4967 333.842 36.7467 333.925 35.8301L334.55 34.5801C335.967 33.9134 337.592 33.7051 339.425 33.9551L356.738 34.2051V29.2051C354.655 29.4551 353.113 29.4863 352.113 29.2988C351.113 29.1113 350.571 28.0801 350.488 26.2051L349.613 8.64258C349.571 6.68424 350.103 5.59049 351.207 5.36133C352.311 5.13216 353.821 5.14258 355.738 5.39258L358.613 1.14258C359.28 0.559245 360.071 0.309245 360.988 0.392578L362.238 1.01758C362.738 1.68424 362.946 2.47591 362.863 3.39258L361.738 5.39258C365.571 5.64258 367.884 5.79883 368.675 5.86133C369.467 5.92383 369.821 7.14258 369.738 9.51758L369.363 27.7051C369.113 28.9967 368.196 29.6634 366.613 29.7051L361.613 29.2051V34.2051L383.425 34.3301L384.675 34.9551C385.175 35.5384 385.384 36.2884 385.3 37.2051L384.675 38.4551C384.092 38.8717 383.467 39.1217 382.8 39.2051L363.738 39.0801C366.488 40.9967 369.686 42.8405 373.332 44.6113C376.978 46.3822 380.3 47.8509 383.3 49.0176C383.8 49.6009 384.009 50.3509 383.925 51.2676L383.3 52.5176C382.634 53.1009 381.8 53.3092 380.8 53.1426C377.759 52.1426 374.446 50.7467 370.863 48.9551C367.28 47.1634 364.113 45.4551 361.363 43.8301L361.613 54.5176L360.988 55.7676C360.405 56.2676 359.655 56.4759 358.738 56.3926ZM385.675 31.3301L384.425 30.7051L383.425 28.8301L373.988 29.0801C371.53 28.8301 370.738 27.7884 371.613 25.9551L376.05 18.5801C373.842 15.5801 372.29 13.653 371.394 12.7988C370.498 11.9447 370.353 11.0176 370.957 10.0176C371.561 9.01758 373.509 6.39258 376.8 2.14258C377.467 1.64258 378.259 1.43424 379.175 1.51758L380.425 2.14258C381.009 2.80924 381.217 3.64258 381.05 4.64258L376.425 11.1426L378.675 14.2051C379.425 13.1217 380.342 12.2259 381.425 11.5176L383.05 11.3926L384.3 12.0176C384.8 12.7259 385.009 13.5384 384.925 14.4551L378.8 23.9551H381.175L380.925 22.0801L381.55 20.8301C382.217 20.3301 383.009 20.1217 383.925 20.2051L385.175 20.8301C387.092 24.9967 388.217 27.8717 388.55 29.4551L387.925 30.7051C387.342 31.2051 386.592 31.4134 385.675 31.3301ZM347.363 30.3301C346.696 30.2467 346.113 29.9967 345.613 29.5801L344.488 27.5801L333.8 28.5801C331.217 28.4134 330.425 27.4134 331.425 25.5801L337.925 16.5801L333.55 13.2051C332.342 12.0801 332.103 11.0592 332.832 10.1426C333.561 9.22591 335.634 6.68424 339.05 2.51758C339.8 1.93424 340.675 1.72591 341.675 1.89258L342.925 2.51758C343.467 3.18424 343.696 3.97591 343.613 4.89258L338.925 11.0176L341.05 12.7051C341.884 11.6634 342.988 11.2259 344.363 11.3926L345.613 12.0176C346.113 12.6426 346.321 13.4134 346.238 14.3301L339.3 23.0801L341.675 22.8301C341.509 21.8301 341.717 20.9967 342.3 20.3301C343.009 19.8301 343.821 19.6217 344.738 19.7051L345.988 20.3301C348.321 24.1634 349.613 26.8301 349.863 28.3301L349.238 29.5801C348.655 29.9967 348.03 30.2467 347.363 30.3301ZM364.488 24.4551L364.613 18.3301H354.738L355.238 24.3301L364.488 24.4551ZM364.613 13.4551V10.3926L354.488 10.2676L354.613 13.4551H364.613Z" fill="#212529"/>
<path d="M276.115 57.5179L274.865 56.8929C274.115 55.3929 273.865 53.6845 274.115 51.7679L274.24 3.26786L274.865 2.01786C275.532 1.51786 276.344 1.30952 277.303 1.39286L278.553 2.01786L279.178 3.26786V52.0179C279.344 53.7679 279.094 55.3929 278.428 56.8929C277.844 57.3929 277.074 57.6012 276.115 57.5179ZM317.615 56.1429L316.365 55.5179C315.074 54.0595 313.48 52.3616 311.584 50.4241C309.688 48.4866 307.709 46.1741 305.646 43.4866C303.584 40.7991 301.511 38.2054 299.428 35.7054C298.261 38.2887 297.032 40.8408 295.74 43.3616C294.449 45.8824 291.928 49.5595 288.178 54.3929C287.511 55.0595 286.636 55.3512 285.553 55.2679L284.303 54.6429C283.803 54.0595 283.594 53.3095 283.678 52.3929L284.303 51.1429C286.553 48.8929 288.428 46.4033 289.928 43.6741C291.428 40.9449 293.303 37.0804 295.553 32.0804H288.678L287.428 31.4554C286.928 30.7887 286.719 29.997 286.803 29.0804L287.428 27.8304L288.678 27.2054H296.803C297.386 25.0387 297.886 22.8512 298.303 20.6429C298.719 18.4345 299.011 16.1637 299.178 13.8304L293.553 14.0804L292.303 13.4554C291.803 12.872 291.594 12.1012 291.678 11.1429L292.303 9.89286C293.303 9.22619 294.449 8.89286 295.74 8.89286C297.032 8.89286 298.344 8.89286 299.678 8.89286C299.428 6.80952 299.636 4.93452 300.303 3.26786C300.969 2.68452 301.761 2.43452 302.678 2.51786L303.928 3.14286C304.594 4.89286 304.803 6.85119 304.553 9.01786H312.865C314.532 8.93452 315.157 9.97619 314.74 12.1429L312.49 27.0804H318.74L319.99 27.7054C320.49 28.2887 320.699 29.0387 320.615 29.9554L319.99 31.2054C319.407 31.622 318.782 31.872 318.115 31.9554L303.303 32.0804C304.303 33.747 305.365 35.2887 306.49 36.7054C307.615 38.122 309.626 40.4554 312.521 43.7054C315.417 46.9554 317.74 49.4762 319.49 51.2679C320.24 52.1012 320.574 53.1012 320.49 54.2679L319.865 55.5179C319.282 56.0179 318.532 56.2262 317.615 56.1429ZM266.615 32.4554L265.365 31.8304C264.949 31.1637 264.699 30.4554 264.615 29.7054C265.115 27.872 265.449 25.997 265.615 24.0804C265.782 22.1637 266.24 20.372 266.99 18.7054C267.657 18.2054 268.449 17.997 269.365 18.0804L270.615 18.7054C271.115 19.2887 271.324 20.0387 271.24 20.9554C270.74 22.7054 270.386 24.5387 270.178 26.4554C269.969 28.372 269.532 30.1637 268.865 31.8304C268.282 32.3304 267.532 32.5387 266.615 32.4554ZM285.678 27.7054C285.011 27.622 284.428 27.372 283.928 26.9554C283.094 25.4554 282.303 23.9345 281.553 22.3929C280.803 20.8512 280.261 19.247 279.928 17.5804L280.553 16.3304C281.136 15.8304 281.886 15.622 282.803 15.7054L284.053 16.3304C284.803 17.8304 285.553 19.3512 286.303 20.8929C287.053 22.4345 287.678 24.0387 288.178 25.7054L287.553 26.9554C286.969 27.372 286.344 27.622 285.678 27.7054ZM307.428 27.0804L309.24 13.9554H304.053C303.886 16.2054 303.594 18.4345 303.178 20.6429C302.761 22.8512 302.303 25.0387 301.803 27.2054L307.428 27.0804Z" fill="#212529"/>
<path d="M226.117 56.2051C224.617 55.6217 223.201 54.8092 221.867 53.7676C220.534 52.7259 219.242 51.6217 217.992 50.4551C217.492 49.8717 217.284 49.1217 217.367 48.2051L217.992 46.9551C218.576 46.4551 219.326 46.2467 220.242 46.3301C221.159 46.7467 222.013 47.3717 222.805 48.2051C223.596 49.0384 224.451 49.7051 225.367 50.2051C225.784 48.9551 226.18 47.7051 226.555 46.4551C226.93 45.2051 227.18 43.4447 227.305 41.1738C227.43 38.903 227.326 35.9551 226.992 32.3301L201.68 32.7051L200.43 32.0801C199.846 31.4134 199.596 30.6217 199.68 29.7051L200.305 28.4551C201.721 27.7884 203.305 27.5384 205.055 27.7051L225.867 27.3301C225.367 26.0801 224.93 24.9134 224.555 23.8301C224.18 22.7467 223.284 21.4551 221.867 19.9551C220.951 18.6217 220.951 17.4134 221.867 16.3301C223.534 15.3301 225.076 14.0697 226.492 12.5488C227.909 11.028 229.326 9.64258 230.742 8.39258L211.742 8.76758C211.076 8.68424 210.492 8.43424 209.992 8.01758C209.451 7.43424 209.221 6.68424 209.305 5.76758L209.992 4.51758C211.492 3.93424 213.076 3.60091 214.742 3.51758H236.992C239.076 3.89258 239.701 4.93424 238.867 6.64258C236.367 9.80925 234.242 12.1113 232.492 13.5488C230.742 14.9863 229.117 16.5801 227.617 18.3301C228.284 19.9967 228.909 21.5384 229.492 22.9551C230.076 24.3717 230.659 25.7884 231.242 27.2051L250.68 27.0801L252.055 27.8301C252.555 28.4967 252.763 29.2884 252.68 30.2051L252.055 31.4551C250.388 32.1217 248.555 32.3717 246.555 32.2051H231.992C232.367 35.7467 232.419 38.9863 232.148 41.9238C231.878 44.8613 231.451 47.3717 230.867 49.4551C230.284 51.5384 229.534 53.1634 228.617 54.3301C227.701 55.4967 226.867 56.1217 226.117 56.2051Z" fill="#212529"/>
<path d="M162.308 55.8304L161.058 55.2054C160.558 54.5387 160.35 53.747 160.433 52.8304L161.058 51.5804C162.141 50.997 163.141 50.2679 164.058 49.3929C164.975 48.5179 166.162 47.2887 167.62 45.7054C169.079 44.122 170.777 42.0908 172.714 39.6116C174.652 37.1324 176.266 34.4554 177.558 31.5804C178.85 28.7054 179.704 26.7679 180.12 25.7679C180.704 25.2679 181.454 25.0595 182.37 25.1429L183.62 25.7679C184.204 26.5179 184.412 27.4345 184.245 28.5179C183.412 30.7679 182.495 32.9762 181.495 35.1429C180.495 37.3095 179.245 39.3512 177.745 41.2679C178.745 42.6429 179.787 43.997 180.87 45.3304C181.954 46.6637 183.058 47.8929 184.183 49.0179C185.308 50.1429 185.912 51.4137 185.995 52.8304L185.37 54.0804C184.704 54.5804 183.912 54.7887 182.995 54.7054C181.079 52.7887 179.475 51.1012 178.183 49.6429C176.891 48.1845 175.641 46.747 174.433 45.3304C173.016 47.622 170.266 50.5387 166.183 54.0804C165.1 55.1637 163.808 55.747 162.308 55.8304ZM144.933 56.2679C143.475 55.9345 142.245 55.1012 141.245 53.7679C140.162 52.9345 139.662 51.8512 139.745 50.5179L140.37 49.2679C140.954 48.7679 141.704 48.5595 142.62 48.6429L144.183 49.3929C144.516 44.3095 144.6 39.622 144.433 35.3304C142.391 35.8304 140.558 36.3304 138.933 36.8304C137.308 37.3304 135.62 37.7054 133.87 37.9554L132.62 37.3304C132.12 36.6637 131.912 35.872 131.995 34.9554L132.62 33.7054C134.537 33.0387 136.454 32.4345 138.37 31.8929C140.287 31.3512 142.225 30.7887 144.183 30.2054C143.933 28.2054 143.589 26.4345 143.152 24.8929C142.714 23.3512 141.995 21.747 140.995 20.0804C140.245 18.997 140.287 18.0179 141.12 17.1429C141.954 16.2679 144.016 13.7262 147.308 9.51786L134.495 9.89286L133.12 9.14286C132.537 8.47619 132.287 7.64286 132.37 6.64286L132.995 5.39286C134.245 4.72619 135.662 4.47619 137.245 4.64286H153.183C155.433 4.97619 156.058 5.97619 155.058 7.64286C150.975 12.3512 148.058 15.9137 146.308 18.3304C146.891 20.247 147.391 21.997 147.808 23.5804C148.225 25.1637 148.6 26.9137 148.933 28.8304C150.85 28.4137 152.641 28.1637 154.308 28.0804L155.558 28.7054C156.058 29.2887 156.266 30.0387 156.183 30.9554L155.558 32.2054C154.558 32.7054 153.516 33.0179 152.433 33.1429C151.35 33.2679 150.266 33.497 149.183 33.8304C149.308 38.9554 149.297 42.997 149.152 45.9554C149.006 48.9137 148.829 50.9554 148.62 52.0804C148.412 53.2054 147.995 54.2574 147.37 55.2366C146.745 56.2158 145.933 56.5595 144.933 56.2679ZM160.933 46.9554C160.266 46.872 159.683 46.622 159.183 46.2054C158.683 45.5387 158.475 44.747 158.558 43.8304C160.808 41.2887 162.662 39.1429 164.12 37.3929C165.579 35.6429 166.891 33.7262 168.058 31.6429C164.641 28.9762 162.37 27.3408 161.245 26.7366C160.12 26.1324 159.87 25.1533 160.495 23.7991C161.12 22.4449 162.683 19.122 165.183 13.8304L156.058 14.0804L154.808 13.4554C154.225 12.747 153.975 11.9345 154.058 11.0179L154.683 9.76786C156.933 9.26786 159.308 9.01786 161.808 9.01786C164.308 9.01786 166.725 8.89286 169.058 8.64286L168.683 3.76786C168.766 3.10119 169.016 2.51786 169.433 2.01786C170.016 1.51786 170.766 1.30952 171.683 1.39286L172.933 2.01786C173.516 2.93452 173.787 3.97619 173.745 5.14286C173.704 6.30952 173.766 7.43452 173.933 8.51786L185.245 8.64286L186.495 9.26786C186.995 9.85119 187.204 10.6012 187.12 11.5179L186.495 12.8304L185.12 13.5804L170.433 13.4554L166.058 23.8929L171.058 27.5179C171.891 26.5179 172.62 25.4554 173.245 24.3304C173.87 23.2054 174.454 22.0595 174.995 20.8929C175.579 20.3929 176.329 20.1845 177.245 20.2679L178.495 20.8929C179.079 21.6429 179.287 22.5179 179.12 23.5179C177.87 26.1845 176.339 28.7262 174.527 31.1429C172.714 33.5595 171.089 35.8616 169.652 38.0491C168.214 40.2366 165.975 42.9554 162.933 46.2054C162.35 46.622 161.683 46.872 160.933 46.9554Z" fill="#212529"/>
<path d="M103.497 58.6429L102.247 58.0179C101.497 56.1845 101.122 54.1637 101.122 51.9554C101.122 49.747 100.997 44.0387 100.747 34.8304L85.4973 35.0804L84.2473 34.4554C83.7473 33.872 83.539 33.122 83.6223 32.2054L84.2473 30.9554C84.8307 30.4554 85.4557 30.1637 86.1223 30.0804L100.622 29.9554L100.497 24.2054H90.2473L88.9973 23.5804C88.4973 22.9137 88.289 22.122 88.3723 21.2054L88.9973 19.9554L90.2473 19.3304H100.122L99.7473 5.26786L100.372 4.01786C101.039 3.51786 101.831 3.30952 102.747 3.39286L103.997 4.01786C104.581 5.01786 104.872 6.14286 104.872 7.39286L104.997 19.2054H115.685L116.935 19.8304C117.435 20.4137 117.643 21.1637 117.56 22.0804L116.935 23.3304L115.56 24.0804H105.372L105.497 30.0804L119.185 30.5804L120.435 31.2054C120.935 31.7887 121.143 32.5387 121.06 33.4554L120.435 34.7054C119.852 35.122 119.227 35.372 118.56 35.4554L105.622 34.9554L106.372 56.7679L105.747 58.0179C105.164 58.5179 104.414 58.7262 103.497 58.6429ZM77.1223 58.3929L75.8098 57.7679C75.3932 57.2679 75.1432 56.6845 75.0598 56.0179L74.1848 23.8304L69.3098 31.5804C68.7265 32.0804 67.9765 32.2887 67.0598 32.2054L65.8098 31.5804C65.3098 30.9137 65.1015 30.122 65.1848 29.2054C67.8515 25.0387 70.289 20.7366 72.4973 16.2991C74.7057 11.8616 77.2057 7.60119 79.9973 3.51786C80.664 3.01786 81.4557 2.80952 82.3723 2.89286L83.6223 3.51786C84.1223 4.18452 84.3307 4.97619 84.2473 5.89286C82.8307 8.14286 80.9557 11.372 78.6223 15.5804L79.9973 56.5179L79.3723 57.7679C78.789 58.2679 78.039 58.4762 77.1223 58.3929ZM94.6223 17.7054L93.3723 17.0804C92.7057 15.5804 91.9557 14.1533 91.1223 12.7991C90.289 11.4449 89.7473 9.93452 89.4973 8.26786L90.1223 7.01786C90.789 6.43452 91.6223 6.18452 92.6223 6.26786L93.8723 6.89286C94.3723 8.39286 95.0598 9.83036 95.9348 11.2054C96.8098 12.5804 97.3307 14.122 97.4973 15.8304L96.8723 17.0804C96.289 17.5804 95.539 17.7887 94.6223 17.7054ZM109.56 16.8304L108.247 16.2054C107.747 15.5387 107.539 14.7262 107.622 13.7679C108.164 12.3512 108.747 10.9554 109.372 9.58036C109.997 8.20536 110.643 6.85119 111.31 5.51786C111.977 5.01786 112.768 4.80952 113.685 4.89286L114.935 5.51786C115.435 6.18452 115.643 6.97619 115.56 7.89286C114.977 9.30952 114.372 10.7054 113.747 12.0804C113.122 13.4554 112.477 14.8304 111.81 16.2054C111.227 16.7054 110.477 16.9137 109.56 16.8304Z" fill="#212529"/>
<path d="M2.125 56.8929L0.875 56.2679C0.291667 54.5179 0 52.622 0 50.5804C0 48.5387 0 33.4762 0 5.39286C0.375 3.51786 1.375 2.72619 3 3.01786C8.875 3.18452 12.5625 3.33036 14.0625 3.45536C15.5625 3.58036 16.8333 3.78869 17.875 4.08036C18.9167 4.37202 19.2708 5.43452 18.9375 7.26786C18.0208 9.01786 17.1458 10.7574 16.3125 12.4866C15.4792 14.2158 14.6458 15.9554 13.8125 17.7054C15.9792 20.4554 17.25 23.1012 17.625 25.6429C18 28.1845 18.1042 30.6012 17.9375 32.8929C17.7708 35.1845 17.2708 36.872 16.4375 37.9554C15.6042 39.0387 14.5417 39.4554 13.25 39.2054C11.9583 38.9554 10.5729 38.3929 9.09375 37.5179C7.61458 36.6429 6.125 35.8304 4.625 35.0804L5 55.0179L4.375 56.2679C3.79167 56.7679 3.04167 56.9762 2.125 56.8929ZM27.8125 54.7054C26.3125 54.497 25.3438 53.9137 24.9062 52.9554C24.4688 51.997 24.0625 46.2887 23.6875 35.8304C23.7292 33.872 24.7708 32.9554 26.8125 33.0804C39.6042 33.3304 46.7188 33.497 48.1562 33.5804C49.5938 33.6637 50.2708 34.5283 50.1875 36.1741C50.1042 37.8199 49.8333 43.1637 49.375 52.2054C49.4167 53.747 48.3333 54.4554 46.125 54.3304L27.8125 54.7054ZM44.5 49.4554L45 38.4554L28.9375 37.9554L29.4375 49.5804L44.5 49.4554ZM12.9375 33.8304C13.1875 32.247 13.25 30.6637 13.125 29.0804C13 27.497 12.4583 25.7366 11.5 23.7991C10.5417 21.8616 9.69792 20.4866 8.96875 19.6741C8.23958 18.8616 8.11458 17.9345 8.59375 16.8929C9.07292 15.8512 9.72917 14.5491 10.5625 12.9866C11.3958 11.4241 12.1458 9.80952 12.8125 8.14286L4.875 7.89286L4.75 29.2054C6 30.122 7.32292 30.9345 8.71875 31.6429C10.1146 32.3512 11.5208 33.0804 12.9375 33.8304ZM21.9375 29.9554L20.6875 29.3304C20.1042 28.6637 19.8542 27.872 19.9375 26.9554L20.5625 25.7054L21.8125 25.0804H28.8125L27.0625 12.5804L22.4375 12.7054C21.7708 12.622 21.1875 12.3512 20.6875 11.8929C20.1875 11.3095 19.9792 10.5595 20.0625 9.64286L20.6875 8.39286C21.2708 7.97619 21.8958 7.72619 22.5625 7.64286L33.8125 7.51786L33.6875 2.39286C33.7708 1.72619 34.0208 1.14286 34.4375 0.642857C35.0208 0.142857 35.7708 -0.0654762 36.6875 0.0178571L37.9375 0.642857C38.4375 1.55952 38.6458 2.64286 38.5625 3.89286C38.4792 5.14286 38.5208 6.30952 38.6875 7.39286H51.25L52.75 8.14286C53.25 8.72619 53.4583 9.47619 53.375 10.3929L52.75 11.6429C51.9167 12.2679 50.9167 12.5179 49.75 12.3929L46.375 12.2679L45.5 24.7054H52.375L53.625 25.3304C54.125 25.9137 54.3333 26.6637 54.25 27.5804L53.625 28.8304C53.0417 29.247 52.4167 29.497 51.75 29.5804L21.9375 29.9554ZM40.4375 24.7054L41.5 12.2679L32.0625 12.5804L33.6875 24.9554L40.4375 24.7054Z" fill="#212529"/>
</svg>
