<svg width="319" height="57" viewBox="0 0 319 57" fill="none" xmlns="http://www.w3.org/2000/svg">
<path d="M309.195 54.8362C308.028 54.5029 306.986 53.8779 306.07 52.9612C304.57 51.4612 303.695 49.7112 303.445 47.7112L304.07 46.4612C304.653 45.9612 305.403 45.7529 306.32 45.8362L307.57 46.4612L308.695 47.8362C309.903 43.9612 310.924 40.2841 311.757 36.805C312.59 33.3258 313.215 26.8779 313.632 17.4612L292.82 17.3362C292.07 22.7529 290.184 28.43 287.163 34.3675C284.143 40.305 281.049 45.9195 277.882 51.2112C277.215 51.9612 276.32 52.2945 275.195 52.2112L273.945 51.5862C273.445 51.0029 273.236 50.2529 273.32 49.3362C276.111 44.7945 279.018 39.6383 282.038 33.8675C285.059 28.0966 286.945 22.6279 287.695 17.4612C282.861 17.2945 279.643 17.232 278.038 17.2737C276.434 17.3154 274.965 17.0445 273.632 16.4612C273.132 15.8779 272.924 15.1279 273.007 14.2112L273.632 12.9612C275.299 12.2945 277.132 12.0862 279.132 12.3362L288.57 12.4612C288.903 10.8362 289.236 8.92997 289.57 6.74247C289.903 4.55497 290.403 2.71122 291.07 1.21122C291.653 0.711217 292.403 0.502883 293.32 0.586217L294.57 1.21122C295.07 1.87788 295.278 2.66955 295.195 3.58622C294.778 4.75288 294.445 6.2008 294.195 7.92997C293.945 9.65913 293.736 11.1695 293.57 12.4612C307.778 12.2945 315.59 12.3258 317.007 12.555C318.424 12.7841 318.965 14.0029 318.632 16.2112C317.882 27.5445 317.038 35.5029 316.101 40.0862C315.163 44.6695 314.153 48.3987 313.07 51.2737C311.986 54.1487 310.695 55.3362 309.195 54.8362Z" fill="#212529"/>
<path d="M213.76 54.2115C211.968 54.2115 210.926 53.6282 210.635 52.4615C210.343 51.2949 210.041 48.7845 209.729 44.9303C209.416 41.0761 209.176 37.5032 209.01 34.2115C208.843 32.4615 209.322 31.4511 210.447 31.1803C211.572 30.9095 216.239 31.024 224.447 31.524C227.281 29.149 228.968 27.7115 229.51 27.2115C230.051 26.7115 231.031 26.3782 232.447 26.2115L233.697 26.8365C234.197 27.4199 234.406 28.149 234.322 29.024L232.197 31.399C243.239 31.649 249.114 31.847 249.822 31.9928C250.531 32.1386 250.718 33.524 250.385 36.149L250.135 51.774C250.26 53.1907 249.885 53.9511 249.01 54.0553C248.135 54.1595 236.385 54.2115 213.76 54.2115ZM245.197 48.899V45.149L214.885 45.024L215.197 49.149L245.197 48.899ZM245.322 40.274L245.447 36.399L214.01 35.899L214.26 40.274H245.322ZM250.822 27.9615C249.072 27.2949 247.385 26.2324 245.76 24.774C245.301 24.1907 245.114 23.4407 245.197 22.524L245.76 21.274C246.343 20.8157 247.114 20.6282 248.072 20.7115L249.76 21.524L249.26 5.96154H233.947L232.76 5.39904C232.135 4.73237 231.864 3.94071 231.947 3.02404L232.572 1.77404L233.822 1.14904H251.197C252.739 1.14904 253.614 1.73237 253.822 2.89904C254.031 4.06571 254.281 11.6699 254.572 25.7115C253.947 27.8365 252.697 28.5865 250.822 27.9615ZM225.947 27.5865C224.697 27.3365 223.52 26.9303 222.416 26.3678C221.312 25.8053 220.239 25.149 219.197 24.399C218.697 23.774 218.489 23.024 218.572 22.149L219.197 20.899C219.781 20.4407 220.51 20.2532 221.385 20.3365L224.322 21.774L224.822 5.39904L205.697 5.14904L204.51 4.52404C203.926 3.85737 203.676 3.06571 203.76 2.14904L204.385 0.961538C206.218 0.128205 209.354 -0.163462 213.791 0.0865385C218.229 0.336538 221.468 0.482372 223.51 0.524038C225.551 0.565705 227.145 0.721955 228.291 0.992788C229.437 1.26362 229.926 2.44071 229.76 4.52404C229.426 14.8157 229.239 20.7636 229.197 22.3678C229.156 23.972 228.916 25.3053 228.479 26.3678C228.041 27.4303 227.197 27.8365 225.947 27.5865ZM234.697 24.149L233.447 23.4615C232.989 22.9199 232.801 22.1907 232.885 21.274L233.447 20.0865C235.322 19.2532 237.229 18.4615 239.166 17.7115C241.104 16.9615 243.072 16.3157 245.072 15.774L246.26 16.3365C246.76 16.9615 246.968 17.7115 246.885 18.5865L246.26 19.8365C244.426 20.7949 242.551 21.6386 240.635 22.3678C238.718 23.097 236.739 23.6907 234.697 24.149ZM208.635 22.149C207.968 22.0657 207.406 21.8157 206.947 21.399C206.447 20.8574 206.239 20.1282 206.322 19.2115L206.947 18.024C208.739 17.0657 210.666 16.3678 212.729 15.9303C214.791 15.4928 216.822 14.9824 218.822 14.399L220.072 15.024C220.531 15.5657 220.718 16.3157 220.635 17.274L220.072 18.4615C218.322 19.4615 216.458 20.1386 214.479 20.4928C212.499 20.847 210.551 21.399 208.635 22.149ZM239.947 14.399C238.072 13.8157 236.239 13.2532 234.447 12.7115C233.947 12.1282 233.739 11.3782 233.822 10.4615L234.447 9.14904C235.239 8.60737 236.176 8.39904 237.26 8.52404C238.968 8.77404 240.614 9.33654 242.197 10.2115C242.697 10.8782 242.906 11.6699 242.822 12.5865L242.197 13.774C241.614 14.274 240.864 14.4824 239.947 14.399ZM215.01 13.524C213.76 13.2324 212.468 13.0449 211.135 12.9615C209.801 12.8782 208.572 12.5865 207.447 12.0865C206.947 11.5032 206.739 10.7324 206.822 9.77404L207.447 8.52404C208.406 7.89904 209.531 7.71154 210.822 7.96154C213.031 8.12821 215.031 8.56571 216.822 9.27404C217.322 9.89904 217.531 10.6699 217.447 11.5865L216.822 12.8365C216.239 13.2115 215.635 13.4407 215.01 13.524Z" fill="#212529"/>
<path d="M163.45 56.7734L158.575 52.8984L158.45 51.3984L159.075 50.1484C159.659 49.6484 160.409 49.4401 161.325 49.5234L162.325 49.8984V47.3984L140.888 47.2734L139.638 46.6484C139.138 46.0651 138.93 45.3151 139.013 44.3984L139.638 43.1484C140.888 42.3568 142.346 42.0026 144.013 42.0859L161.45 42.4609L160.075 41.0859C159.034 39.5026 158.992 38.2943 159.95 37.4609L165.45 34.7109L156.7 34.9609C154.95 34.9609 153.367 34.5859 151.95 33.8359C151.45 33.2526 151.242 32.5026 151.325 31.5859L151.95 30.3359C152.7 29.7526 153.617 29.5443 154.7 29.7109H173.075C175.117 30.3776 175.742 31.3359 174.95 32.5859C172.534 35.2526 169.492 37.5859 165.825 39.5859L166.575 42.3359L185.513 41.8359L186.763 42.4609C187.263 43.0859 187.471 43.8568 187.388 44.7734L186.763 46.0234C185.68 46.6901 184.471 46.9818 183.138 46.8984L167.2 47.2734C167.284 49.0234 167.221 50.5651 167.013 51.8984C166.805 53.2318 166.398 54.4714 165.794 55.6172C165.19 56.763 164.409 57.1484 163.45 56.7734ZM186.513 34.4609C185.846 34.3776 185.263 34.1276 184.763 33.7109V33.4609H184.513C184.013 32.8776 183.805 32.1276 183.888 31.2109L184.638 27.4609L140.513 27.7109L141.263 32.3359L140.638 33.5859C139.971 34.0859 139.18 34.2943 138.263 34.2109L137.013 33.5859C136.346 32.3359 135.95 30.9818 135.825 29.5234C135.7 28.0651 135.565 26.5755 135.419 25.0547C135.273 23.5339 135.669 22.7005 136.607 22.5547C137.544 22.4089 139.555 22.4193 142.638 22.5859L142.138 4.27344C142.055 2.5651 142.534 1.59635 143.575 1.36719C144.617 1.13802 145.961 0.898438 147.607 0.648438C149.252 0.398438 150.909 0.231771 152.575 0.148438L153.825 0.773438C154.325 1.35677 154.534 2.10677 154.45 3.02344L153.825 4.27344C152.825 4.77344 150.575 5.23177 147.075 5.64844L147.2 9.14844H153.825C154.409 9.39844 154.825 9.8151 155.075 10.3984V11.4609C154.825 12.0443 154.409 12.4609 153.825 12.7109L147.325 12.8359V15.4609H153.075C153.659 15.7109 154.075 16.1276 154.325 16.7109V17.7109C154.075 18.2943 153.659 18.7109 153.075 18.9609L147.45 19.2109L147.7 22.8359L178.513 22.5859V18.7109C176.388 18.9609 174.45 18.7109 172.7 17.9609C172.367 17.5443 172.242 17.0026 172.325 16.3359C172.575 15.7526 172.992 15.3359 173.575 15.0859H178.263L178.075 12.7109L173.075 13.0859L171.7 12.3359C171.367 11.9193 171.242 11.3568 171.325 10.6484L171.825 9.77344C172.742 9.35677 173.742 9.1276 174.825 9.08594C175.909 9.04427 176.992 9.02344 178.075 9.02344V5.52344L173.575 5.27344L172.325 4.64844C171.742 3.98177 171.492 3.14844 171.575 2.14844L172.2 0.898438C173.034 0.315104 174.034 0.106771 175.2 0.273438C178.909 0.690104 181.138 0.919271 181.888 0.960938C182.638 1.0026 183.013 1.6901 183.013 3.02344L183.388 22.4609C186.221 22.2943 188.148 22.4193 189.169 22.8359C190.19 23.2526 190.346 24.5234 189.638 26.6484L188.388 33.7109C187.805 34.1276 187.18 34.3776 186.513 34.4609ZM166.825 20.4609C165.575 19.7943 164.325 19.0443 163.075 18.2109C161.825 19.4609 160.284 20.1276 158.45 20.2109C157.867 19.9609 157.45 19.5443 157.2 18.9609V17.9609C157.45 17.3776 157.867 16.9609 158.45 16.7109L159.95 15.9609L158.7 14.7109C158.367 14.2943 158.242 13.7526 158.325 13.0859C158.575 12.5026 158.992 12.0859 159.575 11.8359H160.825L163.45 13.5859C164.784 11.7943 166.45 10.8568 168.45 10.7734C169.034 11.0234 169.45 11.4609 169.7 12.0859V13.0859C169.45 13.6693 168.367 14.6693 166.45 16.0859C167.617 16.5026 168.575 17.2109 169.325 18.2109V19.2109C169.075 19.7943 168.659 20.2109 168.075 20.4609H166.825ZM157.45 9.39844C156.867 9.14844 156.45 8.73177 156.2 8.14844V7.02344L157.45 5.64844L159.575 4.64844L158.325 3.77344C157.909 3.27344 157.742 2.64844 157.825 1.89844C158.075 1.3151 158.492 0.898438 159.075 0.648438H160.325C161.242 1.3151 162.242 1.85677 163.325 2.27344C164.575 0.773438 166.159 0.0234375 168.075 0.0234375C168.659 0.273438 169.075 0.690104 169.325 1.27344V2.27344C169.075 2.85677 168.2 3.52344 166.7 4.27344L167.825 5.27344C168.159 5.77344 168.284 6.35677 168.2 7.02344C167.95 7.60677 167.534 8.02344 166.95 8.27344H165.95L162.825 6.77344C161.242 8.10677 159.45 8.98177 157.45 9.39844Z" fill="#212529"/>
<path d="M76.3271 53.1487C74.9938 53.232 73.9209 53.1383 73.1084 52.8675C72.2959 52.5966 71.8688 51.5654 71.8271 49.7737V34.3362L72.4521 33.0862C73.1188 32.5862 73.9105 32.3779 74.8271 32.4612L76.0771 33.0862L76.7021 34.3362V48.2737L92.7646 48.5237L93.0146 22.8362L77.4521 23.0862C75.7021 23.0862 74.7021 22.5445 74.4521 21.4612C74.2021 20.3779 74.1188 15.0237 74.2021 5.39872L74.8271 4.14872C75.4105 3.64872 76.1605 3.44038 77.0771 3.52372L78.3271 4.14872L79.0771 5.64872L79.2021 18.2112L93.0146 17.9612L92.7646 3.27372L93.3896 2.02372C94.0563 1.52372 94.848 1.31538 95.7646 1.39872L97.0146 2.02372C97.598 3.10705 97.848 4.31538 97.7646 5.64872L97.8896 17.9612L112.952 18.3362C112.869 15.6695 112.785 13.43 112.702 11.6175C112.619 9.80497 112.452 8.02372 112.202 6.27372L112.827 5.02372C113.494 4.52372 114.285 4.31538 115.202 4.39872L116.452 5.02372C117.202 7.52372 117.577 10.18 117.577 12.9925C117.577 15.805 117.744 18.5862 118.077 21.3362C118.035 22.6695 116.994 23.3362 114.952 23.3362L97.8896 22.8362L97.6396 48.6487H115.577L114.952 36.5862C115.035 35.9195 115.285 35.3362 115.702 34.8362C116.285 34.3362 117.035 34.1279 117.952 34.2112L119.202 34.8362C120.035 36.4195 120.452 38.1695 120.452 40.0862L120.702 51.0237C120.452 52.8154 119.285 53.6487 117.202 53.5237L76.3271 53.1487Z" fill="#212529"/>
<path d="M22.9554 54.8996L21.7054 54.2746C21.2054 53.6913 20.997 52.9413 21.0804 52.0246C24.3304 47.8579 26.8095 43.3059 28.5179 38.3684C30.2262 33.4309 30.9554 28.2954 30.7054 22.9621H24.5804C23.8304 22.8788 23.1637 22.5871 22.5804 22.0871C22.0804 21.5038 21.872 20.7538 21.9554 19.8371L22.5804 18.5871C23.247 18.0871 24.0387 17.8788 24.9554 17.9621L54.7679 18.2121L56.0179 18.8371C56.5179 19.4204 56.7262 20.1704 56.6429 21.0871L56.0179 22.3371C55.4345 22.7538 54.8095 23.0038 54.1429 23.0871H44.8929C45.2262 31.4204 45.497 36.9725 45.7054 39.7434C45.9137 42.5142 46.7054 44.8163 48.0804 46.6496C49.4554 48.4829 51.1845 49.3996 53.2679 49.3996C53.0179 47.2329 53.2679 45.2746 54.0179 43.5246C54.6012 42.9829 55.3512 42.7538 56.2679 42.8371L57.5179 43.5246L58.1429 44.7746V52.5246C58.2262 54.0663 57.0595 54.7329 54.6429 54.5246C52.6429 54.4413 50.7262 54.1288 48.8929 53.5871C47.0595 53.0454 45.3408 51.7121 43.7366 49.5871C42.1324 47.4621 41.1845 44.7434 40.8929 41.4309C40.6012 38.1184 40.2887 31.9621 39.9554 22.9621H35.5804C35.747 28.1288 35.122 33.1809 33.7054 38.1184C32.2887 43.0559 29.622 48.2746 25.7054 53.7746C24.9554 54.6079 24.0387 54.9829 22.9554 54.8996ZM2.39286 42.5871C1.72619 42.5038 1.14286 42.2538 0.642857 41.8371C0.142857 41.1704 -0.0654762 40.3788 0.0178571 39.4621L0.642857 38.2121C1.22619 37.7121 1.97619 37.5038 2.89286 37.5871L9.51786 37.3371L9.76786 27.7121L3.76786 28.2121L2.51786 27.5871C2.01786 26.9204 1.80952 26.1288 1.89286 25.2121L2.51786 23.9621C3.60119 23.4621 4.76786 23.1704 6.01786 23.0871C7.26786 23.0038 8.51786 22.9204 9.76786 22.8371L9.64286 13.7121L2.26786 14.2121L0.767857 13.4621C0.267857 12.8788 0.0595238 12.1079 0.142857 11.1496L0.767857 9.89961C2.60119 9.31628 4.51786 9.00378 6.51786 8.96211C8.51786 8.92044 13.1637 8.81628 20.4554 8.64961L21.7054 9.27461C22.2054 9.94128 22.4137 10.7538 22.3304 11.7121L21.7054 12.9621L20.4554 13.5871H14.5804L14.7054 22.4621L18.5804 22.3371L19.8304 22.9621C20.3304 23.6288 20.5387 24.4204 20.4554 25.3371L19.8304 26.5871C18.3304 27.2538 16.6637 27.5454 14.8304 27.4621L14.4554 36.4621C16.7054 36.1288 18.7054 35.9204 20.4554 35.8371L21.7054 36.4621C22.2054 37.0454 22.4137 37.7954 22.3304 38.7121L21.7054 39.9621C18.622 40.7121 15.4658 41.3371 12.2366 41.8371C9.00744 42.3371 5.72619 42.5871 2.39286 42.5871ZM48.3929 7.39961L28.0804 7.27461C27.4137 7.19128 26.8304 6.94128 26.3304 6.52461C25.8304 5.94128 25.622 5.19128 25.7054 4.27461L26.3304 3.02461C27.8304 2.35794 29.497 2.10794 31.3304 2.27461H47.0179C48.4345 2.10794 49.7262 2.35794 50.8929 3.02461C51.3929 3.69128 51.6012 4.48294 51.5179 5.39961L50.8929 6.64961C50.2262 7.23294 49.3929 7.48294 48.3929 7.39961Z" fill="#212529"/>
</svg>
