<svg width="332" height="42" viewBox="0 0 332 42" fill="none" xmlns="http://www.w3.org/2000/svg">
<rect width="332" height="20" transform="translate(0 22)" fill="#FEE6B2"/>
<path d="M296.775 35.04L295.987 34.6446C295.725 34.2756 295.567 33.8539 295.515 33.3795C296.512 31.3763 297.248 29.2744 297.72 27.0735C298.193 24.8727 298.666 22.6917 299.138 20.5304C299.559 20.2141 300.057 20.0823 300.635 20.135L301.423 20.5304C301.738 20.8994 301.869 21.3738 301.817 21.9537L301.108 26.1445L303.786 27.884L303.629 16.0233L297.484 16.2606L296.696 15.8652C296.329 15.4435 296.171 14.9427 296.224 14.3628L296.618 13.5721L297.405 13.1768L303.471 12.9396L303.314 7.44411H298.745C298.324 7.3914 297.957 7.23326 297.642 6.96969C297.327 6.60069 297.195 6.12626 297.248 5.5464L297.642 4.75569L298.429 4.36033H303.392L303.314 1.83006C303.366 1.40834 303.524 1.03934 303.786 0.723058C304.233 0.406773 304.745 0.274988 305.322 0.327702L306.11 0.723058C306.425 1.09206 306.557 1.56648 306.504 2.14634V4.36033L311.073 4.20219L312.018 4.75569C312.334 5.12469 312.465 5.59912 312.412 6.17897L312.018 6.96969C311.651 7.23326 311.257 7.3914 310.837 7.44411H306.425L306.583 12.7814L310.837 12.8605C311.52 12.8078 312.123 12.9923 312.649 13.414C312.964 13.783 313.095 14.2574 313.043 14.8373L312.649 15.628C312.123 15.997 311.493 16.1288 310.758 16.0233L306.74 15.9443L306.662 20.5304L311.388 20.4513L312.176 20.8467C312.544 21.2684 312.701 21.7692 312.649 22.349L312.255 23.1398L311.467 23.5351L306.898 23.6142L306.977 29.5841C309.865 30.5856 312.832 31.205 315.879 31.4422C318.925 31.6794 323.901 31.8244 330.807 31.8771L331.595 32.2725C331.91 32.6415 332.041 33.1159 331.988 33.6958L331.516 34.5655C331.148 34.8291 330.754 34.9873 330.334 35.04C322.378 34.9873 316.299 34.6578 312.097 34.0516C307.896 33.4454 303.944 31.9298 300.241 29.505C300.084 30.4538 299.808 31.3368 299.414 32.1539C299.02 32.9709 298.613 33.8012 298.193 34.6446C297.825 34.9609 297.353 35.0927 296.775 35.04ZM323.047 29.0306C321.892 28.9251 320.736 28.767 319.581 28.5561C318.426 28.3453 317.415 27.5743 316.548 26.2433C315.682 24.9123 315.209 23.3374 315.13 21.5188C315.051 19.7002 315.025 18.2242 315.051 17.0908C315.078 15.9574 315.091 15.1404 315.091 14.6396C315.091 14.1388 315.406 13.8357 316.036 13.7303C316.666 13.6248 319.489 13.5985 324.505 13.6512L324.898 8.35343L316.43 8.59065L315.642 8.19529C315.327 7.74722 315.196 7.23326 315.248 6.6534L315.642 5.86269C316.43 5.44097 317.323 5.23012 318.321 5.23012C323.704 5.1774 326.73 5.21694 327.4 5.34873C328.069 5.48051 328.286 6.32394 328.05 7.879L327.577 15.3908C327.341 16.4187 326.579 16.8668 325.292 16.735H318.242C318.084 17.473 318.019 18.29 318.045 19.1862C318.071 20.0823 318.137 21.0312 318.242 22.0328C318.347 23.0343 318.701 23.8909 319.305 24.6026C319.909 25.3142 320.75 25.7096 321.826 25.7886C322.903 25.8677 324.452 25.8809 326.474 25.8282C326.316 24.7212 326.474 23.746 326.947 22.9025C327.314 22.5863 327.787 22.4545 328.365 22.5072L329.152 22.9025C329.468 23.5878 329.599 24.339 329.546 25.1561C329.494 25.9731 329.468 26.7309 329.468 27.4294C329.468 28.1278 329.218 28.5561 328.719 28.7143C328.22 28.8724 327.432 28.9647 326.356 28.991C325.279 29.0174 324.176 29.0306 323.047 29.0306Z" fill="#212529"/>
<path d="M264.005 35.2762C263.164 34.96 262.357 34.5382 261.582 34.0111C260.808 33.484 260.053 32.9041 259.317 32.2715C258.95 31.8498 258.792 31.349 258.845 30.7692L259.239 29.9785C259.606 29.6622 260.079 29.5304 260.657 29.5831C261.366 30.0048 262.035 30.4529 262.665 30.9273L262.508 23.2969C261.746 23.6132 260.88 23.9691 259.908 24.3644C258.937 24.7598 257.899 25.0365 256.796 25.1947L256.009 24.7993C255.694 24.4303 255.562 23.9559 255.615 23.376L256.009 22.5853C257.112 22.0582 258.254 21.5969 259.435 21.2016C260.617 20.8062 261.589 20.424 262.35 20.055L262.271 10.4083L256.639 10.6456C256.219 10.5928 255.851 10.4347 255.536 10.1711C255.221 9.80213 255.09 9.3277 255.142 8.74784L255.536 7.95713C256.481 7.56177 257.505 7.3641 258.608 7.3641C259.711 7.3641 260.801 7.33774 261.878 7.28502L261.523 1.5919L261.956 0.801183C262.376 0.484898 262.875 0.353113 263.453 0.405827L264.241 0.801183C264.556 1.17018 264.74 1.61825 264.792 2.14539L264.95 7.20595H267.392L268.18 7.12688L268.968 7.52224C269.283 7.97031 269.414 8.48427 269.361 9.06413L268.968 9.85484C267.917 10.3293 266.709 10.4874 265.344 10.3293L265.501 18.7108C266.552 18.5 267.339 18.4209 267.865 18.4736L268.652 18.869C268.968 19.238 269.099 19.7124 269.046 20.2922L268.652 21.083L265.659 22.1109L265.816 34.0902C265.475 35.0654 264.871 35.4607 264.005 35.2762ZM284.132 35.4739L283.344 35.0786C282.977 33.8134 282.793 32.456 282.793 31.0064C282.793 29.5568 282.688 23.8241 282.478 13.8084L275.9 13.8875C275.585 19.4225 275.335 23.4617 275.152 26.0051C274.968 28.5486 274.324 30.9537 273.221 33.2204C272.801 33.5367 272.302 33.6685 271.725 33.6157L270.937 33.2204C270.622 32.8514 270.491 32.377 270.543 31.7971C271.488 29.7413 272.027 27.5602 272.158 25.254C272.289 22.9477 272.427 20.6547 272.572 18.3748C272.716 16.0949 272.782 14.1181 272.768 12.4444C272.755 10.7707 272.709 9.47925 272.631 8.56993C272.552 7.66061 272.434 6.75788 272.276 5.86174C272.329 5.44003 272.486 5.07103 272.749 4.75474C274.272 4.06946 275.782 3.30511 277.278 2.46168C278.775 1.61825 280.351 0.959326 282.005 0.484898L282.793 0.880255C283.108 1.24925 283.239 1.72368 283.187 2.30354L282.793 3.09425L275.506 6.8106L275.821 10.8037L288.465 10.7246L289.253 11.12C289.568 11.489 289.699 11.9634 289.646 12.5433L289.253 13.334C288.15 13.8611 286.916 14.0456 285.55 13.8875C285.813 25.4846 285.944 32.2847 285.944 34.2879L285.55 35.0786C285.182 35.3948 284.71 35.5266 284.132 35.4739Z" fill="#212529"/>
<path d="M239.507 32.7472C238.509 32.6418 237.577 32.365 236.71 31.917C235.844 31.4689 235.03 30.9022 234.268 30.2169C233.507 29.5317 233.021 28.708 232.811 27.746C232.601 26.7839 232.562 25.6967 232.693 24.4843C232.824 23.2719 233.218 22.1121 233.874 21.0051C234.531 19.8981 235.306 18.8175 236.198 17.7632C235.568 17.2361 235.004 16.6826 234.505 16.1027C234.006 15.5229 233.586 14.8244 233.244 14.0073C232.903 13.1903 232.627 12.281 232.417 11.2794C232.207 10.2778 232.155 9.25648 232.26 8.21537C232.365 7.17427 232.877 6.232 233.796 5.38857C234.715 4.54515 235.752 3.95211 236.907 3.60947C238.063 3.26683 239.146 3.17458 240.157 3.33272C241.168 3.49086 242.015 3.68854 242.698 3.92576C243.38 4.16297 244.155 4.66375 245.021 5.42811C245.888 6.19247 246.387 7.08202 246.518 8.09676C246.649 9.11151 246.676 10.0801 246.597 11.0026C246.518 11.9251 246.308 12.7422 245.967 13.4538C245.625 14.1655 245.061 14.9035 244.273 15.6678C243.485 16.4322 242.698 16.9989 241.91 17.3679C242.934 18.1849 243.873 18.9559 244.726 19.6807C245.579 20.4055 246.19 21.1765 246.558 21.9935C246.925 22.8106 247.175 23.5881 247.306 24.3261C247.437 25.0641 247.45 25.9537 247.345 26.9948C247.24 28.0359 246.676 29.0572 245.652 30.0588C244.628 31.0604 243.643 31.7588 242.698 32.1542C241.752 32.5495 240.689 32.7472 239.507 32.7472ZM243.249 28.3983C243.722 27.9502 244.05 27.4099 244.234 26.7773C244.417 26.1448 244.444 25.4463 244.312 24.682C244.181 23.9176 243.748 23.1664 243.013 22.4284C242.277 21.6904 241.588 21.0842 240.945 20.6098C240.301 20.1354 239.665 19.74 239.034 19.4237C237.564 21.1106 236.697 22.2439 236.435 22.8238C236.172 23.4036 235.975 24.0362 235.844 24.7215C235.713 25.4068 235.824 26.2041 236.179 27.1134C236.533 28.0227 236.993 28.6619 237.557 29.0309C238.122 29.3999 238.923 29.558 239.96 29.5053C240.997 29.4526 242.094 29.0836 243.249 28.3983ZM239.822 14.9167C241.056 14.2841 241.936 13.6911 242.461 13.1376C242.986 12.5841 243.334 11.7472 243.505 10.627C243.676 9.50687 243.479 8.60414 242.914 7.91885C242.35 7.23357 241.693 6.77232 240.945 6.53511C240.196 6.29789 239.304 6.24518 238.266 6.37696C237.229 6.50875 236.441 6.92387 235.903 7.62234C235.365 8.3208 235.161 9.1181 235.292 10.0142C235.424 10.9104 235.673 11.8065 236.041 12.7027C236.408 13.5988 237.301 14.5477 238.719 15.5492L239.822 14.9167Z" fill="#212529"/>
<path d="M217.728 32.7472C216.73 32.6418 215.798 32.365 214.931 31.917C214.065 31.4689 213.251 30.9022 212.489 30.2169C211.728 29.5317 211.242 28.708 211.032 27.746C210.822 26.7839 210.782 25.6967 210.914 24.4843C211.045 23.2719 211.439 22.1121 212.095 21.0051C212.752 19.8981 213.526 18.8175 214.419 17.7632C213.789 17.2361 213.224 16.6826 212.725 16.1027C212.226 15.5229 211.806 14.8244 211.465 14.0073C211.124 13.1903 210.848 12.281 210.638 11.2794C210.428 10.2778 210.375 9.25648 210.48 8.21537C210.585 7.17427 211.097 6.232 212.016 5.38857C212.935 4.54515 213.973 3.95211 215.128 3.60947C216.283 3.26683 217.367 3.17458 218.378 3.33272C219.389 3.49086 220.235 3.68854 220.918 3.92576C221.601 4.16297 222.376 4.66375 223.242 5.42811C224.109 6.19247 224.608 7.08202 224.739 8.09676C224.87 9.11151 224.896 10.0801 224.818 11.0026C224.739 11.9251 224.529 12.7422 224.187 13.4538C223.846 14.1655 223.282 14.9035 222.494 15.6678C221.706 16.4322 220.918 16.9989 220.13 17.3679C221.155 18.1849 222.093 18.9559 222.947 19.6807C223.8 20.4055 224.411 21.1765 224.778 21.9935C225.146 22.8106 225.395 23.5881 225.527 24.3261C225.658 25.0641 225.671 25.9537 225.566 26.9948C225.461 28.0359 224.896 29.0572 223.872 30.0588C222.848 31.0604 221.864 31.7588 220.918 32.1542C219.973 32.5495 218.909 32.7472 217.728 32.7472ZM221.47 28.3983C221.942 27.9502 222.271 27.4099 222.454 26.7773C222.638 26.1448 222.664 25.4463 222.533 24.682C222.402 23.9176 221.969 23.1664 221.233 22.4284C220.498 21.6904 219.809 21.0842 219.165 20.6098C218.522 20.1354 217.885 19.74 217.255 19.4237C215.785 21.1106 214.918 22.2439 214.655 22.8238C214.393 23.4036 214.196 24.0362 214.065 24.7215C213.933 25.4068 214.045 26.2041 214.399 27.1134C214.754 28.0227 215.213 28.6619 215.778 29.0309C216.343 29.3999 217.143 29.558 218.181 29.5053C219.218 29.4526 220.314 29.0836 221.47 28.3983ZM218.043 14.9167C219.277 14.2841 220.157 13.6911 220.682 13.1376C221.207 12.5841 221.555 11.7472 221.726 10.627C221.896 9.50687 221.699 8.60414 221.135 7.91885C220.57 7.23357 219.914 6.77232 219.165 6.53511C218.417 6.29789 217.524 6.24518 216.487 6.37696C215.45 6.50875 214.662 6.92387 214.124 7.62234C213.585 8.3208 213.382 9.1181 213.513 10.0142C213.644 10.9104 213.894 11.8065 214.262 12.7027C214.629 13.5988 215.522 14.5477 216.94 15.5492L218.043 14.9167Z" fill="#212529"/>
<path d="M195.2 35.0412C194.439 34.8831 193.73 34.5998 193.073 34.1912C192.417 33.7827 191.813 33.2753 191.261 32.6691C190.894 32.2474 190.736 31.7598 190.789 31.2063L191.183 30.4551C191.524 30.1388 191.97 30.007 192.522 30.0597C193.257 30.5605 193.979 31.0745 194.688 31.6016L194.452 21.6782L179.642 21.9945C179.432 24.0767 179.176 26.1721 178.874 28.2806C178.572 30.3892 177.83 32.3528 176.648 34.1715C176.228 34.6459 175.69 34.8567 175.033 34.804L174.285 34.4087C173.97 34.066 173.839 33.6048 173.891 33.0249C175.414 30.2311 176.287 27.2593 176.51 24.1096C176.734 20.96 176.878 17.5204 176.944 13.7908C177.009 10.0613 177.016 6.4438 176.963 2.93831C177.174 2.12124 177.738 1.68635 178.657 1.63364L196.106 1.23828C196.815 1.291 197.216 1.54798 197.308 2.00923C197.4 2.47047 197.459 3.14258 197.485 4.02554C197.511 4.9085 197.656 14.8385 197.918 33.8156C197.603 35.1335 196.697 35.542 195.2 35.0412ZM194.531 18.713L194.609 13.8897L180.115 14.285L179.878 18.9502L194.531 18.713ZM194.609 10.9245L194.452 4.20345L180.036 4.59881L180.115 11.2803L194.609 10.9245Z" fill="#212529"/>
<path d="M153.725 35.9887L152.937 35.5934C152.675 35.2244 152.517 34.8026 152.465 34.3282L152.543 27.449L145.138 27.5281C143.72 27.5808 142.434 27.3568 141.278 26.856C140.963 26.487 140.832 26.0126 140.884 25.4327L141.278 24.642C141.909 24.2203 142.67 24.0885 143.563 24.2466L144.311 24.2862L147.187 18.8698C145.033 18.7644 143.76 18.6326 143.366 18.4744C142.972 18.3163 142.775 17.9078 142.775 17.2488C142.775 16.5899 142.67 12.8472 142.46 6.02071C142.513 5.07186 143.064 4.492 144.114 4.28114H148.132L150.338 0.406652C150.758 0.0903671 151.257 -0.0414183 151.834 0.0112959L152.622 0.406652C152.937 0.775651 153.069 1.25008 153.016 1.82993C152.543 2.8315 151.992 3.67493 151.362 4.36021C155.905 4.36021 158.445 4.41293 158.984 4.51836C159.522 4.62378 159.876 4.97961 160.047 5.58582C160.218 6.19203 160.231 8.16881 160.086 11.5162C159.942 14.8635 159.798 16.9457 159.653 17.7628C159.509 18.5799 159.121 19.0213 158.491 19.0872C157.861 19.1531 156.916 19.107 155.655 18.9489L155.576 24.2466L161.721 24.642L162.588 25.1164C162.903 25.5381 163.034 26.0389 162.981 26.6188L162.588 27.449C162.115 27.7653 161.59 27.9234 161.012 27.9234L155.655 27.5281V34.5654L155.183 35.5934C154.815 35.9096 154.329 36.0414 153.725 35.9887ZM127.768 35.4352L126.98 35.0399C126.665 34.6709 126.534 34.1964 126.586 33.6166C127.427 29.4258 127.965 25.4327 128.201 21.6373C128.438 17.8419 128.602 14.6131 128.694 11.9511C128.786 9.28899 128.792 6.44242 128.713 3.41136C128.766 2.98965 128.924 2.62065 129.186 2.30436C129.554 1.98808 130.026 1.85629 130.604 1.90901L131.392 2.30436C131.759 2.77879 131.917 3.33229 131.865 3.96486L131.786 9.85567H135.37C135.475 4.92689 135.659 2.30436 135.922 1.98808C136.289 1.67179 136.762 1.54001 137.34 1.59272L138.127 1.98808C138.495 2.40979 138.652 2.93693 138.6 3.5695L138.442 9.85567C139.44 9.69752 140.307 9.82931 141.042 10.251C141.357 10.62 141.488 11.0944 141.436 11.6743L141.042 12.465C140.674 12.7286 140.281 12.8867 139.86 12.9394H131.707L131.471 18.0791L139.309 17.9209C140.202 17.9209 140.596 18.7907 140.491 20.5303L140.333 33.6166L139.939 34.4073C139.572 34.7236 139.099 34.8554 138.521 34.8026L137.733 34.4073C137.471 34.091 137.313 33.722 137.261 33.3003V21.0838L131.313 21.1629C131.103 23.4823 130.893 25.8215 130.683 28.1804C130.473 30.5394 130 32.7995 129.265 34.9608C128.845 35.3298 128.346 35.4879 127.768 35.4352ZM152.465 24.3257L152.543 18.8698H150.495L147.659 24.4048L152.465 24.3257ZM156.601 15.8651L156.758 13.1767L152.937 13.0976L153.016 15.786L156.601 15.8651ZM149.865 15.786V12.9394L145.847 12.7813L146.005 15.7069L149.865 15.786ZM156.837 10.0929L156.994 7.68121L152.78 7.44399L152.937 10.0138L156.837 10.0929ZM149.865 9.85567L149.708 7.44399L145.611 7.36492L145.69 9.69752L149.865 9.85567Z" fill="#212529"/>
<path d="M88.6579 33.3802C87.6076 33.3538 87.0167 33.1232 86.8854 32.6883C86.7541 32.2534 86.3734 28.1219 85.7432 20.2939C85.8219 19.0551 86.2093 18.3632 86.9051 18.2183C87.601 18.0733 92.1635 18.0272 100.593 18.0799C101.485 18.2644 101.945 18.5741 101.971 19.009C101.997 19.4439 101.971 21.5129 101.892 25.2161C101.814 28.9192 101.702 31.1332 101.558 31.858C101.413 32.5829 101.072 32.965 100.534 33.0046C99.9952 33.0441 96.0367 33.1693 88.6579 33.3802ZM106.343 32.6685C105.634 32.6158 105.214 32.2732 105.083 31.6406C104.952 31.008 104.558 27.1204 103.901 19.9776C103.954 19.1869 104.216 18.7256 104.689 18.5938C105.162 18.4621 107.216 18.4093 110.853 18.4357C114.49 18.4621 116.729 18.5148 117.569 18.5938C118.409 18.6729 118.803 19.0551 118.751 19.7404C118.751 27.094 118.711 31.0871 118.633 31.7197C118.554 32.3522 117.753 32.5895 116.23 32.4313L106.343 32.6685ZM98.5444 29.9801L98.6232 21.1637L88.8942 21.2427L89.5245 30.2964L98.5444 29.9801ZM115.6 29.3475L115.678 21.6381L107.21 21.4009L107.919 29.5057L115.6 29.3475ZM95.2358 15.3124C94.1854 15.3124 93.6274 14.9566 93.5618 14.2449C93.4961 13.5333 93.1613 10.0278 92.5574 3.72846C92.5049 2.54239 93.0563 1.98889 94.2117 2.06796H109.416C110.282 2.09432 110.676 2.48967 110.597 3.25403C110.282 9.92237 110.098 13.5531 110.046 14.1461C109.993 14.7391 109.416 14.9961 108.313 14.917L95.2358 15.3124ZM107.131 11.6751L107.525 5.15174H95.9448L96.7326 11.9123L107.131 11.6751Z" fill="#212529"/>
<path d="M50.2556 35.8311L49.4679 35.4357C49.2053 35.1458 49.0477 34.79 48.9952 34.3683L48.9164 20.0564C46.133 20.2936 44.4918 20.2343 43.9928 19.8785C43.4939 19.5227 43.4283 18.9296 43.7959 18.0994C44.1635 17.2691 44.6953 16.4586 45.3911 15.6679C46.087 14.8772 46.7107 14.0733 47.2621 13.2563C46.6581 12.5973 46.087 11.912 45.5487 11.2004C45.0104 10.4888 44.5771 9.90891 44.2489 9.46084C43.9206 9.01277 43.8222 8.53175 43.9535 8.01779C44.0848 7.50383 44.7215 6.4759 45.8638 4.93401C47.0061 3.39212 47.958 1.98861 48.7195 0.723468C49.1134 0.354469 49.6254 0.222683 50.2556 0.328112L51.0434 0.723468C51.3848 1.11882 51.5029 1.61961 51.3979 2.22582L51.0434 2.977L47.2621 8.47245C47.8661 9.47402 48.6013 10.357 49.4679 11.1213C49.993 10.5678 50.446 9.9748 50.8268 9.34223C51.2075 8.70966 51.6867 8.14299 52.2644 7.6422L53.1704 7.56313L53.9188 7.99802C54.2339 8.36702 54.3652 8.82827 54.3126 9.38177C53.6036 10.7523 52.678 12.0636 51.5357 13.3156C50.3935 14.5675 49.2972 15.8261 48.2468 17.0912L52.934 17.0121C52.3301 16.3532 52.0281 15.6152 52.0281 14.7981L52.3826 14.047C52.8027 13.7307 53.2885 13.5989 53.84 13.6516L54.5884 14.047C55.2711 15.154 56.0523 16.228 56.932 17.2691C57.8117 18.3102 58.4616 19.4765 58.8817 20.768L58.4878 21.5192C58.1202 21.8091 57.6607 21.9409 57.1092 21.9146L56.3608 21.5192L55.1398 19.8982L51.9493 20.0564L52.0281 34.6846L51.6342 35.4357C51.2929 35.752 50.8333 35.8838 50.2556 35.8311ZM57.9364 34.6055L57.188 34.2497C56.8992 33.8807 56.7679 33.4194 56.7941 32.8659L57.6607 30.3356C56.9517 30.731 56.3346 30.6256 55.8094 30.0194C55.4155 29.1496 54.851 28.3391 54.1157 27.5879C53.3804 26.8367 52.9603 25.9867 52.8553 25.0379L53.2492 24.2472C53.643 23.9045 54.142 23.7859 54.7459 23.8913L55.5337 24.2472C55.8225 24.9324 56.2361 25.565 56.7744 26.1449C57.3127 26.7247 57.7526 27.3573 58.0939 28.0426C59.2756 24.3526 60.2734 20.6231 61.0875 16.854C61.9015 13.0849 62.4529 9.24998 62.7418 5.34914C61.6389 5.34914 60.6017 5.1251 59.6301 4.67703C59.315 4.30803 59.1837 3.84678 59.2362 3.29328L59.6301 2.54211C60.0765 2.17311 60.6148 2.04132 61.245 2.14675C68.4137 2.19946 72.392 2.33784 73.1797 2.56187C73.9675 2.78591 74.2301 3.35918 73.9675 4.28167C73.311 5.57317 72.8318 6.91079 72.5298 8.29454C72.2279 9.67829 71.8274 11.0291 71.3285 12.3469C72.1688 12.4524 73.0485 12.5183 73.9675 12.5446C74.8866 12.571 75.6612 12.6435 76.2914 12.7621C76.9217 12.8807 77.1449 13.533 76.961 14.7191C76.2521 16.5641 75.4905 18.4025 74.6765 20.2343C73.8625 22.0661 72.9434 23.865 71.9193 25.6309C73.9938 27.4495 75.9501 28.9914 77.7882 30.2566C78.1033 30.6256 78.2346 31.0868 78.1821 31.6403L77.7882 32.3915C77.3681 32.7078 76.8823 32.8396 76.3308 32.7869C75.5693 32.3124 74.8078 31.8116 74.0463 31.2845C73.2848 30.7574 72.0243 29.7031 70.265 28.1217L66.6413 32.4706C66.1686 32.8923 65.604 33.0504 64.9475 32.945L64.1992 32.5496C63.8841 32.1806 63.7528 31.7194 63.8053 31.1659L64.1992 30.4147C64.9082 29.8085 65.5318 29.1166 66.0701 28.3391C66.6084 27.5616 67.1533 26.7906 67.7047 26.0263C66.8382 25.2092 66.0767 24.3394 65.4202 23.4169C64.7637 22.4944 64.0022 21.651 63.1357 20.8866C62.5842 23.127 62.0394 25.3607 61.501 27.5879C60.9627 29.8151 60.2603 32.0093 59.3938 34.1706C58.9999 34.5132 58.5141 34.6582 57.9364 34.6055ZM44.6625 32.0752L43.9141 31.7194C43.599 31.2977 43.4414 30.8364 43.4414 30.3356C43.704 29.3604 43.9206 28.3984 44.0913 27.4495C44.262 26.5007 44.5312 25.565 44.8988 24.6425C45.3452 24.2472 45.8835 24.089 46.5137 24.1681L47.2621 24.5634C47.5772 24.9324 47.7085 25.3937 47.656 25.9472C47.2884 26.896 47.0192 27.8647 46.8485 28.8531C46.6778 29.8414 46.4087 30.7969 46.041 31.7194C45.6734 32.0093 45.2139 32.1279 44.6625 32.0752ZM69.6348 23.4169C70.3963 22.1518 71.0922 20.8669 71.7224 19.5622C72.3526 18.2575 72.8778 16.8935 73.2979 15.4703H68.9258C68.5056 15.4175 68.1446 15.2396 67.8426 14.9365C67.5406 14.6334 67.4159 14.2051 67.4684 13.6516C67.9673 12.3338 68.4794 10.9764 69.0046 9.57945C69.5297 8.18252 69.9499 6.77242 70.265 5.34914H65.7353C65.5252 7.43134 65.2692 9.46084 64.9672 11.4376C64.6653 13.4144 64.3567 15.4044 64.0416 17.4075C65.0657 18.3036 65.9848 19.2789 66.7988 20.3331C67.6128 21.3874 68.5582 22.4153 69.6348 23.4169Z" fill="#212529"/>
<path d="M33.5153 34.803C30.8368 34.6976 27.863 34.6317 24.5938 34.6053C21.3245 34.579 17.9371 34.1441 14.4315 33.3006C10.9259 32.4572 7.57135 31.1921 4.36775 29.5052C4.15768 30.2959 3.92135 31.0867 3.65876 31.8774C3.39617 32.6681 3.0548 33.4324 2.63465 34.1704C2.26703 34.4867 1.79437 34.6185 1.21667 34.5658L0.428897 34.1704C0.061271 33.7487 -0.070024 33.2216 0.035012 32.589C0.875301 30.6913 1.50552 28.7343 1.92566 26.718C2.34581 24.7017 2.94976 22.7446 3.73753 20.8469C4.15768 20.4779 4.6566 20.3198 5.2343 20.3725L6.02207 20.7679C6.33718 21.1896 6.46847 21.6904 6.41595 22.2702C6.10084 22.9028 5.85138 23.5617 5.66757 24.247C5.48376 24.9323 5.33933 25.6439 5.2343 26.3819L8.77926 28.0029V14.2049L2.94976 14.4422C2.52962 14.3894 2.16199 14.2313 1.84688 13.9677C1.53178 13.5987 1.40048 13.1243 1.453 12.5445L1.84688 11.7537C2.21451 11.4375 2.66091 11.2793 3.18609 11.2793L8.77926 11.1212V7.6025C7.7289 7.6025 6.84923 7.64203 6.14023 7.72111C5.43124 7.80018 4.70912 7.86607 3.97386 7.91878L3.18609 7.52343C2.87099 7.10171 2.73969 6.60093 2.79221 6.02107L3.18609 5.23036C4.02638 4.91408 4.93232 4.72958 5.9039 4.67686C6.87549 4.62415 7.83394 4.57143 8.77926 4.51872L8.62171 2.46287C8.67423 2.04115 8.83178 1.67216 9.09437 1.35587C9.48826 1.03959 9.97405 0.9078 10.5517 0.960515L11.3395 1.35587C11.7597 2.30473 11.9435 3.35901 11.891 4.51872C14.2018 4.36058 15.9348 4.49236 17.0902 4.91408C17.4054 5.28308 17.5366 5.7575 17.4841 6.33736L17.0902 7.12807C15.9874 7.6025 14.2543 7.76064 11.891 7.6025V11.0421C12.7838 11.0421 13.6766 11.0421 14.5694 11.0421C15.4622 11.0421 16.2762 11.2002 17.0115 11.5165C17.3266 11.8855 17.4579 12.36 17.4054 12.9398L17.0115 13.7305C16.3287 14.1522 15.5147 14.3104 14.5694 14.2049L11.891 14.1259L11.9697 19.8981L16.3025 19.9771C16.8277 19.9771 17.2741 20.1353 17.6417 20.4516C17.9568 20.8206 18.0881 21.295 18.0356 21.8749L17.6417 22.6656C17.2215 22.9819 16.7226 23.14 16.1449 23.14L11.891 23.0609L11.8122 29.3471C13.9654 30.0851 16.158 30.6254 18.3901 30.968C20.6221 31.3107 22.8869 31.4754 25.1846 31.4622C27.4822 31.4491 29.7602 31.4161 32.0185 31.3634C34.2768 31.3107 35.7735 31.5347 36.5088 32.0355C36.8239 32.4045 36.9552 32.8789 36.9027 33.4588L36.5088 34.2495C35.6685 34.7766 34.6707 34.9611 33.5153 34.803ZM23.2349 29.6634C22.2895 29.5316 21.7315 29.2021 21.5608 28.675C21.3902 28.1478 21.2129 25.1958 21.0291 19.819C21.0554 18.8965 21.3573 18.3364 21.935 18.1387C22.5127 17.9411 24.6135 17.8686 28.2372 17.9213C31.8609 17.974 33.9354 18.0728 34.4606 18.2178C34.9858 18.3628 35.2746 18.7647 35.3271 19.4236L35.2484 27.568C35.1958 28.7277 34.7888 29.3405 34.0273 29.4064C33.2658 29.4723 29.6683 29.5579 23.2349 29.6634ZM32.176 26.3028L32.2548 21.2423L24.1014 21.0841L24.4165 26.5401L32.176 26.3028ZM31.6246 17.2097C30.3904 17.0515 29.3007 16.498 28.3554 15.5492C28.0403 15.1802 27.909 14.7057 27.9615 14.1259L28.3554 13.3352C28.723 13.0189 29.1957 12.8871 29.7733 12.9398L31.2307 13.7305C31.5458 12.729 31.7296 11.6747 31.7822 10.5677C31.8347 9.46067 31.8872 8.3405 31.9397 7.20714H28.119C27.5938 8.60407 27.0949 9.98781 26.6223 11.3584C26.1496 12.729 25.4144 13.9941 24.4165 15.1538C24.0489 15.4174 23.6287 15.5228 23.1561 15.4701L22.3683 15.0747C22.0532 14.7057 21.9219 14.2313 21.9744 13.6514C22.6572 12.7026 23.1955 11.6878 23.5894 10.6072C23.9832 9.52657 24.3377 8.41957 24.6528 7.28621L20.714 7.36529C20.2938 7.31257 19.9262 7.15443 19.6111 6.89086C19.296 6.52186 19.1647 6.04743 19.2172 5.46758L19.6111 4.67686C20.1888 4.30786 20.8453 4.14972 21.5805 4.20244L33.2789 4.04429C34.3293 4.12336 34.9201 4.51213 35.0514 5.21059C35.1827 5.90906 35.1958 6.9897 35.0908 8.45251C34.9858 9.91533 34.8413 11.3584 34.6575 12.7817C34.4737 14.2049 34.1455 15.3251 33.6728 16.1422C33.2002 16.9593 32.5174 17.3151 31.6246 17.2097Z" fill="#212529"/>
</svg>
