<svg width="140" height="140" viewBox="0 0 140 140" fill="none" xmlns="http://www.w3.org/2000/svg">
<path d="M44.5543 134.284C46.341 136.2 58.3739 135.344 61.3106 135.339H86.9559C88.4168 135.339 89.9518 135.441 91.4078 135.354C92.2665 135.3 93.1698 134.916 94.0137 135.125C95.3858 135.466 96.4174 135.359 97.8191 135.349L125.601 135.344L133.306 135.373C138.306 135.378 137.042 130.983 137.042 127.546L137.037 115.396C137.047 111.867 136.549 109.908 132.58 110.049C129.53 106.266 124.851 102.25 121.411 98.6235C117.379 94.3743 115.222 97.2719 111.964 100.549C108.84 103.694 105.81 106.966 102.626 110.053H73.2596C72.006 110.151 70.7425 110.092 69.4839 110.053C69.4839 110.053 69.4839 110.053 69.479 110.053C68.6794 110.029 67.8848 110.014 67.0902 110.053L67.0852 94.8702C67.0852 93.6207 67.2925 91.9434 67.2728 90.3585C67.1691 90.1349 67.105 89.8529 67.0902 89.4882H67.2333C67.1445 88.3798 66.8977 87.3637 66.3252 86.6393C68.3784 86.5615 70.4612 86.6295 72.5193 86.6344L83.8316 86.6782C88.7524 86.7268 87.5432 81.6025 87.5432 78.3354L87.5383 65.9963C87.5975 62.7633 86.6104 61.893 83.5602 61.0276L83.5651 46.1847C83.5651 42.5141 84.9767 36.2376 79.3748 36.33L78.6789 36.3446C76.5764 33.7776 66.5818 23.3346 64.6323 23.1401C62.2632 22.9019 59.9978 26.1155 58.5615 27.5935L52.2686 34.045C51.5382 34.7937 50.8472 35.6007 50.097 36.3251C48.5916 36.4029 47.0764 36.33 45.5711 36.3251H37.4767L28.7062 27.2677C23.6127 22.0657 23.7213 21.244 17.8874 27.117L11.7179 33.3498C10.7407 34.3464 9.79307 35.4306 8.72205 36.3251C3.45579 36.1744 4.72917 39.8839 4.7341 43.6372V85.3363C-1.40576 85.3071 0.183501 89.4445 0.188437 94.3014L0.193371 123.608C0.193371 126.569 0.0897245 129.568 0.203243 132.524C0.326632 135.675 3.21888 135.407 5.63731 135.339L38.9623 135.349C41.0402 135.354 42.9058 135.767 44.5543 134.284ZM107.67 106.728L112.211 102.226C113.796 100.656 115.217 98.395 117.458 97.7726C117.966 97.8845 118.415 97.9963 118.884 98.2248C121.006 99.6541 128.587 107.778 130.784 110.044H107.192C106.298 109.985 105.42 110.014 104.527 110.044C105.454 108.843 106.59 107.793 107.67 106.728ZM93.994 112.261C94.6949 110.651 97.5525 111.308 98.9345 111.298L125.868 111.288C128.874 111.288 134.638 110.102 135.65 113.116C135.601 117.521 135.65 121.935 135.655 126.34C135.655 128.431 136.647 133.618 134.165 134.012C132.324 134.182 129.579 134.017 127.635 134.017H101.185C99.3639 134.017 97.3699 134.211 95.5783 134.017C92.6565 133.667 93.8213 127.604 93.8163 125.29C93.8114 123.229 93.4165 113.578 93.994 112.261ZM86.6005 111.283C87.7258 111.283 91.4275 110.831 92.1974 111.818C92.8341 112.635 92.5577 131.489 92.5577 134.012H85.3666H52.0268C50.783 134.012 46.4792 134.377 45.5612 133.521C45.2157 132.733 45.2749 131.698 45.2749 130.857V119.082C45.2601 110.559 44.0114 111.254 52.8066 111.283H86.6005ZM85.6677 63.4002C86.561 64.7955 86.1415 67.5667 86.1415 69.137L86.1464 76.1282C86.1464 79.1279 87.5679 85.1516 84.2956 85.3363H59.1932C55.0178 85.3363 50.8077 85.2148 46.6371 85.3363C44.12 85.4481 44.9492 81.9137 44.9442 79.9447L44.9344 67.2409C44.9344 65.2428 44.5839 63.721 46.2966 62.2917C48.3399 62.1604 50.477 62.2868 52.5253 62.2868H76.0384C78.5259 62.2868 83.7033 61.7131 85.6677 63.4002ZM63.6599 24.3799C64.4644 24.341 64.9975 24.4528 65.6835 24.8758C68.5906 27.2337 74.4392 33.4324 76.8972 36.33C72.1096 36.4272 67.2975 36.3251 62.51 36.33L57.224 36.3397C56.3257 36.3446 55.3731 36.4078 54.4798 36.3349C53.621 36.3592 52.7622 36.3397 51.9034 36.3349C55.8321 32.4212 59.4055 27.9484 63.6599 24.3799ZM21.8408 24.9924C22.749 24.1951 23.4005 24.2 24.4419 24.8709C27.5118 27.4622 31.6626 32.1927 34.5154 35.2264C34.7868 35.5278 35.2557 35.9362 35.3594 36.3251H21.3719C18.6426 36.3251 15.9033 36.3786 13.1739 36.3251C12.2806 36.3835 11.407 36.3592 10.5137 36.3251C13.9488 32.7955 18.228 28.1574 21.8408 24.9924ZM14.3782 37.6281H80.8654C81.66 38.124 81.9709 38.6782 82.2917 39.5193V61.0082C81.5021 61.12 80.8012 61.1735 80.0066 61.0082C78.7332 61.1151 77.4302 61.013 76.1519 61.0082H12.6409C11.0615 61.013 9.43277 61.0811 7.86326 60.9255H6.08645L6.08151 46.8508C6.08151 36.0043 4.0678 37.6281 14.3782 37.6281ZM43.5919 71.0525V84.7432L43.5573 85.1564C42.9799 85.6864 41.3413 85.3315 40.596 85.3315L6.08151 85.3363C5.95319 83.7125 6.08151 81.9963 6.08151 80.3579L6.07658 64.8392C6.07164 64.0419 5.91864 63.0647 6.08151 62.2917C7.4536 62.2236 8.86518 62.2868 10.2422 62.2868L44.5494 62.2917C42.9207 64.8781 43.587 68.1258 43.5919 71.0525ZM9.61045 86.6247H50.8867C54.0405 86.6247 64.4793 85.3412 65.6835 88.0978C65.7822 95.405 65.6835 102.732 65.6835 110.044C62.7814 110.044 59.8497 110.131 56.9525 110.044L50.2302 110.034C48.5472 110.034 46.3262 109.616 44.9541 110.792C43.1526 109.626 41.2327 110.029 39.1499 110.034L3.2633 110.044C2.70064 110.014 2.13305 110.039 1.5704 110.044V94.5785C1.56053 85.1953 0.173629 86.6247 9.61045 86.6247ZM3.25837 134.017C0.38586 133.419 1.56053 127.774 1.56053 125.076L1.56546 111.293C4.94633 111.454 8.40617 111.293 11.792 111.293H32.6793C35.8727 111.293 39.1449 111.138 42.3284 111.342C43.7104 111.429 43.9867 111.76 44.0558 113.126L44.0608 125.898C44.0608 128.387 45.2256 134.007 41.7805 134.022C40.3788 133.944 38.9327 134.017 37.5261 134.017H3.25837Z" fill="#495057"/>
<path d="M129.495 139.623C129.318 139.39 127.99 139.487 127.585 139.356C127.837 138.534 129.56 140.275 129.861 138.009C129.94 137.426 130.507 136.75 130.779 136.201C130.487 136.099 130.3 135.972 130.221 135.661C128.775 135.379 127.077 135.501 125.591 135.345L97.809 135.35C96.4073 135.364 95.3758 135.467 94.0037 135.126C93.1646 134.917 92.2614 135.301 91.3977 135.355C89.9417 135.447 88.4067 135.345 86.9458 135.34H61.3005C58.3589 135.34 46.3309 136.201 44.5443 134.285C42.9007 135.768 41.0301 135.355 38.9522 135.35L5.62724 135.34C5.42982 136.755 5.52359 138.495 5.62724 139.93C10.2371 140.012 14.8617 139.93 19.4715 139.93H129.377L128.38 139.784C128.74 139.769 129.209 139.832 129.495 139.623Z" fill="#FAD586"/>
<path d="M67.2623 90.3507C67.2574 90.0542 67.2475 89.7624 67.2229 89.4805H67.0801C67.0949 89.8451 67.1589 90.1222 67.2623 90.3507Z" fill="#FBC8C2"/>
<path d="M73.2542 110.046C72.0697 109.895 70.6828 110.036 69.4785 110.046C70.7371 110.08 72.0006 110.143 73.2542 110.046Z" fill="#FBC8C2"/>
<path d="M67.0762 94.8594L67.0811 110.043C67.8757 110.004 68.6753 110.018 69.4699 110.043C69.4156 104.529 69.697 98.9675 69.4601 93.464C69.3613 91.1498 67.8017 91.5291 67.2588 90.3477C67.2835 91.9374 67.0762 93.6099 67.0762 94.8594Z" fill="#FBC8C2"/>
<path d="M83.8219 86.6672L72.5096 86.6234C70.4514 86.6185 68.3736 86.5505 66.3154 86.6283C66.888 87.3527 67.1347 88.3688 67.2236 89.4772H90.2382V65.9805H87.5285L87.5335 78.3196C87.5335 81.5915 88.7427 86.7158 83.8219 86.6672Z" fill="#FBC8C2"/>
<path d="M137.032 115.393L137.037 127.542C137.037 130.979 138.301 135.374 133.301 135.369L125.597 135.34C127.087 135.496 128.78 135.374 130.226 135.656C130.305 135.967 130.493 136.094 130.784 136.196C130.513 136.745 129.945 137.421 129.866 138.005C129.56 140.27 127.842 138.534 127.591 139.351C127.995 139.482 129.323 139.385 129.501 139.619C129.214 139.828 128.746 139.764 128.39 139.784L129.387 139.93C132.857 139.91 136.371 140.095 139.831 139.93C139.777 138.165 139.831 136.381 139.831 134.611L139.836 124.187C139.826 121.207 141.035 115.854 137.032 115.393Z" fill="#FAD586"/>
<path d="M80.0078 39.5273H7.86447L7.85953 53.9813C7.85953 56.276 7.70653 58.6534 7.86447 60.9384C9.43892 61.0989 11.0627 61.0308 12.6421 61.0211H76.1531C77.4314 61.0259 78.7344 61.128 80.0078 61.0211C80.067 57.2289 79.3464 42.3909 80.0078 39.5273Z" fill="#FDE0DB"/>
<path d="M80.0058 61.0143C80.8005 61.1796 81.5013 61.1261 82.291 61.0143V39.5254H80.0058C79.3445 42.389 80.0651 57.227 80.0058 61.0143Z" fill="#F7B2AC"/>
<path d="M63.1281 110.047C62.832 103.284 62.9702 95.2138 63.1281 88.4365C59.3228 88.3149 55.4681 88.4414 51.6579 88.4414L12.5286 88.4365C1.82334 88.4365 3.2596 86.4821 3.2596 97.6252L3.26453 110.047L39.1511 110.037C41.2339 110.032 43.1588 109.629 44.9553 110.796C46.3274 109.619 48.5484 110.037 50.2315 110.037L56.9537 110.047C57.9705 109.857 61.7462 110.047 63.1281 110.047Z" fill="#FBC8C2"/>
<path d="M1.56099 110.049C2.12364 110.044 2.69617 110.02 3.25389 110.049L3.24896 97.6275C3.25389 86.4795 1.8127 88.4388 12.518 88.4388L51.6472 88.4437C55.4624 88.4437 59.3122 88.3173 63.1175 88.4388C63.9615 88.293 64.8351 88.2978 65.6741 88.1034C64.4699 85.3419 54.0311 86.6303 50.8773 86.6303H9.60104C0.164221 86.6303 1.54618 85.2009 1.55112 94.5841L1.56099 110.049Z" fill="white"/>
<path d="M63.1276 110.049C61.7456 110.049 57.9699 109.86 56.9482 110.049C59.8504 110.137 62.7772 110.049 65.6793 110.049C65.6793 102.737 65.778 95.4156 65.6793 88.1035C64.8452 88.298 63.9666 88.2931 63.1227 88.439C62.9696 95.2162 62.8315 103.287 63.1276 110.049Z" fill="#F7B2AC"/>
<path d="M45.2711 119.089V130.864C45.2761 131.71 45.2168 132.746 45.5574 133.528C46.4705 134.384 50.7792 134.019 52.023 134.019H85.3628H92.554C92.554 131.491 92.8353 112.642 92.1937 111.826C91.4237 110.839 87.722 111.291 86.5967 111.291L52.7979 111.296C44.0076 111.262 45.2563 110.562 45.2711 119.089Z" fill="white"/>
<path d="M44.0556 113.119H41.7803C42.5404 113.183 43.2955 113.163 44.0556 113.119Z" fill="#FDE0DB"/>
<path d="M41.78 134.018V113.117H3.25781V130.085C3.25781 130.692 3.55395 133.731 3.25781 134.018L37.5255 134.013C38.9322 134.013 40.3783 133.94 41.78 134.018Z" fill="#FDE0DB"/>
<path d="M3.25983 130.08V113.112H41.782H44.0573C43.9882 111.751 43.7069 111.415 42.3298 111.328C39.1464 111.129 35.8741 111.279 32.6808 111.279H11.7934C8.4027 111.279 4.94286 111.435 1.56692 111.279L1.56199 125.062C1.56199 127.761 0.387322 133.405 3.25983 134.003C3.55596 133.726 3.25983 130.687 3.25983 130.08Z" fill="white"/>
<path d="M41.7803 113.119V134.02C45.2253 134 44.0605 128.385 44.0605 125.896L44.0556 113.124C43.2955 113.163 42.5404 113.182 41.7803 113.119Z" fill="#F7B2AC"/>
<path d="M107.587 113.119C106.161 113.119 96.3634 112.789 95.7464 113.343C95.3516 114.84 95.5786 118.56 95.5786 120.266V134.02C97.3752 134.214 99.3692 134.025 101.185 134.02H127.635C129.58 134.02 132.324 134.185 134.165 134.015V113.114L107.587 113.119Z" fill="#FAD586"/>
<path d="M95.578 134.019V120.265C95.578 118.559 95.3509 114.84 95.7458 113.342C96.3677 112.788 106.165 113.119 107.586 113.119H134.164C134.613 113.162 135.235 113.313 135.65 113.119C134.638 110.104 128.873 111.291 125.868 111.291L98.9341 111.3C97.5522 111.305 94.6945 110.649 93.9936 112.263C93.4162 113.585 93.811 123.236 93.816 125.288C93.8209 127.607 92.6561 133.669 95.578 134.019Z" fill="white"/>
<path d="M134.17 113.119V134.02C136.653 133.626 135.66 128.434 135.66 126.348C135.656 121.938 135.606 117.529 135.656 113.124C135.236 113.314 134.619 113.163 134.17 113.119Z" fill="#FBC8C2"/>
<path d="M52.497 63.7418C45.5131 63.7418 46.6335 63.1486 46.6335 69.9016L46.6434 80.2522C46.6483 81.9344 46.7519 83.6603 46.6384 85.3376C50.809 85.216 55.019 85.3376 59.1945 85.3376H84.2969V63.7418H52.497Z" fill="#FBC8C2"/>
<path d="M76.044 62.2896H52.5309C50.4777 62.2896 48.3406 62.1632 46.3022 62.2945C44.5895 63.7239 44.94 65.2456 44.94 67.2438L44.9498 79.9475C44.9498 81.9213 44.1206 85.451 46.6427 85.3391C46.7562 83.6618 46.6477 81.9408 46.6477 80.2538L46.6378 69.9031C46.6329 63.1502 45.5125 63.7433 52.5013 63.7433H84.3061L85.6782 63.3981C83.704 61.716 78.5266 62.2896 76.044 62.2896Z" fill="white"/>
<path d="M84.2949 85.3424C87.5623 85.1577 86.1458 79.134 86.1458 76.1343L86.1408 69.1431C86.1408 67.5728 86.5604 64.7967 85.667 63.4062L84.2949 63.7514V85.3424Z" fill="#FDE0DB"/>
<path d="M10.2426 62.2906C8.86553 62.2906 7.45889 62.2225 6.08186 62.2954C5.91899 63.0685 6.06706 64.0457 6.07693 64.843L6.08186 80.3617C6.08186 82.0001 5.95354 83.7163 6.08186 85.3401L40.5964 85.3352C41.3416 85.3352 42.9802 85.6853 43.5577 85.1602L43.5922 84.7469V71.0563C43.5873 68.1295 42.921 64.8819 44.5547 62.2954L10.2426 62.2906Z" fill="white"/>
<path d="M107.193 110.049H130.785C128.594 107.784 121.013 99.6598 118.886 98.2305C115.658 102.207 110.698 105.591 107.193 110.049Z" fill="#FDE0DB"/>
<path d="M107.193 110.046C110.697 105.593 115.652 102.204 118.885 98.2275C118.416 97.999 117.962 97.8872 117.459 97.7754C115.218 98.3977 113.796 100.654 112.212 102.229L107.671 106.731C106.595 107.8 105.455 108.85 104.527 110.046C105.421 110.017 106.299 109.988 107.193 110.046Z" fill="white"/>
<path d="M62.6638 27.793L58.1033 32.5235C56.9286 33.7583 55.4874 34.9738 54.4707 36.3302C55.364 36.4031 56.3166 36.3399 57.2149 36.3351L62.5009 36.3253C67.2933 36.3253 72.1006 36.4274 76.8881 36.3253C74.4302 33.4278 68.5815 27.229 65.6745 24.8711C64.4702 25.6733 63.6558 26.7575 62.6638 27.793Z" fill="#FAD586"/>
<path d="M21.6344 27.7823L15.5143 33.981C14.8332 34.6714 13.6437 35.5125 13.1748 36.3293C15.9042 36.3827 18.6434 36.3293 21.3728 36.3293H35.3602C34.5508 36.164 33.7858 36.3536 34.5162 35.2305C31.6635 32.1968 27.5127 27.4663 24.4427 24.875C23.4063 25.7307 22.5771 26.8294 21.6344 27.7823Z" fill="#FAD586"/>
<path d="M116.067 51.5888L91.9768 51.5791C91.8041 52.8043 91.735 53.8593 91.9768 55.0844C93.3637 56.8055 97.4159 56.1589 99.474 56.1589H118.13C126.615 56.154 125.588 56.4943 125.593 47.6557V28.2671C125.608 24.3291 126.857 21.2856 122.854 19.5305C122.064 19.1854 122.148 19.1124 122.015 18.2422L122.025 45.8034C122.074 51.5937 121.916 51.5888 116.067 51.5888Z" fill="white"/>
<path d="M51.1744 5.62503C51.1645 6.90367 50.4094 9.87905 52.5564 9.43177C52.8673 8.45456 52.5366 6.72378 52.5564 5.62503C53.2918 5.61045 56.5344 5.75143 56.9441 5.37222C58.637 3.80674 52.6403 4.27347 52.5564 4.27347C52.5662 3.36432 53.1634 0.175023 51.9049 0C50.6611 0.622302 51.1596 3.16499 51.1744 4.27347C50.2909 4.26374 47.5467 4.04497 46.9101 4.50683C45.9575 6.28623 50.4192 5.62503 51.1744 5.62503Z" fill="#495057"/>
</svg>
