<svg width="261" height="34" viewBox="0 0 261 34" fill="none" xmlns="http://www.w3.org/2000/svg">
<rect width="124" height="20" transform="translate(136.5 14)" fill="#FAD586"/>
<path d="M240.017 27.6663C239.118 27.6663 238.595 27.3747 238.449 26.7913C238.302 26.208 238.151 24.9528 237.994 23.0257C237.837 21.0986 237.717 19.3122 237.633 17.6663C237.549 16.7913 237.79 16.2861 238.354 16.1507C238.919 16.0153 241.261 16.0726 245.381 16.3226C246.803 15.1351 247.65 14.4163 247.922 14.1663C248.194 13.9163 248.685 13.7496 249.396 13.6663L250.023 13.9788C250.274 14.2705 250.379 14.6351 250.337 15.0726L249.271 16.2601C254.812 16.3851 257.761 16.484 258.116 16.5569C258.472 16.6299 258.566 17.3226 258.399 18.6351L258.273 26.4476C258.336 27.1559 258.148 27.5361 257.709 27.5882C257.269 27.6403 251.372 27.6663 240.017 27.6663ZM255.795 25.0101V23.1351L240.582 23.0726L240.738 25.1351L255.795 25.0101ZM255.858 20.6976L255.921 18.7601L240.142 18.5101L240.268 20.6976H255.858ZM258.618 14.5413C257.74 14.208 256.893 13.6767 256.077 12.9476C255.847 12.6559 255.753 12.2809 255.795 11.8226L256.077 11.1976C256.37 10.9684 256.757 10.8746 257.238 10.9163L258.085 11.3226L257.834 3.54132H250.149L249.553 3.26007C249.239 2.92673 249.103 2.5309 249.145 2.07257L249.459 1.44757L250.086 1.13507H258.806C259.58 1.13507 260.019 1.42673 260.124 2.01007C260.228 2.5934 260.354 6.39548 260.5 13.4163C260.187 14.4788 259.559 14.8538 258.618 14.5413ZM246.134 14.3538C245.506 14.2288 244.916 14.0257 244.361 13.7444C243.807 13.4632 243.269 13.1351 242.746 12.7601C242.495 12.4476 242.39 12.0726 242.432 11.6351L242.746 11.0101C243.039 10.7809 243.405 10.6871 243.844 10.7288L245.318 11.4476L245.569 3.26007L235.97 3.13507L235.374 2.82257C235.082 2.48923 234.956 2.0934 234.998 1.63507L235.312 1.04132C236.232 0.624649 237.806 0.478816 240.033 0.603816C242.26 0.728816 243.886 0.801733 244.91 0.822566C245.935 0.843399 246.735 0.921524 247.31 1.05694C247.885 1.19236 248.131 1.7809 248.047 2.82257C247.88 7.9684 247.786 10.9424 247.765 11.7444C247.744 12.5465 247.624 13.2132 247.404 13.7444C247.185 14.2757 246.761 14.4788 246.134 14.3538ZM250.525 12.6351L249.898 12.2913C249.668 12.0205 249.574 11.6559 249.616 11.1976L249.898 10.6038C250.839 10.1871 251.796 9.79132 252.768 9.41632C253.74 9.04132 254.729 8.7184 255.732 8.44757L256.328 8.72882C256.579 9.04132 256.684 9.41632 256.642 9.85382L256.328 10.4788C255.408 10.958 254.467 11.3799 253.505 11.7444C252.543 12.109 251.55 12.4059 250.525 12.6351ZM237.445 11.6351C237.11 11.5934 236.828 11.4684 236.598 11.2601C236.347 10.9892 236.242 10.6246 236.284 10.1663L236.598 9.57257C237.497 9.0934 238.464 8.74444 239.499 8.52569C240.535 8.30694 241.554 8.05173 242.558 7.76007L243.185 8.07257C243.415 8.3434 243.509 8.7184 243.467 9.19757L243.185 9.79132C242.307 10.2913 241.371 10.6299 240.378 10.8069C239.384 10.984 238.407 11.2601 237.445 11.6351ZM253.16 7.76007C252.219 7.4684 251.299 7.18715 250.4 6.91632C250.149 6.62465 250.044 6.24965 250.086 5.79132L250.4 5.13507C250.797 4.86423 251.268 4.76007 251.811 4.82257C252.669 4.94757 253.495 5.22882 254.289 5.66632C254.54 5.99965 254.645 6.39548 254.603 6.85382L254.289 7.44757C253.997 7.69757 253.62 7.80173 253.16 7.76007ZM240.644 7.32257C240.017 7.17673 239.369 7.08298 238.7 7.04132C238.03 6.99965 237.413 6.85382 236.849 6.60382C236.598 6.31215 236.493 5.92673 236.535 5.44757L236.849 4.82257C237.33 4.51007 237.894 4.41632 238.543 4.54132C239.651 4.62465 240.655 4.8434 241.554 5.19757C241.805 5.51007 241.91 5.89548 241.868 6.35382L241.554 6.97882C241.261 7.16632 240.958 7.2809 240.644 7.32257Z" fill="#212529"/>
<path d="M214.768 28.9473L212.321 27.0098L212.258 26.2598L212.572 25.6348C212.865 25.3848 213.241 25.2806 213.701 25.3223L214.203 25.5098V24.2598L203.444 24.1973L202.817 23.8848C202.566 23.5931 202.461 23.2181 202.503 22.7598L202.817 22.1348C203.444 21.7389 204.176 21.5618 205.012 21.6035L213.764 21.791L213.074 21.1035C212.551 20.3118 212.53 19.7077 213.011 19.291L215.772 17.916L211.38 18.041C210.502 18.041 209.707 17.8535 208.996 17.4785C208.745 17.1868 208.641 16.8118 208.683 16.3535L208.996 15.7285C209.373 15.4368 209.833 15.3327 210.376 15.416H219.599C220.623 15.7493 220.937 16.2285 220.54 16.8535C219.327 18.1868 217.8 19.3535 215.96 20.3535L216.336 21.7285L225.841 21.4785L226.468 21.791C226.719 22.1035 226.824 22.4889 226.782 22.9473L226.468 23.5723C225.924 23.9056 225.318 24.0514 224.649 24.0098L216.65 24.1973C216.692 25.0723 216.66 25.8431 216.556 26.5098C216.451 27.1764 216.247 27.7962 215.944 28.3691C215.641 28.9421 215.249 29.1348 214.768 28.9473ZM226.343 17.791C226.008 17.7493 225.715 17.6243 225.464 17.416V17.291H225.339C225.088 16.9993 224.983 16.6243 225.025 16.166L225.402 14.291L203.256 14.416L203.632 16.7285L203.319 17.3535C202.984 17.6035 202.587 17.7077 202.127 17.666L201.499 17.3535C201.165 16.7285 200.966 16.0514 200.903 15.3223C200.841 14.5931 200.773 13.8483 200.699 13.0879C200.626 12.3275 200.825 11.9108 201.295 11.8379C201.766 11.765 202.775 11.7702 204.322 11.8535L204.071 2.69727C204.03 1.8431 204.27 1.35872 204.793 1.24414C205.316 1.12956 205.99 1.00977 206.816 0.884766C207.642 0.759766 208.473 0.676432 209.31 0.634766L209.937 0.947266C210.188 1.23893 210.293 1.61393 210.251 2.07227L209.937 2.69727C209.435 2.94727 208.306 3.17643 206.549 3.38477L206.612 5.13477H209.937C210.23 5.25977 210.439 5.4681 210.565 5.75977V6.29102C210.439 6.58268 210.23 6.79102 209.937 6.91602L206.675 6.97852V8.29102H209.561C209.854 8.41602 210.063 8.62435 210.188 8.91602V9.41602C210.063 9.70768 209.854 9.91602 209.561 10.041L206.738 10.166L206.863 11.9785L222.328 11.8535V9.91602C221.261 10.041 220.289 9.91602 219.41 9.54102C219.243 9.33268 219.18 9.06185 219.222 8.72852C219.348 8.43685 219.557 8.22852 219.85 8.10352H222.202L222.108 6.91602L219.599 7.10352L218.908 6.72852C218.741 6.52018 218.678 6.23893 218.72 5.88477L218.971 5.44727C219.431 5.23893 219.933 5.12435 220.477 5.10352C221.021 5.08268 221.564 5.07227 222.108 5.07227V3.32227L219.85 3.19727L219.222 2.88477C218.929 2.55143 218.804 2.13477 218.846 1.63477L219.159 1.00977C219.578 0.718099 220.08 0.613932 220.665 0.697266C222.526 0.905599 223.645 1.02018 224.021 1.04102C224.398 1.06185 224.586 1.4056 224.586 2.07227L224.774 11.791C226.196 11.7077 227.164 11.7702 227.676 11.9785C228.188 12.1868 228.267 12.8223 227.911 13.8848L227.284 17.416C226.991 17.6243 226.677 17.7493 226.343 17.791ZM216.462 10.791C215.834 10.4577 215.207 10.0827 214.58 9.66602C213.952 10.291 213.179 10.6243 212.258 10.666C211.966 10.541 211.757 10.3327 211.631 10.041V9.54102C211.757 9.24935 211.966 9.04102 212.258 8.91602L213.011 8.54102L212.384 7.91602C212.217 7.70768 212.154 7.43685 212.196 7.10352C212.321 6.81185 212.53 6.60352 212.823 6.47852H213.45L214.768 7.35352C215.437 6.45768 216.274 5.98893 217.277 5.94727C217.57 6.07227 217.779 6.29102 217.905 6.60352V7.10352C217.779 7.39518 217.236 7.89518 216.274 8.60352C216.859 8.81185 217.34 9.16602 217.717 9.66602V10.166C217.591 10.4577 217.382 10.666 217.089 10.791H216.462ZM211.757 5.25977C211.464 5.13477 211.255 4.92643 211.129 4.63477V4.07227L211.757 3.38477L212.823 2.88477L212.196 2.44727C211.987 2.19727 211.903 1.88477 211.945 1.50977C212.07 1.2181 212.279 1.00977 212.572 0.884766H213.2C213.66 1.2181 214.161 1.48893 214.705 1.69727C215.333 0.947266 216.127 0.572266 217.089 0.572266C217.382 0.697266 217.591 0.905599 217.717 1.19727V1.69727C217.591 1.98893 217.152 2.32227 216.399 2.69727L216.964 3.19727C217.131 3.44727 217.194 3.73893 217.152 4.07227C217.026 4.36393 216.817 4.57227 216.525 4.69727H216.023L214.454 3.94727C213.66 4.61393 212.76 5.05143 211.757 5.25977Z" fill="#212529"/>
<path d="M180.548 28.1973L179.92 27.8848C179.711 27.6348 179.586 27.3431 179.544 27.0098L179.419 21.9785C177.871 22.916 176.193 23.9264 174.384 25.0098C172.575 26.0931 170.845 26.8639 169.193 27.3223L168.565 27.0098C168.314 26.7181 168.21 26.3431 168.252 25.8848L168.565 25.2598C170.029 24.5931 171.66 23.7337 173.459 22.6816C175.257 21.6296 176.846 20.5827 178.227 19.541C173.396 19.4577 170.667 19.4264 170.04 19.4473C169.412 19.4681 168.868 19.3327 168.408 19.041C168.157 18.7493 168.053 18.3743 168.095 17.916L168.408 17.291C169.119 16.9577 169.935 16.8535 170.855 16.9785L179.544 17.1035V14.6035C178.498 14.7285 177.725 14.7441 177.223 14.6504C176.721 14.5566 176.449 14.041 176.407 13.1035L175.968 4.32227C175.947 3.3431 176.214 2.79622 176.768 2.68164C177.322 2.56706 178.08 2.57227 179.042 2.69727L180.485 0.572266C180.82 0.280599 181.217 0.155599 181.677 0.197266L182.304 0.509766C182.555 0.843099 182.66 1.23893 182.618 1.69727L182.053 2.69727C183.977 2.82227 185.138 2.90039 185.535 2.93164C185.933 2.96289 186.11 3.57227 186.069 4.75977L185.88 13.8535C185.755 14.4993 185.295 14.8327 184.5 14.8535L181.991 14.6035V17.1035L192.938 17.166L193.566 17.4785C193.816 17.7702 193.921 18.1452 193.879 18.6035L193.566 19.2285C193.273 19.4368 192.959 19.5618 192.625 19.6035L183.057 19.541C184.437 20.4993 186.042 21.4212 187.872 22.3066C189.702 23.1921 191.37 23.9264 192.875 24.5098C193.126 24.8014 193.231 25.1764 193.189 25.6348L192.875 26.2598C192.541 26.5514 192.123 26.6556 191.621 26.5723C190.094 26.0723 188.432 25.3743 186.633 24.4785C184.835 23.5827 183.245 22.7285 181.865 21.916L181.991 27.2598L181.677 27.8848C181.384 28.1348 181.008 28.2389 180.548 28.1973ZM194.067 15.666L193.44 15.3535L192.938 14.416L188.202 14.541C186.968 14.416 186.57 13.8952 187.01 12.9785L189.237 9.29102C188.128 7.79102 187.349 6.82747 186.9 6.40039C186.45 5.97331 186.377 5.50977 186.68 5.00977C186.983 4.50977 187.961 3.19727 189.613 1.07227C189.948 0.822266 190.345 0.718099 190.805 0.759766L191.433 1.07227C191.725 1.4056 191.83 1.82227 191.746 2.32227L189.425 5.57227L190.554 7.10352C190.931 6.56185 191.391 6.11393 191.934 5.75977L192.75 5.69727L193.377 6.00977C193.628 6.36393 193.733 6.77018 193.691 7.22852L190.617 11.9785H191.809L191.683 11.041L191.997 10.416C192.332 10.166 192.729 10.0618 193.189 10.1035L193.816 10.416C194.778 12.4993 195.343 13.9368 195.51 14.7285L195.197 15.3535C194.904 15.6035 194.528 15.7077 194.067 15.666ZM174.839 15.166C174.504 15.1243 174.211 14.9993 173.961 14.791L173.396 13.791L168.032 14.291C166.735 14.2077 166.338 13.7077 166.84 12.791L170.102 8.29102L167.906 6.60352C167.3 6.04102 167.18 5.5306 167.546 5.07227C167.912 4.61393 168.952 3.3431 170.667 1.25977C171.043 0.968099 171.482 0.863932 171.984 0.947266L172.612 1.25977C172.884 1.5931 172.999 1.98893 172.957 2.44727L170.604 5.50977L171.671 6.35352C172.089 5.83268 172.643 5.61393 173.333 5.69727L173.961 6.00977C174.211 6.32227 174.316 6.70768 174.274 7.16602L170.792 11.541L171.984 11.416C171.901 10.916 172.005 10.4993 172.298 10.166C172.654 9.91602 173.061 9.81185 173.521 9.85352L174.149 10.166C175.32 12.0827 175.968 13.416 176.094 14.166L175.78 14.791C175.487 14.9993 175.173 15.1243 174.839 15.166ZM183.434 12.2285L183.496 9.16602H178.54L178.791 12.166L183.434 12.2285ZM183.496 6.72852V5.19727L178.415 5.13477L178.478 6.72852H183.496Z" fill="#212529"/>
<path d="M139.077 28.7589L138.45 28.4464C138.074 27.6964 137.948 26.8423 138.074 25.8839L138.136 1.63393L138.45 1.00893C138.785 0.758929 139.192 0.654762 139.673 0.696429L140.301 1.00893L140.614 1.63393V26.0089C140.698 26.8839 140.573 27.6964 140.238 28.4464C139.945 28.6964 139.558 28.8006 139.077 28.7589ZM159.906 28.0714L159.278 27.7589C158.63 27.0298 157.83 26.1808 156.879 25.2121C155.927 24.2433 154.934 23.0871 153.899 21.7433C152.864 20.3996 151.823 19.1027 150.778 17.8527C150.192 19.1443 149.575 20.4204 148.927 21.6808C148.279 22.9412 147.013 24.7798 145.131 27.1964C144.797 27.5298 144.358 27.6756 143.814 27.6339L143.187 27.3214C142.936 27.0298 142.831 26.6548 142.873 26.1964L143.187 25.5714C144.316 24.4464 145.257 23.2016 146.01 21.8371C146.763 20.4725 147.704 18.5402 148.833 16.0402H145.382L144.755 15.7277C144.504 15.3943 144.399 14.9985 144.441 14.5402L144.755 13.9152L145.382 13.6027H149.46C149.753 12.5193 150.004 11.4256 150.213 10.3214C150.422 9.21726 150.569 8.08185 150.652 6.91518L147.829 7.04018L147.202 6.72768C146.951 6.43601 146.846 6.0506 146.888 5.57143L147.202 4.94643C147.704 4.6131 148.279 4.44643 148.927 4.44643C149.575 4.44643 150.234 4.44643 150.903 4.44643C150.778 3.40476 150.882 2.46726 151.217 1.63393C151.551 1.34226 151.949 1.21726 152.409 1.25893L153.036 1.57143C153.371 2.44643 153.475 3.4256 153.35 4.50893H157.522C158.358 4.46726 158.672 4.9881 158.463 6.07143L157.334 13.5402H160.47L161.098 13.8527C161.349 14.1443 161.453 14.5193 161.411 14.9777L161.098 15.6027C160.805 15.811 160.491 15.936 160.157 15.9777L152.722 16.0402C153.224 16.8735 153.758 17.6443 154.322 18.3527C154.887 19.061 155.896 20.2277 157.349 21.8527C158.803 23.4777 159.968 24.7381 160.847 25.6339C161.223 26.0506 161.391 26.5506 161.349 27.1339L161.035 27.7589C160.742 28.0089 160.366 28.1131 159.906 28.0714ZM134.309 16.2277L133.682 15.9152C133.473 15.5818 133.347 15.2277 133.306 14.8527C133.557 13.936 133.724 12.9985 133.808 12.0402C133.891 11.0818 134.121 10.186 134.498 9.35268C134.832 9.10268 135.23 8.99851 135.69 9.04018L136.317 9.35268C136.568 9.64435 136.673 10.0193 136.631 10.4777C136.38 11.3527 136.202 12.2693 136.097 13.2277C135.993 14.186 135.773 15.0818 135.439 15.9152C135.146 16.1652 134.77 16.2693 134.309 16.2277ZM143.877 13.8527C143.542 13.811 143.249 13.686 142.998 13.4777C142.58 12.7277 142.183 11.9673 141.806 11.1964C141.43 10.4256 141.158 9.62351 140.991 8.79018L141.305 8.16518C141.597 7.91518 141.974 7.81101 142.434 7.85268L143.061 8.16518C143.438 8.91518 143.814 9.6756 144.19 10.4464C144.567 11.2173 144.88 12.0193 145.131 12.8527L144.818 13.4777C144.525 13.686 144.211 13.811 143.877 13.8527ZM154.793 13.5402L155.702 6.97768H153.099C153.015 8.10268 152.869 9.21726 152.66 10.3214C152.451 11.4256 152.221 12.5193 151.97 13.6027L154.793 13.5402Z" fill="#212529"/>
<path d="M113.988 28.1035C113.236 27.8118 112.525 27.4056 111.855 26.8848C111.186 26.3639 110.538 25.8118 109.911 25.2285C109.66 24.9368 109.555 24.5618 109.597 24.1035L109.911 23.4785C110.203 23.2285 110.58 23.1243 111.04 23.166C111.5 23.3743 111.929 23.6868 112.326 24.1035C112.723 24.5202 113.152 24.8535 113.612 25.1035C113.821 24.4785 114.02 23.8535 114.208 23.2285C114.396 22.6035 114.522 21.7233 114.584 20.5879C114.647 19.4525 114.595 17.9785 114.428 16.166L101.724 16.3535L101.096 16.041C100.803 15.7077 100.678 15.3118 100.72 14.8535L101.033 14.2285C101.744 13.8952 102.539 13.7702 103.417 13.8535L113.863 13.666C113.612 13.041 113.392 12.4577 113.204 11.916C113.016 11.3743 112.566 10.7285 111.855 9.97852C111.395 9.31185 111.395 8.70768 111.855 8.16602C112.692 7.66602 113.466 7.03581 114.177 6.27539C114.888 5.51497 115.599 4.82227 116.31 4.19727L106.774 4.38477C106.439 4.3431 106.146 4.2181 105.895 4.00977C105.624 3.7181 105.509 3.3431 105.55 2.88477L105.895 2.25977C106.648 1.9681 107.443 1.80143 108.279 1.75977H119.446C120.492 1.94727 120.806 2.4681 120.388 3.32227C119.133 4.9056 118.066 6.05664 117.188 6.77539C116.31 7.49414 115.494 8.29102 114.741 9.16602C115.076 9.99935 115.39 10.7702 115.682 11.4785C115.975 12.1868 116.268 12.8952 116.561 13.6035L126.316 13.541L127.006 13.916C127.257 14.2493 127.362 14.6452 127.32 15.1035L127.006 15.7285C126.17 16.0618 125.25 16.1868 124.246 16.1035H116.937C117.125 17.8743 117.151 19.4941 117.015 20.9629C116.88 22.4316 116.665 23.6868 116.372 24.7285C116.08 25.7702 115.703 26.5827 115.243 27.166C114.783 27.7493 114.365 28.0618 113.988 28.1035Z" fill="#212529"/>
<path d="M81.9607 27.9152L81.3334 27.6027C81.0824 27.2693 80.9779 26.8735 81.0197 26.4152L81.3334 25.7902C81.8771 25.4985 82.379 25.1339 82.839 24.6964C83.2991 24.2589 83.8951 23.6443 84.627 22.8527C85.3589 22.061 86.2111 21.0454 87.1835 19.8058C88.1559 18.5662 88.9663 17.2277 89.6145 15.7902C90.2628 14.3527 90.6915 13.3839 90.9006 12.8839C91.1934 12.6339 91.5698 12.5298 92.0299 12.5714L92.6572 12.8839C92.95 13.2589 93.0546 13.7173 92.9709 14.2589C92.5527 15.3839 92.0926 16.4881 91.5907 17.5714C91.0888 18.6548 90.4615 19.6756 89.7086 20.6339C90.2105 21.3214 90.7333 21.9985 91.2771 22.6652C91.8208 23.3318 92.3749 23.9464 92.9396 24.5089C93.5042 25.0714 93.8074 25.7068 93.8492 26.4152L93.5355 27.0402C93.201 27.2902 92.8036 27.3943 92.3436 27.3527C91.3816 26.3943 90.5765 25.5506 89.9282 24.8214C89.28 24.0923 88.6526 23.3735 88.0461 22.6652C87.3351 23.811 85.9549 25.2693 83.9056 27.0402C83.3618 27.5818 82.7136 27.8735 81.9607 27.9152ZM73.2404 28.1339C72.5085 27.9673 71.8916 27.5506 71.3897 26.8839C70.846 26.4673 70.5951 25.9256 70.6369 25.2589L70.9506 24.6339C71.2433 24.3839 71.6197 24.2798 72.0798 24.3214L72.864 24.6964C73.0313 22.1548 73.0731 19.811 72.9895 17.6652C71.9648 17.9152 71.0447 18.1652 70.2291 18.4152C69.4135 18.6652 68.5666 18.8527 67.6883 18.9777L67.0609 18.6652C66.81 18.3318 66.7054 17.936 66.7472 17.4777L67.0609 16.8527C68.0229 16.5193 68.9848 16.2173 69.9468 15.9464C70.9087 15.6756 71.8811 15.3943 72.864 15.1027C72.7385 14.1027 72.566 13.2173 72.3464 12.4464C72.1269 11.6756 71.7661 10.8735 71.2642 10.0402C70.8878 9.49851 70.9087 9.00893 71.327 8.57143C71.7452 8.13393 72.7804 6.8631 74.4324 4.75893L68.002 4.94643L67.3119 4.57143C67.0191 4.2381 66.8936 3.82143 66.9355 3.32143L67.2491 2.69643C67.8765 2.3631 68.5875 2.2381 69.3822 2.32143H77.381C78.5103 2.4881 78.8239 2.9881 78.3221 3.82143C76.2727 6.1756 74.8088 7.95684 73.9305 9.16518C74.2233 10.1235 74.4742 10.9985 74.6834 11.7902C74.8925 12.5818 75.0807 13.4568 75.248 14.4152C76.2099 14.2068 77.1092 14.0818 77.9456 14.0402L78.573 14.3527C78.8239 14.6443 78.9285 15.0193 78.8867 15.4777L78.573 16.1027C78.0711 16.3527 77.5483 16.5089 77.0046 16.5714C76.4609 16.6339 75.9172 16.7485 75.3735 16.9152C75.4362 19.4777 75.431 21.4985 75.3578 22.9777C75.2846 24.4568 75.1957 25.4777 75.0911 26.0402C74.9866 26.6027 74.7775 27.1287 74.4638 27.6183C74.1501 28.1079 73.7423 28.2798 73.2404 28.1339ZM81.2706 23.4777C80.9361 23.436 80.6433 23.311 80.3923 23.1027C80.1414 22.7693 80.0368 22.3735 80.0787 21.9152C81.2079 20.6443 82.1385 19.5714 82.8704 18.6964C83.6023 17.8214 84.2611 16.8631 84.8466 15.8214C83.1318 14.4881 81.9921 13.6704 81.4275 13.3683C80.8629 13.0662 80.7374 12.5766 81.0511 11.8996C81.3647 11.2225 82.149 9.56101 83.4037 6.91518L78.8239 7.04018L78.1966 6.72768C77.9038 6.37351 77.7783 5.96726 77.8202 5.50893L78.1338 4.88393C79.2631 4.63393 80.4551 4.50893 81.7098 4.50893C82.9645 4.50893 84.1774 4.44643 85.3485 4.32143L85.1603 1.88393C85.2021 1.5506 85.3276 1.25893 85.5367 1.00893C85.8295 0.758929 86.2059 0.654762 86.6659 0.696429L87.2933 1.00893C87.5861 1.46726 87.722 1.9881 87.7011 2.57143C87.6802 3.15476 87.7115 3.71726 87.7952 4.25893L93.4728 4.32143L94.1002 4.63393C94.3511 4.9256 94.4557 5.3006 94.4139 5.75893L94.1002 6.41518L93.4101 6.79018L86.0386 6.72768L83.8428 11.9464L86.3523 13.7589C86.7705 13.2589 87.1365 12.7277 87.4501 12.1652C87.7638 11.6027 88.0566 11.0298 88.3285 10.4464C88.6212 10.1964 88.9976 10.0923 89.4577 10.1339L90.0851 10.4464C90.3778 10.8214 90.4824 11.2589 90.3987 11.7589C89.7714 13.0923 89.0029 14.3631 88.0932 15.5714C87.1835 16.7798 86.368 17.9308 85.6465 19.0246C84.925 20.1183 83.801 21.4777 82.2744 23.1027C81.9817 23.311 81.6471 23.436 81.2706 23.4777Z" fill="#212529"/>
<path d="M52.4446 29.3214L51.8172 29.0089C51.4408 28.0923 51.2526 27.0818 51.2526 25.9777C51.2526 24.8735 51.1899 22.0193 51.0644 17.4152L43.4106 17.5402L42.7832 17.2277C42.5323 16.936 42.4277 16.561 42.4696 16.1027L42.7832 15.4777C43.076 15.2277 43.3897 15.0818 43.7243 15.0402L51.0017 14.9777L50.9389 12.1027H45.7946L45.1672 11.7902C44.9163 11.4568 44.8117 11.061 44.8535 10.6027L45.1672 9.97768L45.7946 9.66518H50.7507L50.5625 2.63393L50.8762 2.00893C51.2108 1.75893 51.6081 1.65476 52.0682 1.69643L52.6955 2.00893C52.9883 2.50893 53.1347 3.07143 53.1347 3.69643L53.1974 9.60268H58.5614L59.1887 9.91518C59.4397 10.2068 59.5442 10.5818 59.5024 11.0402L59.1887 11.6652L58.4986 12.0402H53.3856L53.4484 15.0402L60.318 15.2902L60.9453 15.6027C61.1963 15.8943 61.3008 16.2693 61.259 16.7277L60.9453 17.3527C60.6526 17.561 60.3389 17.686 60.0043 17.7277L53.5111 17.4777L53.8875 28.3839L53.5739 29.0089C53.2811 29.2589 52.9047 29.3631 52.4446 29.3214ZM39.2073 29.1964L38.5486 28.8839C38.3394 28.6339 38.214 28.3423 38.1721 28.0089L37.733 11.9152L35.2863 15.7902C34.9935 16.0402 34.6171 16.1443 34.157 16.1027L33.5297 15.7902C33.2787 15.4568 33.1742 15.061 33.216 14.6027C34.5544 12.5193 35.7777 10.3683 36.8861 8.14955C37.9944 5.9308 39.2491 3.8006 40.6502 1.75893C40.9848 1.50893 41.3821 1.40476 41.8422 1.44643L42.4696 1.75893C42.7205 2.09226 42.8251 2.4881 42.7832 2.94643C42.0722 4.07143 41.1312 5.68601 39.9601 7.79018L40.6502 28.2589L40.3365 28.8839C40.0438 29.1339 39.6674 29.2381 39.2073 29.1964ZM47.9903 8.85268L47.363 8.54018C47.0284 7.79018 46.652 7.07664 46.2337 6.39955C45.8155 5.72247 45.5436 4.96726 45.4182 4.13393L45.7318 3.50893C46.0664 3.21726 46.4847 3.09226 46.9866 3.13393L47.6139 3.44643C47.8649 4.19643 48.2099 4.91518 48.6491 5.60268C49.0882 6.29018 49.3496 7.06101 49.4333 7.91518L49.1196 8.54018C48.8268 8.79018 48.4504 8.89435 47.9903 8.85268ZM55.4873 8.41518L54.8286 8.10268C54.5776 7.76935 54.4731 7.3631 54.5149 6.88393C54.7867 6.1756 55.0795 5.47768 55.3932 4.79018C55.7069 4.10268 56.031 3.4256 56.3656 2.75893C56.7002 2.50893 57.0975 2.40476 57.5576 2.44643L58.185 2.75893C58.4359 3.09226 58.5405 3.4881 58.4986 3.94643C58.2059 4.65476 57.9026 5.35268 57.589 6.04018C57.2753 6.72768 56.9511 7.41518 56.6166 8.10268C56.3238 8.35268 55.9474 8.45685 55.4873 8.41518Z" fill="#212529"/>
<path d="M1.56651 28.4464L0.939153 28.1339C0.646384 27.2589 0.5 26.311 0.5 25.2902C0.5 24.2693 0.5 16.7381 0.5 2.69643C0.688208 1.75893 1.1901 1.3631 2.00567 1.50893C4.95426 1.59226 6.80498 1.66518 7.55781 1.72768C8.31064 1.79018 8.94846 1.89435 9.47126 2.04018C9.99406 2.18601 10.1718 2.71726 10.0045 3.63393C9.54445 4.50893 9.1053 5.37872 8.68706 6.2433C8.26882 7.10789 7.85058 7.97768 7.43234 8.85268C8.51976 10.2277 9.15758 11.5506 9.34579 12.8214C9.534 14.0923 9.58628 15.3006 9.50263 16.4464C9.41898 17.5923 9.16803 18.436 8.74979 18.9777C8.33155 19.5193 7.7983 19.7277 7.15002 19.6027C6.50175 19.4777 5.80643 19.1964 5.06405 18.7589C4.32167 18.3214 3.57407 17.9152 2.82123 17.5402L3.00944 27.5089L2.69576 28.1339C2.40299 28.3839 2.02658 28.4881 1.56651 28.4464ZM14.4588 27.3527C13.7059 27.2485 13.2197 26.9568 13.0002 26.4777C12.7806 25.9985 12.5767 23.1443 12.3885 17.9152C12.4094 16.936 12.9322 16.4777 13.9569 16.5402C20.3769 16.6652 23.9476 16.7485 24.6691 16.7902C25.3905 16.8318 25.7304 17.2641 25.6885 18.0871C25.6467 18.91 25.5108 21.5818 25.2808 26.1027C25.3017 26.8735 24.7579 27.2277 23.6496 27.1652L14.4588 27.3527ZM22.834 24.7277L23.085 19.2277L15.0234 18.9777L15.2743 24.7902L22.834 24.7277ZM6.99318 16.9152C7.11866 16.1235 7.15002 15.3318 7.08729 14.5402C7.02455 13.7485 6.7527 12.8683 6.27172 11.8996C5.79074 10.9308 5.36727 10.2433 5.00131 9.83705C4.63535 9.4308 4.57262 8.96726 4.81311 8.44643C5.05359 7.92559 5.38296 7.27455 5.8012 6.4933C6.21944 5.71205 6.59586 4.90476 6.93045 4.07143L2.94671 3.94643L2.88397 14.6027C3.51133 15.061 4.17529 15.4673 4.87584 15.8214C5.57639 16.1756 6.28218 16.5402 6.99318 16.9152ZM11.5102 14.9777L10.8828 14.6652C10.5901 14.3318 10.4646 13.936 10.5064 13.4777L10.8201 12.8527L11.4474 12.5402H14.9607L14.0824 6.29018L11.7611 6.35268C11.4265 6.31101 11.1338 6.1756 10.8828 5.94643C10.6319 5.65476 10.5273 5.27976 10.5691 4.82143L10.8828 4.19643C11.1756 3.9881 11.4893 3.8631 11.8239 3.82143L17.4701 3.75893L17.4074 1.19643C17.4492 0.863095 17.5747 0.571429 17.7838 0.321429C18.0766 0.0714286 18.453 -0.0327381 18.913 0.00892857L19.5404 0.321429C19.7913 0.779762 19.8959 1.32143 19.8541 1.94643C19.8123 2.57143 19.8332 3.15476 19.9168 3.69643H26.2218L26.9746 4.07143C27.2256 4.3631 27.3301 4.7381 27.2883 5.19643L26.9746 5.82143C26.5564 6.13393 26.0545 6.25893 25.469 6.19643L23.7751 6.13393L23.3359 12.3527H26.7864L27.4138 12.6652C27.6647 12.9568 27.7693 13.3318 27.7275 13.7902L27.4138 14.4152C27.121 14.6235 26.8073 14.7485 26.4727 14.7902L11.5102 14.9777ZM20.7951 12.3527L21.3284 6.13393L16.5918 6.29018L17.4074 12.4777L20.7951 12.3527Z" fill="#212529"/>
</svg>
