<svg width="261" height="28" viewBox="0 0 261 28" fill="none" xmlns="http://www.w3.org/2000/svg">
<rect width="260" height="20" transform="translate(0 8)" fill="#FEE6B2"/>
<path d="M259.388 26.7665L247.379 26.4082L246.827 26.1095C246.606 25.791 246.514 25.4127 246.551 24.9747L246.827 24.3774C247.085 24.1385 247.398 24.019 247.766 24.019L252.901 24.1982L253.066 21.2416L250.471 21.4208C250.177 21.381 249.919 21.2615 249.698 21.0624C249.477 20.7439 249.385 20.3656 249.422 19.9276L249.698 19.3303C250.214 19.0914 250.766 18.962 251.355 18.9421C251.944 18.9222 252.533 18.9122 253.121 18.9122L253.232 16.1647H249.864L249.312 15.866C249.091 15.5475 248.999 15.1692 249.036 14.7312L249.312 14.1339L249.864 13.8353H257.179C258.026 13.7954 258.799 13.9348 259.498 14.2534C259.719 14.5321 259.811 14.8905 259.774 15.3285L259.498 15.9258C259.13 16.2045 258.689 16.324 258.173 16.2841L255.523 16.1647L255.275 18.9122C255.845 18.9918 256.416 19.0217 256.986 19.0018C257.557 18.9819 258.063 19.1113 258.505 19.39C258.725 19.6688 258.817 20.0271 258.781 20.4652L258.505 21.0624C258.026 21.4009 257.456 21.5005 256.793 21.3611L255.219 21.2416L255.054 24.2579H258.173C258.946 24.2181 259.627 24.3575 260.216 24.676C260.437 24.9946 260.529 25.3729 260.492 25.8109L260.216 26.4082C259.959 26.6073 259.682 26.7267 259.388 26.7665ZM241.306 27.1846L240.726 26.886C240.506 26.5276 240.377 26.1294 240.34 25.6914V14.9701C239.898 15.8461 239.438 16.7122 238.96 17.5683C238.481 18.4244 238.058 19.2905 237.69 20.1665C237.432 20.4054 237.101 20.505 236.696 20.4652L236.144 20.1665C235.96 19.848 235.849 19.5095 235.813 19.1511C236.475 17.7575 237.147 16.3538 237.828 14.9402C238.509 13.5267 239.088 12.0633 239.567 10.5502L236.641 10.8488L236.089 10.5502C235.868 10.2316 235.776 9.85334 235.813 9.41533L236.089 8.81804C236.714 8.45967 237.405 8.27053 238.159 8.25062C238.914 8.23071 239.659 8.20085 240.395 8.16103V4.36825C239.733 4.76644 239.052 4.98545 238.352 5.02527L237.8 4.72662C237.579 4.40807 237.487 4.02979 237.524 3.59178L237.8 2.99449C238.904 2.3972 240.068 1.96914 241.292 1.71032C242.516 1.45149 243.754 1.22253 245.005 1.02344L245.557 1.32208C245.778 1.60082 245.87 1.95919 245.833 2.3972L245.557 2.99449C245.116 3.27322 244.628 3.44245 244.094 3.50218C243.561 3.56191 243.055 3.6515 242.576 3.77096V8.1013L245.668 8.04157L246.22 8.34021C246.441 8.61895 246.533 8.97732 246.496 9.41533L246.22 10.0126C245.815 10.2914 245.364 10.4307 244.867 10.4307C244.37 10.4307 243.864 10.4307 243.349 10.4307C243.901 10.9484 244.398 11.5158 244.84 12.133C245.281 12.7502 245.76 13.2977 246.275 13.7755C246.496 14.0543 246.588 14.4126 246.551 14.8506L246.275 15.4479C245.981 15.6869 245.631 15.7864 245.226 15.7466C244.858 15.6271 244.545 15.3882 244.288 15.0298L242.576 12.9393V26.2887L242.3 26.886C242.042 27.1249 241.711 27.2245 241.306 27.1846ZM249.809 12.1629C249.312 12.0832 249.022 11.8244 248.939 11.3864C248.856 10.9484 248.723 8.31035 248.539 3.47232C248.465 2.99449 248.566 2.67593 248.843 2.51666C249.119 2.35738 252.56 2.33747 259.167 2.45693C259.701 2.45693 259.995 2.77548 260.051 3.41259C259.977 8.4099 259.908 11.0977 259.843 11.476C259.779 11.8543 259.333 12.0036 258.505 11.9239L249.809 12.1629ZM257.842 9.53479L257.897 4.78635L250.692 4.66689L250.968 9.65425L257.842 9.53479Z" fill="#212529"/>
<path d="M214.225 27.2746C213.774 27.2746 213.351 27.0506 212.955 26.6027C212.329 25.9954 211.98 25.2488 211.906 24.3628L212.196 23.7805C212.408 23.5814 212.679 23.4819 213.01 23.4819C213.102 23.4819 213.282 23.5217 213.549 23.6013C214.322 19.5597 214.708 15.9809 214.708 12.8651C213.65 12.9447 212.697 13.0044 211.851 13.0442C211.225 17.1257 210.254 20.7692 208.938 23.9746C208.69 24.2036 208.4 24.3131 208.069 24.3031H207.903L207.365 24.0343C207.181 23.7855 207.084 23.4769 207.075 23.1085V22.9294C208.713 18.609 209.836 13.4076 210.443 7.32521C209.67 7.32521 209.003 7.37997 208.441 7.48947C207.889 7.58902 207.342 7.68856 206.799 7.78811L206.15 7.4596C205.966 7.17092 205.87 6.85236 205.86 6.50394V6.32476L206.15 5.68267C206.813 5.35416 207.508 5.17498 208.234 5.14511C208.971 5.11525 209.707 5.0605 210.443 4.98086C210.277 3.46773 210.098 2.34782 209.905 1.62112C209.941 0.864552 210.319 0.486269 211.036 0.486269H211.202L211.796 0.784913C212.099 1.37225 212.283 2.02429 212.348 2.74103C212.412 3.45778 212.523 4.16457 212.679 4.8614L216.834 4.80167C217.533 4.90122 217.883 5.32928 217.883 6.08584V6.26503L217.593 6.84738C217.326 7.04648 217.055 7.16594 216.778 7.20576L212.624 7.26549C212.477 9.01753 212.362 10.1723 212.279 10.7298L216.213 10.4759C216.82 10.4759 217.119 10.7945 217.11 11.4316C217.11 11.6307 217.082 11.8746 217.027 12.1632C216.898 14.6719 216.682 17.1655 216.378 19.6443C216.075 22.123 215.752 24.0543 215.412 25.438C215.09 26.6624 214.694 27.2746 214.225 27.2746ZM218.973 10.67H218.807L218.242 10.3565C218.076 10.0877 217.975 9.77409 217.938 9.41572C218.481 7.99219 218.886 6.52385 219.153 5.01072C219.429 3.4976 219.737 2.00935 220.077 0.545998C220.307 0.346902 220.583 0.242377 220.906 0.232422H221.071L221.637 0.545998C221.849 0.834687 221.95 1.16817 221.941 1.54646V1.74057C221.757 2.36773 221.655 3.04963 221.637 3.78628H228.566C229.505 3.78628 230.397 3.92067 231.244 4.18945C231.428 4.43832 231.525 4.73199 231.534 5.07045V5.24964L231.244 5.86186C230.756 6.15055 230.209 6.29489 229.601 6.29489C229.261 6.27498 226.436 6.21525 221.126 6.11571C220.823 7.62884 220.381 9.04242 219.801 10.3565C219.571 10.5655 219.295 10.67 218.973 10.67ZM221.444 26.8416C220.781 26.762 220.413 26.4036 220.34 25.7665C220.303 16.0207 220.275 11.0583 220.257 10.8791C220.257 10.5107 220.455 10.2569 220.85 10.1175C222.129 9.74921 223.431 9.4655 224.757 9.2664C226.091 9.05735 227.425 8.84332 228.759 8.62432L229.325 8.89309C229.491 9.12206 229.574 9.39581 229.574 9.71437V9.90848L229.325 10.4162C228.644 10.8841 227.931 11.1777 227.186 11.2972C226.441 11.4067 225.704 11.6157 224.977 11.9243C225.161 12.3126 225.336 12.8651 225.502 13.5818C225.677 14.2886 225.944 14.9805 226.302 15.6574C227.471 14.4927 228.235 13.756 228.594 13.4474L229.436 13.3877L229.974 13.6565C230.158 13.8556 230.255 14.1243 230.264 14.4628V14.642C229.381 15.6972 228.313 16.6977 227.062 17.6434C227.531 18.828 228.124 19.8882 228.842 20.8239C229.56 21.7597 230.42 22.8895 231.423 24.2135C231.607 24.4126 231.699 24.6864 231.699 25.0348V25.1991L231.423 25.7067C231.157 25.8859 230.862 25.9805 230.54 25.9905C230.107 25.9905 229.344 25.3285 228.249 24.0045C227.292 22.8199 226.252 21.0977 225.129 18.8379C224.007 16.5682 223.257 14.4031 222.879 12.3424L222.424 12.3723L222.631 24.2135C223.708 23.7656 224.6 23.4719 225.309 23.3325C225.649 23.4122 225.925 23.6361 226.137 24.0045L226.192 24.557C226.118 24.8656 225.957 25.1194 225.709 25.3185C224.973 25.5475 224.264 25.8013 223.583 26.0801C223.114 26.2791 222.636 26.4534 222.148 26.6027C221.945 26.7221 221.711 26.8018 221.444 26.8416Z" fill="#212529"/>
<path d="M190.014 27.9906L189.462 27.6919C189.168 27.1345 189.039 26.5272 189.076 25.8702V21.2114L183.831 21.2711C183.407 21.3308 183.095 21.2412 182.892 21.0023C182.69 20.7634 182.699 20.42 182.92 19.972C183.141 19.524 183.504 19.1109 184.01 18.7326C184.516 18.3543 185.846 17.4485 187.999 16.015C187.3 15.6367 186.693 15.2186 186.177 14.7607C185.662 14.3027 185.671 13.7801 186.205 13.1928C186.739 12.6054 187.286 11.9833 187.847 11.3263C188.409 10.6692 189.094 10.3009 189.904 10.2213L190.456 10.5199C190.659 10.7986 190.741 11.157 190.705 11.595L190.456 12.1923L188.634 13.6557L190.291 14.7905C190.898 14.4321 191.478 14.024 192.03 13.5661C192.582 13.1082 193.217 12.8593 193.935 12.8195L194.487 13.1181C194.707 13.4367 194.8 13.815 194.763 14.253L194.487 14.8503C193.401 15.4674 192.31 16.1344 191.215 16.8512C190.12 17.5679 189.011 18.2548 187.889 18.9118L193.603 18.8521C193.217 18.434 193.06 17.9462 193.134 17.3887L193.382 16.7914C193.677 16.5127 194.045 16.4132 194.487 16.4928L195.039 16.7914C195.407 17.3887 195.803 17.9512 196.226 18.4788C196.649 19.0064 197.302 19.7281 198.186 20.6439C198.407 20.9227 198.499 21.281 198.462 21.7191L198.186 22.3163C197.891 22.5553 197.542 22.6548 197.137 22.615L196.364 22.1372L195.425 21.062L191.202 21.2114L191.257 27.0947L190.981 27.6919C190.741 27.9309 190.419 28.0304 190.014 27.9906ZM196.806 26.6765C196.18 26.3381 195.554 25.9498 194.928 25.5118C194.303 25.0738 193.686 24.6557 193.079 24.2575C192.858 23.9987 192.766 23.6503 192.803 23.2123L193.079 22.615C193.355 22.3363 193.714 22.2367 194.155 22.3163C194.781 22.6747 195.388 23.058 195.977 23.4661C196.566 23.8743 197.174 24.2774 197.799 24.6756C198.02 24.9942 198.112 25.3725 198.075 25.8105L197.799 26.4078C197.542 26.6268 197.21 26.7164 196.806 26.6765ZM183.5 26.6467C183.205 26.6069 182.947 26.4874 182.727 26.2883C182.524 26.0096 182.441 25.6512 182.478 25.2132L182.727 24.6159C183.684 23.2421 184.401 22.396 184.88 22.0774L185.625 22.0177L186.177 22.3163C186.398 22.5951 186.49 22.9535 186.453 23.3915L186.177 23.9589L184.328 26.2883C184.07 26.4874 183.794 26.6069 183.5 26.6467ZM180.076 13.5362C179.8 13.4964 179.552 13.3769 179.331 13.1778C179 12.6403 178.853 12.0131 178.889 11.2964V8.87737C178.834 8.22036 178.986 7.82714 179.345 7.69773C179.704 7.56832 180.164 7.50361 180.725 7.50361C181.286 7.50361 183.849 7.42397 188.413 7.2647L188.303 4.75609L179.662 5.17419L179 4.81582C178.779 4.53708 178.687 4.18866 178.724 3.77056L179 3.17327C180.012 2.93436 181.07 2.78504 182.174 2.72531C183.279 2.66558 185.266 2.57599 188.137 2.45653L188.082 1.0529L188.358 0.455614C188.653 0.216699 189.002 0.117151 189.407 0.15697L189.959 0.455614C190.254 1.0529 190.364 1.69996 190.291 2.3968L197.855 2.33707C198.37 2.29725 198.821 2.41671 199.207 2.69544C199.428 3.014 199.52 3.39228 199.483 3.83029L199.207 4.39771C198.821 4.71627 198.333 4.81582 197.744 4.69636H190.456L190.567 7.20497L199.207 7.08551C199.612 7.22488 199.888 7.52352 200.035 7.98144V11.8339L199.759 12.4312C199.465 12.6502 199.115 12.7398 198.71 12.7L198.186 12.4312L197.91 11.8339V9.41493L181.015 9.83303L181.236 12.6104L180.96 13.1778C180.702 13.3769 180.408 13.4964 180.076 13.5362Z" fill="#212529"/>
<path d="M165.142 27.9017L164.59 27.6031C164.258 27.0058 164.148 26.3289 164.258 25.5723L164.479 21.1823L160.449 25.2139C160.081 25.6918 159.62 25.9108 159.068 25.871L158.516 25.5723C158.295 25.2936 158.203 24.9352 158.24 24.4972C159.087 23.4619 160.946 21.3814 163.817 18.2555H159.565L159.013 17.9569C158.755 17.6383 158.645 17.2601 158.682 16.8221L158.958 16.2248L159.51 15.9261H164.479L164.369 14.0745C164.405 13.756 164.516 13.4772 164.7 13.2383C164.958 12.9994 165.289 12.8999 165.694 12.9397L166.246 13.2383C166.559 14.0745 166.697 14.9705 166.66 15.9261H169.144C170.101 15.8465 170.985 15.9859 171.795 16.3442C172.015 16.623 172.108 16.9813 172.071 17.4193L171.795 18.0166C171.5 18.2157 171.187 18.3352 170.856 18.375L167.599 18.2555C169.881 20.6646 171.408 22.2076 172.181 22.8845C172.586 23.3624 172.788 23.9198 172.788 24.5569L172.512 25.1542C172.255 25.3931 171.923 25.4927 171.519 25.4529L170.966 25.1542C170.378 24.3578 168.96 22.9144 166.715 20.8239C166.55 24.2682 166.356 26.528 166.135 27.6031C165.878 27.842 165.547 27.9416 165.142 27.9017ZM153.437 27.6031C152.774 27.3244 152.171 26.8963 151.629 26.3189C151.086 25.7416 150.538 25.1741 149.986 24.6167C149.728 24.2981 149.618 23.9198 149.655 23.4818L149.931 22.8845C150.188 22.6456 150.52 22.5461 150.925 22.5859C151.403 22.9044 151.863 23.2628 152.305 23.661L152.36 16.6429C151.698 16.842 151.053 17.0112 150.428 17.1506C149.802 17.2899 149.195 17.4592 148.606 17.6583C148.311 17.6184 148.054 17.499 147.833 17.2999C147.612 17.0211 147.52 16.6628 147.557 16.2248L147.833 15.6275C148.532 15.2691 149.268 15.0103 150.041 14.851C150.814 14.6917 151.569 14.4926 152.305 14.2537V7.20572L148.661 7.32518C148.366 7.28536 148.109 7.1659 147.888 6.9668C147.667 6.68807 147.575 6.31974 147.612 5.86182L147.888 5.26453C148.182 4.9858 148.532 4.86634 148.937 4.90616L152.305 4.84643V1.56135C152.342 1.24279 152.461 0.964061 152.664 0.725145C152.921 0.48623 153.253 0.386682 153.658 0.426501L154.21 0.725145L154.486 1.32243V4.7867H157.081L157.633 5.08535C157.854 5.36408 157.946 5.72245 157.909 6.16046L157.633 6.78762C157.375 6.98671 157.099 7.10617 156.805 7.14599H154.486V13.4772L155.59 13.4175L156.142 13.7162C156.363 13.9949 156.455 14.3533 156.418 14.7913L156.142 15.3886C155.627 15.6673 155.093 15.8465 154.541 15.9261L154.651 26.6474C154.394 27.404 153.989 27.7226 153.437 27.6031ZM170.856 13.1786C170.12 13.1388 169.402 13.0293 168.703 12.8501C168.003 12.6709 167.392 12.2628 166.867 11.6256C166.342 10.9885 166.085 10.232 166.094 9.35595C166.103 8.47993 166.08 7.62382 166.025 6.78762C166.062 6.46906 166.172 6.18037 166.356 5.92155C166.632 5.68263 166.973 5.58309 167.378 5.62291L167.93 5.92155L168.206 6.5487C168.151 7.50436 168.16 8.34554 168.233 9.07224C168.307 9.79894 168.496 10.2569 168.799 10.446C169.103 10.6351 169.577 10.7297 170.221 10.7297C170.865 10.7297 171.463 10.8691 172.015 11.1478C172.236 11.4266 172.328 11.7849 172.292 12.2229L172.015 12.8202C171.684 13.0591 171.298 13.1786 170.856 13.1786ZM161.166 12.8202C160.872 12.7804 160.614 12.6609 160.393 12.4619C160.173 12.1831 160.081 11.8247 160.117 11.3867L160.393 10.7894C161.093 10.3913 161.553 9.8736 161.774 9.2365C161.995 8.59939 162.123 8.01206 162.16 7.4745C162.197 6.93694 162.307 6.41929 162.491 5.92155C162.749 5.68263 163.08 5.58309 163.485 5.62291L164.037 5.92155C164.369 6.41929 164.47 7.02653 164.341 7.74328C164.212 8.46002 164.037 9.16681 163.817 9.86365C163.596 10.5605 163.209 11.2075 162.657 11.8048C162.105 12.4021 161.608 12.7406 161.166 12.8202ZM159.897 9.71433C159.602 9.67451 159.344 9.55505 159.124 9.35595C158.866 8.36048 158.709 7.31024 158.654 6.20526C158.599 5.10028 158.516 4.01023 158.406 2.93511C158.332 2.15864 158.553 1.70569 159.068 1.57628C159.584 1.44687 163.679 1.32243 171.353 1.20298C171.85 1.34234 172.126 1.64099 172.181 2.09891V5.80209C172.218 6.6582 172.071 7.42472 171.739 8.10165C171.445 8.34057 171.095 8.44011 170.69 8.40029L170.138 8.10165C169.881 7.7831 169.77 7.40481 169.807 6.9668L170.028 3.5324L160.614 3.65186L161.001 8.75867L160.725 9.35595C160.467 9.55505 160.191 9.67451 159.897 9.71433Z" fill="#212529"/>
<path d="M139.748 27.1847C139.306 27.0652 138.911 26.8164 138.561 26.4381C138.211 26.0598 137.871 25.6915 137.54 25.3331C137.208 24.9747 136.845 24.6064 136.449 24.2281C136.053 23.8498 135.874 23.3819 135.911 22.8245L136.187 22.2272C136.445 21.9883 136.785 21.8887 137.208 21.9285C137.687 22.2073 138.386 22.8643 139.306 23.8996C139.638 21.3313 139.914 18.6534 140.134 15.8661C140.355 13.0787 140.576 10.4706 140.797 8.0416L132.653 7.98187C132.543 8.8579 132.377 9.61446 132.156 10.2516C131.936 10.8887 131.659 11.6054 131.328 12.4018C131.071 12.6407 130.739 12.7403 130.334 12.7004L129.782 12.4018C129.525 12.0833 129.433 11.6851 129.506 11.2072C130.095 9.81356 130.509 8.18595 130.749 6.3244C130.988 4.46285 131.365 2.63615 131.88 0.844286C132.138 0.605371 132.469 0.505823 132.874 0.545642L133.426 0.844286C133.684 1.16284 133.776 1.56103 133.702 2.03886C133.555 2.63615 133.426 3.23344 133.316 3.83072C133.205 4.42801 133.113 5.0253 133.04 5.62259L141.956 5.68232C142.601 5.60268 142.932 6.03074 142.95 6.96649C142.582 11.3864 142.306 15.0747 142.122 18.0312C141.938 20.9878 141.634 23.2924 141.211 24.9448C140.788 26.5973 140.3 27.344 139.748 27.1847ZM119.375 21.7494C118.749 21.829 118.409 21.6498 118.353 21.2118C118.298 20.7738 118.197 16.2842 118.05 7.74296C118.068 6.7873 118.386 6.26467 119.002 6.17508C119.619 6.08549 120.479 6.13028 121.583 6.30947C121.804 5.533 122.112 4.81625 122.508 4.15923C122.904 3.50222 123.249 2.81534 123.543 2.09859C123.801 1.85968 124.132 1.76013 124.537 1.79995L125.089 2.09859C125.347 2.41714 125.439 2.81534 125.365 3.29317C125.181 3.81082 124.951 4.31851 124.675 4.81625C124.399 5.31399 124.151 5.83164 123.93 6.3692C125.954 6.3692 127.174 6.42395 127.588 6.53345C128.002 6.64295 128.181 7.2054 128.126 8.22079C127.979 16.3439 127.831 20.6494 127.684 21.1371C127.537 21.6249 126.939 21.829 125.89 21.7494H119.375ZM125.697 19.3303L125.752 14.3729L120.369 14.4326L120.534 19.3901L125.697 19.3303ZM135.8 17.9566L135.248 17.6579L133.095 15.0299C132.874 14.7511 132.782 14.3928 132.819 13.9548L133.095 13.3575C133.389 13.0787 133.758 12.9792 134.199 13.0588L134.751 13.3575L136.684 15.9258C136.997 16.2444 137.135 16.6226 137.098 17.0606L136.794 17.6579C136.537 17.8969 136.205 17.9964 135.8 17.9566ZM125.752 12.0434L125.862 8.75835L120.203 8.57916L120.258 12.1032L125.752 12.0434Z" fill="#212529"/>
<path d="M90.7476 27.0054L90.1955 26.7068C89.9746 26.3882 89.8826 26.0099 89.9194 25.5719C90.6188 24.4172 91.5206 22.7348 92.6248 20.5248L90.0851 18.285C89.717 17.9067 89.5882 17.4986 89.6986 17.0606C89.8826 15.5873 90.0759 14.104 90.2783 12.6108C90.4807 11.1176 90.7292 9.6542 91.0237 8.22071C90.2139 8.34017 89.4777 8.24062 88.8152 7.92207C88.5943 7.60351 88.5023 7.22523 88.5391 6.78722L88.8152 6.16007C89.625 5.84151 90.5084 5.74196 91.4654 5.86142C91.5758 5.06504 91.6954 4.28856 91.8242 3.532C91.9531 2.77543 92.1647 2.03878 92.4592 1.32203C92.7536 1.0433 93.1309 0.923842 93.591 0.963662L94.1431 1.26231C94.364 1.58086 94.456 1.95914 94.4192 2.39715C94.1983 2.9148 94.0419 3.47227 93.9499 4.06956C93.8579 4.66685 93.7566 5.26413 93.6462 5.86142L96.2412 5.98088C96.278 5.38359 96.3056 4.7863 96.324 4.18902C96.3424 3.59173 96.462 3.05417 96.6829 2.57634C96.9405 2.33742 97.2718 2.23788 97.6767 2.27769L98.2288 2.57634C98.5232 3.05417 98.6153 3.63155 98.5048 4.30847L98.3944 5.98088C99.241 5.90124 100.014 6.05056 100.713 6.42885C100.934 6.7474 101.026 7.12568 100.989 7.56369L100.713 8.16098C100.419 8.43971 100.051 8.53926 99.6091 8.45962L98.1184 8.34017C97.7871 10.2913 97.3914 12.2225 96.9313 14.1339C96.4712 16.0452 95.9651 17.9565 95.413 19.8678C95.8915 20.1864 96.3608 20.5597 96.8209 20.9877C97.281 21.4158 97.7319 21.8488 98.1736 22.2868C98.7257 22.7647 99.0018 23.342 99.0018 24.019L98.7257 24.6163C98.468 24.8552 98.1368 24.9547 97.7319 24.9149C97.3638 24.7954 97.0509 24.5565 96.7933 24.1982C96.462 23.8 96.1123 23.4217 95.7443 23.0633C95.3762 22.7049 95.0081 22.3665 94.64 22.0479C93.4438 24.0787 92.4776 25.6317 91.7414 26.7068C91.4838 26.9457 91.1525 27.0452 90.7476 27.0054ZM110.734 27.0054L102.149 26.9457C101.597 26.9656 101.242 26.7665 101.086 26.3484C100.93 25.9303 100.732 22.7547 100.492 16.8217C100.474 16.085 100.626 15.6271 100.948 15.4479C101.27 15.2687 103.138 15.1741 106.552 15.1642C109.966 15.1542 111.825 15.214 112.128 15.3434C112.432 15.4728 112.575 16.0253 112.556 17.0008C112.372 22.6353 112.23 25.7262 112.128 26.2737C112.027 26.8212 111.562 27.0651 110.734 27.0054ZM110.072 24.6163L110.293 17.5384H102.646L102.977 24.6163H110.072ZM93.591 18.2551C94.1063 16.5031 94.548 14.8108 94.9161 13.1782C95.2842 11.5456 95.6338 9.93293 95.9651 8.34017L93.3426 8.22071C92.9745 9.61438 92.68 11.028 92.4592 12.4615C92.2383 13.8949 92.0543 15.3284 91.9071 16.7619L93.591 18.2551ZM112.998 14.6714L112.446 14.3728C112.151 13.8153 111.894 13.2578 111.673 12.7004C105.397 13.218 101.615 13.6162 100.327 13.8949C100.032 13.8551 99.7747 13.7058 99.5539 13.447C99.333 13.1882 99.241 12.8397 99.2778 12.4017C100.088 10.5302 100.897 8.6637 101.707 6.80215C102.517 4.9406 103.29 3.07408 104.026 1.20258C104.357 0.884023 104.744 0.764566 105.185 0.844204L105.738 1.14285C105.958 1.42158 106.05 1.77996 106.014 2.21797C105.277 4.04965 104.615 5.65735 104.026 7.04107C103.437 8.42478 102.848 9.79357 102.259 11.1474L110.237 10.3709C109.98 9.8533 109.694 9.37547 109.382 8.93745C109.069 8.49944 108.912 8.0017 108.912 7.44423L109.188 6.84695C109.446 6.60803 109.777 6.50848 110.182 6.5483L110.734 6.84695C111.397 7.96188 112.096 9.06687 112.832 10.1619C113.568 11.2569 114.047 12.4615 114.268 13.7755L113.992 14.3728C113.734 14.6117 113.403 14.7112 112.998 14.6714Z" fill="#212529"/>
<path d="M61.1821 27.1865L60.63 26.8878C60.2987 26.41 60.1515 25.8326 60.1883 25.1557L59.6914 2.45877C59.765 1.88139 60.0135 1.53795 60.4368 1.42845C60.8601 1.31894 62.3186 1.24428 64.8123 1.20446C67.306 1.16464 68.7599 1.18455 69.174 1.26419C69.5881 1.34383 69.7307 2.04067 69.6019 3.3547C69.4915 6.48051 69.4271 8.4416 69.4087 9.23798C69.3903 10.0344 69.3627 10.6765 69.3258 11.1642C69.289 11.652 68.7553 11.8661 67.7247 11.8063L62.1759 11.9855L62.452 26.2906L62.1759 26.8878C61.9183 27.1268 61.587 27.2263 61.1821 27.1865ZM81.9969 27.1268C81.408 27.0073 80.8651 26.7584 80.3682 26.3801C79.8713 26.0019 79.402 25.5738 78.9603 25.096C78.5186 24.6978 78.3162 24.2 78.353 23.6028L78.629 23.0055C78.8867 22.7666 79.2179 22.667 79.6228 22.7068C79.9173 22.7865 80.1749 22.9856 80.3958 23.3041L81.3344 24.1403C81.4448 22.6073 81.4632 18.6552 81.3896 12.2842L75.3991 12.2244C74.9574 12.1647 74.6538 11.9805 74.4881 11.6719C74.3225 11.3633 74.1845 8.15291 74.0741 2.04067C74.2213 1.38365 74.7366 1.0651 75.62 1.08501C79.9449 1.02528 82.2868 1.01532 82.6457 1.05514C83.0045 1.09496 83.2254 1.42845 83.3082 2.0556C83.391 2.68275 83.4416 3.30493 83.46 3.92212C83.4784 4.53932 83.4968 8.08323 83.5153 14.5538C83.5337 21.0245 83.5153 24.5485 83.46 25.1258C83.4048 25.7032 83.2714 26.201 83.0598 26.6191C82.8481 27.0372 82.4938 27.2064 81.9969 27.1268ZM73.798 26.1711L73.2459 25.8725C72.9146 25.315 72.8042 24.658 72.9146 23.9014L72.8594 20.1684H70.7061C70.5957 21.1041 70.3289 21.9503 69.9056 22.7068C69.4823 23.4634 69.0222 24.1204 68.5253 24.6779C68.0284 25.2353 67.5039 25.4942 66.9517 25.4543L66.3996 25.1557C66.1788 24.877 66.0868 24.5186 66.1236 24.0806L66.3996 23.4833C67.1358 22.8462 67.6327 22.2788 67.8903 21.781C68.148 21.2833 68.332 20.7457 68.4425 20.1684C67.7799 20.1684 67.1174 20.1584 66.4548 20.1385C65.7923 20.1186 65.185 19.9693 64.6329 19.6905C64.412 19.4118 64.32 19.0534 64.3568 18.6154L64.6329 18.0181C65.0009 17.7394 65.461 17.6398 66.0131 17.7195L68.6633 17.8389V15.8082C67.7799 15.9276 66.9886 15.8082 66.2892 15.4498C66.0684 15.171 65.9763 14.8127 66.0131 14.3747L66.2892 13.7774L66.8413 13.4787L74.847 13.5385C75.5464 13.4986 76.1721 13.638 76.7242 13.9566C76.9451 14.2353 77.0371 14.5937 77.0003 15.0317L76.7242 15.629C76.3929 15.8679 75.8408 15.9674 75.0679 15.9276L75.0127 17.8389C75.6016 17.8787 76.2089 17.8987 76.8346 17.8987C77.4604 17.8987 78.0401 18.038 78.5738 18.3168C78.7947 18.5955 78.8867 18.9539 78.8499 19.3919L78.5738 19.9892C78.2793 20.1883 77.9573 20.3077 77.6076 20.3475L75.0127 20.1684L75.1231 23.9611C75.1967 24.6779 75.0863 25.315 74.7918 25.8725C74.5342 26.1114 74.2029 26.2109 73.798 26.1711ZM72.8594 17.8389V15.8679H70.8166V17.8389H72.8594ZM81.4448 9.95473V7.62531H76.5586V9.77554L81.4448 9.95473ZM67.2278 9.4769L67.283 7.74476L62.0655 7.86422L62.1207 9.59636L67.2278 9.4769ZM67.3382 5.41534V3.59361L61.9551 3.65334V5.5348L67.3382 5.41534ZM81.3896 5.26602L81.224 3.47416L76.3929 3.41443L76.5034 5.26602H81.3896Z" fill="#212529"/>
<path d="M44.4012 27.6032C43.7019 27.4041 42.5976 26.4286 41.0885 24.6765L41.0333 23.9598L41.3094 23.3625C41.567 23.1236 41.8983 23.024 42.3032 23.0638C42.8921 23.462 43.4994 23.9996 44.1252 24.6765C44.1988 24.1987 44.2356 23.7009 44.2356 23.1833C44.2356 22.6656 44.1804 21.6403 44.07 20.1073C42.6344 21.4014 41.1805 22.4267 39.7082 23.1833C38.2359 23.9399 36.6808 24.4973 35.0428 24.8557C34.7484 24.8159 34.4907 24.6964 34.2699 24.4973C34.049 24.2186 33.957 23.8602 33.9938 23.4222L34.2699 22.8249C35.8342 22.3471 37.3801 21.7249 38.9077 20.9584C40.4352 20.1919 41.8431 19.1118 43.1314 17.7181L42.8001 17.0014C41.4382 18.1163 40.1407 18.9525 38.9077 19.51C37.6746 20.0674 36.4231 20.5453 35.1533 20.9435L34.6011 20.6448C34.3803 20.3661 34.2883 20.0077 34.3251 19.5697L34.6011 18.9724C35.7974 18.3353 37.0213 17.748 38.2727 17.2104C39.5242 16.6729 40.6652 15.8665 41.6958 14.7914L40.5364 13.776C39.6898 14.4529 38.834 15.09 37.9691 15.6873C37.1041 16.2846 36.1839 16.7425 35.2085 17.0611L34.6564 16.7625C34.4355 16.4837 34.3435 16.1253 34.3803 15.6873L34.6564 15.09C35.779 14.3733 36.874 13.6466 37.9415 12.9099C39.0089 12.1733 40.0027 11.3072 40.9229 10.3117L37.3341 10.252C36.5612 10.2918 35.8802 10.1326 35.2913 9.77419C35.052 9.49545 34.9508 9.13708 34.9876 8.69907L35.2913 8.10178C35.6594 7.82305 36.0827 7.7235 36.5612 7.80314L49.4531 7.98232L50.0052 8.28097C50.2261 8.5597 50.3181 8.91808 50.2813 9.35609L50.0052 9.95337C49.7476 10.1525 49.4623 10.2719 49.1494 10.3117H44.0147C43.3154 11.0683 42.7633 11.7253 42.3584 12.2828C43.0577 12.8801 43.8491 14.1145 44.7325 15.986L47.6587 13.5371C48.174 12.9398 48.809 12.6611 49.5635 12.7009L50.1156 12.9995C50.3365 13.2783 50.4285 13.6366 50.3917 14.0747L50.1156 14.6719L46.8857 17.4792C47.5851 18.3552 48.3535 19.1815 49.1908 19.9579C50.0282 20.7344 51.4775 21.8294 53.5388 23.243C53.7596 23.5218 53.8516 23.8801 53.8148 24.3181L53.5388 24.9154C53.2443 25.1543 52.8946 25.2539 52.4897 25.2141C51.3855 24.6168 50.3135 23.8901 49.2737 23.034C48.2338 22.1779 47.2354 21.262 46.2784 20.2865C46.3888 21.9589 46.4257 23.1584 46.3888 23.8851C46.352 24.6118 46.26 25.224 46.1128 25.7218C45.9656 26.2195 45.7861 26.7073 45.5745 27.1851C45.3628 27.663 44.9717 27.8023 44.4012 27.6032ZM32.0614 11.0285L31.5093 10.7298C31.178 9.73437 30.9756 8.66423 30.902 7.51943C30.8283 6.37463 30.7731 5.24476 30.7363 4.12982C30.8836 3.4728 31.3253 3.13434 32.0614 3.11443L40.7573 3.35334C40.7573 2.83569 40.748 2.30809 40.7296 1.77053C40.7112 1.23297 40.8309 0.745188 41.0885 0.307177C41.3462 0.0682615 41.6774 -0.0312865 42.0823 0.00853268L42.6344 0.307177L42.9105 0.904464V3.4728H53.0418C53.5204 3.63208 53.8148 3.90086 53.9252 4.27914C54.0357 4.65742 54.0357 5.22982 53.9252 5.99634C53.8148 6.76286 53.7228 7.43481 53.6492 8.01219C53.5756 8.58957 53.3915 9.11717 53.0971 9.595C52.8394 9.83392 52.5081 9.93347 52.1033 9.89365L51.5511 9.595C51.3303 9.27645 51.2383 8.89817 51.2751 8.46015C51.5327 7.66377 51.68 6.7977 51.7168 5.86195L32.9448 5.50358L33.3313 10.1326L33.0552 10.7298C32.7976 10.9688 32.4663 11.0683 32.0614 11.0285Z" fill="#212529"/>
<path d="M5.80821 27.4833L5.25609 27.1847C5.03525 26.9059 4.90642 26.6073 4.86961 26.2887L4.75919 13.3575C4.24388 13.9946 3.81139 14.6715 3.46171 15.3882C3.11204 16.105 2.62434 16.7421 1.9986 17.2996L1.33606 17.3593L0.783946 17.0606C0.563099 16.7819 0.47108 16.4235 0.507887 15.9855C1.68574 13.8353 4.25308 9.62442 8.20992 3.35289C8.50438 3.11398 8.85405 3.01443 9.25894 3.05425L9.81106 3.35289C10.0319 3.63163 10.1239 3.99 10.0871 4.42801C9.60861 5.46331 9.0841 6.49363 8.51358 7.51898C7.94306 8.54432 7.40015 9.57464 6.88484 10.6099L7.10568 26.5874L6.82963 27.1847C6.57197 27.4236 6.2315 27.5231 5.80821 27.4833ZM23.4207 26.886C21.0834 26.3684 19.0498 25.7313 17.3198 24.9747C15.5899 24.2181 13.8415 23.5014 12.0747 22.8245L10.4184 25.8109C10.1239 26.1295 9.75584 26.2688 9.31415 26.229L8.76203 25.9304C8.54119 25.6516 8.44917 25.2933 8.48598 24.8553C9.29575 23.6209 9.93068 22.2919 10.3908 20.8684C10.8509 19.4448 11.2098 17.9964 11.4674 16.5231C11.7619 16.2842 12.1115 16.1846 12.5164 16.2244L13.0685 16.5231C13.3262 16.8416 13.4366 17.2199 13.3998 17.6579C13.1422 18.5738 12.9581 19.5294 12.8477 20.5249C14.136 21.162 15.001 21.5503 15.4426 21.6896V12.9394C15.4795 12.6208 15.5899 12.3421 15.7739 12.1032C16.0684 11.8244 16.4181 11.705 16.8229 11.7448L17.3751 12.0434C17.5959 12.362 17.6879 12.7403 17.6511 13.1783L17.5959 16.0453L22.2061 15.9258L22.7582 16.2244C22.979 16.5032 23.0711 16.8616 23.0343 17.2996L22.7582 17.8969C22.3533 18.1756 21.884 18.305 21.3503 18.2851C20.8166 18.2652 19.5651 18.295 17.5959 18.3747L17.5407 22.5258C18.4977 23.0833 19.6433 23.5313 20.9776 23.8697C22.3119 24.2082 23.5128 24.5367 24.5802 24.8553C24.801 25.134 24.893 25.4924 24.8562 25.9304L24.5802 26.5277C24.2489 26.7666 23.8624 26.886 23.4207 26.886ZM10.9153 11.7448L10.3632 11.4461C10.1791 11.1276 10.0687 10.7891 10.0319 10.4308C10.6576 8.87781 11.2558 7.29002 11.8263 5.66738C12.3968 4.04475 13.0685 2.47687 13.8415 0.963744C14.0992 0.724828 14.4304 0.62528 14.8353 0.6651L15.3874 0.963744C15.6451 1.2823 15.7371 1.68049 15.6635 2.15832C15.369 2.75561 15.0838 3.36285 14.8077 3.98005C14.5317 4.59724 14.32 5.24431 14.1728 5.92123L16.1052 7.92215C16.4365 8.28052 16.5837 8.71853 16.5469 9.23618L16.2708 9.83347C16.0132 10.0724 15.6819 10.1719 15.277 10.1321L14.6697 9.77374L13.179 8.34025C12.9213 8.81808 12.6913 9.32577 12.4888 9.86333C12.2864 10.4009 12.0931 10.9285 11.9091 11.4461C11.6514 11.6851 11.3202 11.7846 10.9153 11.7448ZM17.8168 11.267L17.2646 10.9683C17.0438 10.6498 16.9518 10.2715 16.9886 9.83347C17.8352 8.51943 18.5759 7.13074 19.2108 5.66738C19.8458 4.20403 20.5313 2.75561 21.2675 1.32212C21.5619 1.0832 21.9116 0.983653 22.3165 1.02347L22.8686 1.32212C23.0895 1.64067 23.1815 2.01895 23.1447 2.45696L21.7092 5.56286L24.9667 7.98187C25.1875 8.26061 25.2795 8.61898 25.2427 9.05699L24.9667 9.65428C24.6354 9.93302 24.2489 10.0326 23.8072 9.95293C23.2183 9.75383 22.6938 9.41537 22.2337 8.93754C21.7736 8.45971 21.2675 8.06151 20.7154 7.74296L18.8106 10.9683C18.5529 11.2072 18.2216 11.3068 17.8168 11.267ZM1.66733 9.65428L1.11522 9.35564C0.894369 9.03708 0.80235 8.6588 0.839158 8.22079C1.57531 7.06603 2.24706 5.84657 2.85438 4.5624C3.46171 3.27823 4.13345 2.03886 4.86961 0.844286C5.16407 0.605371 5.52295 0.505823 5.94624 0.545642L6.49836 0.844286C6.7192 1.16284 6.81122 1.54112 6.77441 1.97913C5.94624 3.41262 5.25609 4.69182 4.70398 5.81671C4.15186 6.9416 3.47091 8.12124 2.66114 9.35564C2.40349 9.59455 2.07222 9.6941 1.66733 9.65428Z" fill="#212529"/>
</svg>
