<svg width="113" height="28" viewBox="0 0 113 28" fill="none" xmlns="http://www.w3.org/2000/svg">
<rect width="112" height="20" transform="translate(1 8)" fill="#FEE6B2"/>
<path d="M94.3328 27.1753L93.7867 26.8811C93.368 25.6255 93.1677 24.2767 93.1859 22.8348C93.2041 21.3929 93.0858 17.3368 92.8309 10.6667C92.0663 11.4514 91.4565 12.2852 91.0013 13.168C90.5462 14.0508 89.991 14.8649 89.3356 15.6104L88.6256 15.6693L88.0795 15.375C87.861 15.1004 87.77 14.7472 87.8064 14.3156C89.2628 11.9222 90.6691 9.75931 92.0254 7.82693C93.3816 5.89454 94.5877 3.84935 95.6436 1.69135C95.8985 1.45593 96.2262 1.35784 96.6267 1.39708L97.1728 1.69135C97.3913 2.00524 97.4823 2.37799 97.4459 2.80959L94.879 7.60622L95.589 26.2925L95.3159 26.8811C95.061 27.1165 94.7334 27.2146 94.3328 27.1753ZM99.0843 24.8211L98.7566 24.5269C98.5382 24.213 98.4472 23.8402 98.4836 23.4086L98.7566 22.8201L99.3028 22.5258L104.054 22.467L103.836 15.0219L97.992 15.0807L97.4459 14.7865C97.2274 14.5118 97.1364 14.1587 97.1728 13.7271L97.4459 13.1385C97.81 12.8639 98.2469 12.7266 98.7566 12.7266H103.781V7.31195C103.017 7.50813 102.307 7.72393 101.651 7.95935C100.996 8.19477 100.322 8.39095 99.6305 8.54789L99.0843 8.25362C98.8659 7.93973 98.7748 7.56699 98.8113 7.13539L99.0843 6.54684C100.723 5.86021 102.37 5.25205 104.027 4.72236C105.684 4.19267 107.377 3.75126 109.106 3.39813L109.652 3.6924C109.871 3.96706 109.962 4.32018 109.925 4.75178L109.652 5.34033C109.07 5.65422 108.455 5.88473 107.809 6.03187C107.163 6.179 106.53 6.35066 105.911 6.54684V12.7266L111.072 12.6677C111.509 12.6285 111.891 12.7462 112.219 13.0208C112.438 13.2955 112.529 13.6486 112.492 14.0802L112.219 14.6688C111.855 14.9434 111.436 15.0611 110.963 15.0219H105.966L106.239 22.5258L110.526 22.5847L111.072 22.879C111.291 23.1536 111.382 23.5067 111.345 23.9383L111.072 24.5269C110.817 24.7231 110.544 24.8408 110.253 24.88L99.5759 24.8211H99.0843Z" fill="#212529"/>
<path d="M63.6948 28.0003C63.4036 27.9611 63.1487 27.8434 62.9302 27.6472C62.7118 27.3726 62.6207 27.0194 62.6572 26.5878L62.9302 25.9993C63.622 25.6462 64.282 25.1753 64.91 24.5868C65.5381 23.9982 66.2708 23.6647 67.1083 23.5863L67.6544 23.8805C67.8729 24.1552 67.9639 24.5083 67.9275 24.9399L67.6544 25.5284C66.9626 25.8816 66.3164 26.323 65.7156 26.8527C65.1148 27.3824 64.4412 27.7649 63.6948 28.0003ZM79.9154 27.2352C79.1144 26.9998 78.2997 26.7448 77.4714 26.4701C76.6431 26.1955 75.8284 25.9404 75.0274 25.705C74.8089 25.3911 74.7179 25.0184 74.7543 24.5868L75.0274 23.9982C75.3551 23.7236 75.7556 23.6255 76.2289 23.704C76.9935 23.9394 77.7536 24.1748 78.5091 24.4102C79.2646 24.6456 80.0064 24.9203 80.7346 25.2342C80.9531 25.5088 81.0441 25.862 81.0077 26.2936L80.7346 26.8821C80.4798 27.0783 80.2067 27.196 79.9154 27.2352ZM65.9067 23.1154C65.2514 23.0958 64.8736 22.8604 64.7735 22.4092C64.6734 21.9579 64.5141 19.1624 64.2956 14.0224C64.4048 13.6104 64.687 13.3162 65.1421 13.1396L77.5397 12.963C78.2315 13.0023 78.5865 13.3554 78.6047 14.0224L78.6593 21.3792C78.7139 22.4778 78.5819 23.0271 78.2633 23.0271C77.9447 23.0271 73.8259 23.0566 65.9067 23.1154ZM76.4474 21.3204L76.502 20.0844H66.7806V21.3792L76.4474 21.3204ZM76.4474 18.3776V17.3183L66.6713 17.3771V18.3776H76.4474ZM76.4474 15.6115V14.6698L66.4529 14.8464L66.5621 15.6703L76.4474 15.6115ZM79.8062 12.2568C79.0052 12.1783 78.1723 12.1293 77.3076 12.1096C76.4428 12.09 71.2681 12.0998 61.7833 12.1391L61.2372 11.8448C61.0187 11.5309 60.9277 11.1582 60.9641 10.7266L61.2372 10.138L61.7833 9.84374L69.9482 9.60832L69.8936 8.43123H66.5621L65.9067 8.07811C65.6883 7.80345 65.5973 7.45033 65.6337 7.01873L65.9067 6.40075L66.4529 6.10648H69.839L69.7844 4.63512L63.2579 4.92939C62.9666 4.89016 62.7118 4.77245 62.4933 4.57627C62.2749 4.30161 62.1838 3.94849 62.2202 3.51689L62.4933 2.92834C63.622 2.65369 64.8099 2.49674 66.0569 2.45751C67.304 2.41827 68.5465 2.37903 69.7844 2.3398C69.748 1.67278 69.8754 1.08424 70.1667 0.574164C70.4216 0.338747 70.7492 0.240656 71.1498 0.279892L71.6959 0.574164C71.9508 1.00576 72.0236 1.57469 71.9144 2.28094L78.8777 2.10438C79.169 2.14362 79.4239 2.26133 79.6424 2.45751C79.8608 2.7714 79.9518 3.14414 79.9154 3.57574L79.6424 4.16429C79.3875 4.3997 79.0598 4.49779 78.6593 4.45856L71.9144 4.57627L71.969 5.98877L76.1197 5.87106L76.6658 6.16534C76.8843 6.43999 76.9753 6.80293 76.9389 7.25414L76.6658 7.84269C75.9741 8.11734 75.2186 8.24486 74.3993 8.22524C73.5801 8.20562 72.7882 8.23505 72.0236 8.31352L72.0782 9.66718C74.991 9.74565 77.0163 9.79469 78.1541 9.81431C79.2919 9.83393 80.3888 9.98107 81.4446 10.2557C81.6631 10.5304 81.7541 10.8835 81.7177 11.3151L81.4446 11.9036C80.9713 12.2175 80.4252 12.3352 79.8062 12.2568Z" fill="#212529"/>
<path d="M48.3766 27.1763C41.0764 27.3333 37.2124 27.3921 36.7846 27.3529C36.3568 27.3137 36.1247 27.1077 36.0883 26.7349C36.0519 26.3622 35.8061 23.6941 35.351 18.7307C35.2964 17.8479 35.6241 17.3967 36.3341 17.3771C44.2714 17.4555 48.4676 17.534 48.9228 17.6125C49.3779 17.6909 49.6373 17.9362 49.701 18.3482C49.7647 18.7601 49.742 20.0304 49.6328 22.159C49.5235 24.2876 49.4279 25.6657 49.346 26.2935C49.2641 26.9213 48.941 27.2156 48.3766 27.1763ZM47.257 24.881V23.4096L37.9725 23.4685L38.0817 24.881H47.257ZM47.4209 21.1143L47.4755 19.7901L37.5356 19.6724L37.6448 21.1437L47.4209 21.1143ZM36.6071 16.6119C35.8789 16.6904 35.3055 16.7198 34.8868 16.7002C34.4681 16.6806 34.2177 16.3079 34.1358 15.582C34.0539 14.8561 33.9401 13.0414 33.7945 10.138C33.7945 9.43171 33.9401 9.03935 34.2314 8.96087C34.5227 8.8824 39.529 8.87259 49.2505 8.93144C50.0333 8.95106 50.3245 9.50037 50.1243 10.5794L50.2881 15.6703C50.3427 16.3765 49.8967 16.6904 48.9501 16.6119H36.6071ZM40.9763 14.9052L40.9217 10.5499L35.9518 10.4911L36.2248 14.8463L40.9763 14.9052ZM48.0762 14.9052L47.967 10.5499H43.0517L43.1063 14.9052H48.0762ZM44.854 14.3166C44.5991 14.1989 44.417 14.0027 44.3078 13.7281V13.1984C44.7447 12.4137 45.2545 11.727 45.837 11.1385H46.4924C46.7473 11.2562 46.9293 11.4524 47.0386 11.727V12.1979C46.4924 12.9041 45.9098 13.6104 45.2909 14.3166H44.854ZM38.901 14.1401C38.5733 14.0616 38.282 13.8458 38.0271 13.4927C37.5174 12.9826 37.2079 12.3744 37.0987 11.6682C37.2079 11.3935 37.3899 11.1973 37.6448 11.0796H38.1363C38.7189 11.6682 39.2468 12.3156 39.7202 13.0218V13.4927C39.6109 13.7673 39.4289 13.9635 39.174 14.0812L38.901 14.1401ZM52.9096 11.0796L52.3635 10.7854C50.5066 9.01973 47.0568 6.30261 42.014 2.63402C39.1012 4.87049 37.2216 6.33694 36.375 7.03339C35.5285 7.72983 34.3224 8.74507 32.7568 10.0791C32.4655 10.3145 32.1196 10.4126 31.7191 10.3734L31.173 10.0791C30.9545 9.80445 30.8635 9.45133 30.8999 9.01973L31.2276 8.37233C33.0117 6.90097 35.1007 5.22852 37.4946 3.35499C39.8886 1.48145 41.2767 0.422073 41.659 0.176846C42.0413 -0.0683806 42.4509 -0.0585715 42.8878 0.206273C43.3248 0.471118 46.9566 3.35008 53.7835 8.84316C54.0748 9.23553 54.2022 9.68674 54.1658 10.1968L53.8927 10.7854C53.6378 11.0208 53.3101 11.1189 52.9096 11.0796ZM39.0648 7.66607L38.464 7.31295C38.3184 7.11677 38.2638 6.86173 38.3002 6.54784C38.4094 6.25357 38.5915 6.04758 38.8463 5.92987L45.4547 5.69445L46.0009 6.04758C46.1465 6.26338 46.2011 6.52822 46.1647 6.84211C46.0555 7.156 45.8552 7.3718 45.564 7.48951L39.0648 7.66607Z" fill="#212529"/>
<path d="M6.92504 27.3533L6.37889 27.0591C6.10581 26.6275 5.97838 26.1468 5.99659 25.6171C6.01479 25.0874 5.98748 21.7327 5.91466 15.553L2.47393 19.0254C2.14624 19.3393 1.76394 19.4766 1.32702 19.4374L0.780876 19.1431C0.562417 18.8685 0.471392 18.5153 0.507802 18.0838L0.890105 17.3186C3.22034 15.0822 4.93615 13.3263 6.03755 12.0512C7.13894 10.776 8.19938 9.491 9.21886 8.1962C6.83401 8.23544 5.23198 8.27468 4.41276 8.31391C3.59354 8.35315 2.78342 8.412 1.9824 8.49048L1.43625 8.1962C1.18138 7.88231 1.07215 7.50957 1.10856 7.07797L1.38164 6.46C2.14624 6.18534 2.96547 6.03821 3.8393 6.01859C4.71314 5.99897 5.59608 5.96954 6.48812 5.93031C6.23325 5.26329 5.96473 4.67475 5.68255 4.16467C5.40037 3.6546 5.05903 3.18377 4.65852 2.75217C4.40365 2.43828 4.25802 2.10477 4.22161 1.75164C4.25802 1.43775 4.36724 1.1631 4.54929 0.92768C4.80416 0.692262 5.13185 0.594171 5.53236 0.633408L6.10581 0.92768C6.90683 2.0263 7.50759 2.91892 7.9081 3.60556C8.30861 4.29219 8.54527 5.04749 8.61809 5.87145C9.27347 5.87145 9.93795 5.87145 10.6115 5.87145C11.2851 5.87145 11.8722 5.9254 12.3729 6.0333C12.8735 6.1412 13.0055 6.60713 12.7688 7.4311L8.39963 12.7869C9.20065 13.4146 10.0381 13.9836 10.9119 14.4936C11.7857 15.0037 12.5868 15.6119 13.315 16.3181L13.3696 17.0244L13.0965 17.6129C12.8052 17.8483 12.4593 17.9464 12.0588 17.9072L8.07195 15.3764C8.10836 21.6739 8.14477 25.0874 8.18118 25.6171C8.21759 26.1468 8.12656 26.6275 7.9081 27.0591C7.65323 27.2945 7.32554 27.3926 6.92504 27.3533ZM24.3198 25.1169C23.8829 24.9991 19.7777 24.8814 12.0042 24.7637L11.4581 24.4695C11.2396 24.1948 11.1486 23.8417 11.185 23.4101L11.4581 22.8215C12.077 22.4684 12.7688 22.3311 13.5334 22.4096L18.6126 22.4684L18.5034 12.3749L14.1888 12.4337C13.8975 12.3945 13.6427 12.2768 13.4242 12.0806C13.2057 11.8059 13.1147 11.4528 13.1511 11.0212L13.4242 10.4327C14.0432 10.1188 14.7167 10.0011 15.4449 10.0795H18.4488L18.3395 5.87145L18.6126 5.28291C18.8675 5.04749 19.1952 4.9494 19.5957 4.98864L20.1691 5.28291C20.4968 5.87145 20.6424 6.5679 20.606 7.37224V10.0795C21.3342 10.1188 22.0715 10.1286 22.8179 10.109C23.5643 10.0894 24.2652 10.2169 24.9206 10.4915C25.1391 10.7662 25.2301 11.1193 25.1937 11.5509L24.9206 12.1395C24.5201 12.4533 24.0468 12.5711 23.5006 12.4926L20.6606 12.3749L20.7699 22.5273C21.5709 22.5665 22.3719 22.6057 23.1729 22.645C23.9739 22.6842 24.7203 22.8412 25.4121 23.1158C25.667 23.4297 25.7762 23.8024 25.7398 24.234L25.4667 24.8226C25.1391 25.0972 24.7568 25.1953 24.3198 25.1169Z" fill="#212529"/>
</svg>
