<svg width="368" height="36" viewBox="0 0 368 36" fill="none" xmlns="http://www.w3.org/2000/svg">
<rect width="368" height="20" transform="translate(0 16)" fill="#FEE6B2"/>
<path d="M344.115 35.3064L343.333 34.926C342.917 34.3682 342.708 33.7089 342.708 32.9481L342.474 23.8576C341.64 25.0747 340.839 26.3236 340.071 27.6041C339.302 28.8846 338.554 30.1589 337.824 31.4267C337.46 31.731 336.991 31.8578 336.418 31.8071L335.636 31.4267C335.271 31.021 335.141 30.5139 335.245 29.9053C336.235 28.2063 337.225 26.5201 338.215 24.8465C339.205 23.1729 340.286 21.5501 341.458 19.9779H337.199C336.782 19.9272 336.418 19.7751 336.105 19.5215C335.792 19.1665 335.662 18.7101 335.714 18.1522L336.105 17.3915L336.886 17.0111H342.474L342.396 13.2836L342.786 12.5229C343.151 12.2186 343.62 12.0918 344.193 12.1425L344.975 12.5229C345.339 13.1315 345.509 13.8161 345.483 14.5768C345.456 15.3376 345.469 16.0983 345.522 16.859L350.21 16.6308L351.226 17.1633C351.539 17.5183 351.669 17.9747 351.617 18.5326L351.226 19.2933C350.653 19.6483 349.976 19.8258 349.194 19.8258C348.413 19.8258 347.658 19.8258 346.928 19.8258C347.449 20.3836 347.983 20.9288 348.53 21.4613C349.077 21.9938 349.533 22.539 349.898 23.0969L349.976 24.0097L349.585 24.7704C349.22 25.0747 348.752 25.2015 348.179 25.1508L347.397 24.7704L345.678 23.0208L345.912 34.1653L345.522 34.926C345.157 35.2303 344.688 35.3571 344.115 35.3064ZM355.915 34.5456C354.691 34.6724 354.026 34.4062 353.922 33.7469C353.818 33.0876 353.258 27.0526 352.242 15.6418C352.216 14.7797 352.509 14.2852 353.121 14.1584C353.733 14.0317 357.022 13.9176 362.987 13.8161C364.654 13.6386 365.488 14.0697 365.488 15.1093L365.644 32.7199C365.8 33.6835 365.358 34.2033 364.316 34.2794C363.274 34.3555 360.474 34.4442 355.915 34.5456ZM362.596 31.3506L362.518 28.7642H356.462L356.696 31.5028L362.596 31.3506ZM362.518 25.7594L362.44 22.9447L355.915 22.7926L356.149 25.8354L362.518 25.7594ZM362.362 19.9019L362.44 16.7829L355.446 16.9351L355.681 19.8258L362.362 19.9019ZM346.147 12.0665L345.365 11.6861C345.001 10.9761 344.805 10.171 344.779 9.27084C344.753 8.37066 344.688 7.48949 344.584 6.62735L339.075 6.85556C338.866 7.667 338.58 8.45941 338.215 9.2328C337.85 10.0062 337.46 10.7733 337.043 11.534C336.626 11.8383 336.131 11.965 335.558 11.9143L334.776 11.534C334.516 11.179 334.36 10.7733 334.308 10.3168C335.141 8.77003 335.792 7.19789 336.261 5.60038C336.73 4.00288 337.121 2.36734 337.433 0.69376C337.798 0.389473 338.267 0.262687 338.84 0.313401L339.622 0.69376C340.038 1.40376 340.169 2.21519 340.012 3.12805L339.856 3.88877C342.018 3.73663 343.789 3.6352 345.17 3.58448C346.55 3.53377 347.918 3.48305 349.273 3.43234L350.132 3.88877C350.445 4.24377 350.575 4.7002 350.523 5.25806L350.132 6.01878C349.403 6.42449 348.569 6.57663 347.632 6.47521C347.736 8.17414 347.866 9.63218 348.022 10.8493L347.553 11.6861C347.189 11.9904 346.72 12.1172 346.147 12.0665ZM361.502 11.534L360.682 11.1536C360.317 10.4943 360.122 9.75263 360.096 8.92852C360.07 8.10441 360.005 7.31199 359.9 6.55128L355.134 6.47521C354.925 7.59092 354.587 8.69396 354.118 9.78432C353.701 10.1393 353.206 10.2915 352.633 10.2408L351.851 9.86039C351.539 9.45468 351.409 8.96021 351.461 8.377C351.877 7.10914 352.242 5.81592 352.555 4.49734C352.867 3.17877 353.18 1.86019 353.492 0.541616C353.857 0.23733 354.326 0.110544 354.899 0.161258L355.681 0.541616C356.097 1.15019 356.228 1.86019 356.071 2.67162L355.837 3.58448L366.816 3.35627L367.598 3.73663C367.91 4.09163 368.041 4.54806 367.989 5.10592L367.598 5.86663C366.921 6.22163 366.178 6.39913 365.371 6.39913C364.563 6.39913 363.769 6.42449 362.987 6.47521C363.196 7.92057 363.3 9.22646 363.3 10.3929L362.909 11.1536C362.544 11.4579 362.076 11.5847 361.502 11.534Z" fill="#212529"/>
<path d="M294.181 34.5462L293.4 34.1658C292.931 33.5572 292.723 32.8219 292.775 31.9597L292.071 3.05249C292.175 2.31713 292.527 1.87972 293.126 1.74025C293.725 1.60079 295.79 1.5057 299.319 1.45498C302.849 1.40427 304.907 1.42963 305.493 1.53105C306.079 1.63248 306.281 2.51999 306.099 4.19356C305.942 8.17465 305.851 10.6723 305.825 11.6866C305.799 12.7009 305.76 13.5187 305.708 14.1399C305.656 14.7612 304.9 15.0338 303.442 14.9577L295.588 15.1859L295.979 33.4051L295.588 34.1658C295.223 34.4701 294.754 34.5969 294.181 34.5462ZM323.642 34.4701C322.809 34.3179 322.04 34.001 321.337 33.5192C320.634 33.0374 319.969 32.4922 319.344 31.8836C318.719 31.3765 318.433 30.7426 318.485 29.9819L318.875 29.2211C319.24 28.9169 319.709 28.7901 320.282 28.8408C320.699 28.9422 321.063 29.1958 321.376 29.6015L322.705 30.6665C322.861 28.714 322.887 23.6806 322.783 15.5663L314.304 15.4902C313.679 15.4141 313.249 15.1796 313.014 14.7865C312.78 14.3935 312.585 10.3047 312.428 2.51999C312.637 1.6832 313.366 1.27748 314.616 1.30284C320.738 1.22677 324.053 1.21409 324.561 1.2648C325.068 1.31552 325.381 1.74025 325.498 2.539C325.615 3.33776 325.687 4.13017 325.713 4.91624C325.739 5.70232 325.765 10.2159 325.791 18.457C325.817 26.6981 325.791 31.1863 325.713 31.9217C325.635 32.657 325.446 33.291 325.147 33.8235C324.847 34.356 324.346 34.5715 323.642 34.4701ZM312.038 33.2529L311.256 32.8726C310.787 32.1626 310.631 31.3258 310.787 30.3622L310.709 25.6077H307.661C307.505 26.7995 307.127 27.8772 306.528 28.8408C305.929 29.8044 305.278 30.6411 304.575 31.3511C303.871 32.0611 303.129 32.3908 302.347 32.3401L301.566 31.9597C301.253 31.6047 301.123 31.1483 301.175 30.5904L301.566 29.8297C302.608 29.0183 303.311 28.2956 303.676 27.6617C304.041 27.0277 304.301 26.3431 304.457 25.6077C303.52 25.6077 302.582 25.5951 301.644 25.5697C300.706 25.5443 299.847 25.3542 299.065 24.9992C298.753 24.6442 298.623 24.1877 298.675 23.6299L299.065 22.8692C299.586 22.5142 300.238 22.3874 301.019 22.4888L304.77 22.6409V20.0545C303.52 20.2066 302.4 20.0545 301.41 19.5981C301.097 19.2431 300.967 18.7866 301.019 18.2288L301.41 17.4681L302.191 17.0877L313.522 17.1638C314.512 17.1131 315.398 17.2906 316.179 17.6963C316.492 18.0513 316.622 18.5077 316.57 19.0656L316.179 19.8263C315.71 20.1306 314.929 20.2574 313.835 20.2066L313.757 22.6409C314.59 22.6917 315.45 22.717 316.336 22.717C317.221 22.717 318.042 22.8945 318.797 23.2495C319.11 23.6045 319.24 24.0609 319.188 24.6188L318.797 25.3795C318.38 25.6331 317.925 25.7852 317.43 25.836L313.757 25.6077L313.913 30.4383C314.017 31.3511 313.861 32.1626 313.444 32.8726C313.08 33.1769 312.611 33.3037 312.038 33.2529ZM310.709 22.6409V20.1306H307.818V22.6409H310.709ZM322.861 12.5995V9.63269H315.945V12.3713L322.861 12.5995ZM302.738 11.9909L302.816 9.78483L295.432 9.93697L295.51 12.1431L302.738 11.9909ZM302.895 6.81803V4.49785L295.275 4.57392V6.97018L302.895 6.81803ZM322.783 6.62786L322.548 4.34571L315.71 4.26963L315.867 6.62786H322.783Z" fill="#212529"/>
<path d="M261.909 34.6982C260.632 34.5714 259.955 34.1086 259.877 33.3099C259.799 32.5111 259.701 31.1672 259.584 29.2781C259.467 27.389 259.33 25.5062 259.174 23.6298C259.2 22.9198 259.428 22.4887 259.857 22.3365C260.287 22.1844 265.556 22.083 275.662 22.0323C276.392 22.2351 276.835 22.6408 276.991 23.2494C277.147 23.858 277.251 25.6013 277.304 28.4793C277.356 31.3574 277.264 33.1134 277.03 33.7473C276.796 34.3812 276.053 34.7235 274.803 34.7743L261.909 34.6982ZM273.943 31.8075V24.9991L262.299 24.923L262.925 31.7314L273.943 31.8075ZM254.446 23.0212C254.029 22.9705 253.664 22.8183 253.352 22.5648C253.039 22.2098 252.909 21.7533 252.961 21.1955L253.352 20.4348C255.488 20.1305 257.513 19.4839 259.428 18.4949C261.342 17.506 263.211 16.3015 265.035 14.8815L262.456 13.3601C261.883 13.9179 261.179 14.1715 260.346 14.1208L259.564 13.7404C259.252 13.3854 259.122 12.929 259.174 12.3712L259.564 11.6104C260.502 11.1033 261.433 10.3553 262.358 9.36632C263.283 8.37739 263.895 7.70543 264.195 7.35042C264.494 6.99542 264.95 6.86864 265.562 6.97007C266.174 7.0715 267.529 7.20462 269.626 7.36944C271.723 7.53426 273.448 7.81953 274.803 8.22525C275.35 8.45346 275.506 8.94793 275.272 9.70865C274.074 11.2808 273.149 12.3458 272.498 12.9037C271.846 13.4615 271.234 14.0447 270.661 14.6533C272.849 15.7183 275.057 16.7072 277.284 17.6201C279.511 18.533 281.771 19.319 284.063 19.9783C284.376 20.3333 284.506 20.7898 284.454 21.3476L284.063 22.1083C283.594 22.4633 283.047 22.5901 282.422 22.4887C279.921 21.8294 277.466 20.9673 275.057 19.9022C272.647 18.8372 270.244 17.7722 267.848 16.7072C265.816 18.178 263.719 19.5472 261.557 20.8151C259.395 22.083 257.025 22.8183 254.446 23.0212ZM267.692 12.9797C268.734 12.219 269.697 11.3822 270.583 10.4694L265.894 10.1651L264.878 11.3062L267.692 12.9797ZM254.68 11.6865C254.263 11.6358 253.899 11.4837 253.586 11.2301C253.117 10.2665 252.857 9.22052 252.805 8.09212C252.753 6.96373 252.675 5.84167 252.57 4.72595C252.701 3.88916 253.274 3.43273 254.29 3.35666L266.051 3.28059C266.051 2.2663 266.233 1.32808 266.598 0.465939C267.014 0.110938 267.509 -0.0412055 268.082 0.00950896L268.864 0.389867C269.228 0.846297 269.359 1.40416 269.254 2.06344V3.43273H282.188C283.151 3.45809 283.536 4.02229 283.34 5.12533C283.145 6.22837 283.047 7.24266 283.047 8.16819C283.047 9.09373 282.839 9.93686 282.422 10.6976C282.005 11.0019 281.51 11.1287 280.937 11.0779L280.156 10.6976C279.843 10.3426 279.713 9.88615 279.765 9.32829C279.921 8.39007 280.026 7.41382 280.078 6.39953L255.774 6.32346C255.826 8.07311 255.983 9.45507 256.243 10.4694L255.852 11.2301C255.488 11.4837 255.097 11.6358 254.68 11.6865Z" fill="#212529"/>
<path d="M211.975 34.6223L211.193 34.242C210.933 33.887 210.776 33.4812 210.724 33.0248C210.985 32.1627 211.493 31.4273 212.248 30.8187C213.004 30.2102 213.759 29.6523 214.514 29.1452C215.27 28.638 216.103 28.3084 217.015 28.1562L217.797 28.5366C218.109 28.8916 218.239 29.348 218.187 29.9059L217.797 30.6666C217.067 31.123 215.595 32.3148 213.381 34.242C213.017 34.5463 212.548 34.673 211.975 34.6223ZM237.294 33.7095H226.002C224.96 33.8109 224.4 33.5637 224.322 32.9678C224.244 32.3719 223.944 29.3861 223.423 24.0103C223.397 23.0214 223.684 22.4889 224.283 22.4128C223.449 22.7678 222.642 22.9707 221.86 23.0214L221.079 22.641C220.766 22.286 220.636 21.8296 220.688 21.2717L221.079 20.511C222.277 19.9025 223.488 19.2939 224.712 18.6853C225.937 18.0767 227.122 17.3921 228.268 16.6314L226.314 15.3382L225.767 16.1749C225.351 16.5807 224.83 16.7582 224.205 16.7074L223.423 16.3271C223.11 15.9721 222.98 15.5157 223.032 14.9578C223.71 14.0449 224.374 12.9673 225.025 11.7248C225.676 10.4822 226.132 9.6518 226.393 9.23341C226.653 8.81501 227.161 8.5551 227.916 8.45367C230.026 8.68189 233.361 8.93546 237.919 9.21439C238.44 9.69617 238.675 10.216 238.622 10.7739C237.372 12.701 235.979 14.476 234.442 16.0989C235.874 16.5553 237.242 17.1258 238.544 17.8105C239.847 18.4951 241.201 19.0403 242.608 19.446C242.921 19.801 243.051 20.2575 242.999 20.8153L242.608 21.576C242.139 21.8803 241.618 22.0325 241.045 22.0325C239.43 21.4746 237.821 20.828 236.219 20.0926C234.617 19.3573 232.983 18.7107 231.316 18.1528C230.222 18.9135 229.128 19.6362 228.034 20.3208C226.94 21.0055 225.793 21.6014 224.595 22.1085C234.155 22.1339 239.209 22.2417 239.756 22.4318C240.303 22.622 240.472 23.2496 240.264 24.3146C239.69 29.5889 239.339 32.4923 239.209 33.0248C239.078 33.5573 238.44 33.7855 237.294 33.7095ZM236.513 30.5145L237.06 25.2275H226.549L226.979 30.6666L236.513 30.5145ZM216.859 22.3367C215.895 21.9817 214.944 21.6775 214.006 21.4239C213.069 21.1703 212.105 20.9421 211.115 20.7392C210.802 20.3335 210.672 19.8517 210.724 19.2939L211.115 18.5332C211.688 18.1782 212.365 18.0514 213.147 18.1528C213.98 18.3049 214.807 18.5205 215.628 18.7994C216.449 19.0783 217.25 19.3953 218.031 19.7503C218.344 20.1053 218.474 20.5617 218.422 21.1196L218.031 21.8803C217.666 22.1339 217.276 22.286 216.859 22.3367ZM218.344 14.8817C217.25 14.476 216.136 14.083 215.003 13.7026C213.87 13.3223 212.73 12.9799 211.584 12.6756C211.219 12.2699 211.063 11.7881 211.115 11.2303L211.506 10.4696C212.027 10.1146 212.652 9.98778 213.381 10.0892C214.475 10.3935 215.55 10.7231 216.605 11.0781C217.66 11.4331 218.708 11.8389 219.75 12.2953C220.063 12.701 220.193 13.1828 220.141 13.7407L219.75 14.5014C219.386 14.8057 218.917 14.9324 218.344 14.8817ZM231.472 14.5014L233.973 11.9149L228.737 11.6867L228.112 12.8278L231.472 14.5014ZM221.157 8.60581C220.74 8.5551 220.349 8.3776 219.985 8.07331C219.62 7.56617 219.412 7.00831 219.359 6.39974L211.193 6.47581C210.776 6.42509 210.412 6.27295 210.099 6.01938C209.787 5.66438 209.656 5.20795 209.708 4.65009L210.099 3.88937C210.516 3.53437 211.037 3.38223 211.662 3.43294L218.656 3.50901C218.448 2.95115 218.318 2.46937 218.265 2.06365C218.318 1.65794 218.474 1.30293 218.734 0.998648C219.099 0.694361 219.568 0.567575 220.141 0.618289L220.922 0.998648C221.391 1.70865 221.678 2.49472 221.782 3.35687L230.065 3.12865C230.065 2.36794 230.274 1.68329 230.691 1.07472C231.055 0.770433 231.524 0.643646 232.097 0.694361L232.879 1.07472C233.243 1.48043 233.348 2.13972 233.191 3.05258L240.811 2.97651L241.592 3.35687C241.905 3.76258 242.035 4.24437 241.983 4.80223L241.592 5.56295C240.758 5.96866 239.847 6.12081 238.857 6.01938H232.722C232.775 6.72938 232.618 7.36331 232.254 7.92117C231.889 8.22546 231.42 8.35224 230.847 8.30153L230.065 7.92117C229.701 7.41402 229.545 6.80545 229.597 6.09545L222.642 6.32366L222.72 7.38867L222.329 8.14938C221.964 8.40296 221.574 8.5551 221.157 8.60581Z" fill="#212529"/>
<path d="M190.643 34.0128L189.861 33.6324C189.392 33.0239 189.21 32.3139 189.314 31.5024L188.455 4.87734C188.481 3.60948 188.826 2.91216 189.49 2.78537C190.154 2.65859 192.134 2.64591 195.429 2.74734C198.724 2.84877 200.854 3.00091 201.818 3.20377C202.782 3.40663 202.925 4.04056 202.248 5.10556C201.518 6.22128 200.737 7.31798 199.903 8.39566C199.07 9.47334 198.236 10.5447 197.402 11.6097C198.392 12.3197 199.044 13.1058 199.356 13.9679C199.669 14.8301 199.89 15.6161 200.02 16.3261C200.151 17.0361 200.19 18.3801 200.138 20.3579C200.085 22.3358 199.818 23.8002 199.337 24.7511C198.855 25.702 198.138 26.0189 197.188 25.702C196.237 25.385 195.364 24.9095 194.57 24.2756C193.775 23.6417 192.961 23.1219 192.128 22.7161L192.44 32.8717L192.049 33.6324C191.685 33.9367 191.216 34.0635 190.643 34.0128ZM170.833 33.0239C169.869 32.8464 169.342 32.3075 169.25 31.4073C169.159 30.5072 168.931 27.3565 168.567 21.9554C168.514 21.0679 168.723 20.5291 169.192 20.3389C169.661 20.1487 172.161 20.0727 176.694 20.1107C181.226 20.1487 183.805 20.1931 184.43 20.2438C185.055 20.2945 185.277 21.0172 185.094 22.4119L184.86 31.3503C184.756 32.2885 183.974 32.6942 182.516 32.5674L170.833 33.0239ZM181.812 29.5246L181.89 23.0204H171.614L172.161 29.8288L181.812 29.5246ZM197.09 22.2597C197.298 20.9665 197.363 19.8064 197.285 18.7794C197.207 17.7525 197.077 16.8586 196.895 16.0979C196.712 15.3372 196.308 14.7286 195.683 14.2722C195.058 13.8158 194.505 13.4354 194.023 13.1311C193.541 12.8268 193.489 12.269 193.866 11.4575C194.244 10.6461 194.876 9.75227 195.761 8.77602C196.647 7.79976 197.402 6.77914 198.028 5.71413L191.659 5.56199L191.971 19.2929C192.909 19.6479 193.788 20.1044 194.609 20.6622C195.429 21.2201 196.256 21.7526 197.09 22.2597ZM170.911 17.6574C168.775 17.7081 167.238 17.5813 166.3 17.277C165.988 16.8713 165.858 16.3895 165.91 15.8317L166.3 15.0709C167.29 14.6652 168.384 14.5384 169.582 14.6906L170.286 14.7667L169.739 9.02325L167.16 9.17539L166.378 8.79504C166.066 8.44003 165.936 7.97093 165.988 7.38771L166.378 6.62699C166.795 6.32271 167.264 6.11985 167.785 6.01842H174.115L174.037 2.13876L174.467 1.37805C174.883 1.02305 175.378 0.870904 175.951 0.921618L176.733 1.30198C176.993 1.60626 177.15 1.96126 177.202 2.36698V5.94235L184.704 5.86628L185.485 6.24663C185.798 6.65235 185.928 7.13414 185.876 7.692L185.485 8.49075C184.391 8.94718 183.141 9.09932 181.734 8.94718L181.187 14.7667C182.021 14.7667 182.867 14.7667 183.727 14.7667C184.587 14.7667 185.381 14.9188 186.11 15.2231C186.423 15.5781 186.553 16.0345 186.501 16.5924L186.11 17.3531C185.537 17.7588 184.834 17.8856 184 17.7335L170.911 17.6574ZM178.686 8.94718L172.865 9.09932L173.412 14.8427L177.983 14.7667L178.686 8.94718Z" fill="#212529"/>
<path d="M127.267 35.99L126.486 35.6097C126.173 35.204 126.043 34.7222 126.095 34.1643L126.486 33.4036L127.658 31.3497C127.293 31.2989 126.916 31.0834 126.525 30.7031C126.134 30.3227 125.952 29.8156 125.978 29.1816C126.004 28.5477 126.278 27.9962 126.799 27.5271C127.32 27.058 127.984 26.9312 128.791 27.1467C129.599 27.3622 130.237 27.7363 130.706 28.2688C131.175 28.8013 131.279 29.6127 131.018 30.7031C130.758 31.7934 130.445 32.7063 130.081 33.4416C129.716 34.177 129.273 34.8743 128.752 35.5336C128.335 35.8886 127.841 36.0407 127.267 35.99Z" fill="#212529"/>
<path d="M101.871 35.4584L98.8231 33.1002L98.7449 32.1873L99.1357 31.4266C99.5004 31.1223 99.9692 30.9955 100.542 31.0463L101.167 31.2745V29.753L87.7654 29.677L86.984 29.2966C86.6714 28.9416 86.5411 28.4852 86.5932 27.9273L86.984 27.1666C87.7654 26.6848 88.6771 26.4693 89.7191 26.52L100.62 26.7482L99.7608 25.9114C99.1096 24.9478 99.0836 24.2125 99.6827 23.7053L103.121 22.0318L97.6509 22.1839C96.5569 22.1839 95.567 21.9557 94.6813 21.4993C94.3688 21.1443 94.2385 20.6878 94.2906 20.13L94.6813 19.3693C95.1502 19.0143 95.7233 18.8875 96.4006 18.9889H107.888C109.164 19.3946 109.555 19.9778 109.06 20.7385C107.549 22.3614 105.648 23.7814 103.356 24.9986L103.824 26.6721L115.664 26.3678L116.445 26.7482C116.758 27.1286 116.888 27.5977 116.836 28.1555L116.445 28.9162C115.768 29.322 115.012 29.4995 114.179 29.4487L104.215 29.677C104.267 30.742 104.228 31.6802 104.098 32.4916C103.968 33.303 103.714 34.0574 103.336 34.7547C102.958 35.4521 102.47 35.6866 101.871 35.4584ZM116.289 21.8796C115.872 21.8289 115.507 21.6768 115.195 21.4232V21.271H115.038C114.726 20.916 114.596 20.4596 114.648 19.9018L115.117 17.6196L87.531 17.7717L87.9999 20.5864L87.6091 21.3471C87.1924 21.6514 86.6974 21.7782 86.1244 21.7275L85.3429 21.3471C84.9261 20.5864 84.6787 19.7623 84.6005 18.8748C84.5224 17.9873 84.4377 17.0808 84.3465 16.1552C84.2554 15.2297 84.5028 14.7225 85.0889 14.6338C85.675 14.545 86.9319 14.5514 88.8595 14.6528L88.5469 3.50831C88.4948 2.46867 88.7943 1.87911 89.4456 1.73965C90.0968 1.60018 90.9369 1.45438 91.9658 1.30223C92.9947 1.15009 94.0301 1.04866 95.0721 0.997947L95.8535 1.3783C96.1661 1.73331 96.2964 2.18974 96.2443 2.74759L95.8535 3.50831C95.2284 3.8126 93.8217 4.09153 91.6337 4.3451L91.7118 6.47511H95.8535C96.2182 6.62725 96.4787 6.88082 96.635 7.23582V7.88243C96.4787 8.23743 96.2182 8.49101 95.8535 8.64315L91.7899 8.71922V10.3167H95.3847C95.7493 10.4689 96.0098 10.7224 96.1661 11.0774V11.686C96.0098 12.041 95.7493 12.2946 95.3847 12.4467L91.8681 12.5989L92.0244 14.805L111.287 14.6528V12.2946C109.959 12.4467 108.748 12.2946 107.654 11.8382C107.445 11.5846 107.367 11.2549 107.419 10.8492C107.575 10.4942 107.836 10.2407 108.201 10.0885H111.131L111.014 8.64315L107.888 8.87136L107.028 8.41493C106.82 8.16136 106.742 7.81904 106.794 7.38797L107.107 6.85547C107.68 6.60189 108.305 6.46243 108.982 6.43707C109.659 6.41171 110.337 6.39904 111.014 6.39904V4.26903L108.201 4.11688L107.419 3.73653C107.054 3.33081 106.898 2.82367 106.95 2.21509L107.341 1.45438C107.862 1.09938 108.487 0.972589 109.217 1.07402C111.535 1.32759 112.928 1.46706 113.397 1.49241C113.866 1.51777 114.101 1.93616 114.101 2.74759L114.335 14.5767C116.106 14.4753 117.311 14.5514 117.949 14.805C118.588 15.0585 118.685 15.8319 118.242 17.1251L117.461 21.4232C117.096 21.6768 116.706 21.8289 116.289 21.8796ZM103.981 13.3596C103.199 12.9539 102.418 12.4974 101.636 11.9903C100.855 12.751 99.8911 13.1567 98.7449 13.2074C98.3803 13.0553 98.1198 12.8017 97.9635 12.4467V11.8382C98.1198 11.4832 98.3803 11.2296 98.7449 11.0774L99.6827 10.621L98.9012 9.8603C98.6928 9.60672 98.6147 9.27708 98.6668 8.87136C98.8231 8.51636 99.0836 8.26279 99.4483 8.11065H100.23L101.871 9.17565C102.704 8.08529 103.746 7.51475 104.997 7.46404C105.361 7.61618 105.622 7.88243 105.778 8.26279V8.87136C105.622 9.22637 104.945 9.83494 103.746 10.6971C104.476 10.9507 105.075 11.3817 105.544 11.9903V12.5989C105.387 12.9539 105.127 13.2074 104.762 13.3596H103.981ZM98.1198 6.62725C97.7551 6.47511 97.4946 6.22153 97.3383 5.86653V5.18189L98.1198 4.3451L99.4483 3.73653L98.6668 3.20402C98.4063 2.89974 98.3021 2.51938 98.3542 2.06295C98.5105 1.70795 98.771 1.45438 99.1357 1.30223H99.9171C100.49 1.70795 101.115 2.03759 101.793 2.29117C102.574 1.3783 103.564 0.921875 104.762 0.921875C105.127 1.07402 105.387 1.32759 105.544 1.68259V2.29117C105.387 2.64617 104.84 3.05188 103.903 3.50831L104.606 4.11688C104.814 4.42117 104.892 4.77617 104.84 5.18189C104.684 5.53689 104.424 5.79046 104.059 5.94261H103.434L101.48 5.02974C100.49 5.84118 99.3701 6.37368 98.1198 6.62725Z" fill="#212529"/>
<path d="M59.5572 34.4314C58.6194 34.0764 57.7338 33.5819 56.9002 32.948C56.0667 32.3141 55.2592 31.6421 54.4777 30.9321C54.1651 30.5771 54.0349 30.1207 54.087 29.5628L54.4777 28.8021C54.8424 28.4978 55.3113 28.371 55.8843 28.4217C56.4574 28.6753 56.9914 29.0557 57.4863 29.5628C57.9812 30.07 58.5152 30.4757 59.0883 30.78C59.3488 30.0192 59.5963 29.2585 59.8307 28.4978C60.0651 27.7371 60.2214 26.6657 60.2996 25.2838C60.3777 23.9018 60.3126 22.1078 60.1042 19.9017L44.2796 20.1299L43.4982 19.7496C43.1335 19.3438 42.9772 18.8621 43.0293 18.3042L43.42 17.5435C44.3057 17.1378 45.2955 16.9856 46.3896 17.0871L59.4009 16.8588C59.0883 16.0981 58.8148 15.3881 58.5804 14.7288C58.3459 14.0695 57.7859 13.2835 56.9002 12.3706C56.3272 11.5592 56.3272 10.8238 56.9002 10.1645C57.9422 9.55596 58.906 8.7889 59.7916 7.86337C60.6773 6.93783 61.5629 6.0947 62.4486 5.33398L50.5704 5.5622C50.1536 5.51148 49.7889 5.35934 49.4763 5.10577C49.1377 4.75077 48.9944 4.29434 49.0465 3.73648L49.4763 2.97576C50.4141 2.62076 51.404 2.4179 52.4459 2.36719H66.3559C67.6583 2.5954 68.0491 3.22933 67.5281 4.26898C65.9652 6.19613 64.6367 7.59711 63.5426 8.47194C62.4486 9.34676 61.4327 10.3167 60.4949 11.3817C60.9117 12.396 61.3025 13.3342 61.6671 14.1963C62.0318 15.0585 62.3965 15.9206 62.7612 16.7828L74.9129 16.7067L75.7725 17.1631C76.0851 17.5688 76.2153 18.0506 76.1632 18.6085L75.7725 19.3692C74.7305 19.7749 73.5844 19.9271 72.3341 19.8256H63.2301C63.4645 21.981 63.4971 23.9525 63.3277 25.7402C63.1584 27.5279 62.8914 29.0557 62.5267 30.3235C62.1621 31.5914 61.6932 32.5803 61.1201 33.2903C60.547 34.0003 60.0261 34.3807 59.5572 34.4314Z" fill="#212529"/>
<path d="M16.9298 34.0131L16.1483 33.6328C15.8357 33.2778 15.7055 32.8214 15.7576 32.2635L16.1483 31.5028C17.5029 30.5899 18.662 29.4932 19.6258 28.2127C20.5896 26.9321 21.306 25.7594 21.7748 24.6944C22.2437 23.6294 22.5563 22.6658 22.7126 21.8036H22.0874C20.8892 21.9558 20.1728 21.6261 19.9384 20.8147C19.704 20.0033 19.5607 14.4881 19.5086 4.26913C19.5086 3.07734 19.8082 2.4751 20.4073 2.46243C21.0064 2.44975 24.7835 2.39269 31.7385 2.29126C33.1972 2.26591 33.9917 2.60189 34.1219 3.29921C34.2522 3.99654 34.3694 9.58147 34.4736 20.054C34.4996 21.0683 34.0828 21.6008 33.2232 21.6515H29.863C29.9671 23.5279 30.0583 25.1571 30.1365 26.5391C30.2146 27.9211 30.5793 29.0051 31.2305 29.7912C31.8817 30.5772 32.6762 30.9449 33.614 30.8942C33.4577 29.5756 33.614 28.3838 34.0828 27.3188C34.4475 27.0146 34.9164 26.8878 35.4895 26.9385L36.2709 27.3188C36.5835 28.0796 36.7138 28.929 36.6617 29.8672C36.6096 30.8055 36.6226 31.6359 36.7007 32.3586C36.7789 33.0813 36.6096 33.4997 36.1928 33.6138C35.776 33.7279 35.229 33.7976 34.5517 33.823C33.8745 33.8483 33.0344 33.7913 32.0315 33.6518C31.0286 33.5123 29.9932 32.9038 28.9252 31.8261C27.8572 30.7484 27.2711 29.265 27.1669 27.3759C27.0627 25.4868 26.8804 23.604 26.6199 21.7276H25.8384C25.5779 23.959 24.8095 26.0193 23.5331 27.9084C22.2567 29.7975 20.785 31.5535 19.1179 33.1764C18.5448 33.7849 17.8154 34.0639 16.9298 34.0131ZM9.34962 34.6978L8.56816 34.3174C8.20348 33.151 8.02113 31.9085 8.02113 30.5899C8.02113 29.2713 7.99509 27.9401 7.94299 26.5962L3.2933 32.5678C2.92862 32.8721 2.45974 32.9989 1.88667 32.9481L1.10521 32.5678C0.792624 32.1621 0.662381 31.6803 0.714478 31.1224C4.04871 26.7356 6.10656 23.7308 6.88802 22.1079H2.74628C2.3295 22.0572 1.96482 21.9051 1.65223 21.6515C1.33965 21.2965 1.2094 20.8401 1.2615 20.2822L1.65223 19.5215L2.43369 19.1411L7.86484 19.2172L7.59133 15.794L1.73038 15.8701C1.3136 15.8193 0.948916 15.6672 0.636332 15.4136C0.323748 15.0586 0.193505 14.6022 0.245602 14.0443L0.636332 13.2836C1.62618 12.8779 2.74628 12.7511 3.99661 12.9033L3.68403 7.15985L1.49594 7.23592C1.07916 7.18521 0.714478 7.03306 0.401894 6.77949C0.0893098 6.42449 -0.0409336 5.96806 0.0111637 5.4102L0.401894 4.64949C1.39174 4.29449 2.44672 4.12966 3.56681 4.15502C4.6869 4.18038 5.79397 4.1677 6.88802 4.11698L6.73172 1.60662C6.78382 1.2009 6.94011 0.845903 7.2006 0.541616C7.56528 0.23733 8.04718 0.110544 8.6463 0.161258L9.42776 0.541616C9.79244 1.09948 9.96176 1.65733 9.93571 2.21519C9.90966 2.77305 9.92269 3.40698 9.97479 4.11698L15.9139 3.96484L16.6953 4.3452C17.0079 4.7002 17.1382 5.15663 17.0861 5.71449L16.6953 6.47521C15.7576 6.93164 14.6896 7.10914 13.4914 7.00771V12.599C14.5854 12.5483 15.5753 12.7258 16.4609 13.1315C16.7735 13.4865 16.9037 13.9429 16.8516 14.5008L16.4609 15.2615C15.992 15.5658 15.445 15.7179 14.8198 15.7179L10.7562 15.6418L10.9125 19.1411H15.445L16.2265 19.5215C16.5391 19.9272 16.6693 20.409 16.6172 20.9669L16.2265 21.7276L15.445 22.1079H11.2251L16.4609 26.444C16.8256 26.8497 16.9558 27.3696 16.8516 28.0035L16.4609 28.7642C16.0962 29.0685 15.6273 29.1953 15.0543 29.1446L14.2728 28.7642L10.9907 26.2158L11.147 33.5567L10.7562 34.3174C10.3916 34.6217 9.92269 34.7485 9.34962 34.6978ZM31.4259 18.8369L31.2696 15.9461H22.4782L22.7126 18.9129L31.4259 18.8369ZM31.1133 12.9033L31.0351 11.2297H22.3219V12.9793L31.1133 12.9033ZM10.4437 12.675V7.08378H6.80987L7.04431 12.9033L10.4437 12.675ZM31.0351 5.25806L22.5563 5.33413V8.26289H31.1133L31.0351 5.25806Z" fill="#212529"/>
</svg>
