<svg width="744" height="36" viewBox="0 0 744 36" fill="none" xmlns="http://www.w3.org/2000/svg">
<rect width="744" height="20" transform="translate(0 16)" fill="#FEE6B2"/>
<path d="M728.363 35.9891L727.579 35.6088C727.161 35.051 727.005 34.4171 727.109 33.7071L727.344 28.6106C725.515 29.7263 723.66 30.7405 721.779 31.6533C719.898 32.5661 717.978 33.3014 716.018 33.8593L715.235 33.4789C714.921 33.0732 714.79 32.5915 714.843 32.0337L715.235 31.273C717.09 30.5123 718.918 29.6946 720.721 28.8198C722.524 27.9451 724.235 26.8231 725.855 25.4539H715.235C714.817 25.4032 714.451 25.251 714.137 24.9975C713.824 24.6425 713.693 24.1861 713.745 23.6283L714.137 22.8676C714.555 22.5633 715.026 22.4112 715.548 22.4112L727.423 22.5633C727.266 21.2956 727.423 20.1545 727.893 19.1403C728.259 18.8361 728.729 18.7093 729.304 18.76L730.088 19.1403C730.506 20.1545 730.636 21.2956 730.479 22.5633L738.435 22.4873C739.167 22.4366 739.82 22.5887 740.394 22.9437C740.708 23.2986 740.839 23.755 740.786 24.3129L740.394 25.0735C739.767 25.4792 739.036 25.6314 738.2 25.5299H731.498C733.118 26.6963 734.836 27.6662 736.652 28.4395C738.468 29.2128 740.29 29.8784 742.119 30.4363C742.432 30.7912 742.563 31.2476 742.511 31.8055L742.119 32.5661C741.701 32.9211 741.178 33.0479 740.551 32.9465C738.775 32.4901 737.044 31.8942 735.359 31.1589C733.673 30.4236 732.021 29.6502 730.401 28.8388L730.323 32.7943C730.375 33.8085 730.192 34.7467 729.774 35.6088C729.408 35.9131 728.938 36.0398 728.363 35.9891ZM718.174 20.8138L717.312 20.3574C717.103 20.1038 717.024 19.7742 717.077 19.3685C717.233 19.0135 717.495 18.76 717.86 18.6079C719.219 18.5064 720.538 18.3163 721.819 18.0374C723.099 17.7584 724.34 17.3401 725.542 16.7823C723.295 16.4273 721.949 16.1801 721.505 16.0406C721.061 15.9011 720.865 15.4384 720.917 14.6524L721.623 12.2182L718.409 12.2943L717.547 11.8379C717.338 11.5843 717.259 11.2547 717.312 10.849C717.468 10.4941 717.73 10.2405 718.095 10.0884L722.406 9.93623C722.668 9.17557 723.007 8.45293 723.425 7.76833C723.739 7.51477 724.131 7.41335 724.601 7.46406C724.967 7.61619 725.228 7.86975 725.385 8.22473V8.94736L724.915 10.0123L731.969 10.0884C732.282 9.47983 732.622 8.85862 732.988 8.22473C733.249 8.02188 733.589 7.94582 734.007 7.99653C734.372 8.14866 734.634 8.4149 734.79 8.79523V9.5559L734.555 10.2405C735.234 10.2405 735.933 10.2405 736.652 10.2405C737.37 10.2405 738.017 10.3926 738.592 10.6969C738.801 10.9505 738.879 11.2801 738.827 11.6858C738.67 12.0407 738.409 12.2943 738.043 12.4464L733.458 12.3704C732.413 14.0438 731.681 15.1595 731.263 15.7173C732.152 15.8694 733.066 16.0216 734.007 16.1737C734.947 16.3259 735.835 16.5794 736.671 16.9344C736.88 17.1879 736.959 17.5176 736.907 17.9233C736.75 18.2782 736.489 18.5318 736.123 18.6839H735.182C734.189 18.4304 733.184 18.2275 732.165 18.0754C731.146 17.9233 730.14 17.7711 729.147 17.619C727.475 18.6332 725.724 19.3812 723.896 19.863C722.067 20.3447 720.159 20.6617 718.174 20.8138ZM728.598 15.1848C729.539 14.272 730.244 13.2832 730.715 12.2182H724.131L723.504 14.1199L728.598 15.1848ZM713.354 12.3704L712.57 11.99C712.099 10.9758 711.877 9.86651 711.904 8.66211C711.93 7.45772 711.89 6.47519 711.786 5.71452C711.681 4.95385 711.825 4.39603 712.217 4.04105C712.609 3.68607 713.158 3.50858 713.863 3.50858C714.568 3.50858 718.644 3.61001 726.09 3.81285L725.855 1.22658L726.247 0.46591C726.665 0.110931 727.161 -0.0412029 727.736 0.00950836L728.52 0.389843C728.99 1.45478 729.199 2.62114 729.147 3.88892C738.056 3.93963 742.792 4.06641 743.353 4.26925C743.915 4.4721 744.111 5.11867 743.941 6.20896C743.771 7.29925 743.686 8.25642 743.686 9.08048C743.686 9.90454 743.504 10.6715 743.138 11.3815C742.72 11.6858 742.249 11.8633 741.727 11.914C741.309 11.8633 740.943 11.7111 740.63 11.4576C740.316 11.1026 740.185 10.6462 740.238 10.0884C740.551 9.12485 740.734 8.09795 740.786 7.00766L714.843 6.47519L715.156 11.2294L714.764 11.99C714.399 12.2943 713.928 12.4211 713.354 12.3704Z" fill="#212529"/>
<path d="M674.754 34.8485C673.657 34.4935 672.716 33.8089 671.932 32.7947C671.253 32.2369 670.913 31.5523 670.913 30.7409L671.305 29.9802C671.671 29.676 672.141 29.5492 672.716 29.5999L673.265 29.752L673.5 22.1073C672.716 22.3609 671.971 22.5637 671.266 22.7158C670.561 22.868 669.868 23.0201 669.189 23.1722C668.771 23.1215 668.405 22.9694 668.092 22.7158C667.778 22.3609 667.647 21.9045 667.7 21.3466L668.092 20.586C668.98 20.231 669.894 19.9521 670.835 19.7492C671.775 19.5464 672.69 19.2928 673.578 18.9886L673.657 9.5943L669.267 9.67037C668.849 9.61966 668.483 9.45485 668.17 9.17594C667.856 8.82096 667.726 8.36456 667.778 7.80673L668.17 7.04606C668.64 6.7418 669.163 6.58966 669.738 6.58966H673.657V2.86239C673.709 2.4567 673.866 2.10172 674.127 1.79745C674.545 1.49318 675.054 1.36641 675.655 1.41712L676.439 1.79745C676.753 2.15243 676.857 2.63419 676.753 3.24272V6.58966L680.044 6.43753L680.828 6.81786C681.142 7.17284 681.272 7.62924 681.22 8.18707L680.828 8.94774C680.253 9.27736 679.6 9.45485 678.869 9.4802C678.137 9.50556 677.432 9.54359 676.753 9.5943V17.7715C677.589 17.5179 678.346 17.3912 679.026 17.3912L679.809 17.7715C680.123 18.1265 680.253 18.5829 680.201 19.1407L679.809 19.9014C678.817 20.3578 677.771 20.7381 676.674 21.0424L676.517 33.6314C676.361 34.7471 675.773 35.1528 674.754 34.8485ZM681.769 34.9246L680.985 34.5442C680.671 34.1893 680.541 33.7329 680.593 33.175C681.743 31.7044 682.67 30.126 683.376 28.4399C684.081 26.7537 684.59 25.0232 684.904 23.2483C685.27 22.944 685.74 22.8173 686.315 22.868L687.099 23.2483C687.517 23.8568 687.647 24.5668 687.491 25.3782L687.02 27.6221C687.752 27.9771 688.496 28.2941 689.254 28.573C690.012 28.8519 690.782 29.1181 691.566 29.3717L691.645 19.8253L683.101 19.7492L682.317 19.3689C682.004 19.0139 681.873 18.5575 681.926 17.9997L682.317 17.239C682.631 16.9855 682.997 16.8333 683.415 16.7826H701.795L702.579 17.163C702.892 17.5179 703.023 17.9743 702.97 18.5322L702.579 19.2928C701.481 19.6478 700.319 19.838 699.091 19.8633C697.863 19.8887 696.4 19.876 694.701 19.8253L694.623 23.4765L700.384 23.5526L701.168 23.9329C701.481 24.3386 701.612 24.8204 701.56 25.3782L701.168 26.1388C700.541 26.5445 699.835 26.6967 699.052 26.5952L694.623 26.4431V29.9802C696.112 30.3859 697.628 30.6775 699.169 30.855C700.711 31.0325 702.213 31.2734 703.676 31.5776C703.989 31.9326 704.12 32.389 704.068 32.9468L703.676 33.7075C703.049 34.1132 702.291 34.2653 701.403 34.1639C698.738 33.8089 696.093 33.3779 693.467 32.8708C690.841 32.3637 688.3 31.5523 685.845 30.4366C685.374 31.5016 684.799 32.4904 684.12 33.4032L683.258 34.4682C682.84 34.8231 682.344 34.9753 681.769 34.9246ZM687.02 15.2613C686.236 15.312 685.681 15.0077 685.355 14.3485C685.028 13.6892 684.669 10.0761 684.277 3.50896C684.277 2.67222 684.486 2.1968 684.904 2.0827C685.322 1.9686 687.798 1.92423 692.33 1.94958C696.863 1.97494 699.417 2.04467 699.992 2.15877C700.567 2.27287 700.828 2.69758 700.776 3.43289C700.619 10.355 700.528 14.0569 700.502 14.5387C700.475 15.0204 700.064 15.312 699.267 15.4134C698.47 15.5148 694.388 15.4641 687.02 15.2613ZM697.406 12.5989L697.641 10.1648L687.882 10.0887L688.039 12.2947L697.406 12.5989ZM697.719 7.16016V5.03029L687.334 4.87816L687.569 7.16016H697.719Z" fill="#212529"/>
<path d="M657.747 35.4557C657.094 35.3289 656.5 35.0753 655.964 34.695C655.429 34.3147 654.913 33.8836 654.416 33.4019C654.077 32.9962 653.92 32.5271 653.946 31.9946L654.338 31.234C654.704 30.9297 655.174 30.8029 655.749 30.8536L656.415 31.0818L656.728 16.3249L649.086 16.4009C648.25 16.1981 647.806 15.4754 647.754 14.233C647.493 8.17302 647.375 4.66127 647.401 3.69776C647.427 2.73424 647.656 2.17008 648.087 2.00527C648.518 1.84046 650.393 1.77073 653.711 1.79609C657.029 1.82144 658.923 1.85948 659.393 1.91019C659.864 1.9609 660.059 2.58211 659.981 3.77383C659.746 22.9427 659.602 33.1103 659.55 34.2766C659.315 35.3162 658.714 35.7092 657.747 35.4557ZM629.766 34.8852L628.982 34.5048C628.538 33.6681 628.316 32.7046 628.316 31.6143C628.107 13.3329 628.048 3.89426 628.139 3.29841C628.231 2.70255 628.479 2.30954 628.884 2.11937C629.289 1.9292 632.796 1.83412 639.406 1.83412C640.295 1.83412 640.674 2.58211 640.543 4.07809C640.491 9.22528 640.438 12.2046 640.386 13.0159C640.334 13.8273 640.321 14.5309 640.347 15.1268C640.373 15.7227 640.027 16.0206 639.308 16.0206C638.59 16.0206 635.919 16.0713 631.294 16.1727L631.49 33.7442L631.137 34.5048C630.772 34.8091 630.314 34.9359 629.766 34.8852ZM639.877 32.7933C638.962 32.6412 638.505 32.1468 638.505 31.31L638.231 20.0902C638.205 19.4056 638.42 18.9618 638.877 18.759C639.335 18.5562 642.685 18.5054 648.93 18.6069C650.001 18.7083 650.445 19.3549 650.262 20.5466L650.34 31.6143C650.419 32.6285 649.713 33.0469 648.224 32.8694L639.877 32.7933ZM647.244 29.9789V26.6319L641.444 26.708V29.9789H647.244ZM647.323 23.7414V21.4974L641.288 21.4213L641.366 23.8174L647.323 23.7414ZM656.846 13.3582V10.3156H650.732V13.4343L656.846 13.3582ZM637.408 13.054L637.486 10.5438L631.294 10.4677V13.2822L637.408 13.054ZM637.565 7.6152L637.486 4.72466H631.137L631.216 7.53914L637.565 7.6152ZM656.846 7.387L656.768 4.72466L650.34 4.64859L650.576 7.31093L656.846 7.387Z" fill="#212529"/>
<path d="M590.264 34.3153C589.324 34.3153 588.488 34.1124 587.756 33.7067C587.442 33.3518 587.312 32.8954 587.364 32.3375L587.756 31.5769C588.279 31.2219 588.879 31.0951 589.559 31.1965L599.866 31.1205L599.787 22.9433H595.006L594.222 22.5629C593.857 22.1573 593.7 21.6755 593.752 21.1177L594.144 20.357L594.928 19.9767C600.623 20.0781 604.098 20.1542 605.352 20.2049C606.606 20.2556 607.782 20.4584 608.879 20.8134C609.193 21.2191 609.323 21.7009 609.271 22.2587L608.879 23.0193C608.514 23.3236 608.043 23.4504 607.468 23.3997C606.737 23.2983 605.979 23.2222 605.195 23.1715C604.412 23.1208 603.628 23.0701 602.844 23.0193L602.922 31.0444L615.11 30.8162L615.973 31.2726C616.286 31.6276 616.417 32.084 616.365 32.6418L615.973 33.4025C615.032 33.8589 613.961 34.0364 612.759 33.9349L590.264 34.3153ZM616.208 20.7373C614.901 20.5345 613.576 20.3443 612.23 20.1668C610.884 19.9894 609.728 19.4569 608.762 18.5694C607.795 17.682 607.168 16.6678 606.881 15.5268C606.593 14.3858 606.423 13.2067 606.371 11.9897C606.423 11.584 606.58 11.229 606.841 10.9247C607.207 10.6205 607.677 10.4937 608.252 10.5444L609.036 10.9247C609.402 11.7361 609.598 12.6235 609.624 13.5871C609.65 14.5506 610.192 15.4253 611.25 16.2114C612.308 16.9974 613.451 17.4284 614.679 17.5045C615.907 17.5806 617.07 17.7961 618.167 18.1511C618.533 18.5568 618.69 19.0385 618.638 19.5963L618.246 20.357C617.671 20.712 616.992 20.8388 616.208 20.7373ZM588.775 20.5852L587.991 20.2049C587.678 19.8499 587.547 19.3935 587.599 18.8357L587.991 18.075C589.506 17.5172 590.767 16.6044 591.773 15.3366C592.779 14.0688 593.569 12.7503 594.144 11.3811L594.771 10.088C595.189 9.78372 595.685 9.65694 596.26 9.70765L597.044 10.088C597.357 10.443 597.488 10.8994 597.436 11.4572C596.913 12.725 596.286 13.9674 595.555 15.1845C594.823 16.4015 594.052 17.3904 593.243 18.1511C592.433 18.9117 591.681 19.4822 590.989 19.8626C590.297 20.2429 589.559 20.4838 588.775 20.5852ZM586.894 14.4999L586.11 14.1195C585.587 12.9532 585.3 11.6854 585.248 10.3162C585.196 8.94698 585.117 7.59045 585.013 6.24661C585.065 5.84092 585.248 5.48594 585.561 5.18167C585.875 4.8774 586.319 4.75062 586.894 4.80134L599.787 4.72527L599.63 1.60653C599.683 1.20084 599.839 0.845859 600.101 0.541592C600.467 0.237324 600.937 0.110546 601.512 0.161257L602.295 0.541592C602.609 1.20084 602.753 1.92347 602.726 2.7095C602.7 3.49552 602.766 4.24351 602.922 4.95347L617.383 5.18167C618.141 5.3338 618.579 5.61272 618.696 6.01841C618.814 6.4241 618.794 7.077 618.638 7.97713C618.481 8.87725 618.35 9.74568 618.246 10.5824C618.141 11.4192 617.906 12.1925 617.54 12.9025C617.122 13.2574 616.6 13.3842 615.973 13.2828L615.189 12.9025C614.875 12.5475 614.745 12.0911 614.797 11.5333C615.215 10.4683 615.45 9.35267 615.502 8.18631L588.226 7.84401C588.488 10.8613 588.67 12.6743 588.775 13.2828L588.305 14.1195C587.939 14.4238 587.469 14.5506 586.894 14.4999Z" fill="#212529"/>
<path d="M561.036 35.6847L557.979 33.3267L557.9 32.4139L558.292 31.6532C558.658 31.3489 559.128 31.2222 559.703 31.2729L560.33 31.5011V29.9797L546.888 29.9037L546.104 29.5233C545.791 29.1684 545.66 28.712 545.712 28.1541L546.104 27.3935C546.888 26.9117 547.802 26.6962 548.847 26.7469L559.781 26.9751L558.919 26.1384C558.266 25.1748 558.24 24.4395 558.841 23.9324L562.29 22.2589L556.803 22.4111C555.706 22.4111 554.713 22.1829 553.825 21.7265C553.511 21.3715 553.38 20.9151 553.433 20.3573L553.825 19.5966C554.295 19.2416 554.87 19.1148 555.549 19.2163H567.071C568.351 19.622 568.743 20.2051 568.246 20.9658C566.731 22.5886 564.824 24.0085 562.525 25.2256L562.995 26.899L574.87 26.5948L575.653 26.9751C575.967 27.3554 576.097 27.8245 576.045 28.3823L575.653 29.143C574.974 29.5487 574.216 29.7262 573.38 29.6755L563.387 29.9037C563.439 30.9686 563.4 31.9068 563.269 32.7181C563.139 33.5295 562.884 34.2838 562.505 34.9811C562.126 35.6784 561.636 35.9129 561.036 35.6847ZM575.497 22.1068C575.079 22.0561 574.713 21.904 574.399 21.6504V21.4983H574.242C573.929 21.1433 573.798 20.6869 573.851 20.1291L574.321 17.8471L546.653 17.9992L547.123 20.8137L546.731 21.5743C546.313 21.8786 545.817 22.0054 545.242 21.9547L544.458 21.5743C544.04 20.8137 543.792 19.9896 543.714 19.1022C543.635 18.2147 543.55 17.3083 543.459 16.3828C543.367 15.4573 543.616 14.9502 544.204 14.8614C544.791 14.7727 546.052 14.779 547.985 14.8805L547.672 3.73666C547.62 2.69708 547.92 2.10757 548.573 1.96811C549.226 1.82865 550.069 1.68286 551.101 1.53072C552.133 1.37859 553.171 1.27717 554.216 1.22646L555 1.60679C555.314 1.96177 555.444 2.41817 555.392 2.976L555 3.73666C554.373 4.04093 552.962 4.31984 550.768 4.5734L550.846 6.70327H555C555.366 6.8554 555.627 7.10896 555.784 7.46394V8.11051C555.627 8.46549 555.366 8.71904 555 8.87118L550.925 8.94724V10.5446H554.53C554.896 10.6968 555.157 10.9503 555.314 11.3053V11.9139C555.157 12.2688 554.896 12.5224 554.53 12.6745L551.003 12.8267L551.16 15.0326L570.48 14.8805V12.5224C569.148 12.6745 567.933 12.5224 566.836 12.066C566.627 11.8124 566.548 11.4828 566.6 11.0771C566.757 10.7221 567.018 10.4686 567.384 10.3164H570.323L570.206 8.87118L567.071 9.09938L566.209 8.64298C566 8.38942 565.921 8.04712 565.973 7.61607L566.287 7.08361C566.862 6.83005 567.489 6.69059 568.168 6.66524C568.847 6.63988 569.527 6.6272 570.206 6.6272V4.49733L567.384 4.3452L566.6 3.96486C566.235 3.55917 566.078 3.05206 566.13 2.44353L566.522 1.68286C567.045 1.32788 567.672 1.2011 568.403 1.30252C570.728 1.55608 572.126 1.69554 572.597 1.72089C573.067 1.74625 573.302 2.16462 573.302 2.976L573.537 14.8044C575.314 14.703 576.522 14.779 577.162 15.0326C577.802 15.2861 577.9 16.0595 577.456 17.3526L576.672 21.6504C576.306 21.904 575.915 22.0561 575.497 22.1068ZM563.152 13.5873C562.368 13.1816 561.584 12.7252 560.8 12.2181C560.017 12.9788 559.05 13.3845 557.9 13.4352C557.535 13.2831 557.273 13.0295 557.117 12.6745V12.066C557.273 11.711 557.535 11.4575 557.9 11.3053L558.841 10.8489L558.057 10.0882C557.848 9.83469 557.77 9.50507 557.822 9.09938C557.979 8.7444 558.24 8.49084 558.606 8.33871H559.39L561.036 9.40365C561.872 8.31335 562.917 7.74285 564.171 7.69214C564.536 7.84427 564.798 8.11051 564.954 8.49084V9.09938C564.798 9.45436 564.118 10.0629 562.917 10.925C563.648 11.1785 564.249 11.6096 564.719 12.2181V12.8267C564.563 13.1816 564.301 13.4352 563.936 13.5873H563.152ZM557.273 6.8554C556.908 6.70327 556.646 6.44972 556.489 6.09474V5.41014L557.273 4.5734L558.606 3.96486L557.822 3.4324C557.561 3.12813 557.456 2.74779 557.508 2.29139C557.665 1.93641 557.926 1.68286 558.292 1.53072H559.076C559.651 1.93641 560.278 2.26604 560.957 2.51959C561.741 1.60679 562.734 1.15039 563.936 1.15039C564.301 1.30252 564.563 1.55608 564.719 1.91106V2.51959C564.563 2.87457 564.014 3.28026 563.073 3.73666L563.779 4.3452C563.988 4.64947 564.066 5.00444 564.014 5.41014C563.857 5.76511 563.596 6.01867 563.23 6.1708H562.603L560.644 5.258C559.651 6.06938 558.527 6.60185 557.273 6.8554Z" fill="#212529"/>
<path d="M531.874 33.7061C531.456 33.6554 531.064 33.4779 530.699 33.1736C529.654 32.0073 528.524 30.8472 527.309 29.6936C526.094 28.5399 525.042 27.3292 524.154 26.0614L524.076 25.1486L524.467 24.3879C524.886 24.0836 525.382 23.9569 525.957 24.0076L526.741 24.3879C527.42 25.4528 528.249 26.4417 529.229 27.3545C530.209 28.2673 531.482 29.5224 533.05 31.1198C533.364 31.4748 533.494 31.9312 533.442 32.489L533.05 33.2497C532.684 33.5032 532.292 33.6554 531.874 33.7061ZM507.89 33.554C507.472 33.5032 507.106 33.3511 506.793 33.0976C506.479 32.6919 506.349 32.2101 506.401 31.6523C507.577 30.0802 508.478 28.7301 509.105 27.6017C509.732 26.4734 510.307 25.3261 510.829 24.1597C511.247 23.8554 511.744 23.7287 512.319 23.7794L513.102 24.1597C513.416 24.5147 513.547 24.9711 513.494 25.5289C513.024 26.8981 512.397 28.1976 511.613 29.4273C510.829 30.6571 510.046 31.8805 509.262 33.0976C508.844 33.3511 508.387 33.5032 507.89 33.554ZM503.031 20.7367C502.613 20.686 502.247 20.5338 501.933 20.2803C501.62 19.8746 501.489 19.3928 501.541 18.835L501.933 18.0744L502.717 17.694H511.065L510.359 10.4677C509.523 10.417 508.681 10.3789 507.831 10.3536C506.982 10.3282 506.218 10.138 505.539 9.78306C505.225 9.40273 505.095 8.93365 505.147 8.37583L505.539 7.61516C506.009 7.26018 506.584 7.1334 507.263 7.23482L510.202 7.46303L510.124 4.19215C510.176 3.78646 510.333 3.43148 510.594 3.12721C510.96 2.82295 511.43 2.69617 512.005 2.74688L512.789 3.12721L513.181 3.88788L513.259 7.46303L522.743 7.31089V3.96395C522.795 3.55826 522.952 3.20328 523.213 2.89901C523.631 2.59475 524.128 2.46797 524.703 2.51868L525.486 2.89901C525.8 3.25399 525.931 3.71039 525.878 4.26822L525.8 7.31089H528.974C529.497 7.31089 529.967 7.46303 530.385 7.76729C530.699 8.12227 530.829 8.57867 530.777 9.1365L530.385 9.9352C529.915 10.2395 529.366 10.3916 528.739 10.3916L525.722 10.3155V17.694L533.991 17.5419L534.774 17.9222C535.088 18.3279 535.219 18.8097 535.166 19.3675L534.774 20.1282C533.991 20.5338 533.102 20.7113 532.11 20.6606L503.031 20.7367ZM522.586 17.5419L522.665 10.3155L513.416 10.4677L514.278 17.7701L522.586 17.5419Z" fill="#212529"/>
<path d="M476.858 34.6579C475.917 34.3029 475.029 33.8085 474.193 33.1746C473.357 32.5407 472.547 31.8688 471.763 31.1588C471.449 30.8038 471.319 30.3474 471.371 29.7896L471.763 29.0289C472.129 28.7247 472.599 28.5979 473.174 28.6486C473.749 28.9022 474.284 29.2825 474.781 29.7896C475.277 30.2967 475.813 30.7024 476.387 31.0067C476.649 30.246 476.897 29.4853 477.132 28.7247C477.367 27.964 477.524 26.8927 477.602 25.5108C477.681 24.129 477.615 22.3351 477.406 20.1291L461.534 20.3573L460.751 19.977C460.385 19.5713 460.228 19.0895 460.28 18.5317L460.672 17.771C461.561 17.3654 462.553 17.2132 463.651 17.3146L476.701 17.0864C476.387 16.3258 476.113 15.6158 475.878 14.9566C475.643 14.2973 475.081 13.5113 474.193 12.5985C473.618 11.7871 473.618 11.0518 474.193 10.3926C475.238 9.78402 476.204 9.01701 477.093 8.09153C477.981 7.16605 478.869 6.32298 479.758 5.56231L467.844 5.79051C467.426 5.7398 467.06 5.58767 466.747 5.33411C466.407 4.97913 466.263 4.52273 466.316 3.96491L466.747 3.20424C467.687 2.84926 468.68 2.64641 469.725 2.5957H483.677C484.983 2.8239 485.375 3.45779 484.852 4.49737C483.285 6.4244 481.952 7.8253 480.855 8.70007C479.758 9.57484 478.739 10.5447 477.798 11.6096C478.216 12.6239 478.608 13.562 478.974 14.4241C479.34 15.2862 479.705 16.1483 480.071 17.0104L492.259 16.9343L493.121 17.3907C493.435 17.7964 493.565 18.2782 493.513 18.836L493.121 19.5966C492.076 20.0023 490.927 20.1545 489.673 20.053H480.541C480.777 22.2083 480.809 24.1797 480.639 25.9672C480.47 27.7548 480.202 29.2825 479.836 30.5503C479.47 31.8181 479 32.8069 478.425 33.5169C477.85 34.2268 477.328 34.6072 476.858 34.6579Z" fill="#212529"/>
<path d="M434.103 34.2395L433.32 33.8592C433.006 33.5042 432.875 33.0478 432.928 32.49L433.32 31.7293C434.678 30.8165 435.841 29.7199 436.808 28.4394C437.774 27.159 438.493 25.9863 438.963 24.9213C439.433 23.8564 439.747 22.8929 439.904 22.0308H439.276C438.075 22.1829 437.356 21.8533 437.121 21.0419C436.886 20.2305 436.742 14.7157 436.69 4.49738C436.69 3.30567 436.99 2.70347 437.591 2.6908C438.192 2.67812 441.981 2.62107 448.956 2.51964C450.419 2.49429 451.216 2.83025 451.347 3.52753C451.478 4.22481 451.595 9.80938 451.7 20.2813C451.726 21.2955 451.308 21.8279 450.446 21.8787H447.075C447.18 23.755 447.271 25.3841 447.35 26.766C447.428 28.1478 447.794 29.2318 448.447 30.0178C449.1 30.8038 449.897 31.1715 450.837 31.1208C450.681 29.8023 450.837 28.6106 451.308 27.5456C451.674 27.2414 452.144 27.1146 452.719 27.1653L453.502 27.5456C453.816 28.3063 453.947 29.1557 453.894 30.0939C453.842 31.032 453.855 31.8624 453.933 32.5851C454.012 33.3077 453.842 33.7261 453.424 33.8402C453.006 33.9543 452.457 34.024 451.778 34.0494C451.099 34.0747 450.256 34.0177 449.25 33.8782C448.244 33.7388 447.206 33.1302 446.135 32.0526C445.064 30.975 444.476 29.4917 444.371 27.6027C444.267 25.7137 444.084 23.831 443.822 21.9547H443.039C442.777 24.186 442.007 26.2462 440.726 28.1352C439.446 30.0242 437.97 31.78 436.298 33.4028C435.723 34.0113 434.992 34.2902 434.103 34.2395ZM426.501 34.9241L425.717 34.5438C425.351 33.3774 425.168 32.135 425.168 30.8165C425.168 29.498 425.142 28.1669 425.09 26.823L420.426 32.7943C420.06 33.0985 419.59 33.2253 419.015 33.1746L418.232 32.7943C417.918 32.3886 417.787 31.9068 417.84 31.349C421.184 26.9625 423.248 23.9578 424.032 22.3351H419.878C419.46 22.2843 419.094 22.1322 418.78 21.8787C418.467 21.5237 418.336 21.0673 418.388 20.5095L418.78 19.7488L419.564 19.3685L425.011 19.4445L424.737 16.0215L418.859 16.0976C418.441 16.0469 418.075 15.8947 417.761 15.6412C417.448 15.2862 417.317 14.8298 417.369 14.272L417.761 13.5113C418.754 13.1056 419.878 12.9788 421.132 13.131L420.818 7.38792L418.623 7.46399C418.205 7.41328 417.84 7.26115 417.526 7.00759C417.213 6.65261 417.082 6.19621 417.134 5.63839L417.526 4.87772C418.519 4.52274 419.577 4.35793 420.701 4.38328C421.824 4.40864 422.934 4.39596 424.032 4.34525L423.875 1.83504C423.927 1.42935 424.084 1.07437 424.345 0.770107C424.711 0.46584 425.194 0.339062 425.795 0.389773L426.579 0.770107C426.945 1.32793 427.115 1.88575 427.088 2.44358C427.062 3.0014 427.075 3.63529 427.128 4.34525L433.084 4.19312L433.868 4.57345C434.182 4.92843 434.312 5.38483 434.26 5.94265L433.868 6.70332C432.928 7.15972 431.857 7.33721 430.655 7.23579V12.8267C431.752 12.776 432.745 12.9535 433.633 13.3592C433.947 13.7142 434.077 14.1706 434.025 14.7284L433.633 15.489C433.163 15.7933 432.614 15.9454 431.987 15.9454L427.911 15.8694L428.068 19.3685H432.614L433.398 19.7488C433.712 20.1545 433.842 20.6362 433.79 21.1941L433.398 21.9547L432.614 22.3351H428.382L433.633 26.6709C433.999 27.0766 434.13 27.5964 434.025 28.2302L433.633 28.9909C433.267 29.2952 432.797 29.422 432.222 29.3712L431.439 28.9909L428.147 26.4427L428.303 33.7831L427.911 34.5438C427.546 34.8481 427.075 34.9748 426.501 34.9241ZM448.643 19.0642L448.486 16.1736H439.668L439.904 19.1403L448.643 19.0642ZM448.329 13.131L448.251 11.4575H439.512V13.207L448.329 13.131ZM427.598 12.9028V7.31186H423.953L424.188 13.131L427.598 12.9028ZM448.251 5.48625L439.747 5.56232V8.49089H448.329L448.251 5.48625Z" fill="#212529"/>
<path d="M392.443 31.6539C391.92 31.5525 391.398 31.2228 390.875 30.665C390.353 30.1072 390.117 29.4416 390.17 28.6683C390.222 27.8949 390.522 27.2674 391.071 26.7856C391.62 26.3038 392.286 26.139 393.07 26.2912C393.854 26.4433 394.507 26.7793 395.029 27.299C395.552 27.8188 395.735 28.4591 395.578 29.2197C395.421 29.9804 395.095 30.5763 394.598 31.0073C394.102 31.4384 393.383 31.6539 392.443 31.6539ZM392.364 18.2281C391.685 18.1267 391.11 17.797 390.64 17.2392C390.17 16.6814 389.948 16.0855 389.974 15.4516C390 14.8177 390.287 14.2219 390.836 13.6641C391.385 13.1062 392.025 12.9161 392.756 13.0936C393.488 13.271 394.115 13.6134 394.637 14.1205C395.16 14.6276 395.284 15.3375 395.01 16.2503C394.735 17.1631 394.356 17.721 393.873 17.9238C393.39 18.1267 392.887 18.2281 392.364 18.2281Z" fill="#212529"/>
<path d="M367.519 34.2399L350.472 33.7835L349.688 33.4032C349.374 32.9975 349.244 32.5157 349.296 31.9579L349.688 31.1972C350.054 30.893 350.498 30.7408 351.02 30.7408L358.31 30.969L358.545 27.2037L354.861 27.4319C354.443 27.3812 354.077 27.2291 353.764 26.9755C353.45 26.5698 353.32 26.0881 353.372 25.5302L353.764 24.7696C354.495 24.4653 355.279 24.3005 356.115 24.2751C356.951 24.2498 357.787 24.2371 358.623 24.2371L358.78 20.738H353.999L353.215 20.3577C352.902 19.952 352.771 19.4702 352.823 18.9124L353.215 18.1518L353.999 17.7714H364.384C365.586 17.7207 366.683 17.8982 367.676 18.3039C367.99 18.6589 368.12 19.1153 368.068 19.6731L367.676 20.4338C367.154 20.7887 366.527 20.9409 365.795 20.8902L362.033 20.738L361.68 24.2371C362.49 24.3385 363.3 24.3766 364.11 24.3512C364.92 24.3258 365.638 24.4907 366.265 24.8456C366.579 25.2006 366.709 25.657 366.657 26.2148L366.265 26.9755C365.586 27.4066 364.776 27.5333 363.835 27.3558L361.602 27.2037L361.367 31.0451H365.795C366.892 30.9944 367.859 31.1719 368.695 31.5776C369.009 31.9832 369.139 32.465 369.087 33.0228L368.695 33.7835C368.329 34.0371 367.937 34.1892 367.519 34.2399ZM341.85 34.7724L341.027 34.392C340.714 33.9356 340.531 33.4285 340.478 32.8707V19.2167C339.851 20.3323 339.198 21.4353 338.519 22.5256C337.84 23.6159 337.239 24.7189 336.716 25.8345C336.35 26.1388 335.88 26.2656 335.305 26.2148L334.522 25.8345C334.26 25.4288 334.103 24.9978 334.051 24.5414C334.992 22.7665 335.945 20.9789 336.912 19.1787C337.879 17.3784 338.702 15.5148 339.381 13.5877L335.227 13.9681L334.443 13.5877C334.13 13.1821 333.999 12.7003 334.051 12.1425L334.443 11.3818C335.331 10.9254 336.311 10.6845 337.382 10.6592C338.454 10.6338 339.512 10.5958 340.557 10.5451V5.71482C339.616 6.22193 338.65 6.50085 337.657 6.55156L336.873 6.17122C336.559 5.76553 336.429 5.28378 336.481 4.72595L336.873 3.96528C338.44 3.20462 340.093 2.65947 341.83 2.32985C343.568 2.00022 345.325 1.70863 347.101 1.45508L347.885 1.83541C348.199 2.19039 348.329 2.64679 348.277 3.20462L347.885 3.96528C347.258 4.32026 346.566 4.53579 345.808 4.61185C345.051 4.68792 344.332 4.80202 343.653 4.95415V10.469L348.042 10.3929L348.826 10.7733C349.139 11.1282 349.27 11.5846 349.218 12.1425L348.826 12.9031C348.251 13.2581 347.611 13.4356 346.905 13.4356C346.2 13.4356 345.482 13.4356 344.75 13.4356C345.534 14.0949 346.239 14.8175 346.866 15.6035C347.493 16.3895 348.173 17.0868 348.904 17.6954C349.218 18.0503 349.348 18.5067 349.296 19.0646L348.904 19.8252C348.486 20.1295 347.99 20.2563 347.415 20.2056C346.892 20.0534 346.448 19.7492 346.083 19.2928L343.653 16.6304V33.6314L343.261 34.392C342.895 34.6963 342.425 34.8231 341.85 34.7724ZM353.92 15.6415C353.215 15.5401 352.804 15.2105 352.686 14.6527C352.568 14.0949 352.379 10.7352 352.118 4.57382C352.013 3.96528 352.157 3.55959 352.549 3.35675C352.941 3.1539 357.826 3.12855 367.206 3.28068C367.963 3.28068 368.381 3.68637 368.46 4.49775C368.355 10.862 368.257 14.285 368.166 14.7668C368.075 15.2485 367.441 15.4387 366.265 15.3373L353.92 15.6415ZM365.325 12.2946L365.403 6.24729L355.175 6.09516L355.566 12.4467L365.325 12.2946Z" fill="#212529"/>
<path d="M303.41 34.8865C302.77 34.8865 302.169 34.6013 301.607 34.0308C300.719 33.2574 300.222 32.3066 300.118 31.1783L300.529 30.4366C300.83 30.1831 301.215 30.0563 301.685 30.0563C301.816 30.0563 302.071 30.107 302.45 30.2084C303.547 25.0612 304.095 20.5036 304.095 16.5354C302.593 16.6368 301.241 16.7129 300.039 16.7636C299.151 21.9615 297.773 26.6016 295.905 30.6838C295.552 30.9754 295.141 31.1149 294.67 31.1022H294.435L293.671 30.7599C293.41 30.443 293.273 30.05 293.26 29.5809V29.3527C295.585 23.8505 297.178 17.2263 298.041 9.4802C296.943 9.4802 295.996 9.54993 295.199 9.68939C294.416 9.81617 293.638 9.94295 292.868 10.0697L291.947 9.65136C291.685 9.2837 291.548 8.87801 291.535 8.43429V8.20609L291.947 7.38837C292.887 6.97 293.873 6.7418 294.905 6.70377C295.951 6.66573 296.996 6.596 298.041 6.49458C297.806 4.56755 297.551 3.1413 297.276 2.21582C297.329 1.25231 297.864 0.77055 298.883 0.77055H299.118L299.961 1.15088C300.392 1.89887 300.653 2.72927 300.745 3.64207C300.836 4.55488 300.993 5.455 301.215 6.34245L307.113 6.26638C308.106 6.39316 308.602 6.9383 308.602 7.90182V8.13002L308.191 8.87167C307.812 9.12523 307.427 9.27736 307.035 9.32807L301.137 9.40414C300.928 11.6354 300.764 13.1061 300.647 13.816L306.231 13.4927C307.094 13.4927 307.518 13.8984 307.505 14.7098C307.505 14.9634 307.466 15.274 307.387 15.6416C307.205 18.8364 306.898 22.0122 306.466 25.169C306.035 28.3258 305.578 30.7853 305.095 32.5475C304.638 34.1069 304.076 34.8865 303.41 34.8865ZM310.15 13.7399H309.915L309.112 13.3406C308.877 12.9983 308.733 12.5989 308.681 12.1425C309.451 10.3296 310.026 8.45964 310.405 6.53261C310.797 4.60559 311.235 2.71025 311.718 0.846617C312.044 0.59306 312.436 0.459943 312.894 0.447266H313.129L313.932 0.846617C314.233 1.21427 314.376 1.63898 314.363 2.12074V2.36795C314.102 3.16666 313.958 4.03509 313.932 4.97324H323.769C325.101 4.97324 326.368 5.14439 327.57 5.48669C327.831 5.80364 327.969 6.17764 327.982 6.60868V6.83688L327.57 7.61657C326.878 7.98422 326.101 8.16805 325.238 8.16805C324.755 8.1427 320.745 8.06663 313.207 7.93985C312.776 9.86688 312.149 11.6671 311.326 13.3406C310.999 13.6068 310.608 13.7399 310.15 13.7399ZM313.658 34.3351C312.717 34.2336 312.195 33.7772 312.09 32.9658C312.038 20.5543 311.999 14.2344 311.973 14.0062C311.973 13.5371 312.253 13.2138 312.815 13.0363C314.631 12.5673 316.479 12.2059 318.361 11.9524C320.255 11.6861 322.149 11.4136 324.043 11.1347L324.846 11.477C325.082 11.7686 325.199 12.1172 325.199 12.5229V12.7701L324.846 13.4167C323.88 14.0125 322.867 14.3865 321.809 14.5387C320.751 14.6781 319.706 14.9443 318.674 15.3374C318.935 15.8318 319.184 16.5354 319.419 17.4482C319.667 18.3483 320.046 19.2294 320.555 20.0915C322.214 18.6082 323.298 17.6701 323.808 17.2771L325.003 17.201L325.767 17.5433C326.029 17.7968 326.166 18.1391 326.179 18.5702V18.7984C324.925 20.1422 323.41 21.4164 321.633 22.6208C322.299 24.1294 323.142 25.4796 324.161 26.6713C325.18 27.863 326.401 29.302 327.825 30.9881C328.086 31.2417 328.217 31.5903 328.217 32.034V32.2432L327.825 32.8898C327.446 33.118 327.028 33.2384 326.571 33.2511C325.957 33.2511 324.873 32.408 323.318 30.7219C321.959 29.2132 320.483 27.02 318.89 24.1421C317.296 21.2516 316.231 18.4941 315.696 15.8698L315.049 15.9079L315.343 30.9881C316.871 30.4176 318.138 30.0436 319.144 29.8661C319.628 29.9675 320.02 30.2528 320.32 30.7219L320.398 31.4255C320.294 31.8185 320.065 32.1418 319.713 32.3953C318.668 32.6869 317.662 33.0102 316.695 33.3652C316.029 33.6188 315.349 33.8406 314.657 34.0308C314.37 34.1829 314.037 34.2843 313.658 34.3351Z" fill="#212529"/>
<path d="M269.042 35.7979L268.258 35.4175C267.84 34.7076 267.657 33.9342 267.709 33.0975V27.1643L260.263 27.2403C259.662 27.3164 259.218 27.2023 258.931 26.898C258.643 26.5938 258.656 26.1564 258.97 25.5859C259.284 25.0154 259.8 24.4893 260.518 24.0075C261.236 23.5257 263.124 22.3721 266.181 20.5465C265.188 20.0647 264.326 19.5322 263.594 18.9491C262.863 18.3659 262.876 17.7003 263.634 16.9523C264.391 16.2043 265.169 15.4119 265.965 14.5752C266.762 13.7385 267.735 13.2694 268.885 13.168L269.669 13.5483C269.956 13.9033 270.074 14.3597 270.022 14.9175L269.669 15.6782L267.082 17.5418L269.434 18.9871C270.296 18.5307 271.119 18.0109 271.903 17.4277C272.686 16.8445 273.588 16.5276 274.607 16.4769L275.391 16.8572C275.704 17.2629 275.835 17.7447 275.782 18.3025L275.391 19.0632C273.849 19.8492 272.301 20.6986 270.747 21.6114C269.192 22.5242 267.618 23.399 266.024 24.2357L274.136 24.1596C273.588 23.6272 273.366 23.006 273.47 22.296L273.823 21.5353C274.241 21.1804 274.763 21.0536 275.391 21.155L276.174 21.5353C276.697 22.296 277.259 23.0123 277.859 23.6842C278.46 24.3561 279.388 25.2753 280.642 26.4416C280.955 26.7966 281.086 27.253 281.034 27.8108L280.642 28.5715C280.224 28.8758 279.728 29.0026 279.153 28.9518L278.055 28.3433L276.723 26.9741L270.727 27.1643L270.805 34.6569L270.413 35.4175C270.074 35.7218 269.617 35.8486 269.042 35.7979ZM278.682 34.1244C277.794 33.6934 276.906 33.1989 276.018 32.6411C275.129 32.0833 274.254 31.5508 273.392 31.0437C273.078 30.7141 272.948 30.2703 273 29.7125L273.392 28.9518C273.784 28.5969 274.293 28.4701 274.92 28.5715C275.809 29.0279 276.671 29.516 277.507 30.0358C278.343 30.5556 279.205 31.069 280.093 31.5762C280.407 31.9818 280.537 32.4636 280.485 33.0214L280.093 33.7821C279.728 34.061 279.257 34.1751 278.682 34.1244ZM259.793 34.0864C259.375 34.0357 259.009 33.8835 258.696 33.63C258.408 33.275 258.291 32.8186 258.343 32.2608L258.696 31.5001C260.054 29.7506 261.073 28.6729 261.752 28.2672L262.811 28.1912L263.594 28.5715C263.908 28.9265 264.039 29.3829 263.986 29.9407L263.594 30.6634L260.969 33.63C260.603 33.8835 260.211 34.0357 259.793 34.0864ZM254.933 17.3897C254.542 17.339 254.189 17.1868 253.875 16.9333C253.405 16.2487 253.196 15.45 253.248 14.5372V11.4565C253.17 10.6197 253.385 10.119 253.895 9.95415C254.404 9.78934 255.058 9.70693 255.854 9.70693C256.651 9.70693 260.289 9.60551 266.769 9.40267L266.612 6.20786L254.346 6.74033L253.405 6.28393C253.092 5.92895 252.961 5.48522 253.013 4.95276L253.405 4.19209C254.842 3.88782 256.344 3.69765 257.912 3.62159C259.479 3.54552 262.301 3.43142 266.377 3.27928L266.298 1.49171L266.69 0.731045C267.108 0.426777 267.605 0.299999 268.18 0.35071L268.963 0.731045C269.381 1.49171 269.538 2.31577 269.434 3.20322L280.172 3.12715C280.903 3.07644 281.543 3.22857 282.092 3.58355C282.405 3.98924 282.536 4.471 282.484 5.02882L282.092 5.75146C281.543 6.15715 280.851 6.28393 280.015 6.13179H269.669L269.826 9.3266L282.092 9.17447C282.667 9.35196 283.059 9.73229 283.268 10.3155V15.2218L282.876 15.9824C282.458 16.2614 281.961 16.3755 281.387 16.3248L280.642 15.9824L280.25 15.2218V12.1411L256.266 12.6735L256.579 16.2107L256.188 16.9333C255.822 17.1868 255.404 17.339 254.933 17.3897Z" fill="#212529"/>
<path d="M233.733 35.6852L232.949 35.3049C232.479 34.5442 232.322 33.6821 232.479 32.7186L232.792 27.1277L227.071 32.2622C226.548 32.8707 225.895 33.1497 225.111 33.0989L224.327 32.7186C224.014 32.3636 223.883 31.9072 223.935 31.3494C225.137 30.0309 227.776 27.3813 231.852 23.4004H225.817L225.033 23.0201C224.667 22.6144 224.51 22.1326 224.562 21.5748L224.954 20.8141L225.738 20.4338H232.792L232.636 18.0757C232.688 17.67 232.845 17.3151 233.106 17.0108C233.472 16.7065 233.942 16.5798 234.517 16.6305L235.3 17.0108C235.745 18.0757 235.941 19.2167 235.888 20.4338H239.415C240.774 20.3324 242.028 20.5099 243.178 20.9663C243.491 21.3213 243.622 21.7777 243.57 22.3355L243.178 23.0962C242.76 23.3497 242.315 23.5018 241.845 23.5526L237.221 23.4004C240.46 26.4684 242.629 28.4335 243.726 29.2956C244.301 29.9041 244.588 30.6141 244.588 31.4255L244.197 32.1861C243.831 32.4904 243.36 32.6172 242.786 32.5665L242.002 32.1861C241.166 31.1719 239.154 29.3336 235.967 26.6713C235.732 31.0578 235.457 33.9357 235.144 35.3049C234.778 35.6092 234.308 35.7359 233.733 35.6852ZM217.116 35.3049C216.176 34.9499 215.32 34.4048 214.55 33.6694C213.779 32.9341 213.002 32.2115 212.218 31.5015C211.852 31.0958 211.695 30.6141 211.747 30.0563L212.139 29.2956C212.505 28.9913 212.975 28.8646 213.55 28.9153C214.229 29.321 214.883 29.7774 215.51 30.2845L215.588 21.3466C214.647 21.6002 213.733 21.8157 212.845 21.9932C211.956 22.1707 211.094 22.3862 210.258 22.6397C209.84 22.589 209.474 22.4369 209.161 22.1833C208.847 21.8284 208.717 21.372 208.769 20.8141L209.161 20.0535C210.154 19.5971 211.199 19.2675 212.296 19.0646C213.393 18.8618 214.465 18.6082 215.51 18.3039V9.32805L210.337 9.48018C209.919 9.42947 209.553 9.27734 209.239 9.02378C208.926 8.6688 208.795 8.19972 208.847 7.61654L209.239 6.85588C209.657 6.5009 210.154 6.34876 210.728 6.39948L215.51 6.32341V2.13973C215.562 1.73404 215.732 1.37906 216.019 1.07479C216.385 0.770527 216.855 0.643749 217.43 0.69446L218.214 1.07479L218.606 1.83546V6.24734H222.289L223.073 6.62768C223.387 6.98265 223.517 7.43906 223.465 7.99688L223.073 8.79558C222.708 9.04914 222.316 9.20127 221.898 9.25198H218.606V17.3151L220.173 17.239L220.957 17.6193C221.271 17.9743 221.401 18.4307 221.349 18.9885L220.957 19.7492C220.225 20.1042 219.468 20.3324 218.684 20.4338L218.841 34.0878C218.475 35.0513 217.9 35.457 217.116 35.3049ZM241.845 16.9347C240.8 16.884 239.781 16.7446 238.788 16.5164C237.796 16.2882 236.927 15.7684 236.182 14.957C235.438 14.1456 235.072 13.1821 235.085 12.0665C235.098 10.9508 235.065 9.86052 234.987 8.79558C235.039 8.38989 235.196 8.02223 235.457 7.69261C235.849 7.38834 236.332 7.26157 236.907 7.31228L237.691 7.69261L238.083 8.49131C238.005 9.70838 238.018 10.7797 238.122 11.7051C238.227 12.6306 238.494 13.2138 238.926 13.4547C239.357 13.6956 240.029 13.816 240.944 13.816C241.858 13.816 242.707 13.9935 243.491 14.3485C243.805 14.7034 243.935 15.1598 243.883 15.7177L243.491 16.4783C243.021 16.7826 242.472 16.9347 241.845 16.9347ZM228.09 16.4783C227.672 16.4276 227.306 16.2755 226.992 16.0219C226.679 15.667 226.548 15.2106 226.6 14.6527L226.992 13.8921C227.985 13.3849 228.638 12.7257 228.952 11.9143C229.265 11.1029 229.448 10.355 229.5 9.67035C229.553 8.98575 229.709 8.3265 229.971 7.69261C230.336 7.38834 230.807 7.26157 231.382 7.31228L232.165 7.69261C232.636 8.3265 232.779 9.09985 232.596 10.0127C232.414 10.9255 232.165 11.8256 231.852 12.713C231.538 13.6005 230.99 14.4245 230.206 15.1852C229.422 15.9459 228.717 16.3769 228.09 16.4783ZM226.287 12.5229C225.869 12.4721 225.503 12.32 225.19 12.0665C224.824 10.7987 224.602 9.46117 224.523 8.05393C224.445 6.64669 224.327 5.25847 224.171 3.88927C224.066 2.9004 224.38 2.32356 225.111 2.15875C225.843 1.99394 231.656 1.83546 242.551 1.68333C243.256 1.86082 243.648 2.24115 243.726 2.82433V7.54048C243.779 8.63077 243.57 9.60696 243.099 10.4691C242.681 10.7733 242.185 10.9001 241.61 10.8494L240.826 10.4691C240.46 10.0634 240.304 9.58161 240.356 9.02378L240.669 4.64994L227.306 4.80207L227.854 11.3058L227.463 12.0665C227.097 12.32 226.705 12.4721 226.287 12.5229Z" fill="#212529"/>
<path d="M197.674 34.7707C197.047 34.6185 196.486 34.3016 195.989 33.8198C195.493 33.3381 195.009 32.869 194.539 32.4126C194.069 31.9562 193.553 31.4871 192.991 31.0054C192.429 30.5236 192.175 29.9277 192.227 29.2178L192.619 28.4571C192.985 28.1529 193.468 28.0261 194.069 28.0768C194.748 28.4318 195.741 29.2685 197.047 30.587C197.518 27.3161 197.909 23.9058 198.223 20.356C198.536 16.8062 198.85 13.4846 199.163 10.3912L187.602 10.3152C187.446 11.4308 187.211 12.3943 186.897 13.2057C186.584 14.0171 186.192 14.9299 185.721 15.9441C185.356 16.2484 184.885 16.3752 184.311 16.3245L183.527 15.9441C183.161 15.5384 183.03 15.0313 183.135 14.4228C183.971 12.6479 184.559 10.5751 184.898 8.20432C185.238 5.83357 185.774 3.50719 186.505 1.22519C186.871 0.920918 187.341 0.79414 187.916 0.844851L188.7 1.22519C189.066 1.63088 189.196 2.13799 189.092 2.74652C188.883 3.50719 188.7 4.26786 188.543 5.02853C188.386 5.7892 188.256 6.54987 188.151 7.31053L200.809 7.3866C201.724 7.28518 202.194 7.83032 202.22 9.02204C201.698 14.651 201.306 19.3481 201.045 23.1134C200.783 26.8787 200.352 29.8136 199.751 31.9182C199.15 34.0227 198.458 34.9735 197.674 34.7707ZM168.752 27.8486C167.864 27.95 167.381 27.7218 167.302 27.164C167.224 26.6062 167.08 20.8885 166.871 10.0109C166.897 8.79384 167.348 8.12825 168.223 8.01415C169.098 7.90005 170.32 7.9571 171.887 8.1853C172.201 7.19643 172.639 6.28363 173.2 5.4469C173.762 4.61016 174.252 3.73539 174.67 2.82259C175.036 2.51832 175.506 2.39154 176.081 2.44226L176.864 2.82259C177.23 3.22828 177.361 3.73539 177.256 4.34393C176.995 5.00317 176.669 5.64974 176.277 6.28363C175.885 6.91752 175.532 7.57677 175.219 8.26137C178.092 8.26137 179.823 8.3311 180.411 8.47055C180.999 8.61001 181.254 9.32631 181.175 10.6194C180.966 20.9645 180.757 26.4477 180.548 27.0689C180.339 27.6901 179.49 27.95 178.001 27.8486H168.752ZM177.727 24.7679L177.805 18.4543L170.163 18.5304L170.398 24.8439L177.727 24.7679ZM192.07 23.0183L191.286 22.638L188.23 19.2911C187.916 18.9361 187.785 18.4797 187.838 17.9219L188.23 17.1612C188.648 16.8062 189.17 16.6794 189.797 16.7809L190.581 17.1612L193.324 20.4321C193.768 20.8378 193.964 21.3195 193.912 21.8773L193.481 22.638C193.115 22.9423 192.645 23.0691 192.07 23.0183ZM177.805 15.4877L177.962 11.304L169.928 11.0758L170.006 15.5638L177.805 15.4877Z" fill="#212529"/>
<path d="M128.116 34.543L127.332 34.1627C127.019 33.757 126.888 33.2752 126.94 32.7174C127.933 31.2468 129.213 29.1042 130.781 26.2898L127.176 23.4373C126.653 22.9555 126.47 22.4357 126.627 21.8779C126.888 20.0016 127.162 18.1126 127.45 16.2109C127.737 14.3092 128.09 12.4456 128.508 10.62C127.358 10.7721 126.313 10.6454 125.373 10.2397C125.059 9.83397 124.929 9.35222 124.981 8.79439L125.373 7.99569C126.522 7.59 127.776 7.46322 129.135 7.61536C129.292 6.60113 129.462 5.61226 129.645 4.64875C129.827 3.68523 130.128 2.74708 130.546 1.83427C130.964 1.4793 131.499 1.32716 132.153 1.37787L132.936 1.75821C133.25 2.1639 133.381 2.64565 133.328 3.20348C133.015 3.86272 132.793 4.57268 132.662 5.33335C132.531 6.09402 132.388 6.85469 132.231 7.61536L135.915 7.76749C135.967 7.00682 136.006 6.24615 136.032 5.48548C136.059 4.72482 136.228 4.04021 136.542 3.43168C136.908 3.12741 137.378 3.00063 137.953 3.05134L138.737 3.43168C139.155 4.04021 139.285 4.77553 139.128 5.63762L138.972 7.76749C140.173 7.66607 141.271 7.85623 142.264 8.33799C142.577 8.74368 142.708 9.22544 142.656 9.78326L142.264 10.5439C141.846 10.8989 141.323 11.0257 140.696 10.9243L138.58 10.7721C138.11 13.257 137.548 15.7165 136.895 18.1506C136.241 20.5848 135.523 23.0189 134.739 25.453C135.418 25.8587 136.085 26.3341 136.738 26.8793C137.391 27.4244 138.031 27.9759 138.658 28.5337C139.442 29.1423 139.834 29.8776 139.834 30.7397L139.442 31.5004C139.076 31.8046 138.606 31.9314 138.031 31.8807C137.509 31.7286 137.064 31.4243 136.699 30.9679C136.228 30.4608 135.732 29.979 135.209 29.5226C134.687 29.0662 134.164 28.6352 133.642 28.2295C131.944 30.8158 130.572 32.7935 129.527 34.1627C129.161 34.467 128.691 34.5937 128.116 34.543ZM156.49 34.543L144.301 34.467C143.518 34.4923 143.015 34.2388 142.793 33.7063C142.571 33.1738 142.29 29.1296 141.95 21.5736C141.924 20.6355 142.14 20.0523 142.597 19.8241C143.054 19.5959 145.706 19.4754 150.552 19.4628C155.399 19.4501 158.038 19.5262 158.469 19.691C158.9 19.8558 159.102 20.5594 159.076 21.8018C158.815 28.9775 158.612 32.9139 158.469 33.6112C158.325 34.3085 157.665 34.6191 156.49 34.543ZM155.549 31.5004L155.862 22.4864H145.007L145.477 31.5004H155.549ZM132.153 23.3992C132.884 21.1679 133.511 19.0127 134.034 16.9335C134.556 14.8544 135.053 12.8006 135.523 10.7721L131.8 10.62C131.277 12.3949 130.859 14.1951 130.546 16.0207C130.232 17.8463 129.971 19.672 129.762 21.4976L132.153 23.3992ZM159.703 18.8352L158.919 18.4549C158.501 17.7449 158.135 17.035 157.822 16.325C148.913 16.9843 143.544 17.4914 141.715 17.8463C141.297 17.7956 140.931 17.6055 140.618 17.2758C140.304 16.9462 140.173 16.5025 140.226 15.9447C141.375 13.5612 142.525 11.1842 143.674 8.81341C144.824 6.44266 145.921 4.06557 146.966 1.68214C147.437 1.27645 147.985 1.12432 148.612 1.22574L149.396 1.60607C149.71 1.96105 149.84 2.41745 149.788 2.97528C148.743 5.30799 147.802 7.35546 146.966 9.11768C146.13 10.8799 145.294 12.6231 144.458 14.3473L155.784 13.3584C155.418 12.6992 155.013 12.0906 154.569 11.5328C154.125 10.975 153.903 10.3411 153.903 9.63113L154.295 8.87046C154.661 8.56619 155.131 8.43941 155.706 8.49012L156.49 8.87046C157.43 10.2904 158.423 11.6976 159.468 13.0922C160.513 14.4867 161.192 16.0207 161.506 17.6942L161.114 18.4549C160.748 18.7592 160.278 18.8859 159.703 18.8352Z" fill="#212529"/>
<path d="M86.1475 34.7726L85.3637 34.3922C84.8934 33.7837 84.6844 33.0484 84.7367 32.1863L84.0312 3.28089C84.1358 2.54558 84.4885 2.10819 85.0894 1.96874C85.6903 1.82928 87.7608 1.7342 91.301 1.68348C94.8411 1.63277 96.9051 1.65813 97.4929 1.75955C98.0808 1.86097 98.2833 2.74842 98.1004 4.42189C97.9436 8.40272 97.8522 10.9003 97.8261 11.9145C97.7999 12.9287 97.7607 13.7464 97.7085 14.3676C97.6562 14.9888 96.8986 15.2614 95.4355 15.1854L87.5583 15.4136L87.9502 33.6316L87.5583 34.3922C87.1926 34.6965 86.7223 34.8233 86.1475 34.7726ZM115.697 34.6965C114.861 34.5444 114.09 34.2274 113.384 33.7457C112.679 33.2639 112.013 32.7188 111.386 32.1102C110.759 31.6031 110.471 30.9692 110.524 30.2086L110.915 29.4479C111.281 29.1436 111.751 29.0168 112.326 29.0676C112.744 29.169 113.11 29.4225 113.424 29.8282L114.756 30.8932C114.913 28.9408 114.939 23.9077 114.834 15.7939L106.33 15.7178C105.703 15.6418 105.272 15.4072 105.037 15.0142C104.802 14.6212 104.606 10.5326 104.449 2.74842C104.658 1.91169 105.39 1.506 106.644 1.53135C112.783 1.45528 116.108 1.44261 116.618 1.49332C117.127 1.54403 117.441 1.96874 117.558 2.76744C117.676 3.56614 117.748 4.3585 117.774 5.14453C117.8 5.93055 117.826 10.4439 117.852 18.6844C117.878 26.925 117.852 31.4129 117.774 32.1483C117.695 32.8836 117.506 33.5175 117.205 34.0499C116.905 34.5824 116.402 34.7979 115.697 34.6965ZM104.057 33.4794L103.273 33.0991C102.803 32.3891 102.646 31.5524 102.803 30.5889L102.725 25.8347H99.668C99.5112 27.0264 99.1324 28.104 98.5315 29.0676C97.9306 30.0311 97.2774 30.8678 96.572 31.5778C95.8666 32.2877 95.122 32.6173 94.3382 32.5666L93.5544 32.1863C93.2408 31.8313 93.1102 31.3749 93.1625 30.8171L93.5544 30.0564C94.5994 29.245 95.3048 28.5224 95.6706 27.8885C96.0364 27.2546 96.2977 26.57 96.4544 25.8347C95.5139 25.8347 94.5733 25.822 93.6327 25.7967C92.6922 25.7713 91.83 25.5812 91.0462 25.2262C90.7327 24.8712 90.6021 24.4148 90.6543 23.857L91.0462 23.0963C91.5688 22.7413 92.2219 22.6145 93.0057 22.716L96.7679 22.8681V20.2818C95.5139 20.434 94.3904 20.2818 93.3976 19.8254C93.0841 19.4705 92.9535 19.0141 93.0057 18.4562L93.3976 17.6956L94.1814 17.3152L105.546 17.3913C106.539 17.3406 107.428 17.5181 108.211 17.9238C108.525 18.2787 108.655 18.7351 108.603 19.293L108.211 20.0536C107.741 20.3579 106.957 20.4847 105.86 20.434L105.782 22.8681C106.618 22.9188 107.48 22.9442 108.368 22.9442C109.256 22.9442 110.079 23.1217 110.837 23.4766C111.151 23.8316 111.281 24.288 111.229 24.8458L110.837 25.6065C110.419 25.8601 109.962 26.0122 109.465 26.0629L105.782 25.8347L105.938 30.665C106.043 31.5778 105.886 32.3891 105.468 33.0991C105.102 33.4034 104.632 33.5301 104.057 33.4794ZM102.725 22.8681V20.3579H99.8247V22.8681H102.725ZM114.913 12.8273V9.86067H107.976V12.5991L114.913 12.8273ZM94.7301 12.2187L94.8084 10.0128L87.4016 10.1649L87.48 12.3709L94.7301 12.2187ZM94.8868 7.0462V4.72616L87.2448 4.80223V7.19833L94.8868 7.0462ZM114.834 6.85603L114.599 4.57403L107.741 4.49796L107.898 6.85603H114.834Z" fill="#212529"/>
<path d="M62.3189 35.3041C61.3261 35.0506 59.7585 33.8082 57.6161 31.5769L57.5377 30.6641L57.9296 29.9034C58.2954 29.5991 58.7657 29.4724 59.3404 29.5231C60.1765 30.0302 61.0387 30.7148 61.927 31.5769C62.0315 30.9683 62.0837 30.3344 62.0837 29.6752C62.0837 29.016 62.0054 27.7101 61.8486 25.7578C59.8107 27.4059 57.7467 28.7117 55.6566 29.6752C53.5665 30.6387 51.3588 31.3487 49.0335 31.8051C48.6155 31.7544 48.2497 31.6022 47.9362 31.3487C47.6227 30.9937 47.4921 30.5373 47.5443 29.9795L47.9362 29.2188C50.157 28.6103 52.3516 27.8179 54.5201 26.8417C56.6886 25.8655 58.6873 24.49 60.5161 22.7151L60.0459 21.8023C58.1125 23.2222 56.2706 24.2871 54.5201 24.9971C52.7696 25.707 50.993 26.3156 49.1903 26.8227L48.4065 26.4424C48.093 26.0874 47.9623 25.631 48.0146 25.0732L48.4065 24.3125C50.1047 23.5011 51.8421 22.7531 53.6187 22.0685C55.3953 21.3839 57.0152 20.357 58.4783 18.9878L56.8323 17.6947C55.6305 18.5568 54.4156 19.3681 53.1876 20.1288C51.9597 20.8895 50.6534 21.4727 49.2687 21.8783L48.4849 21.498C48.1714 21.143 48.0407 20.6866 48.093 20.1288L48.4849 19.3681C50.0786 18.4553 51.6331 17.5299 53.1485 16.5917C54.6638 15.6535 56.0746 14.5506 57.381 13.2828L52.2863 13.2067C51.189 13.2574 50.2223 13.0546 49.3862 12.5982C49.0466 12.2432 48.9029 11.7868 48.9551 11.229L49.3862 10.4683C49.9088 10.1133 50.5097 9.98656 51.189 10.088L69.4906 10.3162L70.2744 10.6965C70.5879 11.0515 70.7185 11.5079 70.6663 12.0657L70.2744 12.8264C69.9086 13.0799 69.5037 13.2321 69.0595 13.2828H61.7702C60.7774 14.2463 59.9936 15.083 59.4188 15.793C60.4116 16.5537 61.5351 18.1257 62.7891 20.5091L66.9433 17.3904C67.6748 16.6297 68.5762 16.2748 69.6474 16.3255L70.4312 16.7058C70.7447 17.0608 70.8753 17.5172 70.8231 18.075L70.4312 18.8357L65.8459 22.4108C66.8388 23.5265 67.9295 24.5787 69.1183 25.5676C70.3071 26.5565 72.3645 27.951 75.2907 29.7513C75.6042 30.1062 75.7348 30.5626 75.6826 31.1205L75.2907 31.8811C74.8727 32.1854 74.3763 32.3122 73.8015 32.2615C72.2339 31.5008 70.712 30.5753 69.2359 29.485C67.7597 28.3947 66.3424 27.2284 64.9838 25.986C65.1405 28.1158 65.1928 29.6435 65.1405 30.569C65.0883 31.4945 64.9576 32.2742 64.7486 32.908C64.5396 33.5419 64.2849 34.1631 63.9844 34.7717C63.684 35.3802 63.1288 35.5577 62.3189 35.3041ZM44.801 14.1956L44.0172 13.8153C43.547 12.5475 43.2596 11.1846 43.1551 9.72666C43.0506 8.26872 42.9722 6.82979 42.9199 5.40987C43.1289 4.57314 43.756 4.14209 44.801 4.11673L57.1458 4.421C57.1458 3.76176 57.1328 3.08983 57.1066 2.40523C57.0805 1.72063 57.2503 1.09942 57.6161 0.541592C57.9819 0.237324 58.4521 0.110546 59.0269 0.161257L59.8107 0.541592L60.2026 1.30226V4.57314H74.5853C75.2646 4.77598 75.6826 5.11828 75.8393 5.60004C75.9961 6.08179 75.9961 6.81077 75.8393 7.78696C75.6826 8.76315 75.552 9.6189 75.4474 10.3542C75.3429 11.0895 75.0817 11.7615 74.6637 12.37C74.2979 12.6743 73.8276 12.801 73.2528 12.7503L72.469 12.37C72.1555 11.9643 72.0249 11.4825 72.0771 10.9247C72.4429 9.91049 72.6519 8.80752 72.7042 7.61581L46.0551 7.15941L46.6038 13.0546L46.2119 13.8153C45.8461 14.1195 45.3758 14.2463 44.801 14.1956Z" fill="#212529"/>
<path d="M7.53564 35.151L6.75184 34.7707C6.43832 34.4157 6.25544 34.0354 6.20318 33.6297L6.04642 17.1612C5.31488 17.9726 4.70091 18.8347 4.2045 19.7475C3.7081 20.6603 3.01575 21.4716 2.12745 22.1816L1.18689 22.2577L0.403095 21.8773C0.0895766 21.5224 -0.041056 21.066 0.0111971 20.5081C1.68329 17.7697 5.32794 12.407 10.9451 4.41999C11.3632 4.11573 11.8596 3.98895 12.4344 4.03966L13.2182 4.41999C13.5317 4.77497 13.6623 5.23137 13.6101 5.7892C12.9308 7.10769 12.1862 8.41984 11.3762 9.72566C10.5663 11.0315 9.79558 12.3436 9.06404 13.6621L9.37756 34.01L8.98566 34.7707C8.61989 35.0749 8.13655 35.2017 7.53564 35.151ZM32.5387 34.3903C29.2207 33.7311 26.3337 32.9197 23.8778 31.9562C21.4219 30.9927 18.9399 30.0799 16.4317 29.2178L14.0803 33.0211C13.6623 33.4268 13.1398 33.6043 12.5127 33.5536L11.7289 33.1733C11.4154 32.8183 11.2848 32.3619 11.337 31.8041C12.4866 30.232 13.388 28.5395 14.0411 26.7266C14.6943 24.9137 15.2038 23.0691 15.5695 21.1927C15.9876 20.8885 16.484 20.7617 17.0588 20.8124L17.8425 21.1927C18.2083 21.5984 18.3651 22.0802 18.3128 22.638C17.9471 23.8044 17.6858 25.0214 17.529 26.2892C19.3579 27.1006 20.5858 27.595 21.2129 27.7725V16.6287C21.2651 16.223 21.4219 15.8681 21.6831 15.5638C22.1012 15.2088 22.5976 15.0567 23.1724 15.1074L23.9562 15.4877C24.2697 15.8934 24.4003 16.3752 24.3481 16.933L24.2697 20.5842L30.8144 20.4321L31.5982 20.8124C31.9117 21.1674 32.0423 21.6238 31.9901 22.1816L31.5982 22.9423C31.0234 23.2973 30.3572 23.4621 29.5995 23.4367C28.8418 23.4114 27.0652 23.4494 24.2697 23.5508L24.1913 28.8375C25.5499 29.5474 27.1762 30.1179 29.0704 30.549C30.9646 30.98 32.6694 31.3984 34.1847 31.8041C34.4982 32.159 34.6288 32.6154 34.5766 33.1733L34.1847 33.9339C33.7144 34.2382 33.1658 34.3903 32.5387 34.3903ZM14.7857 15.1074L14.002 14.7271C13.7407 14.3214 13.5839 13.8903 13.5317 13.4339C14.42 11.4562 15.2691 9.43407 16.079 7.36758C16.8889 5.3011 17.8425 3.30435 18.9399 1.37732C19.3056 1.07305 19.7759 0.946274 20.3507 0.996985L21.1345 1.37732C21.5003 1.78301 21.6309 2.29012 21.5264 2.89866C21.1084 3.65932 20.7034 4.43267 20.3115 5.2187C19.9196 6.00472 19.6192 6.82878 19.4101 7.69087L22.1534 10.2391C22.6237 10.6955 22.8327 11.2533 22.7805 11.9126L22.3886 12.6732C22.0228 12.9775 21.5525 13.1043 20.9777 13.0536L20.1156 12.5972L17.9993 10.7716C17.6335 11.3801 17.307 12.0267 17.0196 12.7113C16.7322 13.3959 16.4578 14.0678 16.1966 14.7271C15.8308 15.0313 15.3605 15.1581 14.7857 15.1074ZM24.5832 14.4989L23.7994 14.1185C23.4859 13.7128 23.3552 13.2311 23.4075 12.6732C24.6093 10.9998 25.6609 9.23122 26.5623 7.36758C27.4636 5.50395 28.4369 3.65932 29.4819 1.83372C29.8999 1.52945 30.3963 1.40267 30.9711 1.45339L31.7549 1.83372C32.0684 2.23941 32.1991 2.72117 32.1468 3.27899L30.109 7.23447L34.7334 10.3152C35.0469 10.6702 35.1775 11.1266 35.1252 11.6844L34.7334 12.445C34.2631 12.8 33.7144 12.9268 33.0874 12.8254C32.2513 12.5718 31.5067 12.1408 30.8536 11.5322C30.2004 10.9237 29.4819 10.4166 28.6981 10.0109L25.994 14.1185C25.6283 14.4228 25.158 14.5496 24.5832 14.4989ZM1.65717 12.445L0.873372 12.0647C0.559854 11.659 0.429221 11.1773 0.481474 10.6194C1.52654 9.14882 2.48015 7.59579 3.34233 5.96035C4.2045 4.32491 5.15812 2.74652 6.20318 1.22519C6.62121 0.920918 7.13067 0.79414 7.73159 0.844851L8.51538 1.22519C8.8289 1.63088 8.95953 2.11263 8.90728 2.67046C7.73159 4.49606 6.75184 6.12516 5.96804 7.55775C5.18425 8.99034 4.21757 10.4927 3.068 12.0647C2.70223 12.369 2.23195 12.4958 1.65717 12.445Z" fill="#212529"/>
</svg>
