<svg width="160" height="36" viewBox="0 0 160 36" fill="none" xmlns="http://www.w3.org/2000/svg">
<rect width="160" height="20" transform="translate(0 16)" fill="#FEE6B2"/>
<path d="M134.047 34.9399L133.267 34.5616C132.668 32.9473 132.382 31.2131 132.408 29.3592C132.434 27.5052 132.265 22.2902 131.901 13.7142C130.809 14.7231 129.938 15.7951 129.288 16.9302C128.637 18.0653 127.844 19.112 126.908 20.0705L125.894 20.1462L125.113 19.7679C124.801 19.4147 124.671 18.9607 124.723 18.4058C126.804 15.3285 128.813 12.5476 130.75 10.063C132.688 7.5785 134.411 4.94893 135.919 2.17432C136.283 1.87164 136.752 1.74552 137.324 1.79597L138.104 2.17432C138.416 2.5779 138.546 3.05715 138.494 3.61207L134.827 9.77927L135.841 33.8049L135.451 34.5616C135.087 34.8643 134.619 34.9904 134.047 34.9399ZM140.835 31.9131L140.367 31.5347C140.054 31.1311 139.924 30.6519 139.976 30.097L140.367 29.3403L141.147 28.9619L147.935 28.8862L147.623 19.3138L139.274 19.3895L138.494 19.0111C138.182 18.658 138.052 18.204 138.104 17.6491L138.494 16.8924C139.014 16.5392 139.638 16.3627 140.367 16.3627H147.544V9.40092C146.452 9.65315 145.438 9.93061 144.502 10.2333C143.565 10.536 142.603 10.7882 141.615 10.99L140.835 10.6117C140.523 10.2081 140.393 9.72882 140.445 9.1739L140.835 8.41719C143.175 7.53436 145.529 6.75243 147.896 6.07139C150.262 5.39035 152.681 4.82281 155.152 4.36878L155.932 4.74714C156.244 5.10027 156.374 5.5543 156.322 6.10922L155.932 6.86593C155.1 7.26951 154.222 7.56589 153.299 7.75507C152.375 7.94425 151.472 8.16495 150.587 8.41719V16.3627L157.96 16.287C158.584 16.2365 159.131 16.3879 159.599 16.741C159.911 17.0941 160.041 17.5482 159.989 18.1031L159.599 18.8598C159.079 19.2129 158.48 19.3643 157.804 19.3138H150.665L151.055 28.9619L157.18 29.0376L157.96 29.4159C158.272 29.7691 158.402 30.2231 158.35 30.778L157.96 31.5347C157.596 31.787 157.206 31.9383 156.79 31.9887L141.537 31.9131H140.835Z" fill="#212529"/>
<path d="M90.2785 35.9996C89.8624 35.9491 89.4983 35.7978 89.1862 35.5455C88.8742 35.1924 88.7441 34.7384 88.7961 34.1835L89.1862 33.4268C90.1745 32.9727 91.1173 32.3674 92.0145 31.6106C92.9118 30.8539 93.9585 30.4251 95.1549 30.3242L95.9351 30.7026C96.2472 31.0557 96.3772 31.5098 96.3252 32.0647L95.9351 32.8214C94.9468 33.2754 94.0236 33.8429 93.1653 34.524C92.3071 35.205 91.3448 35.6969 90.2785 35.9996ZM113.451 35.0158C112.307 34.7132 111.143 34.3853 109.959 34.0321C108.776 33.679 107.612 33.3511 106.468 33.0484C106.156 32.6448 106.026 32.1656 106.078 31.6106L106.468 30.8539C106.936 30.5008 107.508 30.3747 108.184 30.4756C109.277 30.7783 110.362 31.0809 111.442 31.3836C112.521 31.6863 113.581 32.0394 114.621 32.443C114.933 32.7962 115.063 33.2502 115.011 33.8051L114.621 34.5618C114.257 34.8141 113.867 34.9654 113.451 35.0158ZM93.4384 29.7189C92.5021 29.6936 91.9625 29.391 91.8195 28.8108C91.6764 28.2307 91.4489 24.6363 91.1368 18.0277C91.2928 17.498 91.6959 17.1196 92.3461 16.8926L110.057 16.6656C111.045 16.716 111.552 17.1701 111.578 18.0277L111.656 27.4866C111.734 28.8991 111.546 29.6054 111.091 29.6054C110.636 29.6054 104.751 29.6432 93.4384 29.7189ZM108.496 27.4109L108.574 25.8218H94.6867V27.4866L108.496 27.4109ZM108.496 23.6273V22.2653L94.5307 22.3409V23.6273H108.496ZM108.496 20.0708V18.8601L94.2186 19.0871L94.3746 20.1465L108.496 20.0708ZM113.295 15.7575C112.15 15.6566 110.961 15.5936 109.725 15.5684C108.49 15.5431 101.097 15.5558 87.5478 15.6062L86.7676 15.2278C86.4555 14.8243 86.3255 14.345 86.3775 13.7901L86.7676 13.0334L87.5478 12.655L99.212 12.3523L99.1339 10.8389H94.3746L93.4384 10.3849C93.1263 10.0318 92.9963 9.57773 93.0483 9.02281L93.4384 8.22826L94.2186 7.84991H99.0559L98.9779 5.95813L89.6544 6.33649C89.2383 6.28604 88.8742 6.1347 88.5621 5.88246C88.25 5.52933 88.12 5.0753 88.172 4.52038L88.5621 3.76367C90.1745 3.41054 91.8715 3.20875 93.653 3.1583C95.4344 3.10785 97.2094 3.0574 98.9779 3.00696C98.9259 2.14935 99.1079 1.39264 99.524 0.736822C99.8881 0.434138 100.356 0.308019 100.928 0.358466L101.709 0.736822C102.073 1.29174 102.177 2.02323 102.021 2.93128L111.968 2.70427C112.385 2.75472 112.749 2.90606 113.061 3.1583C113.373 3.56188 113.503 4.04113 113.451 4.59605L113.061 5.35276C112.697 5.65545 112.228 5.78156 111.656 5.73112L102.021 5.88246L102.099 7.69857L108.028 7.54722L108.809 7.92558C109.121 8.27871 109.251 8.74535 109.199 9.3255L108.809 10.0822C107.82 10.4353 106.741 10.5993 105.571 10.5741C104.4 10.5488 103.269 10.5867 102.177 10.6876L102.255 12.428C106.416 12.5289 109.309 12.592 110.935 12.6172C112.56 12.6424 114.127 12.8316 115.635 13.1847C115.947 13.5379 116.078 13.9919 116.026 14.5468L115.635 15.3035C114.959 15.7071 114.179 15.8584 113.295 15.7575Z" fill="#212529"/>
<path d="M68.3951 34.9415C57.9663 35.1433 52.4463 35.219 51.8351 35.1685C51.2239 35.1181 50.8923 34.8532 50.8403 34.374C50.7883 33.8947 50.4372 30.4643 49.787 24.0827C49.709 22.9476 50.1772 22.3675 51.1914 22.3423C62.5305 22.4432 68.5251 22.5441 69.1753 22.645C69.8255 22.7458 70.1961 23.0611 70.2871 23.5908C70.3781 24.1205 70.3456 25.7538 70.1896 28.4905C70.0335 31.2273 69.897 32.9993 69.78 33.8064C69.6629 34.6136 69.2013 34.992 68.3951 34.9415ZM66.7957 31.9903V30.0986L53.5321 30.1742L53.6881 31.9903H66.7957ZM67.0297 27.1474L67.1077 25.4448L52.9079 25.2934L53.0639 27.1852L67.0297 27.1474ZM51.5815 21.3585C50.5413 21.4594 49.722 21.4973 49.1239 21.472C48.5257 21.4468 48.1681 20.9676 48.0511 20.0343C47.934 19.101 47.7715 16.7678 47.5634 13.0347C47.5634 12.1267 47.7715 11.6222 48.1876 11.5213C48.6037 11.4204 55.7557 11.4078 69.6434 11.4835C70.7617 11.5087 71.1778 12.2149 70.8918 13.6023L71.1258 20.1478C71.2039 21.0559 70.5667 21.4594 69.2143 21.3585H51.5815ZM57.8232 19.1641L57.7452 13.5644L50.6453 13.4887L51.0354 19.0884L57.8232 19.1641ZM67.966 19.1641L67.8099 13.5644H60.788L60.8661 19.1641H67.966ZM63.3627 18.4074C62.9986 18.256 62.7386 18.0038 62.5825 17.6507V16.9696C63.2067 15.9607 63.9349 15.0778 64.7671 14.3211H65.7034C66.0675 14.4725 66.3275 14.7247 66.4836 15.0778V15.6832C65.7034 16.5913 64.8711 17.4993 63.9869 18.4074H63.3627ZM54.8584 18.1804C54.3903 18.0795 53.9742 17.802 53.6101 17.348C52.8819 16.6922 52.4398 15.9102 52.2837 15.0022C52.4398 14.649 52.6998 14.3968 53.0639 14.2455H53.7661C54.5984 15.0022 55.3526 15.8345 56.0287 16.7426V17.348C55.8727 17.7011 55.6126 17.9533 55.2485 18.1047L54.8584 18.1804ZM74.8709 14.2455L74.0906 13.8671C71.4379 11.597 66.5096 8.10348 59.3056 3.38665C55.1445 6.26215 52.4593 8.14762 51.2499 9.04306C50.0406 9.93851 48.3176 11.2438 46.081 12.959C45.6649 13.2617 45.1708 13.3878 44.5986 13.3374L43.8184 12.959C43.5063 12.6059 43.3763 12.1519 43.4283 11.597L43.8964 10.7646C46.4451 8.87281 49.4294 6.72248 52.8494 4.31362C56.2693 1.90475 58.2523 0.542674 58.7985 0.227377C59.3446 -0.0879192 59.9298 -0.0753073 60.554 0.265213C61.1781 0.605733 66.3665 4.30731 76.1192 11.37C76.5353 11.8744 76.7174 12.4546 76.6653 13.1104L76.2752 13.8671C75.9111 14.1698 75.443 14.2959 74.8709 14.2455ZM55.0925 9.85653L54.2343 9.4025C54.0262 9.15027 53.9482 8.82236 54.0002 8.41878C54.1562 8.04042 54.4163 7.77557 54.7804 7.62423L64.221 7.32155L65.0012 7.77557C65.2092 8.05303 65.2873 8.39355 65.2352 8.79713C65.0792 9.20071 64.7931 9.47817 64.377 9.62952L55.0925 9.85653Z" fill="#212529"/>
<path d="M9.17863 35.1682L8.39842 34.7899C8.00831 34.235 7.82627 33.617 7.85227 32.9359C7.87828 32.2549 7.83927 27.9416 7.73524 19.9962L2.81991 24.4608C2.35178 24.8644 1.80563 25.0409 1.18146 24.9905L0.401252 24.6121C0.089167 24.259 -0.0408682 23.805 0.0111459 23.25L0.557294 22.2663C3.8862 19.3908 6.33736 17.1333 7.91079 15.4937C9.48422 13.8542 10.9991 12.2021 12.4555 10.5373C9.0486 10.5877 6.75998 10.6382 5.58966 10.6886C4.41934 10.7391 3.26203 10.8147 2.11772 10.9156L1.33751 10.5373C0.973407 10.1337 0.817365 9.65446 0.869379 9.09953L1.25948 8.30499C2.35178 7.95185 3.5221 7.76268 4.77044 7.73745C6.01878 7.71223 7.28012 7.67439 8.55446 7.62395C8.19036 6.76634 7.80676 6.00963 7.40365 5.35381C7.00054 4.698 6.51291 4.09263 5.94075 3.53771C5.57666 3.13413 5.3686 2.70532 5.31658 2.2513C5.3686 1.84772 5.52464 1.49458 5.78471 1.1919C6.14881 0.889216 6.61694 0.763097 7.18909 0.813545L8.00831 1.1919C9.15262 2.60443 10.0109 3.75211 10.583 4.63494C11.1552 5.51777 11.4933 6.48888 11.5973 7.54828C12.5335 7.54828 13.4828 7.54828 14.4451 7.54828C15.4073 7.54828 16.246 7.61764 16.9612 7.75637C17.6764 7.8951 17.865 8.49416 17.5269 9.55356L11.2852 16.4396C12.4295 17.2468 13.6258 17.9783 14.8742 18.6341C16.1225 19.2899 17.2668 20.0718 18.3071 20.9799L18.3851 21.888L17.995 22.6447C17.5789 22.9474 17.0848 23.0735 16.5126 23.023L10.8171 19.7692C10.8691 27.866 10.9211 32.2549 10.9731 32.9359C11.0251 33.617 10.8951 34.235 10.583 34.7899C10.2189 35.0926 9.75079 35.2187 9.17863 35.1682ZM34.0284 32.2927C33.4042 32.1414 27.5396 31.9901 16.4346 31.8387L15.6544 31.4604C15.3423 31.1072 15.2123 30.6532 15.2643 30.0983L15.6544 29.3416C16.5386 28.8875 17.5269 28.711 18.6192 28.8119L25.8752 28.8875L25.7191 15.9099L19.5554 15.9856C19.1393 15.9352 18.7752 15.7838 18.4631 15.5316C18.1511 15.1784 18.021 14.7244 18.073 14.1695L18.4631 13.4128C19.3474 13.0092 20.3096 12.8579 21.3499 12.9588H25.6411L25.4851 7.54828L25.8752 6.79156C26.2393 6.48888 26.7074 6.36276 27.2795 6.41321L28.0988 6.79156C28.5669 7.54828 28.7749 8.44372 28.7229 9.47789V12.9588C29.7632 13.0092 30.8165 13.0218 31.8828 12.9966C32.9491 12.9714 33.9503 13.1353 34.8866 13.4885C35.1987 13.8416 35.3287 14.2956 35.2767 14.8505L34.8866 15.6073C34.3145 16.0108 33.6383 16.1622 32.8581 16.0613L28.801 15.9099L28.957 28.9632C30.1013 29.0137 31.2456 29.0641 32.3899 29.1145C33.5342 29.165 34.6005 29.3668 35.5888 29.7199C35.9529 30.1235 36.1089 30.6027 36.0569 31.1577L35.6668 31.9144C35.1987 32.2675 34.6525 32.3936 34.0284 32.2927Z" fill="#212529"/>
</svg>
