<svg width="268" height="27" viewBox="0 0 268 27" fill="none" xmlns="http://www.w3.org/2000/svg">
<rect width="268" height="20" transform="translate(0 7)" fill="#FEE6B2"/>
<path d="M13.3711 24.75L12.8242 24.4766C12.6055 24.2214 12.5143 23.8932 12.5508 23.4922L12.8242 22.9453C13.7721 22.2891 14.5833 21.5006 15.2578 20.5801C15.9323 19.6595 16.4336 18.8164 16.7617 18.0508C17.0898 17.2852 17.3086 16.5924 17.418 15.9727H16.9805C16.1419 16.082 15.6406 15.8451 15.4766 15.2617C15.3125 14.6784 15.2122 10.7135 15.1758 3.36719C15.1758 2.51042 15.3854 2.07747 15.8047 2.06836C16.224 2.05924 18.8672 2.01823 23.7344 1.94531C24.7552 1.92708 25.3112 2.16862 25.4023 2.66992C25.4935 3.17122 25.5755 7.1862 25.6484 14.7148C25.6667 15.444 25.375 15.8268 24.7734 15.8633H22.4219C22.4948 17.2122 22.5586 18.3835 22.6133 19.377C22.668 20.3704 22.9232 21.1497 23.3789 21.7148C23.8346 22.2799 24.3906 22.5443 25.0469 22.5078C24.9375 21.5599 25.0469 20.7031 25.375 19.9375C25.6302 19.7187 25.9583 19.6276 26.3594 19.6641L26.9062 19.9375C27.125 20.4844 27.2161 21.0951 27.1797 21.7695C27.1432 22.444 27.1523 23.041 27.207 23.5605C27.2617 24.0801 27.1432 24.3809 26.8516 24.4629C26.5599 24.5449 26.1771 24.5951 25.7031 24.6133C25.2292 24.6315 24.6413 24.5905 23.9395 24.4902C23.2376 24.39 22.513 23.9525 21.7656 23.1777C21.0182 22.403 20.6081 21.3366 20.5352 19.9785C20.4622 18.6204 20.3346 17.2669 20.1523 15.918H19.6055C19.4232 17.5221 18.8854 19.0033 17.9922 20.3613C17.099 21.7194 16.069 22.9818 14.9023 24.1484C14.5013 24.5859 13.9909 24.7865 13.3711 24.75ZM8.06641 25.2422L7.51953 24.9687C7.26432 24.1302 7.13672 23.237 7.13672 22.2891C7.13672 21.3411 7.11849 20.3841 7.08203 19.418L3.82812 23.7109C3.57292 23.9297 3.24479 24.0208 2.84375 23.9844L2.29687 23.7109C2.07812 23.4193 1.98698 23.0729 2.02344 22.6719C4.35677 19.5182 5.79687 17.3581 6.34375 16.1914H3.44531C3.15365 16.1549 2.89844 16.0456 2.67969 15.8633C2.46094 15.6081 2.36979 15.2799 2.40625 14.8789L2.67969 14.332L3.22656 14.0586L7.02734 14.1133L6.83594 11.6523L2.73437 11.707C2.44271 11.6706 2.1875 11.5612 1.96875 11.3789C1.75 11.1237 1.65885 10.7956 1.69531 10.3945L1.96875 9.84766C2.66146 9.55599 3.44531 9.46484 4.32031 9.57422L4.10156 5.44531L2.57031 5.5C2.27865 5.46354 2.02344 5.35417 1.80469 5.17187C1.58594 4.91667 1.49479 4.58854 1.53125 4.1875L1.80469 3.64062C2.4974 3.38542 3.23568 3.26693 4.01953 3.28516C4.80339 3.30339 5.57812 3.29427 6.34375 3.25781L6.23437 1.45312C6.27083 1.16146 6.38021 0.90625 6.5625 0.6875C6.81771 0.46875 7.15495 0.377604 7.57422 0.414062L8.12109 0.6875C8.3763 1.08854 8.49479 1.48958 8.47656 1.89062C8.45833 2.29167 8.46745 2.7474 8.50391 3.25781L12.6602 3.14844L13.207 3.42187C13.4258 3.67708 13.5169 4.00521 13.4805 4.40625L13.207 4.95312C12.5508 5.28125 11.8034 5.40885 10.9648 5.33594V9.35547C11.7305 9.31901 12.4232 9.44661 13.043 9.73828C13.2617 9.99349 13.3529 10.3216 13.3164 10.7227L13.043 11.2695C12.7148 11.4883 12.332 11.5977 11.8945 11.5977L9.05078 11.543L9.16016 14.0586H12.332L12.8789 14.332C13.0977 14.6237 13.1888 14.9701 13.1523 15.3711L12.8789 15.918L12.332 16.1914H9.37891L13.043 19.3086C13.2982 19.6003 13.3893 19.974 13.3164 20.4297L13.043 20.9766C12.7878 21.1953 12.4596 21.2865 12.0586 21.25L11.5117 20.9766L9.21484 19.1445L9.32422 24.4219L9.05078 24.9687C8.79557 25.1875 8.46745 25.2786 8.06641 25.2422ZM23.5156 13.8398L23.4062 11.7617H17.2539L17.418 13.8945L23.5156 13.8398ZM23.2969 9.57422L23.2422 8.37109H17.1445V9.62891L23.2969 9.57422ZM8.83203 9.41016V5.39062H6.28906L6.45312 9.57422L8.83203 9.41016ZM23.2422 4.07812L17.3086 4.13281V6.23828H23.2969L23.2422 4.07812ZM43.202 25.0508C42.5458 24.7956 41.926 24.4401 41.3427 23.9844C40.7593 23.5286 40.1942 23.0456 39.6473 22.5352C39.4286 22.2799 39.3374 21.9518 39.3739 21.5508L39.6473 21.0039C39.9026 20.7852 40.2307 20.694 40.6317 20.7305C41.0328 20.9128 41.4065 21.1862 41.7528 21.5508C42.0992 21.9154 42.4729 22.207 42.8739 22.4258C43.0562 21.8789 43.2294 21.332 43.3934 20.7852C43.5575 20.2383 43.6669 19.4681 43.7216 18.4746C43.7762 17.4811 43.7307 16.1914 43.5848 14.6055L32.5106 14.7695L31.9637 14.4961C31.7085 14.2044 31.5992 13.8581 31.6356 13.457L31.9091 12.9102C32.5289 12.6185 33.2216 12.5091 33.9872 12.582L43.0927 12.418C42.8739 11.8711 42.6825 11.3607 42.5184 10.8867C42.3544 10.4128 41.9624 9.84766 41.3427 9.19141C40.9416 8.60807 40.9416 8.07943 41.3427 7.60547C42.0718 7.16797 42.7463 6.61654 43.3661 5.95117C43.9859 5.28581 44.6057 4.67969 45.2255 4.13281L36.913 4.29687C36.6213 4.26042 36.3661 4.15104 36.1473 3.96875C35.9104 3.71354 35.8101 3.38542 35.8466 2.98437L36.1473 2.4375C36.8036 2.18229 37.4963 2.03646 38.2255 2H47.9598C48.8713 2.16406 49.1447 2.61979 48.7802 3.36719C47.6864 4.7526 46.7567 5.75977 45.9911 6.38867C45.2255 7.01758 44.5145 7.71484 43.8583 8.48047C44.1499 9.20963 44.4234 9.88411 44.6786 10.5039C44.9338 11.1237 45.189 11.7435 45.4442 12.3633L53.9481 12.3086L54.5497 12.6367C54.7684 12.9284 54.8596 13.2747 54.8231 13.6758L54.5497 14.2227C53.8205 14.5143 53.0184 14.6237 52.1434 14.5508H45.7723C45.9364 16.1003 45.9592 17.5176 45.8407 18.8027C45.7222 20.0879 45.5354 21.1862 45.2802 22.0977C45.0249 23.0091 44.6968 23.7201 44.2958 24.2305C43.8947 24.7409 43.5302 25.0143 43.202 25.0508ZM72.8142 25.7891L70.6814 24.0937L70.6267 23.4375L70.9002 22.8906C71.1554 22.6719 71.4835 22.5807 71.8845 22.6172L72.322 22.7812V21.6875L62.9431 21.6328L62.3962 21.3594C62.1775 21.1042 62.0864 20.776 62.1228 20.375L62.3962 19.8281C62.9431 19.4818 63.5811 19.3268 64.3103 19.3633L71.9392 19.5273L71.3377 18.9258C70.8819 18.2331 70.8637 17.7044 71.283 17.3398L73.6892 16.1367L69.8611 16.2461C69.0955 16.2461 68.4028 16.082 67.783 15.7539C67.5642 15.4987 67.4731 15.1706 67.5095 14.7695L67.783 14.2227C68.1111 13.9674 68.5121 13.8763 68.9861 13.9492H77.0252C77.9184 14.2409 78.1918 14.6602 77.8455 15.207C76.7882 16.3737 75.4574 17.3945 73.8533 18.2695L74.1814 19.4727L82.4666 19.2539L83.0134 19.5273C83.2322 19.8008 83.3233 20.138 83.2869 20.5391L83.0134 21.0859C82.5395 21.3776 82.0108 21.5052 81.4275 21.4687L74.4548 21.6328C74.4913 22.3984 74.464 23.0729 74.3728 23.6562C74.2817 24.2396 74.1039 24.7819 73.8396 25.2832C73.5753 25.7845 73.2335 25.9531 72.8142 25.7891ZM82.9041 16.0273C82.6124 15.9909 82.3572 15.8815 82.1384 15.6992V15.5898H82.0291C81.8103 15.3346 81.7192 15.0065 81.7556 14.6055L82.0837 12.9648L62.7791 13.0742L63.1072 15.0977L62.8337 15.6445C62.5421 15.8633 62.1957 15.9544 61.7947 15.918L61.2478 15.6445C60.9561 15.0977 60.783 14.5052 60.7283 13.8672C60.6736 13.2292 60.6143 12.5775 60.5505 11.9121C60.4867 11.2467 60.6599 10.8822 61.0701 10.8184C61.4802 10.7546 62.3598 10.7591 63.7087 10.832L63.49 2.82031C63.4535 2.07292 63.6632 1.64909 64.1189 1.54883C64.5746 1.44857 65.1625 1.34375 65.8826 1.23437C66.6026 1.125 67.3272 1.05208 68.0564 1.01562L68.6033 1.28906C68.822 1.54427 68.9132 1.8724 68.8767 2.27344L68.6033 2.82031C68.1658 3.03906 67.1814 3.23958 65.6502 3.42187L65.7048 4.95312H68.6033C68.8585 5.0625 69.0408 5.24479 69.1502 5.5V5.96484C69.0408 6.22005 68.8585 6.40234 68.6033 6.51172L65.7595 6.56641V7.71484H68.2752C68.5304 7.82422 68.7127 8.00651 68.822 8.26172V8.69922C68.7127 8.95443 68.5304 9.13672 68.2752 9.24609L65.8142 9.35547L65.9236 10.9414L79.4041 10.832V9.13672C78.4744 9.24609 77.6267 9.13672 76.8611 8.80859C76.7153 8.6263 76.6606 8.38932 76.697 8.09766C76.8064 7.84245 76.9887 7.66016 77.2439 7.55078H79.2947L79.2127 6.51172L77.0252 6.67578L76.4236 6.34766C76.2778 6.16536 76.2231 5.91927 76.2595 5.60937L76.4783 5.22656C76.8793 5.04427 77.3168 4.94401 77.7908 4.92578C78.2647 4.90755 78.7387 4.89844 79.2127 4.89844V3.36719L77.2439 3.25781L76.697 2.98437C76.4418 2.69271 76.3324 2.32812 76.3689 1.89062L76.6423 1.34375C77.0069 1.08854 77.4444 0.997396 77.9548 1.07031C79.5772 1.2526 80.5525 1.35286 80.8806 1.37109C81.2087 1.38932 81.3728 1.6901 81.3728 2.27344L81.5369 10.7773C82.7765 10.7044 83.6196 10.7591 84.0662 10.9414C84.5128 11.1237 84.5811 11.6797 84.2712 12.6094L83.7244 15.6992C83.4692 15.8815 83.1957 15.9909 82.9041 16.0273ZM74.2908 9.90234C73.7439 9.61068 73.197 9.28255 72.6502 8.91797C72.1033 9.46484 71.4288 9.75651 70.6267 9.79297C70.3715 9.68359 70.1892 9.5013 70.0798 9.24609V8.80859C70.1892 8.55338 70.3715 8.37109 70.6267 8.26172L71.283 7.93359L70.7361 7.38672C70.5903 7.20443 70.5356 6.96745 70.572 6.67578C70.6814 6.42057 70.8637 6.23828 71.1189 6.12891H71.6658L72.8142 6.89453C73.3975 6.11068 74.1267 5.70052 75.0017 5.66406C75.2569 5.77344 75.4392 5.96484 75.5486 6.23828V6.67578C75.4392 6.93099 74.9653 7.36849 74.1267 7.98828C74.6371 8.17057 75.0564 8.48047 75.3845 8.91797V9.35547C75.2752 9.61068 75.0929 9.79297 74.8377 9.90234H74.2908ZM70.1892 5.0625C69.934 4.95312 69.7517 4.77083 69.6423 4.51562V4.02344L70.1892 3.42187L71.1189 2.98437L70.572 2.60156C70.3897 2.38281 70.3168 2.10937 70.3533 1.78125C70.4627 1.52604 70.6449 1.34375 70.9002 1.23437H71.447C71.8481 1.52604 72.2856 1.76302 72.7595 1.94531C73.3064 1.28906 73.9991 0.960937 74.8377 0.960937C75.0929 1.07031 75.2752 1.2526 75.3845 1.50781V1.94531C75.2752 2.20052 74.8923 2.49219 74.2361 2.82031L74.7283 3.25781C74.8741 3.47656 74.9288 3.73177 74.8923 4.02344C74.783 4.27865 74.6007 4.46094 74.3455 4.57031H73.908L72.5408 3.91406C71.8481 4.4974 71.0642 4.88021 70.1892 5.0625ZM90.5866 26.1719L90.0397 25.8984C89.8209 25.6068 89.7298 25.2604 89.7662 24.8594L90.0397 24.3125L90.86 22.8359C90.6048 22.7995 90.3405 22.6445 90.067 22.3711C89.7936 22.0977 89.666 21.7331 89.6842 21.2773C89.7024 20.8216 89.8938 20.4251 90.2584 20.0879C90.623 19.7506 91.0879 19.6595 91.653 19.8145C92.2181 19.9694 92.6647 20.2383 92.9928 20.6211C93.3209 21.0039 93.3938 21.5872 93.2116 22.3711C93.0293 23.1549 92.8105 23.8112 92.5553 24.3398C92.3001 24.8685 91.9902 25.3698 91.6256 25.8437C91.334 26.099 90.9876 26.2083 90.5866 26.1719ZM134.937 24.75L134.39 24.4766C134.062 24.0391 133.934 23.5286 134.007 22.9453L133.406 3.80469C133.424 2.89323 133.666 2.39193 134.13 2.30078C134.595 2.20964 135.981 2.20052 138.287 2.27344C140.593 2.34635 142.083 2.45573 142.757 2.60156C143.432 2.7474 143.532 3.20312 143.058 3.96875C142.548 4.77083 142.001 5.55924 141.417 6.33398C140.834 7.10872 140.251 7.87891 139.667 8.64453C140.36 9.15495 140.816 9.72005 141.035 10.3398C141.253 10.9596 141.408 11.5247 141.5 12.0352C141.591 12.5456 141.618 13.5117 141.582 14.9336C141.545 16.3555 141.358 17.4082 141.021 18.0918C140.684 18.7754 140.182 19.0033 139.517 18.7754C138.852 18.5475 138.241 18.2057 137.685 17.75C137.129 17.2943 136.559 16.9206 135.976 16.6289L136.195 23.9297L135.921 24.4766C135.666 24.6953 135.338 24.7865 134.937 24.75ZM121.074 24.0391C120.399 23.9115 120.03 23.5241 119.966 22.877C119.903 22.2298 119.743 19.9648 119.488 16.082C119.451 15.444 119.597 15.0566 119.925 14.9199C120.253 14.7832 122.003 14.7285 125.175 14.7559C128.347 14.7832 130.152 14.8151 130.589 14.8516C131.027 14.888 131.182 15.4076 131.054 16.4102L130.89 22.8359C130.817 23.5104 130.27 23.8021 129.25 23.7109L121.074 24.0391ZM128.757 21.5234L128.812 16.8477H121.621L122.003 21.7422L128.757 21.5234ZM139.449 16.3008C139.595 15.3711 139.64 14.5371 139.585 13.7988C139.531 13.0605 139.44 12.418 139.312 11.8711C139.184 11.3242 138.902 10.8867 138.464 10.5586C138.027 10.2305 137.64 9.95703 137.302 9.73828C136.965 9.51953 136.929 9.11849 137.193 8.53516C137.457 7.95182 137.899 7.30924 138.519 6.60742C139.139 5.9056 139.667 5.17187 140.105 4.40625L135.648 4.29687L135.867 14.168C136.523 14.4232 137.138 14.7513 137.712 15.1523C138.287 15.5534 138.865 15.9362 139.449 16.3008ZM121.128 12.9922C119.634 13.0286 118.558 12.9375 117.902 12.7187C117.683 12.4271 117.592 12.0807 117.628 11.6797L117.902 11.1328C118.595 10.8411 119.36 10.75 120.199 10.8594L120.691 10.9141L120.308 6.78516L118.503 6.89453L117.957 6.62109C117.738 6.36588 117.647 6.02865 117.683 5.60937L117.957 5.0625C118.248 4.84375 118.576 4.69792 118.941 4.625H123.371L123.316 1.83594L123.617 1.28906C123.908 1.03385 124.255 0.924479 124.656 0.960937L125.203 1.23437C125.385 1.45312 125.494 1.70833 125.531 2V4.57031L130.781 4.51562L131.328 4.78906C131.546 5.08073 131.638 5.42708 131.601 5.82812L131.328 6.40234C130.562 6.73047 129.687 6.83984 128.703 6.73047L128.32 10.9141C128.903 10.9141 129.496 10.9141 130.097 10.9141C130.699 10.9141 131.255 11.0234 131.765 11.2422C131.984 11.4974 132.075 11.8255 132.039 12.2266L131.765 12.7734C131.364 13.0651 130.872 13.1562 130.289 13.0469L121.128 12.9922ZM126.57 6.73047L122.496 6.83984L122.878 10.9687L126.078 10.9141L126.57 6.73047ZM149.866 25.1875L149.319 24.9141C149.136 24.6589 149.027 24.3672 148.991 24.0391C149.173 23.4193 149.528 22.8906 150.057 22.4531C150.586 22.0156 151.114 21.6146 151.643 21.25C152.172 20.8854 152.755 20.6484 153.393 20.5391L153.94 20.8125C154.159 21.0677 154.25 21.3958 154.213 21.7969L153.94 22.3437C153.429 22.6719 152.399 23.5286 150.85 24.9141C150.595 25.1328 150.267 25.224 149.866 25.1875ZM167.584 24.5312H159.682C158.953 24.6042 158.561 24.4264 158.506 23.998C158.452 23.5697 158.242 21.4232 157.877 17.5586C157.859 16.8477 158.06 16.4648 158.479 16.4102C157.896 16.6654 157.33 16.8112 156.784 16.8477L156.237 16.5742C156.018 16.319 155.927 15.9909 155.963 15.5898L156.237 15.043C157.075 14.6055 157.923 14.168 158.78 13.7305C159.636 13.293 160.466 12.8008 161.268 12.2539L159.901 11.3242L159.518 11.9258C159.226 12.2174 158.862 12.3451 158.424 12.3086L157.877 12.0352C157.659 11.7799 157.567 11.4518 157.604 11.0508C158.078 10.3945 158.543 9.61979 158.998 8.72656C159.454 7.83333 159.773 7.23633 159.955 6.93555C160.138 6.63477 160.493 6.44792 161.022 6.375C162.498 6.53906 164.832 6.72135 168.022 6.92187C168.386 7.26823 168.551 7.64193 168.514 8.04297C167.639 9.42838 166.664 10.7044 165.588 11.8711C166.591 12.1992 167.548 12.6094 168.459 13.1016C169.371 13.5937 170.319 13.9857 171.303 14.2773C171.522 14.5326 171.613 14.8607 171.577 15.2617L171.303 15.8086C170.975 16.0273 170.61 16.1367 170.209 16.1367C169.079 15.7357 167.954 15.2708 166.832 14.7422C165.711 14.2135 164.567 13.7487 163.401 13.3477C162.635 13.8945 161.87 14.4141 161.104 14.9062C160.338 15.3984 159.536 15.8268 158.698 16.1914C165.388 16.2096 168.924 16.2871 169.307 16.4238C169.69 16.5605 169.808 17.0117 169.662 17.7773C169.261 21.569 169.015 23.6562 168.924 24.0391C168.833 24.4219 168.386 24.5859 167.584 24.5312ZM167.037 22.2344L167.42 18.4336H160.065L160.366 22.3437L167.037 22.2344ZM153.284 16.3555C152.609 16.1003 151.944 15.8815 151.287 15.6992C150.631 15.5169 149.957 15.3529 149.264 15.207C149.045 14.9154 148.954 14.569 148.991 14.168L149.264 13.6211C149.665 13.3659 150.139 13.2747 150.686 13.3477C151.269 13.457 151.848 13.612 152.422 13.8125C152.996 14.013 153.557 14.2409 154.104 14.4961C154.323 14.7513 154.414 15.0794 154.377 15.4805L154.104 16.0273C153.849 16.2096 153.575 16.319 153.284 16.3555ZM154.323 10.9961C153.557 10.7044 152.778 10.4219 151.985 10.1484C151.192 9.875 150.394 9.62891 149.592 9.41016C149.337 9.11849 149.228 8.77213 149.264 8.37109L149.537 7.82422C149.902 7.56901 150.34 7.47786 150.85 7.55078C151.616 7.76953 152.368 8.00651 153.106 8.26172C153.844 8.51693 154.578 8.80859 155.307 9.13672C155.526 9.42838 155.617 9.77474 155.58 10.1758L155.307 10.7227C155.052 10.9414 154.724 11.0326 154.323 10.9961ZM163.51 10.7227L165.26 8.86328L161.596 8.69922L161.159 9.51953L163.51 10.7227ZM156.291 6.48437C156 6.44792 155.726 6.32031 155.471 6.10156C155.216 5.73698 155.07 5.33594 155.034 4.89844L149.319 4.95312C149.027 4.91667 148.772 4.80729 148.553 4.625C148.334 4.36979 148.243 4.04167 148.28 3.64062L148.553 3.09375C148.845 2.83854 149.209 2.72917 149.647 2.76562L154.541 2.82031C154.396 2.41927 154.304 2.07292 154.268 1.78125C154.304 1.48958 154.414 1.23437 154.596 1.01562C154.851 0.796875 155.179 0.705729 155.58 0.742187L156.127 1.01562C156.455 1.52604 156.656 2.09115 156.729 2.71094L162.526 2.54687C162.526 2 162.672 1.50781 162.963 1.07031C163.218 0.851562 163.547 0.760417 163.948 0.796875L164.495 1.07031C164.75 1.36198 164.823 1.83594 164.713 2.49219L170.045 2.4375L170.592 2.71094C170.811 3.0026 170.902 3.34896 170.866 3.75L170.592 4.29687C170.009 4.58854 169.371 4.69792 168.678 4.625H164.385C164.422 5.13542 164.312 5.59115 164.057 5.99219C163.802 6.21094 163.474 6.30208 163.073 6.26562L162.526 5.99219C162.271 5.6276 162.161 5.1901 162.198 4.67969L157.33 4.84375L157.385 5.60937L157.112 6.15625C156.857 6.33854 156.583 6.44792 156.291 6.48437ZM184.81 25.2422C183.917 25.151 183.443 24.8184 183.388 24.2441C183.333 23.6699 183.265 22.7038 183.183 21.3457C183.101 19.9876 183.005 18.6341 182.896 17.2852C182.914 16.7747 183.074 16.4648 183.374 16.3555C183.675 16.2461 187.362 16.1732 194.435 16.1367C194.945 16.2826 195.255 16.5742 195.365 17.0117C195.474 17.4492 195.547 18.7025 195.583 20.7715C195.62 22.8405 195.556 24.1029 195.392 24.5586C195.228 25.0143 194.708 25.2604 193.833 25.2969L184.81 25.2422ZM193.232 23.1641V18.2695L185.083 18.2148L185.521 23.1094L193.232 23.1641ZM179.587 16.8477C179.296 16.8112 179.04 16.7018 178.822 16.5195C178.603 16.2643 178.512 15.9362 178.548 15.5352L178.822 14.9883C180.316 14.7695 181.734 14.3047 183.074 13.5937C184.413 12.8828 185.721 12.0169 186.997 10.9961L185.193 9.90234C184.792 10.3034 184.299 10.4857 183.716 10.4492L183.169 10.1758C182.95 9.92057 182.859 9.59245 182.896 9.19141L183.169 8.64453C183.825 8.27995 184.477 7.74219 185.124 7.03125C185.771 6.32031 186.2 5.83724 186.409 5.58203C186.619 5.32682 186.938 5.23568 187.366 5.30859C187.795 5.38151 188.743 5.47721 190.21 5.5957C191.678 5.71419 192.885 5.91927 193.833 6.21094C194.216 6.375 194.325 6.73047 194.161 7.27734C193.323 8.40755 192.676 9.17318 192.22 9.57422C191.764 9.97526 191.336 10.3945 190.935 10.832C192.466 11.5977 194.011 12.3086 195.57 12.9648C197.128 13.6211 198.71 14.1862 200.314 14.6602C200.532 14.9154 200.624 15.2435 200.587 15.6445L200.314 16.1914C199.986 16.4466 199.603 16.5378 199.165 16.4648C197.415 15.9909 195.697 15.3711 194.011 14.6055C192.325 13.8398 190.643 13.0742 188.966 12.3086C187.544 13.3659 186.077 14.3503 184.564 15.2617C183.051 16.1732 181.392 16.7018 179.587 16.8477ZM188.857 9.62891C189.586 9.08203 190.26 8.48047 190.88 7.82422L187.599 7.60547L186.888 8.42578L188.857 9.62891ZM179.751 8.69922C179.46 8.66276 179.204 8.55338 178.986 8.37109C178.657 7.67838 178.475 6.92643 178.439 6.11523C178.402 5.30404 178.348 4.4974 178.275 3.69531C178.366 3.09375 178.767 2.76562 179.478 2.71094L187.708 2.65625C187.708 1.92708 187.836 1.2526 188.091 0.632812C188.383 0.377604 188.729 0.268229 189.13 0.304687L189.677 0.578125C189.932 0.90625 190.023 1.30729 189.95 1.78125V2.76562H199.001C199.676 2.78385 199.945 3.18945 199.808 3.98242C199.671 4.77539 199.603 5.50456 199.603 6.16992C199.603 6.83529 199.457 7.44141 199.165 7.98828C198.874 8.20703 198.527 8.29818 198.126 8.26172L197.579 7.98828C197.361 7.73307 197.269 7.40495 197.306 7.00391C197.415 6.32943 197.488 5.6276 197.525 4.89844L180.517 4.84375C180.553 6.10156 180.663 7.09505 180.845 7.82422L180.572 8.37109C180.316 8.55338 180.043 8.66276 179.751 8.69922ZM207.395 25.1328L206.848 24.8594C206.52 24.4219 206.374 23.8932 206.41 23.2734L205.918 2.49219C205.991 1.96354 206.237 1.64909 206.656 1.54883C207.076 1.44857 208.52 1.38021 210.99 1.34375C213.46 1.30729 214.901 1.32552 215.311 1.39844C215.721 1.47135 215.862 2.10937 215.735 3.3125C215.625 6.17448 215.561 7.97005 215.543 8.69922C215.525 9.42838 215.498 10.0163 215.461 10.4629C215.425 10.9095 214.896 11.1055 213.875 11.0508L208.379 11.2148L208.652 24.3125L208.379 24.8594C208.124 25.0781 207.796 25.1693 207.395 25.1328ZM228.012 25.0781C227.429 24.9687 226.891 24.7409 226.399 24.3945C225.906 24.0482 225.442 23.6562 225.004 23.2187C224.567 22.8542 224.366 22.3984 224.402 21.8516L224.676 21.3047C224.931 21.0859 225.259 20.9948 225.66 21.0312C225.952 21.1042 226.207 21.2865 226.426 21.5781L227.356 22.3437C227.465 20.9401 227.483 17.3216 227.41 11.4883L221.477 11.4336C221.039 11.3789 220.738 11.2103 220.574 10.9277C220.41 10.6452 220.274 7.70573 220.164 2.10937C220.31 1.50781 220.82 1.21615 221.695 1.23437C225.979 1.17969 228.299 1.17057 228.654 1.20703C229.01 1.24349 229.229 1.54883 229.311 2.12305C229.393 2.69727 229.443 3.26693 229.461 3.83203C229.479 4.39714 229.498 7.64193 229.516 13.5664C229.534 19.4909 229.516 22.7174 229.461 23.2461C229.406 23.7747 229.274 24.2305 229.065 24.6133C228.855 24.9961 228.504 25.151 228.012 25.0781ZM219.891 24.2031L219.344 23.9297C219.016 23.4193 218.906 22.8177 219.016 22.125L218.961 18.707H216.828C216.719 19.5638 216.455 20.3385 216.035 21.0312C215.616 21.724 215.16 22.3255 214.668 22.8359C214.176 23.3464 213.656 23.5833 213.11 23.5469L212.563 23.2734C212.344 23.0182 212.253 22.6901 212.289 22.2891L212.563 21.7422C213.292 21.1589 213.784 20.6393 214.039 20.1836C214.294 19.7279 214.477 19.2357 214.586 18.707C213.93 18.707 213.274 18.6979 212.617 18.6797C211.961 18.6615 211.36 18.5247 210.813 18.2695C210.594 18.0143 210.503 17.6862 210.539 17.2852L210.813 16.7383C211.177 16.4831 211.633 16.3919 212.18 16.4648L214.805 16.5742V14.7148C213.93 14.8242 213.146 14.7148 212.453 14.3867C212.235 14.1315 212.143 13.8034 212.18 13.4023L212.453 12.8555L213 12.582L220.93 12.6367C221.623 12.6003 222.242 12.7279 222.789 13.0195C223.008 13.2747 223.099 13.6029 223.063 14.0039L222.789 14.5508C222.461 14.7695 221.914 14.8607 221.149 14.8242L221.094 16.5742C221.677 16.6107 222.279 16.6289 222.899 16.6289C223.518 16.6289 224.093 16.7565 224.621 17.0117C224.84 17.2669 224.931 17.5951 224.895 17.9961L224.621 18.543C224.33 18.7253 224.011 18.8346 223.664 18.8711L221.094 18.707L221.203 22.1797C221.276 22.8359 221.167 23.4193 220.875 23.9297C220.62 24.1484 220.292 24.2396 219.891 24.2031ZM218.961 16.5742V14.7695H216.938V16.5742H218.961ZM227.465 9.35547V7.22266H222.625V9.19141L227.465 9.35547ZM213.383 8.91797L213.438 7.33203L208.27 7.44141L208.324 9.02734L213.383 8.91797ZM213.492 5.19922V3.53125L208.16 3.58594V5.30859L213.492 5.19922ZM227.41 5.0625L227.246 3.42187L222.461 3.36719L222.57 5.0625H227.41ZM242.339 25.6797L241.792 25.4062C241.5 25.0052 241.355 24.5312 241.355 23.9844L241.19 17.4492C240.607 18.3242 240.047 19.222 239.509 20.1426C238.971 21.0631 238.447 21.9792 237.937 22.8906C237.681 23.1094 237.353 23.2005 236.952 23.1641L236.405 22.8906C236.15 22.599 236.059 22.2344 236.132 21.7969C236.825 20.5755 237.517 19.3633 238.21 18.1602C238.903 16.957 239.659 15.7904 240.48 14.6602H237.499C237.207 14.6237 236.952 14.5143 236.733 14.332C236.515 14.0768 236.424 13.7487 236.46 13.3477L236.733 12.8008L237.28 12.5273H241.19L241.136 9.84766L241.409 9.30078C241.664 9.08203 241.993 8.99088 242.394 9.02734L242.94 9.30078C243.196 9.73828 243.314 10.2305 243.296 10.7773C243.278 11.3242 243.287 11.8711 243.323 12.418L246.605 12.2539L247.315 12.6367C247.534 12.8919 247.625 13.2201 247.589 13.6211L247.315 14.168C246.914 14.4232 246.44 14.5508 245.894 14.5508C245.347 14.5508 244.818 14.5508 244.308 14.5508C244.672 14.9518 245.046 15.3437 245.429 15.7266C245.812 16.1094 246.131 16.5013 246.386 16.9023L246.44 17.5586L246.167 18.1055C245.912 18.3242 245.584 18.4154 245.183 18.3789L244.636 18.1055L243.433 16.8477L243.597 24.8594L243.323 25.4062C243.068 25.625 242.74 25.7161 242.339 25.6797ZM250.597 25.1328C249.74 25.224 249.275 25.0326 249.202 24.5586C249.129 24.0846 248.737 19.7461 248.026 11.543C248.008 10.9232 248.213 10.5677 248.642 10.4766C249.07 10.3854 251.371 10.3034 255.546 10.2305C256.713 10.1029 257.296 10.4128 257.296 11.1602L257.405 23.8203C257.515 24.513 257.205 24.8867 256.476 24.9414C255.746 24.9961 253.787 25.0599 250.597 25.1328ZM255.272 22.8359L255.218 20.9766H250.98L251.144 22.9453L255.272 22.8359ZM255.218 18.8164L255.163 16.793L250.597 16.6836L250.761 18.8711L255.218 18.8164ZM255.108 14.6055L255.163 12.3633L250.269 12.4727L250.433 14.5508L255.108 14.6055ZM243.761 8.97266L243.214 8.69922C242.959 8.1888 242.822 7.61003 242.804 6.96289C242.786 6.31575 242.74 5.68229 242.667 5.0625L238.812 5.22656C238.666 5.8099 238.465 6.37956 238.21 6.93555C237.955 7.49154 237.681 8.04297 237.39 8.58984C237.098 8.80859 236.752 8.89974 236.351 8.86328L235.804 8.58984C235.621 8.33463 235.512 8.04297 235.476 7.71484C236.059 6.60286 236.515 5.47266 236.843 4.32422C237.171 3.17578 237.444 2 237.663 0.796875C237.918 0.578125 238.246 0.486979 238.647 0.523437L239.194 0.796875C239.486 1.30729 239.577 1.89062 239.468 2.54687L239.358 3.09375C240.871 2.98437 242.111 2.91146 243.077 2.875C244.043 2.83854 245 2.80208 245.948 2.76562L246.55 3.09375C246.769 3.34896 246.86 3.67708 246.823 4.07812L246.55 4.625C246.039 4.91667 245.456 5.02604 244.8 4.95312C244.873 6.17448 244.964 7.22266 245.073 8.09766L244.745 8.69922C244.49 8.91797 244.162 9.00911 243.761 8.97266ZM254.507 8.58984L253.933 8.31641C253.677 7.84245 253.541 7.30924 253.522 6.7168C253.504 6.12435 253.459 5.55469 253.386 5.00781L250.05 4.95312C249.904 5.75521 249.667 6.54818 249.339 7.33203C249.047 7.58724 248.701 7.69661 248.3 7.66016L247.753 7.38672C247.534 7.09505 247.443 6.73958 247.48 6.32031C247.771 5.40885 248.026 4.47917 248.245 3.53125C248.464 2.58333 248.683 1.63542 248.901 0.6875C249.157 0.46875 249.485 0.377604 249.886 0.414062L250.433 0.6875C250.724 1.125 250.815 1.63542 250.706 2.21875L250.542 2.875L258.226 2.71094L258.772 2.98437C258.991 3.23958 259.082 3.56771 259.046 3.96875L258.772 4.51562C258.299 4.77083 257.779 4.89844 257.214 4.89844C256.649 4.89844 256.093 4.91667 255.546 4.95312C255.692 5.99219 255.765 6.93099 255.765 7.76953L255.491 8.31641C255.236 8.53516 254.908 8.6263 254.507 8.58984Z" fill="#212529"/>
</svg>
