<svg width="173" height="28" viewBox="0 0 173 28" fill="none" xmlns="http://www.w3.org/2000/svg">
<rect width="172" height="20" transform="translate(0 8)" fill="#FEE6B2"/>
<path d="M152.113 27.1746C151.816 27.1342 151.556 27.0131 151.334 26.8112C151.111 26.5285 151.019 26.1651 151.056 25.7209L151.334 25.1152C151.853 24.8325 152.386 24.3378 152.933 23.6311C153.48 22.9245 154.078 22.2178 154.727 21.5111C155.376 20.8044 155.886 19.9059 156.257 18.8156L153.642 16.8773C153.401 16.5543 153.299 16.1707 153.337 15.7265L153.642 15.1207C153.939 14.8784 154.291 14.7775 154.699 14.8179C155.144 14.9794 155.571 15.2318 155.979 15.575C156.387 15.9183 156.795 16.2514 157.203 16.5745C157.499 15.6053 157.768 14.6059 158.009 13.5761C158.25 12.5464 158.482 11.5268 158.704 10.5172L153.448 10.4567C153.077 11.4662 152.669 12.4556 152.224 13.4247C151.779 14.3939 151.334 15.363 150.889 16.3322C150.592 16.6149 150.24 16.736 149.832 16.6956L149.276 16.3928C149.053 16.1101 148.961 15.7466 148.998 15.3025C149.776 13.5257 150.518 11.7489 151.223 9.97209C151.927 8.1953 152.409 6.32765 152.669 4.36915H149.832C149.313 4.40953 148.849 4.26819 148.441 3.94514C148.219 3.66247 148.126 3.29904 148.163 2.85484L148.441 2.24912C148.849 1.92606 149.368 1.8453 149.999 2.00683L160.93 2.0674L161.486 2.37026C161.708 2.65293 161.801 3.01637 161.764 3.46056L161.486 4.06629C161.226 4.26819 160.948 4.38934 160.651 4.42972H154.922C154.811 5.03544 154.69 5.65631 154.56 6.29232C154.431 6.92833 154.31 7.54919 154.199 8.15492H160.373C161.245 8.21549 161.523 8.74045 161.208 9.7298C160.651 12.3546 159.965 14.9592 159.15 17.5436C158.334 20.128 157.393 22.0866 156.326 23.4191C155.26 24.7517 154.31 25.7815 153.476 26.5083C153.086 26.8718 152.632 27.0939 152.113 27.1746ZM171.221 26.5689C170.516 26.367 169.839 26.054 169.19 25.63C168.541 25.206 167.892 24.7921 167.243 24.3883C167.021 24.1056 166.928 23.7422 166.965 23.298L167.243 22.6923C167.558 22.45 167.92 22.349 168.328 22.3894L170.164 23.4191L169.746 2.85484C169.783 2.53179 169.895 2.24912 170.08 2.00683C170.34 1.76454 170.674 1.66358 171.081 1.70397L171.638 2.00683C171.897 2.77408 172.036 3.6019 172.055 4.49029C172.073 5.37869 172.222 12.4152 172.5 25.5997C172.333 26.5285 171.907 26.8516 171.221 26.5689ZM164.49 16.5139L163.933 16.211C163.748 15.9687 163.637 15.6861 163.6 15.363L163.544 5.39888C163.47 4.38934 163.6 3.46056 163.933 2.61255C164.193 2.37026 164.527 2.26931 164.935 2.30969L165.491 2.61255C165.788 3.42018 165.862 4.34896 165.713 5.39888L165.769 15.6053L165.491 16.211C165.231 16.4533 164.898 16.5543 164.49 16.5139Z" fill="#212529"/>
<path d="M130.533 27.6306L130.004 27.3277C129.745 26.3586 129.615 25.3238 129.615 24.2234C129.615 23.123 129.578 21.1393 129.503 18.2722C127.093 18.2722 125.484 18.3126 124.678 18.3933C123.871 18.4741 123.194 18.5145 122.647 18.5145C122.1 18.5145 121.72 18.3984 121.507 18.1662C121.294 17.934 121.234 17.6008 121.326 17.1667C121.419 16.7326 121.693 16.3187 122.147 15.925C122.601 15.5313 124.367 13.9917 127.445 11.3064C126.073 10.418 125.216 9.82233 124.873 9.51947C124.529 9.21661 124.474 8.75222 124.706 8.1263C124.937 7.50039 125.336 6.79876 125.902 6.02142C126.467 5.24407 127 4.46168 127.501 3.67424C126.741 3.79538 126.101 3.93672 125.582 4.09824C125.063 4.25977 124.534 4.4112 123.996 4.55254C123.718 4.51216 123.468 4.40111 123.245 4.21939C123.023 3.89634 122.93 3.52281 122.967 3.0988L123.245 2.49308C125.211 1.82678 127.218 1.33716 129.267 1.0242C131.316 0.711242 133.37 0.494192 135.428 0.373047L135.984 0.675909C136.188 0.938389 136.271 1.29173 136.234 1.73592L135.984 2.31136C135.187 2.59403 134.343 2.75556 133.453 2.79594C132.563 2.83632 131.571 2.97766 130.477 3.21995L127.028 8.30802C127.455 8.59069 128.335 9.06518 129.67 9.73147L132.007 7.49029C132.544 6.6019 133.249 6.1577 134.12 6.1577L134.677 6.46057C134.881 6.78362 134.964 7.16724 134.927 7.61144L134.677 8.18688C130.078 12.0837 127.167 14.6984 125.943 16.031L136.457 15.5161L135.428 14.2744C135.205 13.9917 135.112 13.6384 135.15 13.2144L135.428 12.6087C135.724 12.3866 136.067 12.2957 136.457 12.3361L137.013 12.6087C137.588 13.1942 138.079 13.8554 138.487 14.5924C138.895 15.3294 139.498 16.1824 140.295 17.1516C140.722 17.5958 140.916 18.1308 140.879 18.7567L140.601 19.3322C140.36 19.5745 140.035 19.6754 139.628 19.635L139.099 19.3322L137.82 17.6967L131.617 18.151L131.784 26.7523L131.534 27.3277C131.274 27.57 130.94 27.671 130.533 27.6306ZM123.245 25.874L122.717 25.5711C122.494 25.2481 122.402 24.8746 122.439 24.4505C122.902 23.7843 123.329 23.1129 123.718 22.4365C124.108 21.7601 124.506 21.0585 124.914 20.3316C125.229 20.0288 125.61 19.9177 126.055 19.9985L126.583 20.3013C126.806 20.5638 126.898 20.9172 126.861 21.3614C126.361 22.1892 125.98 22.8403 125.721 23.3148C125.461 23.7893 124.97 24.5414 124.247 25.5711C123.987 25.8134 123.653 25.9144 123.245 25.874ZM139.21 25.3288L138.598 24.9654C138.079 24.5414 136.855 23.5823 134.927 22.0882C134.723 21.8056 134.64 21.4421 134.677 20.9979L134.927 20.3922C135.224 20.1297 135.585 20.0389 136.012 20.1196C136.735 20.4629 137.412 20.9374 138.042 21.5431C138.673 22.1488 139.386 22.7444 140.184 23.33C140.388 23.6328 140.471 24.0064 140.434 24.4505L140.184 25.026C139.924 25.2683 139.6 25.3692 139.21 25.3288Z" fill="#212529"/>
<path d="M100.356 27.5081C100.059 27.4678 99.7998 27.3466 99.5773 27.1447C99.3918 26.9024 99.2806 26.6197 99.2435 26.2967L99.1879 11.4262C96.8886 14.374 95.4655 16.2821 94.9185 17.1503C94.3715 18.0185 93.5974 19.0129 92.5961 20.1335C91.5948 21.254 90.9644 22.097 90.7048 22.6623C90.4452 22.9046 90.1114 23.0056 89.7035 22.9652L89.1472 22.6623C88.9618 22.3393 88.8506 21.9961 88.8135 21.6326C89.0731 20.9259 89.8797 19.7448 91.2332 18.0891C92.5868 16.4335 93.8431 14.7879 95.002 13.1525C96.1608 11.517 97.3336 9.89168 98.5203 8.27642H92.5405C91.6134 8.35718 90.7604 8.21585 89.9816 7.85241C89.7591 7.56974 89.6664 7.20631 89.7035 6.76211L89.9816 6.15639C90.7233 5.81315 91.5577 5.7021 92.4848 5.82324L99.0766 5.88381L99.021 2.00718C99.0581 1.68413 99.1693 1.40146 99.3548 1.15917C99.6143 0.916882 99.9481 0.815928 100.356 0.856309L100.912 1.15917L101.19 1.76489L101.246 5.82324H110.508L111.064 6.15639C111.287 6.43906 111.379 6.80249 111.342 7.24669L111.064 7.85241C110.36 8.17547 109.595 8.3269 108.77 8.30671C107.944 8.28652 105.492 8.25623 101.413 8.21585C101.932 8.82157 106.169 12.5569 114.124 19.4217C114.346 19.7044 114.439 20.0678 114.402 20.512L114.124 21.1178C113.827 21.4004 113.456 21.5014 113.011 21.4206C111.713 20.6937 107.829 17.3421 101.357 11.3656L101.469 26.539L101.19 27.1447C100.931 27.3466 100.653 27.4678 100.356 27.5081Z" fill="#212529"/>
<path d="M73.129 27.5994L72.5728 27.2965C72.3502 27.0138 72.2575 26.6504 72.2946 26.2062L72.6284 25.5399C73.1105 25.1361 73.5926 24.6919 74.0747 24.2073C74.5568 23.7227 75.113 23.4602 75.7435 23.4199L76.2997 23.7227C76.5223 24.0458 76.615 24.4294 76.5779 24.8736L76.2997 25.4793L74.2416 27.1148C73.9449 27.4782 73.574 27.6397 73.129 27.5994ZM83.3365 27.4176C82.7061 27.1753 82.0942 26.8826 81.5008 26.5393C80.9075 26.1961 80.3141 25.8428 79.7208 25.4793C79.4983 25.1966 79.4056 24.8332 79.4427 24.389L79.7208 23.7833C80.0546 23.5006 80.4439 23.3997 80.889 23.4804C81.4081 23.8035 81.9459 24.1164 82.5021 24.4193C83.0584 24.7222 83.6147 25.0149 84.1709 25.2976C84.3934 25.6207 84.4862 26.0043 84.4491 26.4485L84.1709 27.0542C83.9113 27.2561 83.6332 27.3773 83.3365 27.4176ZM66.2313 27.6296L65.675 27.3268C65.4896 27.0037 65.3969 26.6403 65.3969 26.2365L64.8963 13.6677C64.3214 14.9599 63.7374 16.2218 63.144 17.4535C62.5507 18.6851 61.9017 19.9067 61.1971 21.1181C60.9004 21.4614 60.5296 21.6128 60.0845 21.5724L59.5283 21.2393C59.3058 20.9566 59.213 20.5932 59.2501 20.149C60.1772 18.5337 61.0209 16.8377 61.7812 15.0609C62.5414 13.2841 63.2553 11.5073 63.9228 9.73051L60.7521 9.85166C60.4554 9.81128 60.1958 9.69013 59.9733 9.48822C59.7508 9.16517 59.6581 8.78155 59.6951 8.33735L59.9733 7.73163L60.5296 7.42876L64.7294 7.36819L64.6737 4.12757C63.7652 4.36986 62.9771 4.55158 62.3096 4.67272L61.5865 4.30929C61.364 4.02662 61.2712 3.66318 61.3083 3.21899L61.5865 2.61326C62.7361 2.12868 63.9274 1.77535 65.1605 1.55325C66.3935 1.33115 67.6405 1.11915 68.9014 0.917238L69.4577 1.2201C69.6802 1.50277 69.7729 1.8662 69.7358 2.3104L69.4577 2.91613C68.6418 3.27956 67.7703 3.50166 66.8432 3.58242L66.8988 7.1259C68.3451 6.96438 69.5504 6.9038 70.5146 6.94419L71.0708 7.24705C71.2933 7.52972 71.386 7.89315 71.349 8.33735L71.0708 8.94307C70.5516 9.22574 69.9861 9.35698 69.3742 9.33679C68.7623 9.3166 68.1782 9.36708 67.622 9.48822L70.0695 12.214C70.2921 12.537 70.3848 12.9207 70.3477 13.3649L70.0695 13.9706C69.81 14.2129 69.4762 14.3138 69.0683 14.2734L68.4564 13.91L67.0657 12.4563L67.5663 26.4788C67.5293 26.8018 67.418 27.0845 67.2326 27.3268C66.973 27.5691 66.6392 27.67 66.2313 27.6296ZM80.889 22.8747C76.5686 22.8343 74.1628 22.804 73.6714 22.7839C73.18 22.7637 72.9065 22.057 72.8509 20.6638L72.7396 14.2734C72.7953 13.587 73.0595 13.1831 73.5323 13.062C74.0051 12.9408 75.4329 12.8803 77.8156 12.8803C80.1983 12.8803 81.6631 12.9408 82.2101 13.062C82.7571 13.1831 83.0213 13.7889 83.0028 14.8792C82.9657 19.3211 82.9008 21.7945 82.8081 22.2993C82.7154 22.804 82.0757 22.9959 80.889 22.8747ZM80.6664 21.0575L80.7777 20.0278H75.0203L75.076 20.9667L80.6664 21.0575ZM80.8333 18.2712V17.3626H74.9647L75.0203 18.2712H80.8333ZM80.8333 15.606V15.0609L80.7777 14.8186L74.9091 14.758L74.9647 15.606H80.8333ZM72.2946 12.1534L71.7384 11.8505C71.5158 11.5275 71.4231 11.1439 71.4602 10.6997L71.7384 10.0939C72.5171 9.77089 73.3515 9.61946 74.2416 9.63965C75.1316 9.65984 76.0031 9.62956 76.856 9.5488L76.9116 8.09506L74.6866 8.15563C74.3899 8.11525 74.1303 7.99411 73.9078 7.7922C73.6853 7.50953 73.5926 7.14609 73.6297 6.7019L73.9078 6.09617C74.3157 5.83369 74.7793 5.71255 75.2985 5.73274C75.8176 5.75293 76.3183 5.74283 76.8004 5.70245V4.36986L73.4628 4.55158L72.9065 4.24872C72.684 3.92566 72.5913 3.54204 72.6284 3.09784L72.9065 2.49212C73.4999 2.16907 74.1396 2.00754 74.8256 2.00754C75.5117 2.00754 76.1885 1.98735 76.856 1.94697C76.8189 1.34124 76.9487 0.796094 77.2454 0.311515C77.505 0.0692255 77.8388 -0.0317284 78.2467 0.00865319L78.803 0.311515C79.1182 0.796094 79.2202 1.36144 79.1089 2.00754L83.2809 1.8864L83.8372 2.18926C84.0597 2.47193 84.1524 2.83536 84.1153 3.27956L83.8372 3.88528C83.3551 4.20834 82.7988 4.34967 82.1684 4.30929L78.9976 4.36986V5.64188L82.0571 5.58131L82.6134 5.88417C82.8359 6.22741 82.9286 6.62113 82.8915 7.06533L82.6134 7.67105L82.0571 7.97392H79.2202L79.0533 9.60937L83.4478 9.48822L84.0041 9.79108C84.2266 10.0738 84.3193 10.4372 84.2822 10.8814L84.0041 11.4871C83.2624 11.8102 82.465 11.9717 81.6121 11.9717L72.2946 12.1534Z" fill="#212529"/>
<path d="M42.7286 27.9334L40.5592 26.0557L40.5036 25.3288L40.7817 24.7231C41.0413 24.4808 41.375 24.3799 41.783 24.4202L42.228 24.602V23.3905L32.688 23.3299L32.1317 23.0271C31.9092 22.7444 31.8165 22.381 31.8536 21.9368L32.1317 21.331C32.688 20.9474 33.337 20.7758 34.0787 20.8162L41.8386 20.9979L41.2267 20.3316C40.7631 19.5644 40.7446 18.9788 41.1711 18.575L43.6187 17.2424L39.7248 17.3636C38.946 17.3636 38.2414 17.1818 37.611 16.8184C37.3885 16.5357 37.2957 16.1723 37.3328 15.7281L37.611 15.1224C37.9447 14.8397 38.3526 14.7388 38.8347 14.8195H47.0119C47.9205 15.1426 48.1986 15.607 47.8463 16.2127C46.7708 17.5049 45.4172 18.6356 43.7855 19.6047L44.1193 20.9373L52.5467 20.695L53.103 20.9979C53.3255 21.3008 53.4182 21.6743 53.3811 22.1185L53.103 22.7242C52.6209 23.0473 52.0832 23.1886 51.4898 23.1482L44.3974 23.3299C44.4345 24.1779 44.4067 24.925 44.314 25.5711C44.2213 26.2172 44.0405 26.8179 43.7716 27.3731C43.5028 27.9284 43.1551 28.1151 42.7286 27.9334ZM52.9918 17.1213C52.6951 17.0809 52.4355 16.9597 52.213 16.7578V16.6367H52.1017C51.8792 16.354 51.7865 15.9906 51.8236 15.5464L52.1574 13.7292L32.5211 13.8504L32.8549 16.0915L32.5767 16.6973C32.2801 16.9396 31.9278 17.0405 31.5198 17.0001L30.9636 16.6973C30.6669 16.0915 30.4907 15.4353 30.4351 14.7287C30.3795 14.022 30.3192 13.3002 30.2543 12.5632C30.1894 11.8262 30.3656 11.4224 30.7828 11.3518C31.2 11.2811 32.0946 11.2861 33.4668 11.3669L33.2443 2.49305C33.2072 1.66523 33.4204 1.1958 33.884 1.08475C34.3475 0.973697 34.9455 0.8576 35.6779 0.736455C36.4103 0.615311 37.1474 0.534548 37.8891 0.494166L38.4454 0.797028C38.6679 1.0797 38.7606 1.44313 38.7235 1.88733L38.4454 2.49305C38.0003 2.73534 36.9991 2.95744 35.4415 3.15935L35.4971 4.85537H38.4454C38.705 4.97652 38.8904 5.17843 39.0016 5.4611V5.97596C38.8904 6.25863 38.705 6.46054 38.4454 6.58168L35.5528 6.64226V7.91428H38.1116C38.3712 8.03542 38.5566 8.23733 38.6679 8.52V9.00458C38.5566 9.28725 38.3712 9.48916 38.1116 9.6103L35.6084 9.73145L35.7196 11.488L49.4316 11.3669V9.48916C48.486 9.6103 47.6238 9.48916 46.845 9.12572C46.6967 8.92382 46.641 8.66133 46.6781 8.33828C46.7894 8.05561 46.9748 7.8537 47.2344 7.73256H49.3204L49.237 6.58168L47.0119 6.7634L46.4 6.39997C46.2517 6.19806 46.196 5.92548 46.2331 5.58224L46.4556 5.15824C46.8635 4.95633 47.3086 4.84528 47.7907 4.82509C48.2728 4.8049 48.7549 4.7948 49.237 4.7948V3.09878L47.2344 2.97763L46.6781 2.67477C46.4185 2.35172 46.3073 1.9479 46.3444 1.46332L46.6225 0.8576C46.9933 0.574929 47.4384 0.473975 47.9575 0.554738C49.6078 0.756646 50.5998 0.867695 50.9336 0.887886C51.2673 0.908077 51.4342 1.24122 51.4342 1.88733L51.6011 11.3063C52.862 11.2256 53.7195 11.2861 54.1738 11.488C54.6281 11.69 54.6976 12.3058 54.3824 13.3355L53.8262 16.7578C53.5666 16.9597 53.2884 17.0809 52.9918 17.1213ZM44.2305 10.3372C43.6743 10.0141 43.118 9.65068 42.5617 9.24687C42.0055 9.85259 41.3194 10.1756 40.5036 10.216C40.244 10.0949 40.0585 9.89297 39.9473 9.6103V9.12572C40.0585 8.84305 40.244 8.64114 40.5036 8.52L41.1711 8.15657L40.6148 7.55084C40.4665 7.34893 40.4108 7.08645 40.4479 6.7634C40.5592 6.48073 40.7446 6.27882 41.0042 6.15768H41.5605L42.7286 7.00569C43.322 6.13749 44.0637 5.6832 44.9537 5.64281C45.2133 5.76396 45.3987 5.97596 45.51 6.27882V6.7634C45.3987 7.04607 44.9166 7.53065 44.0637 8.21714C44.5828 8.41905 45.0093 8.76229 45.3431 9.24687V9.73145C45.2318 10.0141 45.0464 10.216 44.7868 10.3372H44.2305ZM40.0585 4.97652C39.7989 4.85537 39.6135 4.65347 39.5023 4.3708V3.82564L40.0585 3.15935L41.0042 2.67477L40.4479 2.25076C40.2625 2.00847 40.1883 1.70561 40.2254 1.34218C40.3367 1.05951 40.5221 0.8576 40.7817 0.736455H41.338C41.7459 1.05951 42.1909 1.32199 42.673 1.5239C43.2293 0.797028 43.9339 0.433594 44.7868 0.433594C45.0464 0.554738 45.2318 0.756646 45.3431 1.03932V1.5239C45.2318 1.80657 44.8424 2.12962 44.1749 2.49305L44.6756 2.97763C44.8239 3.21992 44.8795 3.50259 44.8424 3.82564C44.7312 4.10831 44.5458 4.31022 44.2862 4.43137H43.8412L42.4505 3.7045C41.7459 4.3506 40.9486 4.77461 40.0585 4.97652Z" fill="#212529"/>
<path d="M22.0365 26.357C21.7398 26.3166 21.4617 26.1753 21.2021 25.933C20.4604 25.0042 19.6584 24.0805 18.7962 23.1618C17.934 22.2431 17.1877 21.279 16.5572 20.2695L16.5016 19.5426L16.7798 18.9369C17.0764 18.6946 17.4287 18.5936 17.8367 18.634L18.3929 18.9369C18.875 19.7849 19.4637 20.5723 20.1591 21.2992C20.8544 22.0261 21.7584 23.0255 22.8709 24.2975C23.0934 24.5802 23.1861 24.9436 23.149 25.3878L22.8709 25.9935C22.6113 26.1955 22.3332 26.3166 22.0365 26.357ZM5.01469 26.2358C4.71802 26.1955 4.45842 26.0743 4.23592 25.8724C4.01341 25.5493 3.9207 25.1657 3.95778 24.7215C4.79219 23.4697 5.43189 22.3945 5.87691 21.4961C6.32192 20.5976 6.72985 19.6839 7.1007 18.7552C7.39737 18.5129 7.74968 18.4119 8.15761 18.4523L8.71387 18.7552C8.93638 19.0378 9.02909 19.4013 8.99201 19.8455C8.65825 20.9358 8.21323 21.9705 7.65696 22.9498C7.1007 23.929 6.54443 24.9032 5.98816 25.8724C5.69148 26.0743 5.367 26.1955 5.01469 26.2358ZM1.56583 16.0294C1.26916 15.989 1.00956 15.8679 0.787057 15.666C0.56455 15.3429 0.471839 14.9593 0.508923 14.5151L0.787057 13.9094L1.34332 13.6065H7.26758L6.76694 7.85213C6.17358 7.81175 5.5756 7.78147 4.97297 7.76127C4.37035 7.74108 3.82799 7.58965 3.34589 7.30698C3.12338 7.00412 3.03067 6.63059 3.06776 6.18639L3.34589 5.58067C3.67965 5.298 4.08758 5.19705 4.56968 5.27781L6.65568 5.45953L6.60006 2.85492C6.63714 2.53186 6.74839 2.24919 6.93382 2.0069C7.19341 1.76461 7.52717 1.66366 7.9351 1.70404L8.49137 2.0069L8.7695 2.61263L8.82513 5.45953L15.556 5.33838V2.6732C15.5931 2.35015 15.7043 2.06748 15.8897 1.82519C16.1864 1.5829 16.5387 1.48194 16.9466 1.52233L17.5029 1.82519C17.7254 2.10786 17.8181 2.47129 17.781 2.91549L17.7254 5.33838H19.9783C20.3491 5.33838 20.6829 5.45953 20.9796 5.70182C21.2021 5.98449 21.2948 6.34792 21.2577 6.79212L20.9796 7.42813C20.6458 7.67042 20.2564 7.79156 19.8114 7.79156L17.6698 7.73099V13.6065L23.5384 13.4854L24.0947 13.7882C24.3172 14.1113 24.4099 14.4949 24.3728 14.9391L24.0947 15.5448C23.5384 15.8679 22.908 16.0092 22.2034 15.9688L1.56583 16.0294ZM15.4447 13.4854L15.5003 7.73099L8.93638 7.85213L9.54827 13.6671L15.4447 13.4854Z" fill="#212529"/>
</svg>
