<svg width="240" height="36" viewBox="0 0 240 36" fill="none" xmlns="http://www.w3.org/2000/svg">
<rect width="240" height="20" transform="translate(0 15.5)" fill="#FEE6B2"/>
<path d="M211.553 34.9387C211.139 34.8867 210.777 34.731 210.467 34.4714C210.156 34.1079 210.027 33.6407 210.079 33.0696L210.467 32.2908C211.191 31.9274 211.935 31.2913 212.698 30.3828C213.461 29.4742 214.296 28.5656 215.201 27.657C216.107 26.7484 216.818 25.5932 217.336 24.1914L213.688 21.6993C213.351 21.284 213.209 20.7908 213.261 20.2196L213.688 19.4409C214.102 19.1293 214.593 18.9996 215.163 19.0515C215.783 19.2591 216.379 19.5836 216.948 20.0249C217.517 20.4663 218.086 20.8946 218.655 21.3099C219.069 20.0639 219.444 18.7789 219.781 17.455C220.117 16.131 220.441 14.8201 220.751 13.5221L213.416 13.4442C212.899 14.7422 212.329 16.0142 211.708 17.2603C211.088 18.5063 210.467 19.7524 209.846 20.9984C209.432 21.3619 208.94 21.5176 208.371 21.4657L207.595 21.0763C207.284 20.7129 207.155 20.2456 207.207 19.6745C208.293 17.3901 209.328 15.1056 210.311 12.8212C211.295 10.5368 211.967 8.13553 212.329 5.61746H208.371C207.646 5.66938 207 5.48766 206.43 5.07231C206.12 4.70888 205.991 4.24161 206.042 3.6705L206.43 2.89172C207 2.47637 207.724 2.37253 208.604 2.5802L223.856 2.65808L224.632 3.04747C224.942 3.41091 225.072 3.87818 225.02 4.44928L224.632 5.22807C224.27 5.48766 223.882 5.64342 223.468 5.69534H215.473C215.318 6.47412 215.15 7.27237 214.968 8.0901C214.787 8.90782 214.619 9.70607 214.464 10.4849H223.08C224.296 10.5627 224.684 11.2377 224.244 12.5097C223.468 15.8844 222.51 19.2332 221.372 22.556C220.234 25.8788 218.921 28.3969 217.433 30.1102C215.945 31.8235 214.619 33.1474 213.455 34.082C212.912 34.5493 212.278 34.8348 211.553 34.9387ZM238.215 34.1599C237.232 33.9003 236.288 33.4979 235.382 32.9528C234.477 32.4076 233.571 31.8754 232.666 31.3562C232.355 30.9928 232.226 30.5255 232.277 29.9544L232.666 29.1757C233.105 28.8641 233.61 28.7343 234.179 28.7863L236.74 30.1102L236.158 3.6705C236.21 3.25515 236.365 2.89172 236.624 2.5802C236.986 2.26869 237.452 2.13889 238.021 2.19081L238.797 2.5802C239.16 3.56666 239.354 4.631 239.38 5.77322C239.405 6.91543 239.612 15.9623 240 32.9138C239.768 34.1079 239.173 34.5233 238.215 34.1599ZM228.823 21.2321L228.047 20.8427C227.788 20.5312 227.633 20.1677 227.581 19.7524L227.504 6.94139C227.4 5.64342 227.581 4.44928 228.047 3.35899C228.409 3.04747 228.875 2.91768 229.444 2.9696L230.221 3.35899C230.634 4.39737 230.738 5.5915 230.531 6.94139L230.609 20.0639L230.221 20.8427C229.858 21.1542 229.393 21.284 228.823 21.2321Z" fill="#212529"/>
<path d="M181.438 35.5238L180.701 35.1344C180.338 33.8883 180.157 32.5579 180.157 31.1431C180.157 29.7283 180.105 27.1778 180.002 23.4916C176.638 23.4916 174.394 23.5435 173.269 23.6473C172.143 23.7512 171.199 23.8031 170.435 23.8031C169.672 23.8031 169.142 23.6538 168.844 23.3553C168.547 23.0567 168.463 22.6284 168.592 22.0703C168.721 21.5122 169.103 20.98 169.737 20.4738C170.371 19.9676 172.835 17.9882 177.13 14.5356C175.215 13.3933 174.019 12.6275 173.54 12.2381C173.062 11.8488 172.984 11.2517 173.307 10.4469C173.631 9.6422 174.187 8.74011 174.976 7.74067C175.765 6.74123 176.509 5.7353 177.208 4.72288C176.147 4.87864 175.254 5.06036 174.53 5.26803C173.805 5.47571 173.068 5.6704 172.318 5.85212C171.93 5.8002 171.58 5.65742 171.27 5.42379C170.959 5.00844 170.83 4.52819 170.882 3.98304L171.27 3.20426C174.012 2.3476 176.813 1.71808 179.672 1.31571C182.531 0.913336 185.396 0.634272 188.268 0.478516L189.045 0.867907C189.329 1.20538 189.446 1.65967 189.394 2.23078L189.045 2.97062C187.932 3.33405 186.755 3.54173 185.513 3.59365C184.271 3.64557 182.887 3.82728 181.36 4.1388L176.548 10.6806C177.143 11.044 178.372 11.6541 180.235 12.5107L183.495 9.62922C184.245 8.487 185.228 7.9159 186.444 7.9159L187.22 8.30529C187.505 8.72064 187.621 9.21387 187.57 9.78497L187.22 10.5248C180.804 15.535 176.742 18.8967 175.034 20.6101L189.704 19.9481L188.268 18.3516C187.958 17.9882 187.828 17.5339 187.88 16.9887L188.268 16.2099C188.682 15.9244 189.161 15.8076 189.704 15.8595L190.48 16.2099C191.283 16.9628 191.968 17.8129 192.537 18.7605C193.107 19.708 193.947 20.8048 195.06 22.0508C195.655 22.6219 195.927 23.3098 195.875 24.1146L195.487 24.8544C195.15 25.1659 194.698 25.2957 194.129 25.2438L193.391 24.8544L191.606 22.7517L182.951 23.3358L183.184 34.3945L182.835 35.1344C182.473 35.4459 182.007 35.5757 181.438 35.5238ZM171.27 33.2653L170.532 32.8759C170.222 32.4605 170.093 31.9803 170.144 31.4351C170.791 30.5785 171.386 29.7153 171.93 28.8457C172.473 27.9761 173.029 27.074 173.598 26.1394C174.038 25.75 174.569 25.6073 175.19 25.7111L175.927 26.1005C176.237 26.438 176.367 26.8922 176.315 27.4634C175.616 28.5277 175.086 29.3649 174.724 29.9749C174.362 30.585 173.676 31.552 172.667 32.8759C172.305 33.1874 171.839 33.3172 171.27 33.2653ZM193.546 32.5644L192.693 32.0971C191.968 31.552 190.261 30.3189 187.57 28.3979C187.285 28.0345 187.169 27.5672 187.22 26.9961L187.57 26.2173C187.984 25.8798 188.488 25.763 189.083 25.8668C190.092 26.3082 191.037 26.9182 191.916 27.697C192.796 28.4758 193.792 29.2416 194.905 29.9944C195.189 30.3838 195.306 30.864 195.254 31.4351L194.905 32.175C194.542 32.4865 194.09 32.6163 193.546 32.5644Z" fill="#212529"/>
<path d="M139.331 35.3674C138.917 35.3155 138.555 35.1598 138.245 34.9002C137.986 34.5887 137.831 34.2252 137.779 33.8099L137.701 14.6907C134.493 18.4808 132.507 20.934 131.744 22.0502C130.981 23.1665 129.901 24.445 128.504 25.8857C127.107 27.3265 126.227 28.4103 125.865 29.1372C125.502 29.4487 125.037 29.5785 124.467 29.5266L123.691 29.1372C123.433 28.7218 123.277 28.2805 123.226 27.8132C123.588 26.9047 124.713 25.386 126.602 23.2574C128.491 21.1287 130.244 19.013 131.861 16.9103C133.478 14.8076 135.114 12.7178 136.77 10.6411H128.426C127.132 10.7449 125.942 10.5632 124.856 10.0959C124.545 9.73248 124.416 9.26521 124.467 8.69411L124.856 7.91532C125.89 7.47401 127.055 7.33124 128.348 7.48699L137.546 7.56487L137.469 2.58066C137.52 2.16531 137.676 1.80187 137.934 1.49036C138.297 1.17885 138.762 1.04905 139.331 1.10097L140.108 1.49036L140.496 2.26914L140.573 7.48699H153.497L154.273 7.91532C154.583 8.27876 154.713 8.74603 154.661 9.31713L154.273 10.0959C153.29 10.5113 152.223 10.706 151.071 10.68C149.92 10.654 146.498 10.6151 140.806 10.5632C141.531 11.342 147.443 16.1445 158.542 24.9707C158.853 25.3341 158.982 25.8014 158.93 26.3725L158.542 27.1513C158.128 27.5147 157.611 27.6445 156.99 27.5407C155.179 26.6061 149.758 22.2969 140.729 14.6129L140.884 34.1214L140.496 34.9002C140.134 35.1598 139.745 35.3155 139.331 35.3674Z" fill="#212529"/>
<path d="M101.338 35.4847L100.562 35.0953C100.251 34.7319 100.122 34.2646 100.174 33.6935L100.639 32.8368C101.312 32.3177 101.985 31.7465 102.657 31.1235C103.33 30.5005 104.106 30.163 104.986 30.1111L105.762 30.5005C106.073 30.9158 106.202 31.4091 106.15 31.9802L105.762 32.759L102.89 34.8617C102.476 35.3289 101.959 35.5366 101.338 35.4847ZM115.581 35.2511C114.701 34.9396 113.847 34.5631 113.019 34.1218C112.192 33.6805 111.364 33.2262 110.536 32.759C110.225 32.3955 110.096 31.9283 110.148 31.3572L110.536 30.5784C111.001 30.2149 111.545 30.0851 112.166 30.189C112.89 30.6043 113.64 31.0067 114.417 31.3961C115.193 31.7855 115.969 32.1619 116.745 32.5253C117.056 32.9407 117.185 33.4339 117.133 34.005L116.745 34.7838C116.383 35.0434 115.995 35.1991 115.581 35.2511ZM91.7132 35.5236L90.937 35.1343C90.6782 34.7189 90.5489 34.2516 90.5489 33.7324L89.8503 17.5727C89.0483 19.2341 88.2333 20.8566 87.4053 22.4401C86.5774 24.0236 85.6718 25.5942 84.6887 27.1517C84.2747 27.593 83.7573 27.7877 83.1363 27.7358L82.3601 27.3075C82.0496 26.944 81.9203 26.4768 81.972 25.9057C83.2657 23.8289 84.4429 21.6483 85.5037 19.3639C86.5645 17.0795 87.5606 14.795 88.492 12.5106L84.0677 12.6664C83.6538 12.6144 83.2915 12.4587 82.9811 12.1991C82.6706 11.7837 82.5412 11.2905 82.593 10.7194L82.9811 9.94061L83.7573 9.55122L89.6175 9.47334L89.5398 5.30685C88.2721 5.61836 87.1725 5.852 86.241 6.00776L85.232 5.54049C84.9215 5.17705 84.7922 4.70978 84.8439 4.13868L85.232 3.35989C86.8361 2.73687 88.4985 2.28258 90.219 1.99702C91.9395 1.71147 93.6795 1.43889 95.4389 1.1793L96.215 1.56869C96.5255 1.93212 96.6549 2.39939 96.6031 2.9705L96.215 3.74928C95.0766 4.21655 93.8606 4.50211 92.567 4.60595L92.6446 9.16183C94.6627 8.95415 96.3444 8.87627 97.6898 8.92819L98.466 9.31759C98.7764 9.68102 98.9058 10.1483 98.8541 10.7194L98.466 11.4982C97.7415 11.8616 96.9524 12.0303 96.0986 12.0044C95.2448 11.9784 94.4298 12.0433 93.6536 12.1991L97.0688 15.7036C97.3793 16.119 97.5087 16.6122 97.4569 17.1833L97.0688 17.9621C96.7066 18.2736 96.2409 18.4034 95.6717 18.3515L94.8179 17.8842L92.8774 16.0151L93.576 34.044C93.5243 34.4593 93.369 34.8227 93.1103 35.1343C92.7481 35.4458 92.2824 35.5756 91.7132 35.5236ZM112.166 29.4102C106.137 29.3583 102.78 29.3193 102.095 29.2934C101.409 29.2674 101.027 28.3588 100.95 26.5676L100.795 18.3515C100.872 17.4689 101.241 16.9497 101.901 16.7939C102.56 16.6381 104.553 16.5603 107.877 16.5603C111.202 16.5603 113.246 16.6381 114.009 16.7939C114.772 16.9497 115.141 17.7284 115.115 19.1303C115.063 24.8413 114.973 28.0214 114.843 28.6703C114.714 29.3193 113.822 29.5659 112.166 29.4102ZM111.855 27.0738L112.01 25.7499H103.977L104.055 26.957L111.855 27.0738ZM112.088 23.4914V22.3233H103.899L103.977 23.4914H112.088ZM112.088 20.0648V19.3639L112.01 19.0524L103.822 18.9745L103.899 20.0648H112.088ZM100.174 15.6257L99.3974 15.2363C99.0869 14.821 98.9576 14.3278 99.0093 13.7567L99.3974 12.9779C100.484 12.5625 101.648 12.3678 102.89 12.3938C104.132 12.4197 105.348 12.3808 106.538 12.277L106.616 10.4079L103.511 10.4858C103.097 10.4338 102.735 10.2781 102.425 10.0185C102.114 9.65506 101.985 9.18779 102.036 8.61668L102.425 7.8379C102.994 7.50042 103.641 7.34467 104.365 7.37063C105.089 7.39659 105.788 7.38361 106.461 7.33169V5.61836L101.804 5.852L101.027 5.46261C100.717 5.04726 100.588 4.55403 100.639 3.98292L101.027 3.20414C101.855 2.78879 102.748 2.58111 103.705 2.58111C104.663 2.58111 105.607 2.55515 106.538 2.50323C106.487 1.72445 106.668 1.02354 107.082 0.400517C107.444 0.0890038 107.91 -0.0407934 108.479 0.0111255L109.255 0.400517C109.695 1.02354 109.837 1.75041 109.682 2.58111L115.503 2.42535L116.279 2.81475C116.59 3.17818 116.719 3.64545 116.668 4.21656L116.279 4.99534C115.607 5.41069 114.831 5.59241 113.951 5.54049L109.527 5.61836V7.25381L113.796 7.17593L114.572 7.56532C114.882 8.00663 115.012 8.51284 114.96 9.08395L114.572 9.86273L113.796 10.2521H109.837L109.604 12.3548L115.736 12.1991L116.512 12.5885C116.823 12.9519 116.952 13.4192 116.9 13.9903L116.512 14.7691C115.477 15.1844 114.365 15.3921 113.175 15.3921L100.174 15.6257Z" fill="#212529"/>
<path d="M58.9223 35.9134L55.8952 33.4992L55.8176 32.5646L56.2056 31.7858C56.5679 31.4743 57.0336 31.3445 57.6028 31.3965L58.2237 31.6301V30.0725L44.9121 29.9946L44.136 29.6053C43.8255 29.2418 43.6961 28.7746 43.7479 28.2034L44.136 27.4247C44.9121 26.9314 45.8177 26.7108 46.8526 26.7627L57.6804 26.9963L56.8266 26.1397C56.1798 25.1532 56.1539 24.4004 56.749 23.8812L60.1642 22.1679L54.7309 22.3236C53.6442 22.3236 52.6611 22.09 51.7814 21.6227C51.4709 21.2593 51.3416 20.792 51.3933 20.2209L51.7814 19.4421C52.2471 19.0787 52.8163 18.9489 53.489 19.0527H64.8989C66.1667 19.4681 66.5548 20.0652 66.0632 20.8439C64.5626 22.5053 62.6739 23.9591 60.3971 25.2051L60.8628 26.9185L72.622 26.6069L73.3982 26.9963C73.7086 27.3857 73.838 27.866 73.7863 28.4371L73.3982 29.2159C72.7255 29.6312 71.9752 29.8129 71.1472 29.761L61.2509 29.9946C61.3026 31.0849 61.2638 32.0454 61.1344 32.8761C61.0051 33.7068 60.7528 34.4791 60.3776 35.193C60.0025 35.9069 59.5174 36.147 58.9223 35.9134ZM73.2429 22.0121C72.829 21.9602 72.4667 21.8044 72.1563 21.5449V21.3891H72.001C71.6906 21.0257 71.5612 20.5584 71.6129 19.9873L72.0786 17.6509L44.6793 17.8067L45.145 20.6882L44.7569 21.467C44.3429 21.7785 43.8514 21.9083 43.2822 21.8564L42.506 21.467C42.092 20.6882 41.8462 19.8445 41.7686 18.9359C41.691 18.0273 41.6069 17.0993 41.5163 16.1518C41.4258 15.2043 41.6716 14.6851 42.2537 14.5942C42.8358 14.5034 44.0842 14.5098 45.9988 14.6137L45.6883 3.2045C45.6366 2.14017 45.9341 1.53661 46.5809 1.39383C47.2278 1.25106 48.0622 1.10179 49.0841 0.946032C50.1061 0.790276 51.1346 0.686438 52.1695 0.634519L52.9457 1.02391C53.2561 1.38734 53.3855 1.85461 53.3338 2.42572L52.9457 3.2045C52.3247 3.51602 50.9276 3.80157 48.7543 4.06117L48.8319 6.24176H52.9457C53.3079 6.39751 53.5666 6.65711 53.7219 7.02054V7.68251C53.5666 8.04594 53.3079 8.30553 52.9457 8.46129L48.9095 8.53917V10.1746H52.48C52.8422 10.3304 53.1009 10.59 53.2561 10.9534V11.5764C53.1009 11.9399 52.8422 12.1994 52.48 12.3552L48.9871 12.511L49.1424 14.7694L68.2753 14.6137V12.1994C66.9558 12.3552 65.7527 12.1994 64.6661 11.7322C64.4591 11.4726 64.3815 11.1351 64.4332 10.7198C64.5885 10.3563 64.8472 10.0967 65.2094 9.94098H68.1201L68.0037 8.46129L64.8989 8.69493L64.0451 8.22766C63.8381 7.96806 63.7605 7.61761 63.8123 7.1763L64.1227 6.63115C64.6919 6.37156 65.3129 6.22878 65.9856 6.20282C66.6583 6.17686 67.331 6.16388 68.0037 6.16388V3.98329L65.2094 3.82753L64.4332 3.43814C64.071 3.02279 63.9158 2.5036 63.9675 1.88057L64.3556 1.10179C64.8731 0.738357 65.494 0.60856 66.2184 0.712397C68.5211 0.971992 69.9053 1.11477 70.371 1.14073C70.8368 1.16669 71.0696 1.59502 71.0696 2.42572L71.3025 14.5358C73.0618 14.432 74.2584 14.5098 74.8923 14.7694C75.5262 15.029 75.6232 15.8208 75.1834 17.1447L74.4072 21.5449C74.045 21.8044 73.6569 21.9602 73.2429 22.0121ZM61.018 13.2897C60.2418 12.8744 59.4656 12.4071 58.6894 11.8879C57.9133 12.6667 56.956 13.0821 55.8176 13.134C55.4553 12.9782 55.1966 12.7186 55.0414 12.3552V11.7322C55.1966 11.3687 55.4553 11.1092 55.8176 10.9534L56.749 10.4861L55.9728 9.70734C55.7658 9.44775 55.6882 9.11028 55.7399 8.69493C55.8952 8.33149 56.1539 8.0719 56.5161 7.91614H57.2923L58.9223 9.00644C59.7502 7.89018 60.7851 7.3061 62.027 7.25418C62.3893 7.40993 62.648 7.68251 62.8032 8.0719V8.69493C62.648 9.05836 61.9753 9.68138 60.7851 10.564C61.5096 10.8236 62.1047 11.2649 62.5704 11.8879V12.511C62.4151 12.8744 62.1564 13.134 61.7942 13.2897H61.018ZM55.1966 6.39751C54.8344 6.24176 54.5757 5.98216 54.4204 5.61873V4.91783L55.1966 4.06117L56.5161 3.43814L55.7399 2.89299C55.4812 2.58148 55.3777 2.19209 55.4295 1.72482C55.5847 1.36138 55.8434 1.10179 56.2056 0.946032H56.9818C57.551 1.36138 58.172 1.69886 58.8447 1.95845C59.6209 1.02391 60.604 0.556641 61.7942 0.556641C62.1564 0.712397 62.4151 0.971992 62.5704 1.33542V1.95845C62.4151 2.32188 61.8718 2.73723 60.9404 3.2045L61.6389 3.82753C61.8459 4.13904 61.9236 4.50248 61.8718 4.91783C61.7166 5.28126 61.4578 5.54085 61.0956 5.69661H60.4747L58.5342 4.76207C57.551 5.59277 56.4385 6.13792 55.1966 6.39751Z" fill="#212529"/>
<path d="M30.0495 33.8885C29.6355 33.8366 29.2474 33.6549 28.8852 33.3434C27.8503 32.1492 26.7313 30.9616 25.5282 29.7804C24.3251 28.5993 23.2837 27.3597 22.404 26.0617L22.3264 25.1272L22.7145 24.3484C23.1285 24.0369 23.6201 23.9071 24.1893 23.959L24.9655 24.3484C25.6382 25.4387 26.4596 26.4511 27.4299 27.3857C28.4001 28.3202 29.6614 29.6052 31.2138 31.2406C31.5242 31.6041 31.6536 32.0713 31.6019 32.6425L31.2138 33.4212C30.8515 33.6808 30.4634 33.8366 30.0495 33.8885ZM6.29819 33.7327C5.88423 33.6808 5.52201 33.5251 5.21153 33.2655C4.90106 32.8501 4.77169 32.3569 4.82344 31.7858C5.98772 30.1763 6.88033 28.794 7.50128 27.6388C8.12223 26.4836 8.69143 25.3089 9.20889 24.1148C9.62286 23.8033 10.1144 23.6735 10.6836 23.7254L11.4598 24.1148C11.7703 24.4782 11.8997 24.9455 11.8479 25.5166C11.3822 26.9184 10.7613 28.2488 9.98508 29.5078C9.20889 30.7669 8.4327 32.0194 7.65652 33.2655C7.24255 33.5251 6.78978 33.6808 6.29819 33.7327ZM1.48584 20.6102C1.07188 20.5583 0.709656 20.4026 0.399181 20.143C0.0887069 19.7276 -0.0406574 19.2344 0.0110884 18.6633L0.399181 17.8845L1.17537 17.4951H9.44175L8.74318 10.0967C7.91525 10.0448 7.08085 10.0058 6.23998 9.97986C5.39911 9.9539 4.64233 9.7592 3.96964 9.39577C3.65916 9.00638 3.5298 8.52613 3.58154 7.95502L3.96964 7.17624C4.43535 6.81281 5.00455 6.68301 5.67725 6.78685L8.58794 7.02048L8.51032 3.67171C8.56207 3.25636 8.71731 2.89293 8.97603 2.58142C9.33826 2.2699 9.80397 2.14011 10.3732 2.19203L11.1494 2.58142L11.5374 3.3602L11.6151 7.02048L21.0069 6.86473V3.43808C21.0587 3.02273 21.2139 2.6593 21.4726 2.34778C21.8866 2.03627 22.3782 1.90647 22.9474 1.95839L23.7236 2.34778C24.034 2.71121 24.1634 3.17848 24.1117 3.74959L24.034 6.86473H27.1776C27.695 6.86473 28.1608 7.02048 28.5747 7.332C28.8852 7.69543 29.0146 8.1627 28.9628 8.73381L28.5747 9.55153C28.109 9.86304 27.5657 10.0188 26.9447 10.0188L23.9564 9.94092V17.4951L32.1452 17.3394L32.9214 17.7288C33.2318 18.1441 33.3612 18.6373 33.3095 19.2084L32.9214 19.9872C32.1452 20.4026 31.2655 20.5843 30.2823 20.5324L1.48584 20.6102ZM20.8517 17.3394L20.9293 9.94092L11.7703 10.0967L12.6241 17.573L20.8517 17.3394Z" fill="#212529"/>
</svg>
