<svg width="160" height="36" viewBox="0 0 160 36" fill="none" xmlns="http://www.w3.org/2000/svg">
<rect width="160" height="20" transform="translate(0 16)" fill="#FEE6B2"/>
<path d="M135.857 34.9357C135.094 35.0658 134.587 34.591 134.337 33.5114C134.087 32.4319 133.883 29.6158 133.725 25.0633L130.289 28.107C129.762 28.7053 129.104 28.9785 128.314 28.9264L127.524 28.5362C127.208 28.146 127.076 27.6647 127.129 27.0924L127.524 26.312C129.946 24.1268 132.54 21.8636 135.304 19.5223L126.892 19.7564L126.102 19.3662C125.786 18.95 125.655 18.4557 125.707 17.8834L126.102 17.103C126.734 16.7388 127.445 16.5567 128.235 16.5567L141.94 16.4006L141.861 12.9667L134.988 13.1228L134.199 12.7326C133.883 12.3684 133.751 11.9001 133.804 11.3278L134.199 10.5474C134.831 10.1311 135.541 9.92303 136.331 9.92303H141.861L141.782 7.38664L130.131 7.62077C129.709 7.56874 129.341 7.41266 129.025 7.15251C128.709 6.78831 128.577 6.32006 128.63 5.74774L129.025 4.96732C129.341 4.70717 129.709 4.55109 130.131 4.49906L141.624 4.34297L141.545 1.61148L141.94 0.83105C142.361 0.518879 142.861 0.388808 143.44 0.440836L144.23 0.83105C144.599 1.92365 144.757 3.09429 144.704 4.34297L156.434 4.26493C156.855 4.31696 157.25 4.47305 157.619 4.73319C157.935 5.09739 158.067 5.56564 158.014 6.13796L157.619 6.91838C157.198 7.23056 156.724 7.38664 156.197 7.38664H144.862L144.941 9.92303H151.655L152.445 10.3132C152.761 10.6774 152.893 11.1457 152.84 11.718L152.445 12.4984C152.077 12.7586 151.682 12.9147 151.26 12.9667H144.941L145.02 16.4006H158.409L159.199 16.7908C159.515 17.155 159.646 17.6232 159.594 18.1956L159.199 18.976C158.83 19.2361 158.435 19.3922 158.014 19.4442H139.965L136.805 22.4099L137.042 30.4093C137.832 30.0971 138.53 29.7329 139.135 29.3167C139.741 28.9004 140.412 28.6923 141.15 28.6923L141.94 29.0825C142.256 29.4467 142.387 29.915 142.335 30.4873L141.94 31.2677L135.857 34.9357ZM157.935 34.8577C155.302 34.1813 152.728 33.2318 150.214 32.0091C147.699 30.7865 144.494 28.5232 140.597 25.2194C140.281 24.8032 140.149 24.3089 140.202 23.7366L140.597 22.9562C141.018 22.592 141.545 22.4619 142.177 22.566L143.44 23.2683C145.389 25.1414 146.705 26.234 147.39 26.5461L151.892 22.722C152.524 22.0977 153.301 21.7855 154.222 21.7855L155.012 22.1757C155.328 22.5399 155.46 23.0082 155.407 23.5805L155.012 24.3609C154.117 24.9333 152.524 26.377 150.233 28.6923C151.708 29.4207 153.229 30.0841 154.795 30.6824C156.362 31.2807 157.961 31.788 159.594 32.2042C159.91 32.5684 160.041 33.0367 159.989 33.609L159.594 34.3894C159.12 34.7016 158.567 34.8577 157.935 34.8577Z" fill="#212529"/>
<path d="M102.723 35.9889L101.933 35.5596C101.512 34.8312 101.341 33.9727 101.42 32.9842V25.9213C97.786 25.9213 94.8305 25.9994 92.5529 26.1555C90.2754 26.3116 88.0308 26.5067 85.8191 26.7408L85.0292 26.3506C84.7132 25.9604 84.5947 25.4921 84.6737 24.9458L85.0687 24.1654C86.2272 23.6971 87.4976 23.437 88.8799 23.385C90.2622 23.3329 91.6116 23.2549 92.9281 23.1508C92.6122 19.1446 92.441 16.5172 92.4147 15.2685C92.3357 14.332 92.7109 13.8182 93.5403 13.7272C94.3697 13.6361 95.4821 13.6101 96.8776 13.6491C98.2731 13.6881 99.6686 13.6426 101.064 13.5125L101.025 9.29824L92.4147 9.18117C92.1251 10.2217 91.7235 11.2298 91.2101 12.2053C90.6967 13.1809 90.1372 14.1369 89.5316 15.0734C89.1103 15.4376 88.61 15.5937 88.0308 15.5417L87.2409 15.1124C86.9249 14.7482 86.7933 14.28 86.8459 13.7077C88.1361 11.7046 89.1366 9.55838 89.8475 7.26912C90.5584 4.97987 91.1377 2.69062 91.5853 0.401363C91.9539 0.0891917 92.4279 -0.0408795 93.0071 0.011149L93.797 0.401363C94.1656 0.947662 94.2841 1.58501 94.1525 2.31341L93.4021 6.17653L112.241 6.1375L113.031 6.52772C113.347 6.89192 113.465 7.36017 113.386 7.93249L112.991 8.75194C112.623 9.01208 112.228 9.15516 111.807 9.18117L104.184 9.33726L104.145 13.5516C105.04 13.5516 105.929 13.5711 106.811 13.6101C107.693 13.6491 108.529 13.8377 109.318 14.1759C109.634 14.5401 109.766 15.0084 109.713 15.5807L109.318 16.3611C108.608 16.7513 107.805 16.8944 106.909 16.7903L104.066 16.5952L104.224 22.7606L116.507 22.6045L117.296 22.9947C117.612 23.3589 117.744 23.8272 117.691 24.3995L117.296 25.1799C116.928 25.4401 116.52 25.5962 116.072 25.6482L104.5 25.8043L104.54 34.8182L104.145 35.5986C103.776 35.9108 103.302 36.0409 102.723 35.9889ZM101.143 22.8777L100.985 16.5562L95.5348 16.7123L96.1667 22.8777H101.143Z" fill="#212529"/>
<path d="M68.1664 35.9503L67.3765 35.5601C67.1132 35.1959 66.9553 34.7796 66.9026 34.3114L66.9816 27.5217L59.5566 27.5997C58.1348 27.6517 56.8446 27.4306 55.6861 26.9363C55.3701 26.5721 55.2385 26.1039 55.2911 25.5316L55.6861 24.7511C56.318 24.3349 57.0816 24.2048 57.9768 24.3609L58.7272 24.4L61.6103 19.054C59.4513 18.95 58.1743 18.8199 57.7793 18.6638C57.3844 18.5077 57.1869 18.1045 57.1869 17.4542C57.1869 16.8038 57.0816 13.1098 56.8709 6.37208C56.9236 5.43557 57.4765 4.86326 58.5297 4.65514H62.5582L64.7699 0.83105C65.1912 0.518879 65.6914 0.388808 66.2707 0.440836L67.0606 0.83105C67.3765 1.19525 67.5082 1.66351 67.4555 2.23582C66.9816 3.22436 66.4287 4.05682 65.7968 4.73319C70.3518 4.73319 72.8992 4.78522 73.439 4.88927C73.9788 4.99333 74.3342 5.34452 74.5054 5.94285C74.6765 6.54118 74.6897 8.49225 74.5449 11.7961C74.4 15.0999 74.2552 17.155 74.1104 17.9614C73.9656 18.7679 73.5772 19.2036 72.9453 19.2686C72.3134 19.3337 71.3655 19.2882 70.1017 19.1321L70.0227 24.3609L76.1839 24.7511L77.0528 25.2194C77.3687 25.6356 77.5004 26.1299 77.4477 26.7022L77.0528 27.5217C76.5788 27.8338 76.0522 27.9899 75.473 27.9899L70.1017 27.5997V34.5455L69.6278 35.5601C69.2591 35.8722 68.772 36.0023 68.1664 35.9503ZM42.1394 35.404L41.3495 35.0138C41.0335 34.6496 40.9019 34.1813 40.9545 33.609C41.7971 29.4727 42.3368 25.5316 42.5738 21.7855C42.8108 18.0395 42.9753 14.8527 43.0675 12.2253C43.1596 9.59785 43.1662 6.78831 43.0872 3.79667C43.1399 3.38045 43.2979 3.01625 43.5612 2.70408C43.9298 2.3919 44.4037 2.26183 44.983 2.31386L45.7729 2.70408C46.1415 3.17233 46.2995 3.71863 46.2468 4.34297L46.1678 10.1572H49.7619C49.8672 5.29249 50.0515 2.70408 50.3148 2.3919C50.6834 2.07973 51.1573 1.94966 51.7366 2.00169L52.5265 2.3919C52.8951 2.80813 53.0531 3.32842 53.0004 3.95276L52.8425 10.1572C53.843 10.0011 54.7119 10.1311 55.4491 10.5474C55.7651 10.9116 55.8967 11.3798 55.8441 11.9521L55.4491 12.7326C55.0805 12.9927 54.6855 13.1488 54.2643 13.2008H46.0888L45.8519 18.2736L53.7113 18.1175C54.6066 18.1175 55.0015 18.976 54.8962 20.6929L54.7382 33.609L54.3433 34.3894C53.9746 34.7016 53.5007 34.8317 52.9214 34.7796L52.1316 34.3894C51.8683 34.0773 51.7103 33.7131 51.6576 33.2968V21.2392L45.6939 21.3173C45.4833 23.6065 45.2726 25.9153 45.062 28.2436C44.8513 30.5718 44.3774 32.8026 43.6402 34.9357C43.2189 35.2999 42.7186 35.456 42.1394 35.404ZM66.9026 24.439L66.9816 19.054H64.9279L62.0842 24.517L66.9026 24.439ZM71.0496 16.0884L71.2075 13.435L67.3765 13.3569L67.4555 16.0104L71.0496 16.0884ZM64.296 16.0104V13.2008L60.2675 13.0447L60.4255 15.9323L64.296 16.0104ZM71.2865 10.3913L71.4445 8.01098L67.2186 7.77685L67.3765 10.3132L71.2865 10.3913ZM64.296 10.1572L64.138 7.77685L60.0305 7.69881L60.1095 10.0011L64.296 10.1572Z" fill="#212529"/>
<path d="M2.92262 33.3751C1.86942 33.3491 1.277 33.1215 1.14535 32.6923C1.0137 32.263 0.631917 28.1853 0 20.4591C0.0789896 19.2364 0.467355 18.5535 1.1651 18.4104C1.86284 18.2674 6.43765 18.2218 14.8895 18.2739C15.7848 18.456 16.2455 18.7616 16.2719 19.1909C16.2982 19.6201 16.2719 21.6622 16.1929 25.3172C16.1139 28.9722 16.002 31.1574 15.8572 31.8728C15.7124 32.5882 15.3701 32.9654 14.8303 33.0044C14.2905 33.0435 10.3213 33.167 2.92262 33.3751ZM20.6558 32.6728C19.9449 32.6207 19.5236 32.2825 19.392 31.6582C19.2603 31.0339 18.8654 27.1968 18.2071 20.1469C18.2598 19.3665 18.5231 18.9112 18.997 18.7811C19.4709 18.6511 21.5313 18.599 25.1779 18.6251C28.8246 18.6511 31.0692 18.7031 31.9118 18.7811C32.7544 18.8592 33.1493 19.2364 33.0967 19.9128C33.0967 27.1707 33.0572 31.1119 32.9782 31.7362C32.8992 32.3606 32.0961 32.5947 30.569 32.4386L20.6558 32.6728ZM12.8358 30.0193L12.9148 21.3175L3.15958 21.3956L3.7915 30.3315L12.8358 30.0193ZM29.9371 29.395L30.0161 21.7858L21.5247 21.5517L22.2356 29.551L29.9371 29.395ZM9.51825 15.5424C8.46505 15.5424 7.90554 15.1912 7.83972 14.4888C7.77389 13.7864 7.43819 10.3265 6.8326 4.1091C6.77994 2.93846 7.33287 2.39216 8.49138 2.47021H23.7364C24.6053 2.49622 25.0002 2.88644 24.9212 3.64085C24.6053 10.2225 24.421 13.8059 24.3683 14.3912C24.3156 14.9766 23.7364 15.2302 22.6305 15.1522L9.51825 15.5424ZM21.4457 11.9524L21.8406 5.51387H10.2292L11.0191 12.1865L21.4457 11.9524Z" fill="#212529"/>
</svg>
