<svg width="260" height="28" viewBox="0 0 260 28" fill="none" xmlns="http://www.w3.org/2000/svg">
<rect width="260" height="20" transform="translate(0 8)" fill="#FEE6B2"/>
<path d="M232.214 27.2533L231.601 26.9458C231.397 26.6588 231.274 26.3308 231.233 25.9618C232.009 24.4038 232.581 22.7689 232.949 21.0572C233.317 19.3455 233.684 17.6491 234.052 15.9681C234.379 15.7221 234.767 15.6196 235.216 15.6606L235.829 15.9681C236.074 16.2551 236.176 16.6241 236.135 17.0751L235.584 20.3346L237.667 21.6876L237.544 12.4626L232.765 12.6471L232.152 12.3396C231.867 12.0116 231.744 11.6221 231.785 11.1711L232.091 10.5561L232.704 10.2486L237.422 10.0641L237.299 5.78987H233.746C233.419 5.74887 233.133 5.62587 232.888 5.42087C232.643 5.13387 232.541 4.76487 232.581 4.31387L232.888 3.69887L233.5 3.39137H237.361L237.299 1.42338C237.34 1.09538 237.463 0.808378 237.667 0.562379C238.014 0.316379 238.412 0.21388 238.862 0.254879L239.474 0.562379C239.719 0.849378 239.822 1.21838 239.781 1.66938V3.39137L243.334 3.26837L244.07 3.69887C244.315 3.98587 244.417 4.35487 244.376 4.80587L244.07 5.42087C243.784 5.62587 243.477 5.74887 243.151 5.78987H239.719L239.842 9.94111L243.151 10.0026C243.682 9.96161 244.151 10.1051 244.56 10.4331C244.805 10.7201 244.907 11.0891 244.866 11.5401L244.56 12.1551C244.151 12.4421 243.661 12.5446 243.089 12.4626L239.965 12.4011L239.903 15.9681L243.58 15.9066L244.192 16.2141C244.478 16.5421 244.601 16.9316 244.56 17.3826L244.253 17.9976L243.641 18.3051L240.087 18.3666L240.148 23.0098C242.395 23.7888 244.703 24.2706 247.072 24.4551C249.441 24.6396 253.311 24.7523 258.683 24.7933L259.296 25.1008C259.541 25.3878 259.643 25.7568 259.602 26.2078L259.234 26.8843C258.948 27.0893 258.642 27.2123 258.315 27.2533C252.127 27.2123 247.399 26.9561 244.131 26.4846C240.863 26.0131 237.789 24.8343 234.91 22.9483C234.787 23.6863 234.573 24.3731 234.266 25.0086C233.96 25.6441 233.643 26.2898 233.317 26.9458C233.031 27.1918 232.663 27.2943 232.214 27.2533ZM252.648 22.5793C251.749 22.4973 250.85 22.3743 249.952 22.2103C249.053 22.0463 248.267 21.4467 247.593 20.4115C246.919 19.3762 246.551 18.1513 246.49 16.7368C246.429 15.3223 246.408 14.1743 246.429 13.2928C246.449 12.4113 246.459 11.7759 246.459 11.3864C246.459 10.9969 246.704 10.7611 247.195 10.6791C247.685 10.5971 249.88 10.5766 253.781 10.6176L254.087 6.49711L247.501 6.68161L246.888 6.37411C246.643 6.02562 246.541 5.62587 246.582 5.17487L246.888 4.55987C247.501 4.23187 248.195 4.06787 248.971 4.06787C253.158 4.02687 255.512 4.05762 256.033 4.16012C256.554 4.26262 256.722 4.91862 256.538 6.12811L256.171 11.9706C255.987 12.7701 255.395 13.1186 254.394 13.0161H248.91C248.788 13.5901 248.736 14.2256 248.757 14.9226C248.777 15.6196 248.828 16.3576 248.91 17.1366C248.992 17.9156 249.268 18.5818 249.737 19.1353C250.207 19.6888 250.861 19.9963 251.698 20.0578C252.535 20.1193 253.74 20.1296 255.313 20.0886C255.19 19.2276 255.313 18.4691 255.681 17.8131C255.966 17.5671 256.334 17.4646 256.783 17.5056L257.396 17.8131C257.641 18.3461 257.743 18.9303 257.702 19.5658C257.662 20.2013 257.641 20.7907 257.641 21.334C257.641 21.8772 257.447 22.2103 257.059 22.3333C256.671 22.4563 256.058 22.5281 255.221 22.5486C254.384 22.5691 253.526 22.5793 252.648 22.5793Z" fill="#212529"/>
<path d="M206.726 27.4369C206.072 27.1909 205.444 26.8629 204.842 26.4529C204.239 26.0429 203.652 25.5919 203.08 25.0999C202.794 24.7719 202.672 24.3824 202.713 23.9314L203.019 23.3164C203.305 23.0704 203.673 22.9679 204.122 23.0089C204.673 23.3369 205.194 23.6854 205.684 24.0544L205.562 18.1196C204.97 18.3656 204.296 18.6424 203.54 18.9499C202.784 19.2574 201.977 19.4726 201.12 19.5956L200.507 19.2881C200.262 19.0011 200.16 18.6321 200.201 18.1811L200.507 17.5661C201.365 17.1561 202.253 16.7974 203.172 16.4899C204.091 16.1824 204.847 15.8851 205.439 15.5981L205.378 8.09516L200.997 8.27966C200.67 8.23866 200.384 8.11566 200.139 7.91066C199.894 7.62366 199.792 7.25466 199.833 6.80366L200.139 6.18866C200.875 5.88116 201.671 5.72741 202.529 5.72741C203.387 5.72741 204.234 5.70691 205.072 5.66591L204.796 1.23792L205.133 0.622926C205.46 0.376926 205.848 0.274426 206.297 0.315426L206.91 0.622926C207.155 0.909925 207.298 1.25842 207.339 1.66842L207.461 5.60441H209.361L209.973 5.54291L210.586 5.85041C210.831 6.19891 210.933 6.59866 210.892 7.04966L210.586 7.66466C209.769 8.03366 208.83 8.15666 207.768 8.03366L207.89 14.5526C208.707 14.3886 209.32 14.3271 209.728 14.3681L210.341 14.6756C210.586 14.9626 210.688 15.3316 210.647 15.7826L210.341 16.3976L208.013 17.1971L208.135 26.5144C207.87 27.2729 207.4 27.5804 206.726 27.4369ZM222.381 27.5906L221.768 27.2831C221.482 26.2991 221.339 25.2434 221.339 24.1159C221.339 22.9884 221.257 18.5296 221.094 10.7397L215.978 10.8012C215.733 15.1061 215.539 18.2478 215.396 20.226C215.253 22.2042 214.752 24.0749 213.895 25.8379C213.568 26.0839 213.18 26.1864 212.731 26.1454L212.118 25.8379C211.873 25.5509 211.771 25.1819 211.811 24.7309C212.547 23.1319 212.965 21.4355 213.068 19.6418C213.17 17.848 213.277 16.0645 213.389 14.2913C213.502 12.518 213.553 10.9805 213.542 9.67878C213.532 8.37703 213.496 7.37253 213.435 6.66529C213.374 5.95804 213.282 5.25591 213.159 4.55892C213.2 4.23092 213.323 3.94392 213.527 3.69792C214.712 3.16492 215.886 2.57042 217.05 1.91442C218.214 1.25842 219.44 0.745925 220.726 0.376926L221.339 0.684425C221.584 0.971425 221.686 1.34042 221.645 1.79142L221.339 2.40642L215.672 5.29691L215.917 8.40266L225.751 8.34116L226.363 8.64866C226.608 8.93565 226.711 9.30465 226.67 9.75565L226.363 10.3707C225.506 10.7807 224.546 10.9241 223.484 10.8012C223.688 19.8211 223.79 25.1101 223.79 26.6681L223.484 27.2831C223.198 27.5291 222.83 27.6316 222.381 27.5906Z" fill="#212529"/>
<path d="M187.672 25.4694C186.896 25.3874 186.171 25.1722 185.497 24.8237C184.823 24.4752 184.19 24.0344 183.597 23.5014C183.005 22.9684 182.627 22.3278 182.464 21.5795C182.3 20.8313 182.27 19.9857 182.372 19.0427C182.474 18.0997 182.78 17.1977 183.291 16.3367C183.802 15.4757 184.404 14.6352 185.099 13.8152C184.608 13.4052 184.169 12.9747 183.781 12.5237C183.393 12.0727 183.066 11.5294 182.801 10.8939C182.535 10.2584 182.321 9.5512 182.158 8.7722C181.994 7.9932 181.953 7.19883 182.035 6.38908C182.117 5.57933 182.515 4.84646 183.23 4.19046C183.945 3.53446 184.751 3.07321 185.65 2.80672C186.549 2.54022 187.391 2.46847 188.177 2.59147C188.964 2.71447 189.622 2.86822 190.153 3.05272C190.684 3.23721 191.287 3.62671 191.961 4.22121C192.635 4.81571 193.023 5.50758 193.125 6.29683C193.227 7.08608 193.248 7.83945 193.186 8.55695C193.125 9.27445 192.962 9.90995 192.696 10.4634C192.431 11.0169 191.992 11.5909 191.379 12.1854C190.766 12.7799 190.153 13.2207 189.541 13.5077C190.337 14.1432 191.067 14.7428 191.731 15.3066C192.395 15.8703 192.87 16.4699 193.156 17.1054C193.442 17.7409 193.636 18.3457 193.738 18.9197C193.84 19.4937 193.85 20.1855 193.768 20.9953C193.687 21.805 193.248 22.5994 192.451 23.3784C191.655 24.1574 190.889 24.7007 190.153 25.0082C189.418 25.3157 188.591 25.4694 187.672 25.4694ZM190.582 22.0869C190.95 21.7384 191.205 21.3182 191.348 20.8262C191.491 20.3342 191.512 19.7909 191.409 19.1964C191.307 18.6019 190.97 18.0177 190.398 17.4437C189.827 16.8697 189.291 16.3982 188.79 16.0292C188.29 15.6602 187.794 15.3527 187.304 15.1067C186.161 16.4187 185.487 17.3002 185.282 17.7512C185.078 18.2022 184.925 18.6942 184.823 19.2272C184.721 19.7602 184.808 20.3803 185.083 21.0875C185.359 21.7948 185.716 22.2919 186.155 22.5789C186.595 22.8659 187.217 22.9889 188.024 22.9479C188.831 22.9069 189.684 22.6199 190.582 22.0869ZM187.917 11.6012C188.877 11.1092 189.561 10.6479 189.97 10.2174C190.378 9.78695 190.649 9.13608 190.781 8.26483C190.914 7.39358 190.761 6.69146 190.322 6.15846C189.883 5.62546 189.372 5.26671 188.79 5.08221C188.208 4.89771 187.514 4.85671 186.707 4.95921C185.9 5.06171 185.287 5.38458 184.869 5.92783C184.45 6.47108 184.292 7.09121 184.394 7.7882C184.496 8.4852 184.69 9.1822 184.976 9.8792C185.262 10.5762 185.956 11.3142 187.059 12.0932L187.917 11.6012Z" fill="#212529"/>
<path d="M170.732 25.4694C169.956 25.3874 169.231 25.1722 168.557 24.8237C167.883 24.4752 167.25 24.0344 166.658 23.5014C166.066 22.9684 165.688 22.3278 165.524 21.5795C165.361 20.8313 165.33 19.9857 165.433 19.0427C165.535 18.0997 165.841 17.1977 166.352 16.3367C166.862 15.4757 167.465 14.6352 168.159 13.8152C167.669 13.4052 167.23 12.9747 166.842 12.5237C166.454 12.0727 166.127 11.5294 165.861 10.8939C165.596 10.2584 165.381 9.5512 165.218 8.7722C165.055 7.9932 165.014 7.19883 165.096 6.38908C165.177 5.57933 165.575 4.84646 166.29 4.19046C167.005 3.53446 167.812 3.07321 168.711 2.80672C169.609 2.54022 170.452 2.46847 171.238 2.59147C172.024 2.71447 172.683 2.86822 173.214 3.05272C173.745 3.23721 174.347 3.62671 175.021 4.22121C175.695 4.81571 176.083 5.50758 176.186 6.29683C176.288 7.08608 176.308 7.83945 176.247 8.55695C176.186 9.27445 176.022 9.90995 175.757 10.4634C175.491 11.0169 175.052 11.5909 174.439 12.1854C173.827 12.7799 173.214 13.2207 172.601 13.5077C173.398 14.1432 174.128 14.7428 174.792 15.3066C175.455 15.8703 175.93 16.4699 176.216 17.1054C176.502 17.7409 176.696 18.3457 176.798 18.9197C176.9 19.4937 176.911 20.1855 176.829 20.9953C176.747 21.805 176.308 22.5994 175.512 23.3784C174.715 24.1574 173.949 24.7007 173.214 25.0082C172.479 25.3157 171.652 25.4694 170.732 25.4694ZM173.643 22.0869C174.01 21.7384 174.266 21.3182 174.409 20.8262C174.552 20.3342 174.572 19.7909 174.47 19.1964C174.368 18.6019 174.031 18.0177 173.459 17.4437C172.887 16.8697 172.351 16.3982 171.851 16.0292C171.35 15.6602 170.855 15.3527 170.365 15.1067C169.221 16.4187 168.547 17.3002 168.343 17.7512C168.139 18.2022 167.985 18.6942 167.883 19.2272C167.781 19.7602 167.868 20.3803 168.144 21.0875C168.419 21.7948 168.777 22.2919 169.216 22.5789C169.655 22.8659 170.278 22.9889 171.085 22.9479C171.892 22.9069 172.744 22.6199 173.643 22.0869ZM170.978 11.6012C171.937 11.1092 172.622 10.6479 173.03 10.2174C173.439 9.78695 173.709 9.13608 173.842 8.26483C173.975 7.39358 173.822 6.69146 173.382 6.15846C172.943 5.62546 172.433 5.26671 171.851 5.08221C171.269 4.89771 170.574 4.85671 169.767 4.95921C168.961 5.06171 168.348 5.38458 167.929 5.92783C167.511 6.47108 167.352 7.09121 167.454 7.7882C167.557 8.4852 167.751 9.1822 168.037 9.8792C168.322 10.5762 169.017 11.3142 170.12 12.0932L170.978 11.6012Z" fill="#212529"/>
<path d="M153.211 27.2541C152.619 27.1311 152.068 26.9107 151.557 26.593C151.047 26.2752 150.577 25.8806 150.148 25.4091C149.862 25.0811 149.739 24.7018 149.78 24.2713L150.087 23.6871C150.352 23.4411 150.699 23.3386 151.128 23.3796C151.7 23.7691 152.262 24.1688 152.813 24.5788L152.629 16.8606L141.11 17.1066C140.947 18.7261 140.748 20.3558 140.513 21.9958C140.278 23.6358 139.701 25.1631 138.782 26.5776C138.455 26.9466 138.037 27.1106 137.526 27.0696L136.944 26.7621C136.699 26.4956 136.597 26.1368 136.638 25.6858C137.822 23.5128 138.501 21.2015 138.675 18.7517C138.849 16.302 138.961 13.6267 139.012 10.726C139.063 7.82525 139.068 5.01163 139.027 2.28514C139.191 1.64964 139.63 1.31139 140.345 1.27039L153.916 0.962891C154.468 1.00389 154.779 1.20377 154.85 1.56251C154.922 1.92126 154.968 2.44401 154.988 3.13076C155.009 3.81751 155.121 11.5409 155.325 26.3008C155.08 27.3258 154.376 27.6436 153.211 27.2541ZM152.691 14.5544L152.752 10.8029L141.478 11.1104L141.294 14.7389L152.691 14.5544ZM152.752 8.49662L152.629 3.26913L141.417 3.57663L141.478 8.77337L152.752 8.49662Z" fill="#212529"/>
<path d="M120.953 27.9912L120.34 27.6837C120.136 27.3967 120.013 27.0687 119.972 26.6997L120.033 21.3492L114.274 21.4107C113.171 21.4517 112.17 21.2775 111.272 20.888C111.027 20.601 110.925 20.232 110.965 19.781L111.272 19.166C111.762 18.838 112.354 18.7355 113.049 18.8585L113.631 18.8892L115.867 14.6765C114.192 14.5945 113.202 14.492 112.895 14.369C112.589 14.246 112.436 13.9283 112.436 13.4158C112.436 12.9033 112.354 9.99226 112.191 4.68277C112.232 3.94478 112.661 3.49378 113.477 3.32978H116.602L118.318 0.316285C118.645 0.0702855 119.033 -0.0322142 119.482 0.00878569L120.095 0.316285C120.34 0.603284 120.442 0.972283 120.401 1.42328C120.033 2.20228 119.605 2.85828 119.114 3.39128C122.648 3.39128 124.624 3.43228 125.042 3.51428C125.461 3.59628 125.737 3.87303 125.87 4.34453C126.002 4.81602 126.013 6.35352 125.9 8.95701C125.788 11.5605 125.676 13.18 125.563 13.8155C125.451 14.451 125.15 14.7944 124.659 14.8456C124.169 14.8969 123.434 14.861 122.454 14.738L122.392 18.8585L127.172 19.166L127.846 19.535C128.091 19.863 128.193 20.2525 128.152 20.7035L127.846 21.3492C127.478 21.5952 127.069 21.7182 126.62 21.7182L122.454 21.4107V26.8842L122.086 27.6837C121.8 27.9297 121.422 28.0322 120.953 27.9912ZM100.764 27.5607L100.151 27.2532C99.906 26.9662 99.8038 26.5972 99.8447 26.1462C100.498 22.8867 100.917 19.781 101.101 16.829C101.285 13.877 101.412 11.3658 101.484 9.29526C101.555 7.22477 101.56 5.01077 101.499 2.65328C101.54 2.32528 101.662 2.03828 101.867 1.79228C102.153 1.54628 102.52 1.44378 102.97 1.48478L103.582 1.79228C103.868 2.16128 103.991 2.59178 103.95 3.08378L103.889 7.66552H106.676C106.758 3.83203 106.901 1.79228 107.105 1.54628C107.391 1.30028 107.759 1.19778 108.208 1.23878L108.821 1.54628C109.107 1.87428 109.229 2.28428 109.189 2.77628L109.066 7.66552C109.842 7.54252 110.516 7.64502 111.088 7.97302C111.333 8.26002 111.435 8.62901 111.394 9.08001L111.088 9.69501C110.802 9.90001 110.496 10.023 110.169 10.064H103.827L103.643 14.0615L109.74 13.9385C110.434 13.9385 110.741 14.615 110.659 15.968L110.536 26.1462L110.23 26.7612C109.944 27.0072 109.577 27.1097 109.127 27.0687L108.515 26.7612C108.31 26.5152 108.188 26.2282 108.147 25.9002V16.3985L103.521 16.46C103.358 18.264 103.194 20.0834 103.031 21.9181C102.867 23.7529 102.5 25.5107 101.928 27.1917C101.601 27.4787 101.213 27.6017 100.764 27.5607ZM119.972 18.92L120.033 14.6765H118.44L116.235 18.9815L119.972 18.92ZM123.189 12.3395L123.311 10.2485L120.34 10.187L120.401 12.278L123.189 12.3395ZM117.95 12.278V10.064L114.825 9.94101L114.948 12.2165L117.95 12.278ZM123.373 7.85002L123.495 5.97427L120.217 5.78977L120.34 7.78852L123.373 7.85002ZM117.95 7.66552L117.828 5.78977L114.642 5.72827L114.703 7.54252L117.95 7.66552Z" fill="#212529"/>
<path d="M70.3452 25.9632C69.5282 25.9427 69.0687 25.7633 68.9666 25.4251C68.8644 25.0868 68.5683 21.8735 68.0781 15.785C68.1394 14.8215 68.4406 14.2834 68.9819 14.1706C69.5231 14.0579 73.0717 14.022 79.6277 14.063C80.3221 14.2065 80.6795 14.4474 80.7 14.7856C80.7204 15.1239 80.7 16.7331 80.6387 19.6134C80.5774 22.4936 80.4906 24.2156 80.3783 24.7793C80.266 25.3431 80.0004 25.6403 79.5818 25.6711C79.1631 25.7018 76.0842 25.7992 70.3452 25.9632ZM84.1005 25.4097C83.5491 25.3687 83.2223 25.1022 83.1202 24.6102C83.018 24.1182 82.7117 21.0945 82.2011 15.539C82.2419 14.924 82.4462 14.5652 82.8138 14.4627C83.1814 14.3603 84.7796 14.3193 87.6083 14.3398C90.4369 14.3603 92.1781 14.4013 92.8316 14.4627C93.4852 14.5242 93.7915 14.8215 93.7507 15.3545C93.7507 21.074 93.7201 24.1797 93.6588 24.6717C93.5975 25.1637 92.9746 25.3482 91.79 25.2252L84.1005 25.4097ZM78.0347 23.3187L78.0959 16.4615L70.529 16.523L71.0191 23.5647L78.0347 23.3187ZM91.2998 22.8267L91.3611 16.8305L84.7745 16.646L85.3259 22.9497L91.2998 22.8267ZM75.4613 11.9105C74.6443 11.9105 74.2103 11.6338 74.1593 11.0803C74.1082 10.5268 73.8478 7.80027 73.3781 2.90078C73.3372 1.97828 73.7661 1.54778 74.6648 1.60928H86.4901C87.1641 1.62978 87.4704 1.93728 87.4091 2.53178C87.1641 7.71827 87.0211 10.5421 86.9802 11.0034C86.9394 11.4646 86.4901 11.6645 85.6323 11.603L75.4613 11.9105ZM84.7132 9.08151L85.0196 4.00778H76.0127L76.6254 9.26601L84.7132 9.08151Z" fill="#212529"/>
<path d="M40.4767 27.8693L39.864 27.5618C39.6598 27.3363 39.5372 27.0595 39.4964 26.7315L39.4351 15.6001C37.2702 15.7846 35.9937 15.7384 35.6057 15.4617C35.2176 15.1849 35.1665 14.7237 35.4525 14.0779C35.7384 13.4322 36.152 12.8018 36.6932 12.1868C37.2344 11.5718 37.7195 10.9466 38.1484 10.3111C37.6787 9.79858 37.2344 9.26558 36.8158 8.71208C36.3971 8.15858 36.0601 7.70758 35.8048 7.35908C35.5495 7.01058 35.4729 6.63646 35.575 6.23671C35.6771 5.83696 36.1724 5.03746 37.0608 3.83822C37.9493 2.63897 38.6896 1.54735 39.2819 0.563348C39.5883 0.276349 39.9865 0.173849 40.4767 0.255849L41.0894 0.563348C41.3549 0.870847 41.4468 1.26035 41.3651 1.73185L41.0894 2.31609L38.1484 6.59033C38.6181 7.36933 39.19 8.05608 39.864 8.65058C40.2725 8.22008 40.6248 7.75883 40.9209 7.26683C41.2171 6.77483 41.5898 6.33408 42.0391 5.94459L42.7437 5.88309L43.3258 6.22133C43.5709 6.50833 43.673 6.86708 43.6322 7.29758C43.0807 8.36358 42.3608 9.38345 41.4724 10.3572C40.5839 11.3309 39.7312 12.3098 38.9143 13.2938L42.5599 13.2323C42.0902 12.7198 41.8553 12.1458 41.8553 11.5103L42.131 10.9261C42.4578 10.6801 42.8356 10.5776 43.2645 10.6186L43.8466 10.9261C44.3776 11.7871 44.9852 12.6224 45.6694 13.4322C46.3536 14.2419 46.8591 15.1491 47.1859 16.1536L46.8795 16.7378C46.5936 16.9633 46.2362 17.0658 45.8073 17.0453L45.2252 16.7378L44.2755 15.4771L41.794 15.6001L41.8553 26.9775L41.5489 27.5618C41.2834 27.8078 40.926 27.9103 40.4767 27.8693ZM46.4506 26.916L45.8686 26.6393C45.6439 26.3523 45.5418 25.9935 45.5622 25.563L46.2362 23.595C45.6847 23.9025 45.2048 23.8205 44.7963 23.349C44.49 22.6725 44.0508 22.0422 43.479 21.4579C42.9071 20.8737 42.5803 20.2126 42.4986 19.4746L42.805 18.8596C43.1114 18.5931 43.4994 18.5008 43.9692 18.5828L44.5819 18.8596C44.8065 19.3926 45.1282 19.8846 45.5469 20.3356C45.9656 20.7865 46.3077 21.2785 46.5732 21.8115C47.4922 18.9416 48.2683 16.0408 48.9015 13.1093C49.5346 10.1778 49.9635 7.19508 50.1882 4.16109C49.3304 4.16109 48.5236 3.98684 47.768 3.63834C47.5229 3.35134 47.4208 2.99259 47.4616 2.56209L47.768 1.97784C48.1152 1.69085 48.5338 1.58835 49.024 1.67035C54.5997 1.71135 57.6939 1.81897 58.3066 1.99322C58.9193 2.16747 59.1235 2.61334 58.9193 3.33084C58.4087 4.33534 58.036 5.37571 57.8011 6.45196C57.5662 7.52821 57.2548 8.57883 56.8667 9.60383C57.5203 9.68583 58.2045 9.73708 58.9193 9.75758C59.6341 9.77808 60.2366 9.83445 60.7268 9.9267C61.217 10.019 61.3906 10.5263 61.2476 11.4488C60.6961 12.8838 60.1039 14.3137 59.4707 15.7384C58.8376 17.1632 58.1228 18.5623 57.3262 19.9358C58.9397 21.3503 60.4613 22.5495 61.8909 23.5335C62.136 23.8205 62.2381 24.1793 62.1973 24.6098L61.8909 25.194C61.5642 25.44 61.1863 25.5425 60.7574 25.5015C60.1651 25.1325 59.5728 24.743 58.9806 24.333C58.3883 23.923 57.4079 23.103 56.0395 21.873L53.2211 25.2555C52.8535 25.5835 52.4143 25.7065 51.9038 25.6245L51.3217 25.317C51.0766 25.03 50.9745 24.6713 51.0153 24.2408L51.3217 23.6565C51.8731 23.185 52.3582 22.6469 52.7769 22.0422C53.1956 21.4374 53.6193 20.8378 54.0482 20.2433C53.3743 19.6078 52.782 18.9313 52.2714 18.2138C51.7608 17.4963 51.1685 16.8403 50.4945 16.2458C50.0656 17.9883 49.6418 19.7257 49.2231 21.4579C48.8045 23.1902 48.2581 24.8968 47.5841 26.5778C47.2778 26.8443 46.9 26.957 46.4506 26.916ZM36.1265 24.948L35.5444 24.6713C35.2993 24.3433 35.1768 23.9845 35.1768 23.595C35.381 22.8365 35.5495 22.0883 35.6822 21.3503C35.815 20.6123 36.0243 19.8846 36.3103 19.1671C36.6575 18.8596 37.0762 18.7366 37.5663 18.7981L38.1484 19.1056C38.3935 19.3926 38.4956 19.7513 38.4548 20.1818C38.1688 20.9198 37.9595 21.6732 37.8267 22.4419C37.694 23.2107 37.4846 23.9538 37.1987 24.6713C36.9128 24.8968 36.5554 24.989 36.1265 24.948ZM55.5494 18.2138C56.1417 17.2298 56.6829 16.2304 57.1731 15.2157C57.6632 14.2009 58.0717 13.1401 58.3985 12.0331H54.9979C54.6712 11.9921 54.3903 11.8537 54.1555 11.6179C53.9206 11.3822 53.8236 11.0491 53.8644 10.6186C54.2525 9.59358 54.6507 8.53783 55.0592 7.45133C55.4677 6.36483 55.7945 5.26809 56.0395 4.16109H52.5165C52.3531 5.78059 52.1539 7.35908 51.9191 8.89658C51.6842 10.4341 51.4442 11.9818 51.1991 13.5398C51.9957 14.2368 52.7105 14.9953 53.3436 15.8153C53.9768 16.6353 54.712 17.4348 55.5494 18.2138Z" fill="#212529"/>
<path d="M27.4561 27.069C25.3729 26.987 23.0599 26.9358 20.5172 26.9153C17.9744 26.8948 15.3397 26.5565 12.6132 25.9005C9.88663 25.2445 7.2775 24.2605 4.78581 22.9485C4.62242 23.5635 4.43861 24.1785 4.23437 24.7935C4.03013 25.4085 3.76463 26.003 3.43785 26.577C3.15192 26.823 2.78429 26.9255 2.33497 26.8845L1.72226 26.577C1.43633 26.249 1.33421 25.839 1.4159 25.347C2.06946 23.871 2.55963 22.3489 2.88641 20.7806C3.21319 19.2124 3.68293 17.6903 4.29564 16.2143C4.62242 15.9273 5.01047 15.8043 5.45979 15.8453L6.0725 16.1528C6.31759 16.4808 6.41971 16.8703 6.37886 17.3213C6.13377 17.8133 5.93975 18.3258 5.79678 18.8588C5.65382 19.3918 5.54149 19.9453 5.45979 20.5193L8.21699 21.78V11.0483L3.68293 11.2328C3.35615 11.1918 3.07022 11.0688 2.82514 10.8638C2.58005 10.5768 2.47793 10.2078 2.51878 9.7568L2.82514 9.1418C3.11107 8.8958 3.45827 8.7728 3.86675 8.7728L8.21699 8.6498V5.91305C7.40004 5.91305 6.71585 5.9438 6.16441 6.0053C5.61297 6.0668 5.05132 6.11805 4.47946 6.15905L3.86675 5.85155C3.62166 5.52356 3.51954 5.13406 3.56039 4.68306L3.86675 4.06806C4.5203 3.82206 5.22492 3.67856 5.9806 3.63756C6.73627 3.59656 7.48174 3.55556 8.21699 3.51456L8.09445 1.91556C8.13529 1.58756 8.25784 1.30057 8.46207 1.05457C8.76843 0.808567 9.14627 0.706067 9.59559 0.747067L10.2083 1.05457C10.5351 1.79256 10.678 2.61256 10.6372 3.51456C12.4345 3.39156 13.7824 3.49406 14.6811 3.82206C14.9262 4.10906 15.0283 4.47806 14.9874 4.92906L14.6811 5.54406C13.8233 5.91305 12.4753 6.03605 10.6372 5.91305V8.5883C11.3316 8.5883 12.026 8.5883 12.7204 8.5883C13.4148 8.5883 14.0479 8.7113 14.6198 8.9573C14.8649 9.2443 14.967 9.6133 14.9262 10.0643L14.6198 10.6793C14.0888 11.0073 13.4557 11.1303 12.7204 11.0483L10.6372 10.9868L10.6985 15.4763L14.0684 15.5378C14.4768 15.5378 14.824 15.6608 15.11 15.9068C15.3551 16.1938 15.4572 16.5628 15.4163 17.0138L15.11 17.6288C14.7832 17.8748 14.3952 17.9978 13.9458 17.9978L10.6372 17.9363L10.5759 22.8255C12.2507 23.3995 13.956 23.8198 15.6921 24.0863C17.4281 24.3528 19.1896 24.4809 20.9767 24.4706C22.7638 24.4604 24.5355 24.4348 26.2919 24.3938C28.0484 24.3528 29.2125 24.527 29.7844 24.9165C30.0295 25.2035 30.1316 25.5725 30.0908 26.0235L29.7844 26.6385C29.1308 27.0485 28.3547 27.192 27.4561 27.069ZM19.4602 23.0715C18.725 22.969 18.291 22.7128 18.1582 22.3028C18.0255 21.8928 17.8876 19.5968 17.7446 15.4148C17.7651 14.6973 17.9999 14.2617 18.4493 14.1079C18.8986 13.9542 20.5325 13.8978 23.3509 13.9388C26.1694 13.9798 27.7829 14.0567 28.1913 14.1694C28.5998 14.2822 28.8245 14.5948 28.8653 15.1073L28.8041 21.4418C28.7632 22.3438 28.4466 22.8204 27.8544 22.8716C27.2621 22.9229 24.464 22.9895 19.4602 23.0715ZM26.4145 20.4578L26.4758 16.5218L20.1342 16.3988L20.3793 20.6423L26.4145 20.4578ZM25.9856 13.3853C25.0257 13.2623 24.1781 12.8318 23.4428 12.0938C23.1978 11.8068 23.0956 11.4378 23.1365 10.9868L23.4428 10.3718C23.7288 10.1258 24.0964 10.0233 24.5457 10.0643L25.6792 10.6793C25.9243 9.90029 26.0673 9.0803 26.1081 8.2193C26.149 7.3583 26.1898 6.48705 26.2307 5.60556H23.259C22.8506 6.69205 22.4625 7.7683 22.0949 8.8343C21.7273 9.90029 21.1554 10.8843 20.3793 11.7863C20.0934 11.9913 19.7666 12.0733 19.399 12.0323L18.7862 11.7248C18.5412 11.4378 18.439 11.0688 18.4799 10.6178C19.0109 9.87979 19.4296 9.09055 19.7359 8.25005C20.0423 7.40955 20.318 6.54855 20.5631 5.66706L17.4996 5.72855C17.1728 5.68755 16.8868 5.56456 16.6418 5.35956C16.3967 5.07256 16.2946 4.70356 16.3354 4.25256L16.6418 3.63756C17.0911 3.35056 17.6017 3.22756 18.1735 3.26856L27.2723 3.14556C28.0892 3.20706 28.5488 3.50944 28.6509 4.05268C28.753 4.59593 28.7632 5.43643 28.6815 6.57418C28.5998 7.71193 28.4875 8.8343 28.3445 9.94129C28.2016 11.0483 27.9463 11.9195 27.5786 12.555C27.211 13.1905 26.68 13.4673 25.9856 13.3853Z" fill="#212529"/>
</svg>
