<svg width="266" height="272" viewBox="0 0 266 272" fill="none" xmlns="http://www.w3.org/2000/svg">
<path d="M135.42 154.913C152.302 140.185 173.347 129.176 201.35 123.839C209.5 122.286 219.841 123.184 228.339 121.916C241.028 120.024 256.751 121.349 269.483 119.449C286.912 116.846 303.599 113.875 328.45 119.89C337.747 122.141 347.266 124.498 357.75 129.402C367.786 134.095 377.152 138.95 387.228 144.662C402.524 153.334 419.378 163.332 431.304 175.57C437.313 181.737 442.528 187.481 446.325 193.498C449.22 198.083 453.378 203.189 455.945 207.646C459.082 213.096 459.495 218.865 459.952 223.17C460.652 229.773 459.142 235.162 457.067 240.166C451.846 252.747 448.932 267.426 441.356 278.441C433.442 289.945 419.575 297.645 407.613 306.101C397.02 313.591 383.09 318.131 371.568 324.852C361.466 330.745 349.496 336.766 330.211 333.48C313.776 330.68 296.133 325.917 277.999 320.233C268.552 317.272 258.941 314.044 249.369 310.84C231.753 304.943 213.063 296.547 195.552 290.826C180.15 285.795 166.131 282.305 149.858 275.239C145.713 273.438 141.111 271.309 137.088 268.21C129.984 262.739 129.527 258.03 127.901 253.388C126.24 248.645 125.61 244.773 124.731 240.346C123.644 234.872 120.883 228.632 120.826 223.645C120.724 214.692 118.151 204.472 119.027 196.079C120.452 182.428 120.382 169.33 129.47 160.421C131.396 158.53 133.378 156.695 135.42 154.913Z" fill="#FAE4D3"/>
<path d="M269.341 202.291C262.921 201.617 256.258 194.73 250.605 190.323C247.524 187.92 244.357 185.527 240.882 184.004C236.815 182.222 232.419 181.96 228.115 182.361C223.246 182.814 218.598 184.524 214.4 187.486C210.192 190.455 207.001 194.912 203.309 198.648C199.692 202.308 195.514 206.094 190.729 207.191C186.336 208.197 182.208 206.351 178.445 203.81C169.822 197.989 162.683 188.932 152.35 187.389C147.07 186.601 141.697 187.828 137.493 191.872C133.696 195.525 131.337 200.429 128.268 204.839C122.815 212.675 114.131 218.185 105.909 212.967C102.114 210.558 98.9823 206.899 95.5527 203.863C91.6149 200.377 87.4183 197.544 82.5597 196.339C76.9129 194.937 70.6467 195.581 65.3872 198.457C60.1968 201.295 56.1483 205.763 51.7663 209.994C47.4033 214.208 42.8682 217.065 37.2009 217.783C31.1431 218.549 25.1106 217.583 19.1179 216.57C12.9643 215.529 11.0319 226.785 17.2084 227.829C27.9831 229.651 39.6093 231.282 49.7235 225.338C58.1005 220.414 64.0855 209.151 73.6889 207.388C78.3525 206.531 82.8273 207.743 86.8457 210.611C90.4419 213.177 93.4808 216.749 96.8807 219.651C100.755 222.958 105.033 225.804 109.861 226.436C115.094 227.12 120.14 225.697 124.777 222.836C129.15 220.138 133.021 216.218 136.077 211.636C138.695 207.71 140.89 202.414 144.685 199.878C148.599 197.263 153.436 198.98 157.203 201.105C161.487 203.519 165.132 207.047 169.022 210.207C177.722 217.274 187.493 221.764 197.811 216.494C202.783 213.956 207 210.064 210.999 205.807C214.299 202.296 217.301 198.224 221.411 196.007C225.567 193.766 230.616 193.092 235.12 193.942C238.225 194.528 241.801 197.179 244.909 199.536C251.69 204.676 259.058 212.672 267.43 213.551C270.032 213.824 272.58 212.329 273.133 209.053C273.603 206.273 271.961 202.567 269.341 202.291Z" fill="#F9C299"/>
<path d="M257.36 134.518C250.94 133.843 244.277 126.957 238.624 122.549C235.543 120.146 232.376 117.754 228.901 116.231C224.834 114.448 220.438 114.187 216.134 114.587C211.265 115.041 206.617 116.751 202.419 119.712C198.211 122.682 195.02 127.139 191.328 130.875C187.711 134.534 183.533 138.321 178.748 139.418C174.355 140.424 170.227 138.578 166.464 136.037C157.841 130.215 150.702 121.158 140.369 119.616C135.089 118.828 129.717 120.054 125.512 124.099C121.715 127.752 119.355 132.657 116.287 137.066C110.834 144.903 102.151 150.413 93.9283 145.194C90.1335 142.786 87.0013 139.126 83.5717 136.091C79.6339 132.604 75.4374 129.772 70.5788 128.566C64.932 127.165 58.6657 127.809 53.4062 130.685C48.2158 133.523 44.1675 137.991 39.7862 142.222C35.4233 146.435 30.8881 149.293 25.2207 150.009C19.163 150.775 13.1305 149.81 7.13781 148.796C0.984203 147.756 -0.948299 159.011 5.22819 160.056C16.0029 161.878 27.6292 163.508 37.7434 157.564C46.1204 152.641 52.1054 141.378 61.7088 139.614C66.3724 138.757 70.8472 139.969 74.8656 142.837C78.4618 145.404 81.5007 148.975 84.9006 151.878C88.7748 155.184 93.0527 158.031 97.8813 158.662C103.114 159.347 108.159 157.924 112.797 155.062C117.17 152.365 121.041 148.445 124.096 143.863C126.715 139.937 128.91 134.641 132.706 132.105C136.62 129.49 141.456 131.207 145.224 133.331C149.507 135.746 153.152 139.273 157.042 142.434C165.743 149.5 175.513 153.99 185.832 148.721C190.804 146.182 195.021 142.29 199.02 138.034C202.319 134.522 205.322 130.45 209.432 128.234C213.588 125.993 218.637 125.318 223.141 126.169C226.246 126.755 229.822 129.406 232.93 131.762C239.711 136.903 247.079 144.898 255.451 145.777C258.053 146.05 260.601 144.555 261.154 141.279C261.622 138.5 259.98 134.793 257.36 134.518Z" fill="#F9C299"/>
</svg>
