<svg width="180" height="80" viewBox="0 0 180 80" fill="none" xmlns="http://www.w3.org/2000/svg">
<path fill-rule="evenodd" clip-rule="evenodd" d="M11.2202 35.3562C10.3781 42.4251 13.183 42.7419 12.3409 49.8108C34.9256 61.295 57.2074 68.2422 79.792 79.7264C94.0074 65.8106 107.7 65.6675 128.648 62.7039C134.276 61.9085 137.199 59.7309 142.297 57.4785C149.139 45.0385 164.744 33.5249 179.999 30.4329C179.636 25.928 177.231 26.2127 176.867 21.7078C150.708 16.0332 123.365 5.67459 97.2076 0C88.9913 5.16795 85.2868 12.0965 83.5314 20.8724C60.3591 22.8601 32.048 26.1713 11.2202 35.3562Z" fill="#FDE0DB"/>
<path fill-rule="evenodd" clip-rule="evenodd" d="M162.344 21.3501C145.372 28.8339 129.284 42.2915 120.311 57.0239C107.229 55.5903 88.9129 62.7289 80.6766 71.7966C58.8164 54.8415 33.5024 39.4786 4.50391 37.0791C17.3505 25.5353 38.0305 19.0801 60.1957 25.3614C65.2341 12.9199 79.7207 2.58699 94.705 2.08594L162.344 21.3501Z" fill="#F7B2AC"/>
<path d="M70.6518 66.0919C70.2452 66.0919 69.8345 65.9881 69.4756 65.7745C46.4714 52.0858 30.4221 43.2964 1.57193 36.6731C0.863957 36.5101 0.301781 36.0347 0.0900905 35.4172C-0.1216 34.7984 0.0452316 34.1291 0.533102 33.6474C15.9795 18.3965 34.9518 13.4491 55.3988 19.345C55.5194 19.3796 55.6372 19.4253 55.7479 19.4771L115.533 48.0721C116.378 48.4759 116.805 49.3355 116.568 50.1568C116.332 50.9781 115.491 51.5535 114.529 51.5535C96.5117 51.5535 79.2722 58.7363 72.1981 65.4941C71.7873 65.8881 71.2224 66.0919 70.6518 66.0919ZM6.03426 33.8957C32.797 40.4349 49.2808 49.3232 70.3826 61.8447C77.5549 55.8254 91.6274 49.7838 107.049 48.2314L53.9128 22.8153C36.2668 17.7877 19.7829 21.6174 6.03426 33.8957Z" fill="#212529"/>
<path d="M114.529 51.5593C114.103 51.5593 113.674 51.4457 113.302 51.2098C112.36 50.6121 112.147 49.4549 112.826 48.6237C122.785 36.4455 136.49 27.514 151.934 23.0248L86.4231 3.82194C73.3866 2.71415 60.9585 9.987 56.1471 21.5836C55.749 22.5444 54.5405 23.0359 53.4498 22.6889C52.3591 22.3369 51.7983 21.2736 52.1965 20.3128C57.6976 7.05143 72.0365 -1.24401 87.0862 0.157704C87.2362 0.172524 87.3862 0.200929 87.5292 0.242919L159.79 21.423C160.684 21.6848 161.272 22.4394 161.226 23.2694C161.181 24.1005 160.513 24.8007 159.592 24.9872C142.417 28.4378 127.021 37.6014 116.236 50.7887C115.826 51.2913 115.182 51.5593 114.529 51.5593Z" fill="#212529"/>
<path d="M68.6638 79.9987C68.2601 79.9987 67.8591 79.8962 67.5143 79.6974C49.0803 69.0888 26.9145 57.37 2.27288 50.8789C1.72613 50.7344 1.2691 50.3997 1.00694 49.9539C0.746179 49.5068 0.701315 48.9857 0.884968 48.509C1.26769 47.5111 1.58032 46.3539 1.90837 45.1275C2.99206 41.0904 4.22155 36.5147 8.87594 34.992C9.96103 34.6388 11.1751 35.1241 11.5803 36.0837C11.9854 37.0421 11.4302 38.1091 10.341 38.466C7.79506 39.2984 6.8838 42.6959 6.00059 45.9809C5.83236 46.6071 5.66133 47.2431 5.47627 47.868C28.9838 54.3541 50.1122 65.3357 67.9124 75.5058C75.6314 63.9821 91.0231 56.65 107.832 56.65C107.887 56.65 107.94 56.6513 107.992 56.65C112.257 56.65 116.077 55.0939 120.12 53.4464C120.944 53.1093 121.776 52.7721 122.618 52.4424C131.047 41.5288 143.325 33.1382 157.396 28.6528C157.259 28.2724 157.09 27.9044 156.908 27.5092C156.457 26.5249 155.945 25.4109 155.822 23.8832C155.739 22.8631 156.611 21.9764 157.77 21.9035C158.93 21.8134 159.935 22.5989 160.018 23.6202C160.093 24.565 160.425 25.2862 160.808 26.1198C161.26 27.1041 161.773 28.2193 161.895 29.7494C161.962 30.5942 161.372 31.371 160.46 31.6377C146.352 35.77 134.031 44.0494 125.771 54.9507C125.547 55.2458 125.23 55.4792 124.86 55.6213C123.853 56.0054 122.865 56.4092 121.887 56.8081C117.608 58.5507 113.182 60.3538 107.993 60.3538C107.94 60.3525 107.886 60.3538 107.831 60.3538C91.7283 60.3538 77.0992 67.6599 70.5368 78.9873C70.2663 79.4553 69.7812 79.7999 69.205 79.9358C69.0255 79.9777 68.8447 79.9987 68.6638 79.9987Z" fill="#212529"/>
</svg>
