<svg width="240" height="36" viewBox="0 0 240 36" fill="none" xmlns="http://www.w3.org/2000/svg">
<rect width="240" height="20" transform="translate(0 15.5)" fill="#FEE6B2"/>
<path d="M211.702 35.3888C211.29 35.3355 210.93 35.1755 210.621 34.9089C210.312 34.5357 210.184 34.0559 210.235 33.4694L210.621 32.6697C211.342 32.2964 212.082 31.6433 212.841 30.7103C213.6 29.7772 214.43 28.8442 215.331 27.9112C216.232 26.9781 216.94 25.7918 217.454 24.3523L213.825 21.7931C213.491 21.3666 213.349 20.8601 213.401 20.2736L213.825 19.4738C214.237 19.1539 214.726 19.0207 215.292 19.074C215.91 19.2872 216.502 19.6205 217.068 20.0737C217.634 20.5268 218.201 20.9667 218.767 21.3932C219.179 20.1136 219.552 18.7941 219.886 17.4345C220.221 16.0749 220.543 14.7287 220.852 13.3958L213.555 13.3158C213.04 14.6487 212.474 15.955 211.856 17.2346C211.239 18.5142 210.621 19.7937 210.003 21.0733C209.592 21.4466 209.103 21.6065 208.536 21.5532L207.764 21.1533C207.455 20.7801 207.327 20.3003 207.378 19.7138C208.459 17.3678 209.489 15.0219 210.467 12.676C211.445 10.3301 212.114 7.8642 212.474 5.27835H208.536C207.816 5.33167 207.172 5.14506 206.606 4.71853C206.297 4.34532 206.169 3.86547 206.22 3.27899L206.606 2.47924C207.172 2.05271 207.893 1.94608 208.768 2.15934L223.94 2.23932L224.712 2.63919C225.021 3.01241 225.15 3.49225 225.098 4.07874L224.712 4.87848C224.352 5.14506 223.966 5.30501 223.554 5.35833H215.601C215.447 6.15808 215.279 6.97782 215.099 7.81755C214.919 8.65728 214.752 9.47702 214.597 10.2768H223.168C224.378 10.3567 224.764 11.0499 224.326 12.3561C223.554 15.8217 222.602 19.2606 221.469 22.6728C220.337 26.0851 219.031 28.6709 217.551 30.4304C216.071 32.1898 214.752 33.5494 213.594 34.5091C213.053 34.9889 212.423 35.2822 211.702 35.3888ZM238.224 34.5891C237.246 34.3225 236.307 33.9093 235.406 33.3494C234.505 32.7896 233.604 32.2431 232.703 31.71C232.395 31.3367 232.266 30.8569 232.317 30.2704L232.703 29.4707C233.141 29.1508 233.643 29.0175 234.209 29.0708L236.757 30.4304L236.178 3.27899C236.229 2.85246 236.384 2.47924 236.641 2.15934C237.002 1.83945 237.465 1.70616 238.031 1.75947L238.803 2.15934C239.163 3.17236 239.357 4.26534 239.382 5.4383C239.408 6.61126 239.614 15.9016 240 33.3095C239.768 34.5357 239.176 34.9623 238.224 34.5891ZM228.882 21.3133L228.109 20.9134C227.852 20.5935 227.698 20.2203 227.646 19.7937L227.569 6.63792C227.466 5.30501 227.646 4.07874 228.109 2.95909C228.47 2.63919 228.933 2.5059 229.499 2.55922L230.271 2.95909C230.683 4.02542 230.786 5.2517 230.58 6.63792L230.657 20.1136L230.271 20.9134C229.911 21.2333 229.448 21.3666 228.882 21.3133Z" fill="#212529"/>
<path d="M181.745 35.9886L181.012 35.5887C180.651 34.3091 180.471 32.9429 180.471 31.49C180.471 30.0371 180.42 27.418 180.317 23.6325C176.971 23.6325 174.738 23.6858 173.619 23.7924C172.499 23.8991 171.56 23.9524 170.8 23.9524C170.041 23.9524 169.514 23.7991 169.218 23.4925C168.922 23.186 168.838 22.7461 168.967 22.173C169.095 21.5998 169.475 21.0533 170.106 20.5335C170.736 20.0136 173.188 17.981 177.46 14.4354C175.555 13.2625 174.365 12.476 173.889 12.0762C173.413 11.6763 173.336 11.0632 173.657 10.2367C173.979 9.41035 174.532 8.48397 175.317 7.45763C176.102 6.43129 176.842 5.39829 177.537 4.35862C176.482 4.51857 175.594 4.70517 174.873 4.91844C174.153 5.1317 173.419 5.33164 172.673 5.51825C172.287 5.46493 171.939 5.31831 171.63 5.07839C171.322 4.65186 171.193 4.15868 171.244 3.59886L171.63 2.79911C174.359 1.91939 177.145 1.27293 179.989 0.859727C182.833 0.446525 185.683 0.159949 188.54 0L189.312 0.399873C189.595 0.74643 189.711 1.21295 189.659 1.79943L189.312 2.55919C188.205 2.9324 187.034 3.14567 185.799 3.19898C184.563 3.2523 183.186 3.43891 181.668 3.75881L176.881 10.4767C177.473 10.8499 178.695 11.4764 180.548 12.3561L183.791 9.39702C184.538 8.22406 185.516 7.63758 186.725 7.63758L187.497 8.03745C187.781 8.46398 187.896 8.97049 187.845 9.55697L187.497 10.3167C181.115 15.4618 177.074 18.914 175.375 20.6734L189.968 19.9937L188.54 18.3542C188.231 17.981 188.102 17.5144 188.154 16.9546L188.54 16.1549C188.952 15.8616 189.428 15.7417 189.968 15.795L190.74 16.1549C191.538 16.928 192.22 17.801 192.786 18.774C193.353 19.7471 194.189 20.8734 195.296 22.153C195.888 22.7394 196.158 23.4459 196.106 24.2723L195.72 25.0321C195.386 25.352 194.935 25.4852 194.369 25.4319L193.636 25.0321L191.86 22.8727L183.251 23.4725L183.482 34.8289L183.135 35.5887C182.775 35.9086 182.311 36.0419 181.745 35.9886ZM171.63 33.6693L170.897 33.2694C170.588 32.8429 170.459 32.3497 170.511 31.7899C171.154 30.9102 171.746 30.0238 172.287 29.1308C172.827 28.2377 173.381 27.3113 173.947 26.3516C174.384 25.9518 174.912 25.8051 175.53 25.9118L176.263 26.3116C176.572 26.6582 176.701 27.1247 176.649 27.7112C175.954 28.8042 175.427 29.6639 175.066 30.2904C174.706 30.9169 174.024 31.9099 173.02 33.2694C172.66 33.5893 172.197 33.7226 171.63 33.6693ZM193.79 32.9495L192.941 32.4697C192.22 31.9099 190.522 30.6436 187.845 28.6709C187.562 28.2977 187.446 27.8178 187.497 27.2314L187.845 26.4316C188.257 26.0851 188.759 25.9651 189.35 26.0717C190.354 26.5249 191.294 27.1514 192.169 27.9511C193.044 28.7509 194.035 29.5373 195.141 30.3104C195.424 30.7103 195.54 31.2034 195.489 31.7899L195.141 32.5497C194.781 32.8696 194.331 33.0029 193.79 32.9495Z" fill="#212529"/>
<path d="M141.173 33.4277C140.143 33.6143 139.519 33.3877 139.3 32.7479C139.082 32.1081 138.805 27.8428 138.47 19.952C137.647 20.5918 136.9 21.2716 136.231 21.9913C135.562 22.7111 134.468 23.9174 132.95 25.6102C131.431 27.303 129.939 28.7892 128.471 30.0688C127.957 30.6019 127.339 30.8152 126.618 30.7086L125.846 30.3087C125.537 29.9355 125.409 29.4556 125.46 28.8692L125.846 28.0694C129.939 24.1507 132.422 21.6981 133.297 20.7118C134.172 19.7254 135.073 18.7524 136 17.7927C135.382 17.3128 134.764 16.833 134.147 16.3531C133.529 15.8733 132.885 15.5001 132.216 15.2335C131.907 14.807 131.779 14.3005 131.83 13.714L132.216 12.9142C132.628 12.5943 133.117 12.461 133.683 12.5144C134.455 12.8343 135.189 13.2874 135.884 13.8739C136.579 14.4604 137.312 14.9669 138.084 15.3934C139.423 13.4741 140.684 11.7746 141.868 10.2951C143.052 8.81553 144.133 7.0361 145.111 4.95676L135.382 4.87678C134.661 6.26301 133.992 7.42931 133.374 8.37567C132.757 9.32204 131.946 10.435 130.942 11.7146C130.53 12.1411 130.016 12.3278 129.398 12.2744L128.626 11.8746C128.317 11.5013 128.188 11.0215 128.24 10.435C129.269 8.94216 130.241 7.31601 131.155 5.55657C132.068 3.79712 132.622 2.69747 132.815 2.25761C133.008 1.81775 133.555 1.65114 134.455 1.75777L147.813 1.83775C148.945 1.94438 149.331 2.63749 148.971 3.91709C148.045 6.20969 146.976 8.17574 145.767 9.81521C144.557 11.4547 143.438 12.9675 142.408 14.3538C141.379 15.74 140.658 16.833 140.246 17.6327C150.001 17.686 155.096 17.7127 155.534 17.7127C155.972 17.7127 156.139 18.2992 156.036 19.4721C155.933 27.443 155.875 31.8216 155.862 32.608C155.849 33.3944 155.032 33.641 153.411 33.3477L141.173 33.4277ZM152.87 30.2287L153.025 20.7517H141.559L142.176 30.3087L152.87 30.2287Z" fill="#212529"/>
<path d="M100.985 35.7095C100.573 35.6562 100.213 35.4962 99.9037 35.2296C99.5949 34.8564 99.4662 34.3766 99.5177 33.7901L99.9037 32.9904C101.551 32.1906 102.632 31.2976 103.147 30.3112L99.5949 30.3912C98.6684 30.3379 98.1407 30.018 98.0121 29.4315C97.8834 28.845 97.8705 28.0519 97.9735 27.0522C98.0764 26.0526 98.1279 25.1129 98.1279 24.2331C98.1279 23.3534 98.308 22.5403 98.6684 21.7939C99.0287 21.474 99.4919 21.3407 100.058 21.394L100.83 21.7939C101.191 22.2204 101.345 22.7536 101.294 23.3934L101.062 27.1522H104.228C104.382 26.2458 104.446 25.3128 104.421 24.3531C104.395 23.3934 104.562 22.5137 104.922 21.7139C105.283 21.394 105.746 21.2607 106.312 21.3141L107.084 21.7139C107.496 22.6736 107.638 23.8599 107.509 25.2728C107.38 26.6857 107.097 28.1186 106.66 29.5714C106.222 31.0243 105.386 32.3706 104.15 33.6102C102.915 34.8498 101.86 35.5495 100.985 35.7095ZM94.8078 35.6695L94.0357 35.2696C93.6754 34.2566 93.4952 33.1636 93.4952 31.9907C93.4952 30.8177 93.4695 29.6448 93.418 28.4718C91.7193 28.8983 90.0529 29.2582 88.4186 29.5514C86.7843 29.8447 85.1693 30.0979 83.5736 30.3112L82.8014 29.9113C82.4411 29.4848 82.2867 28.9783 82.3382 28.3918L82.7242 27.5521C83.6508 27.1255 84.6545 26.8856 85.7355 26.8323L85.8127 4.47941L83.9596 4.63936C83.4963 4.58604 83.0846 4.39943 82.7242 4.07953C82.4154 3.70632 82.2867 3.22647 82.3382 2.63999L82.7242 1.84024C83.136 1.52035 83.625 1.3604 84.1912 1.3604L97.5102 1.28042C97.922 1.33374 98.2823 1.49369 98.5911 1.76027C98.9 2.13348 99.0287 2.61333 98.9772 3.19981L98.5911 3.99956C98.1794 4.26614 97.7418 4.42609 97.2786 4.47941L95.6571 4.39943L96.5837 34.4699L96.1976 35.2696C95.8373 35.5895 95.374 35.7228 94.8078 35.6695ZM110.752 35.4296L109.98 35.0297C109.671 34.6032 109.478 34.1233 109.401 33.5902L109.324 22.5937C109.375 22.1671 109.542 21.7939 109.825 21.474C110.237 21.1541 110.726 21.0208 111.292 21.0741L112.065 21.474C112.373 21.9005 112.502 22.407 112.451 22.9935V27.4721L114.612 27.5521V22.9935C114.664 22.567 114.818 22.1938 115.076 21.8739C115.436 21.554 115.899 21.4207 116.466 21.474L117.238 21.8739L117.624 22.6736L117.701 29.2715C117.675 30.1779 117.437 30.6444 116.987 30.6711C116.536 30.6978 115.024 30.7111 112.451 30.7111L112.528 34.23L112.142 35.0297C111.781 35.3496 111.318 35.4829 110.752 35.4296ZM93.2636 25.3928L92.9547 19.5546L88.6695 19.8745L88.8239 26.2725L93.2636 25.3928ZM117.083 21.1541L116.234 20.7542C115.874 20.381 115.668 19.9545 115.616 19.4746L109.092 19.7945C108.371 19.6346 107.985 19.1814 107.934 18.435C108.397 17.0487 108.918 15.7158 109.497 14.4362C110.076 13.1567 110.597 11.8237 111.061 10.4375C109.594 8.51812 108.68 7.4318 108.32 7.17855C107.959 6.9253 107.882 6.53209 108.088 5.99892C108.757 5.09254 109.407 4.17284 110.038 3.2398C110.668 2.30676 111.318 1.44037 111.987 0.640625H112.682C113.043 0.800574 113.3 1.06716 113.454 1.44037V2.16014C113.043 2.85326 112.605 3.53304 112.142 4.1995C111.678 4.86595 111.241 5.54573 110.829 6.23885L112.219 7.87833L112.837 6.7187C113.197 6.45211 113.609 6.34548 114.072 6.3988C114.432 6.55875 114.69 6.82533 114.844 7.19854V7.9583C114.072 9.45116 113.377 10.984 112.759 12.5568C112.142 14.1297 111.524 15.6892 110.906 17.2354L114.304 17.1554C113.84 16.3556 113.583 15.5825 113.532 14.8361C113.686 14.4629 113.943 14.1963 114.304 14.0364H115.076C115.488 14.1963 115.771 14.4896 115.925 14.9161C116.337 15.8225 116.762 16.7022 117.199 17.5553C117.637 18.4083 117.984 19.3147 118.241 20.2744C118.087 20.6476 117.83 20.9142 117.469 21.0741L117.083 21.1541ZM106.003 20.5143L105.463 20.1944C105.206 19.8212 105 19.4213 104.845 18.9948L98.0507 19.4746C97.1499 19.3147 96.8925 18.8082 97.2786 17.9551C97.7933 16.6755 98.4239 15.4493 99.1702 14.2763C99.9166 13.1033 100.624 11.9037 101.294 10.6774L98.5139 8.03828C97.9992 7.66506 97.8962 7.25186 98.2051 6.79867C99.0287 5.78566 99.8523 4.74599 100.676 3.67966C101.499 2.61333 102.323 1.62698 103.147 0.7206H103.764C104.125 0.880549 104.382 1.14713 104.536 1.52035V2.24012C103.97 3.03986 103.391 3.83961 102.799 4.63936C102.207 5.4391 101.602 6.23885 100.985 7.03859L102.761 8.75805L104.073 6.63872C104.382 6.42546 104.742 6.34548 105.154 6.3988C105.566 6.55875 105.875 6.85199 106.081 7.27852V7.9583C104.742 9.71774 103.661 11.2906 102.838 12.6768C102.014 14.063 101.216 15.4493 100.444 16.8355L103.687 16.6755C103.275 16.0357 103.069 15.3959 103.069 14.7561C103.224 14.3829 103.481 14.1163 103.842 13.9564H104.614C105.18 14.3829 105.592 14.9428 105.849 15.6359C106.106 16.329 106.415 16.9954 106.776 17.6352C107.136 18.275 107.342 18.9681 107.393 19.7146C107.239 20.0878 106.981 20.3544 106.621 20.5143H106.003ZM92.8003 16.4356V15.5559L92.7231 12.9967L88.6695 13.1567V16.7555L92.8003 16.4356ZM92.5687 9.87769L92.6459 4.47941H88.8239L88.7467 10.0376L92.5687 9.87769Z" fill="#212529"/>
<path d="M59.1767 35.8284L58.4046 35.4286C57.9413 34.5222 57.7869 33.4559 57.9413 32.2296L58.0185 26.9912L53.6175 27.3111L52.8454 26.9113C52.5365 26.4847 52.4079 25.9782 52.4593 25.3917L52.8454 24.592C53.6175 24.2721 54.454 24.0855 55.3547 24.0322C56.2555 23.9789 57.1435 23.9255 58.0185 23.8722L58.0957 13.1556C56.1912 15.4482 54.4025 17.7675 52.7296 20.1134C51.0567 22.4593 49.358 24.8053 47.6336 27.1512L46.7071 28.3908C46.3468 28.7107 45.8835 28.844 45.3173 28.7907L44.5452 28.3908C44.2363 27.9376 44.1076 27.4178 44.1591 26.8313C46.1666 24.0055 48.1934 21.1664 50.2395 18.314C52.2856 15.4616 54.3896 12.6491 56.5515 9.87667L44.7768 10.1966L43.7731 9.71672C43.4642 9.34351 43.3355 8.86366 43.387 8.27718L43.7731 7.43745L44.6224 6.9576L57.9413 6.71768L57.6325 1.5993C57.684 1.17277 57.8384 0.799556 58.0957 0.479657C58.4561 0.159759 58.9193 0.0264679 59.4856 0.0797843L60.2577 0.479657C60.618 1.49267 60.811 2.50568 60.8367 3.51869C60.8625 4.5317 60.9011 5.59803 60.9526 6.71768L73.1133 6.6377L73.8854 7.03758C74.1943 7.41079 74.323 7.90397 74.2715 8.51711L73.8854 9.31685C73.5251 9.58343 73.1391 9.74338 72.7273 9.7967L62.2652 9.87667C65.5595 13.1823 67.8179 15.4482 69.0404 16.6745C70.263 17.9008 71.3375 18.9271 72.264 19.7535C73.1905 20.5799 74.1428 21.3664 75.1208 22.1128C75.687 22.5926 75.9444 23.2058 75.8929 23.9522L75.5069 24.752C75.1466 25.0719 74.6833 25.2051 74.1171 25.1518C72.9846 24.4054 71.878 23.5523 70.797 22.5926C69.716 21.6329 68.5643 20.5133 67.3418 19.2337C66.1193 17.9541 64.041 16.0614 61.107 13.5555L61.0298 23.8722H65.2764C66.2544 23.7656 67.1295 23.9522 67.9016 24.4321C68.2104 24.8053 68.3391 25.2851 68.2876 25.8716L67.9016 26.6713C67.1809 27.0979 66.3316 27.2312 65.3536 27.0712L61.0298 26.9912V32.4695C61.1327 33.5358 60.9783 34.5222 60.5665 35.4286C60.2062 35.7485 59.7429 35.8818 59.1767 35.8284Z" fill="#212529"/>
<path d="M7.06054 35.8281L6.28843 35.4282C5.87663 34.3086 5.68361 33.0823 5.70934 31.7494C5.73508 30.4165 5.67074 26.8309 5.51631 20.9928H1.65575C0.754954 20.9128 0.343161 20.353 0.420372 19.3133L5.4391 11.6358L2.35065 7.83697C2.09328 7.17051 2.19623 6.58403 2.6595 6.07753C4.66699 3.35839 6.05679 1.59895 6.82891 0.799203C7.2407 0.319355 7.79405 0.132748 8.48895 0.239381L9.26106 0.639254C9.5699 1.01247 9.69859 1.49232 9.64712 2.0788L5.90237 7.1172L7.4466 8.83665C7.9356 8.01025 8.54042 7.33046 9.26106 6.7973L10.4192 6.71732L11.1913 7.1172C11.5002 7.49041 11.6289 7.98359 11.5774 8.59673L5.36189 17.8738L9.80154 17.6339C9.33827 16.9941 9.13237 16.3809 9.18385 15.7944L9.5699 14.9947C9.9817 14.6215 10.4964 14.4882 11.1141 14.5948L11.8862 14.9947C12.5554 16.061 13.083 17.194 13.4691 18.3936C13.8551 19.5932 14.2283 20.8062 14.5886 22.0325L14.2026 22.8322C13.7908 23.1521 13.3018 23.2854 12.7356 23.2321L11.8862 22.7522C11.4744 22.1658 11.1913 21.526 11.0369 20.8328L8.56616 20.7529L8.875 34.6285L8.48895 35.4282C8.10289 35.7481 7.62676 35.8814 7.06054 35.8281ZM31.7681 34.5485L18.6036 34.3885C17.6513 34.5218 17.1302 34.3419 17.0401 33.8487C16.95 33.3555 16.905 30.2699 16.905 24.5917C16.9307 23.3121 17.2203 22.6989 17.7736 22.7522C18.3269 22.8056 20.7977 22.8589 25.1859 22.9122C29.574 22.9655 32.0384 23.0521 32.5789 23.1721C33.1193 23.2921 33.3124 23.8719 33.1579 24.9116L33.2352 32.6291C33.2866 33.962 32.7976 34.6018 31.7681 34.5485ZM1.19248 30.9496L0.420372 30.5498C0.0600532 30.1232 -0.0686322 29.5901 0.0343161 28.9503C0.549058 26.3111 0.986588 24.6183 1.34691 23.8719C1.81017 23.4454 2.37639 23.2854 3.04555 23.392L3.81767 23.7919C4.12651 24.1651 4.2552 24.645 4.20372 25.2315C3.43161 28.0839 2.89113 29.8566 2.58229 30.5498C2.22197 30.8697 1.7587 31.003 1.19248 30.9496ZM30.2239 32.1493V29.83L19.9162 29.5901L19.839 32.0693L30.2239 32.1493ZM12.6584 30.4698L11.8862 30.0699C10.5994 27.5374 9.87875 25.7913 9.72433 24.8316L10.1104 24.0318C10.5222 23.6586 11.0369 23.5253 11.6546 23.632L12.4267 24.0318C12.787 24.8849 13.2117 25.718 13.7007 26.531C14.1897 27.3441 14.4342 28.2572 14.4342 29.2702L14.0482 30.0699C13.6878 30.3898 13.2246 30.5231 12.6584 30.4698ZM30.1467 27.4707V25.3114L19.9162 25.0715V27.2308L30.1467 27.4707ZM32.7719 21.5926C21.7307 21.6193 16.017 21.5926 15.631 21.5126C15.2449 21.4327 15.0262 20.8595 14.9747 19.7932C15.0262 15.5812 15.1162 13.1886 15.2449 12.6155C15.3736 12.0423 15.9141 11.7291 16.8664 11.6758L33.3124 11.8757C33.9558 11.7957 34.3418 12.1956 34.4705 13.0753C34.5735 17.3939 34.5928 19.8998 34.5284 20.5929C34.4641 21.286 33.8786 21.6193 32.7719 21.5926ZM23.2363 19.2334L23.3907 14.115H18.2176L18.0631 19.2334H23.2363ZM31.3821 19.2334L31.4593 14.035L26.402 14.115L26.3247 19.2334H31.3821ZM20.92 18.3536C20.1993 17.7138 19.6074 16.9674 19.1441 16.1143V15.4745C19.2985 15.1013 19.5559 14.8347 19.9162 14.6748H20.6111C21.3832 15.2613 21.9494 15.9811 22.3098 16.8341V17.5539C22.1553 17.9271 21.898 18.1937 21.5376 18.3536H20.92ZM28.1392 18.2737C27.7532 18.1137 27.4829 17.8471 27.3285 17.4739V16.7541C27.766 15.9011 28.3194 15.1813 28.9885 14.5948H29.6834C30.0438 14.7548 30.3011 15.0214 30.4555 15.3946V16.1143C29.9923 16.9674 29.4261 17.6872 28.7569 18.2737H28.1392ZM13.9709 11.3958C13.5592 11.3425 13.1988 11.1826 12.89 10.916C12.5811 10.5428 12.4525 10.0629 12.5039 9.47645L12.89 8.6767C19.4272 3.26509 22.9532 0.419324 23.4679 0.139413C23.9827 -0.140499 24.6776 0.0261152 25.5526 0.639254C31.8067 5.0112 35.2684 7.4371 35.9375 7.91694C36.2464 8.31682 36.3751 8.80999 36.3236 9.39647L35.9375 10.1962C35.5258 10.5694 35.011 10.7027 34.3933 10.5961C32.6432 9.52977 29.1558 7.22383 23.9312 3.67829L15.2835 10.916C14.8717 11.1826 14.4342 11.3425 13.9709 11.3958ZM27.4829 10.5161C26.2475 10.3562 24.9864 10.2629 23.6996 10.2362C22.4127 10.2096 21.2031 10.0096 20.0706 9.6364C19.8647 9.36982 19.7875 9.02326 19.839 8.59673C19.9934 8.22351 20.2508 7.95693 20.6111 7.79698C22.9274 7.90362 24.6004 7.97026 25.6298 7.99692C26.6593 8.02358 27.6502 8.22351 28.6025 8.59673C28.8084 8.86331 28.8856 9.20987 28.8341 9.6364C28.6797 10.0096 28.4223 10.2762 28.062 10.4361L27.4829 10.5161Z" fill="#212529"/>
</svg>
