<svg width="173" height="28" viewBox="0 0 173 28" fill="none" xmlns="http://www.w3.org/2000/svg">
<rect width="172" height="20" transform="translate(0 8)" fill="#FEE6B2"/>
<path d="M152.22 27.5244C151.925 27.4829 151.667 27.3585 151.445 27.1512C151.224 26.8609 151.132 26.4877 151.169 26.0315L151.445 25.4095C151.962 25.1192 152.492 24.6113 153.036 23.8856C153.58 23.1599 154.175 22.4342 154.821 21.7085C155.466 20.9828 155.973 20.0601 156.342 18.9405L153.742 16.95C153.502 16.6182 153.4 16.2243 153.437 15.7681L153.742 15.1461C154.037 14.8973 154.387 14.7936 154.793 14.8351C155.236 15.001 155.66 15.2601 156.066 15.6126C156.471 15.9651 156.877 16.3072 157.283 16.639C157.578 15.6437 157.846 14.6174 158.085 13.5599C158.325 12.5025 158.556 11.4554 158.777 10.4187L153.548 10.3565C153.179 11.3932 152.773 12.4092 152.331 13.4044C151.888 14.3997 151.445 15.3949 151.003 16.3902C150.707 16.6804 150.357 16.8048 149.951 16.7634L149.398 16.4524C149.176 16.1621 149.084 15.7889 149.121 15.3327C149.896 13.5081 150.634 11.6835 151.335 9.8589C152.035 8.03429 152.515 6.11638 152.773 4.10517H149.951C149.435 4.14664 148.974 4.0015 148.568 3.66975C148.346 3.37947 148.254 3.00626 148.291 2.55011L148.568 1.92808C148.974 1.59634 149.49 1.5134 150.117 1.67927L160.99 1.74148L161.544 2.05249C161.765 2.34277 161.857 2.71598 161.821 3.17213L161.544 3.79416C161.286 4.0015 161.009 4.1259 160.714 4.16737H155.014C154.904 4.7894 154.784 5.42697 154.655 6.0801C154.526 6.73323 154.406 7.3708 154.295 7.99283H160.437C161.304 8.05503 161.581 8.59412 161.267 9.61009C160.714 12.3055 160.031 14.9802 159.22 17.6342C158.408 20.2882 157.472 22.2994 156.412 23.6678C155.351 25.0363 154.406 26.0937 153.576 26.8402C153.188 27.2134 152.736 27.4415 152.22 27.5244ZM171.227 26.9024C170.527 26.695 169.853 26.3737 169.208 25.9382C168.562 25.5028 167.917 25.0778 167.271 24.6631C167.05 24.3728 166.957 23.9996 166.994 23.5434L167.271 22.9214C167.585 22.6726 167.944 22.5689 168.35 22.6104L170.176 23.6678L169.761 2.55011C169.798 2.21836 169.909 1.92808 170.093 1.67927C170.351 1.43046 170.683 1.32679 171.089 1.36826L171.642 1.67927C171.901 2.46717 172.039 3.31727 172.057 4.22958C172.076 5.14188 172.223 12.3677 172.5 25.9071C172.334 26.8609 171.91 27.1927 171.227 26.9024ZM164.532 16.5768L163.979 16.2658C163.794 16.0169 163.683 15.7267 163.647 15.3949L163.591 5.16261C163.517 4.1259 163.647 3.17213 163.979 2.3013C164.237 2.05249 164.569 1.94882 164.975 1.99029L165.528 2.3013C165.823 3.13066 165.897 4.08444 165.749 5.16261L165.805 15.6437L165.528 16.2658C165.27 16.5146 164.938 16.6182 164.532 16.5768Z" fill="#212529"/>
<path d="M130.752 27.9911L130.226 27.6801C129.968 26.6849 129.839 25.6222 129.839 24.4922C129.839 23.3622 129.802 21.3251 129.728 18.3808C127.33 18.3808 125.73 18.4223 124.928 18.5052C124.125 18.5882 123.452 18.6296 122.908 18.6296C122.364 18.6296 121.986 18.5104 121.774 18.272C121.561 18.0335 121.501 17.6914 121.594 17.2456C121.686 16.7999 121.958 16.3748 122.41 15.9705C122.862 15.5662 124.619 13.9852 127.681 11.2275C126.316 10.3152 125.463 9.70359 125.121 9.39257C124.78 9.08156 124.725 8.60468 124.955 7.96192C125.186 7.31916 125.582 6.59865 126.145 5.80038C126.708 5.00212 127.238 4.19867 127.736 3.39003C126.98 3.51444 126.343 3.65958 125.827 3.82545C125.31 3.99133 124.785 4.14683 124.25 4.29197C123.973 4.2505 123.724 4.13646 123.503 3.94986C123.281 3.61811 123.189 3.23453 123.226 2.79911L123.503 2.17709C125.458 1.49286 127.455 0.990056 129.493 0.668677C131.531 0.347297 133.574 0.124405 135.621 0L136.174 0.311012C136.377 0.580556 136.46 0.943404 136.423 1.39956L136.174 1.99048C135.381 2.28076 134.542 2.44663 133.657 2.4881C132.771 2.52957 131.785 2.67471 130.696 2.92352L127.266 8.14852C127.69 8.4388 128.566 8.92606 129.894 9.61028L132.218 7.30879C132.753 6.39649 133.454 5.94034 134.321 5.94034L134.874 6.25135C135.077 6.5831 135.16 6.97704 135.123 7.4332L134.874 8.02412C130.3 12.0258 127.404 14.7109 126.186 16.0793L136.645 15.5506L135.621 14.2755C135.4 13.9852 135.308 13.6223 135.344 13.1869L135.621 12.5649C135.916 12.3368 136.257 12.2435 136.645 12.285L137.198 12.5649C137.77 13.1662 138.259 13.8452 138.665 14.602C139.07 15.3588 139.67 16.2348 140.463 17.2301C140.887 17.6862 141.081 18.2357 141.044 18.8785L140.767 19.4694C140.527 19.7182 140.205 19.8219 139.799 19.7804L139.273 19.4694L138.001 17.7899L131.831 18.2564L131.997 27.0892L131.748 27.6801C131.489 27.9289 131.157 28.0326 130.752 27.9911ZM123.503 26.1872L122.977 25.8762C122.756 25.5445 122.663 25.1609 122.7 24.7255C123.162 24.0413 123.586 23.3518 123.973 22.6573C124.36 21.9627 124.757 21.2421 125.163 20.4957C125.476 20.1847 125.854 20.0707 126.297 20.1536L126.823 20.4646C127.044 20.7342 127.136 21.097 127.1 21.5532C126.601 22.4033 126.223 23.0719 125.965 23.5592C125.707 24.0464 125.218 24.8188 124.499 25.8762C124.241 26.125 123.909 26.2287 123.503 26.1872ZM139.384 25.6274L138.775 25.2542C138.259 24.8188 137.041 23.8339 135.123 22.2996C134.92 22.0093 134.837 21.6361 134.874 21.1799L135.123 20.5579C135.418 20.2884 135.778 20.1951 136.202 20.278C136.921 20.6305 137.595 21.1177 138.222 21.7398C138.849 22.3618 139.559 22.9734 140.352 23.5747C140.555 23.8858 140.638 24.2693 140.601 24.7255L140.352 25.3164C140.094 25.5652 139.771 25.6689 139.384 25.6274Z" fill="#212529"/>
<path d="M101.674 26.0002C100.936 26.1453 100.489 25.9691 100.332 25.4715C100.175 24.9739 99.9769 21.6564 99.7371 15.5191C99.1469 16.0167 98.612 16.5454 98.1324 17.1053C97.6528 17.6651 96.8689 18.6033 95.7807 19.9199C94.6924 21.2365 93.6226 22.3925 92.5712 23.3877C92.2023 23.8024 91.7597 23.9683 91.2432 23.8853L90.6899 23.5743C90.4685 23.284 90.3763 22.9108 90.4132 22.4547L90.6899 21.8326C93.6226 18.7847 95.4026 16.8772 96.0297 16.11C96.6568 15.3428 97.3024 14.5861 97.9664 13.8396C97.5237 13.4664 97.081 13.0932 96.6384 12.72C96.1957 12.3468 95.7346 12.0565 95.255 11.8491C95.0337 11.5174 94.9414 11.1234 94.9783 10.6673L95.255 10.0453C95.5501 9.79646 95.9006 9.69279 96.3064 9.73426C96.8597 9.98307 97.3854 10.3355 97.8834 10.7917C98.3814 11.2479 98.9071 11.6418 99.4605 11.9735C100.42 10.4807 101.323 9.15888 102.172 8.00814C103.02 6.85739 103.795 5.47339 104.496 3.85612L97.5237 3.79392C97.0073 4.8721 96.5277 5.77922 96.085 6.51528C95.6423 7.25134 95.0613 8.11699 94.342 9.11223C94.0468 9.44398 93.6779 9.58912 93.2353 9.54765L92.6819 9.23664C92.4606 8.94636 92.3683 8.57314 92.4052 8.11699C93.143 6.95588 93.8393 5.6911 94.4941 4.32264C95.1489 2.95419 95.5455 2.0989 95.6838 1.75679C95.8222 1.41468 96.2141 1.28509 96.8597 1.36802L106.433 1.43023C107.244 1.51316 107.521 2.05225 107.263 3.04749C106.599 4.83063 105.833 6.35977 104.966 7.63492C104.099 8.91007 103.297 10.0867 102.559 11.1649C101.821 12.2431 101.305 13.0932 101.01 13.7152C108 13.7567 111.653 13.7774 111.966 13.7774C112.28 13.7774 112.4 14.2336 112.326 15.1459C112.252 21.3454 112.211 24.751 112.201 25.3626C112.192 25.9743 111.606 26.1661 110.444 25.938L101.674 26.0002ZM110.057 23.5121L110.168 16.1411H101.951L102.393 23.5743L110.057 23.5121Z" fill="#212529"/>
<path d="M72.8733 27.7719C72.5781 27.7304 72.3199 27.606 72.0986 27.3987C71.8772 27.1084 71.785 26.7352 71.8219 26.279L72.0986 25.657C73.2791 25.035 74.0537 24.3404 74.4226 23.5732L71.8772 23.6354C71.2132 23.5939 70.8351 23.3451 70.7429 22.889C70.6506 22.4328 70.6414 21.816 70.7152 21.0385C70.789 20.2609 70.8259 19.5301 70.8259 18.8458C70.8259 18.1616 70.955 17.5292 71.2132 16.9486C71.4714 16.6998 71.8035 16.5962 72.2092 16.6376L72.7626 16.9486C73.0208 17.2804 73.1315 17.6951 73.0946 18.1927L72.9286 21.1162H75.1973C75.308 20.4113 75.3541 19.6856 75.3357 18.9391C75.3172 18.1927 75.4371 17.5085 75.6954 16.8864C75.9536 16.6376 76.2856 16.534 76.6914 16.5754L77.2447 16.8864C77.5399 17.6329 77.6413 18.5555 77.5491 19.6545C77.4569 20.7534 77.254 21.8678 76.9404 22.9978C76.6268 24.1279 76.0274 25.1749 75.142 26.1391C74.2566 27.1032 73.5004 27.6475 72.8733 27.7719ZM68.4465 27.7408L67.8931 27.4298C67.6349 26.6419 67.5058 25.7918 67.5058 24.8795C67.5058 23.9672 67.4873 23.0549 67.4504 22.1426C66.2331 22.4743 65.0387 22.7542 63.8675 22.9823C62.6962 23.2104 61.5388 23.4073 60.3952 23.5732L59.8419 23.2622C59.5836 22.9305 59.473 22.5365 59.5099 22.0804L59.7865 21.4272C60.4506 21.0955 61.1699 20.9089 61.9446 20.8674L61.9999 3.48181L60.6719 3.60622C60.3399 3.56475 60.0448 3.41961 59.7865 3.1708C59.5652 2.88052 59.473 2.50731 59.5099 2.05116L59.7865 1.42913C60.0817 1.18032 60.4321 1.05592 60.8379 1.05592L70.3832 0.993714C70.6783 1.03518 70.9365 1.15959 71.1579 1.36693C71.3792 1.65721 71.4714 2.03042 71.4346 2.48657L71.1579 3.1086C70.8628 3.31594 70.5492 3.44034 70.2172 3.48181L69.0552 3.41961L69.7192 26.8077L69.4425 27.4298C69.1843 27.6786 68.8523 27.7822 68.4465 27.7408ZM79.8731 27.5542L79.3198 27.2432C79.0985 26.9114 78.9601 26.5382 78.9048 26.1235L78.8494 17.5707C78.8863 17.2389 79.0062 16.9486 79.2091 16.6998C79.5042 16.451 79.8547 16.3474 80.2605 16.3888L80.8138 16.6998C81.0352 17.0316 81.1274 17.4255 81.0905 17.8817V21.365L82.6399 21.4272V17.8817C82.6768 17.5499 82.7875 17.2597 82.9719 17.0108C83.2301 16.762 83.5621 16.6584 83.9679 16.6998L84.5213 17.0108L84.798 17.6329L84.8533 22.7646C84.8349 23.4695 84.6642 23.8324 84.3415 23.8531C84.0187 23.8739 82.935 23.8842 81.0905 23.8842L81.1459 26.6211L80.8692 27.2432C80.6109 27.492 80.2789 27.5956 79.8731 27.5542ZM67.3398 19.7478L67.1184 15.207L64.0473 15.4558L64.158 20.432L67.3398 19.7478ZM84.4106 16.451L83.8019 16.14C83.5437 15.8497 83.3961 15.518 83.3593 15.1448L78.6834 15.3936C78.167 15.2692 77.8903 14.9167 77.8534 14.3361C78.1854 13.258 78.5589 12.2213 78.974 11.226C79.389 10.2308 79.7625 9.19407 80.0945 8.1159C79.0431 6.62304 78.3883 5.77812 78.1301 5.58115C77.8719 5.38417 77.8165 5.07834 77.9641 4.66366C78.4437 3.9587 78.9094 3.24337 79.3613 2.51767C79.8132 1.79198 80.2789 1.11812 80.7585 0.496094H81.2565C81.5148 0.620499 81.6992 0.82784 81.8099 1.11812V1.67794C81.5148 2.21703 81.2012 2.74575 80.8692 3.2641C80.5372 3.78246 80.2236 4.31118 79.9285 4.85027L80.9245 6.12542L81.3672 5.22348C81.6254 5.01614 81.9205 4.9332 82.2526 4.97467C82.5108 5.09908 82.6952 5.30642 82.8059 5.5967V6.18762C82.2526 7.34873 81.7545 8.54095 81.3119 9.76426C80.8692 10.9876 80.4265 12.2005 79.9838 13.4031L82.4186 13.3409C82.0865 12.7189 81.9021 12.1176 81.8652 11.537C81.9759 11.2468 82.1603 11.0394 82.4186 10.915H82.9719C83.267 11.0394 83.4699 11.2675 83.5806 11.5992C83.8757 12.3042 84.1801 12.9884 84.4936 13.6519C84.8072 14.3154 85.0562 15.0204 85.2406 15.7668C85.13 16.0571 84.9455 16.2644 84.6873 16.3888L84.4106 16.451ZM76.47 15.9534L76.0827 15.7046C75.8982 15.4143 75.7507 15.1033 75.64 14.7716L70.7705 15.1448C70.125 15.0204 69.9405 14.6264 70.2172 13.9629C70.5861 12.9677 71.038 12.0139 71.5729 11.1016C72.1078 10.1893 72.615 9.25628 73.0946 8.3025L71.1025 6.24982C70.7336 5.95954 70.6599 5.63816 70.8812 5.28568C71.4714 4.49779 72.0617 3.68915 72.6519 2.85979C73.2422 2.03042 73.8324 1.26326 74.4226 0.558296H74.8653C75.1236 0.682701 75.308 0.890043 75.4187 1.18032V1.74014C75.0129 2.36217 74.5979 2.98419 74.1736 3.60622C73.7494 4.22824 73.3159 4.85027 72.8733 5.47229L74.146 6.80964L75.0867 5.16128C75.308 4.99541 75.5662 4.9332 75.8614 4.97467C76.1565 5.09908 76.3778 5.32715 76.5254 5.6589V6.18762C75.5662 7.55607 74.7915 8.77939 74.2013 9.85757C73.6111 10.9357 73.0393 12.0139 72.4859 13.0921L74.81 12.9677C74.5149 12.4701 74.3673 11.9725 74.3673 11.4748C74.478 11.1846 74.6624 10.9772 74.9207 10.8528H75.474C75.8798 11.1846 76.1749 11.62 76.3594 12.1591C76.5438 12.6981 76.7652 13.2165 77.0234 13.7141C77.2816 14.2117 77.4292 14.7508 77.4661 15.3314C77.3554 15.6217 77.171 15.829 76.9127 15.9534H76.47ZM67.0078 12.7811V12.0969L66.9524 10.1064L64.0473 10.2308V13.0299L67.0078 12.7811ZM66.8418 7.68048L66.8971 3.48181H64.158L64.1027 7.80488L66.8418 7.68048Z" fill="#212529"/>
<path d="M42.9099 27.8661L42.3565 27.5551C42.0245 26.8502 41.9138 26.0208 42.0245 25.067L42.0798 20.9928L38.9257 21.2416L38.3724 20.9306C38.151 20.5988 38.0588 20.2049 38.0957 19.7487L38.3724 19.1267C38.9257 18.8779 39.5252 18.7327 40.1708 18.6913C40.8163 18.6498 41.4527 18.6083 42.0798 18.5669L42.1352 10.2317C40.7702 12.0149 39.4883 13.8187 38.2894 15.6433C37.0905 17.4679 35.8731 19.2926 34.6373 21.1172L33.9732 22.0813C33.715 22.3301 33.383 22.4338 32.9772 22.3923L32.4239 22.0813C32.2025 21.7288 32.1103 21.3245 32.1472 20.8683C33.5859 18.6705 35.0384 16.4623 36.5048 14.2438C37.9712 12.0252 39.4791 9.83778 41.0285 7.68142L32.5899 7.93023L31.8705 7.55702C31.6492 7.26674 31.557 6.89353 31.5938 6.43737L31.8705 5.78425L32.4792 5.41103L42.0245 5.22443L41.8032 1.24347C41.84 0.911721 41.9507 0.621443 42.1352 0.372633C42.3934 0.123823 42.7254 0.0201521 43.1312 0.0616204L43.6845 0.372633C43.9428 1.16053 44.0811 1.94843 44.0996 2.73633C44.118 3.52423 44.1457 4.35359 44.1826 5.22443L52.8978 5.16222L53.4512 5.47324C53.6725 5.76351 53.7647 6.1471 53.7278 6.62398L53.4512 7.24601C53.1929 7.45335 52.9163 7.57775 52.6211 7.61922L45.1233 7.68142C47.4842 10.2525 49.1028 12.0149 49.9789 12.9686C50.855 13.9224 51.6251 14.7207 52.2891 15.3634C52.9532 16.0062 53.6356 16.6178 54.3365 17.1984C54.7423 17.5716 54.9268 18.0485 54.8899 18.6291L54.6132 19.2511C54.355 19.4999 54.023 19.6036 53.6172 19.5621C52.8056 18.9815 52.0125 18.318 51.2378 17.5716C50.4631 16.8252 49.6377 15.9544 48.7615 14.9591C47.8854 13.9639 46.396 12.4917 44.2932 10.5427L44.2379 18.5669H47.2813C47.9822 18.4839 48.6094 18.6291 49.1627 19.0023C49.384 19.2926 49.4763 19.6658 49.4394 20.1219L49.1627 20.7439C48.6463 21.0757 48.0376 21.1794 47.3367 21.055L44.2379 20.9928V25.2536C44.3117 26.083 44.201 26.8502 43.9059 27.5551C43.6477 27.8039 43.3156 27.9076 42.9099 27.8661Z" fill="#212529"/>
<path d="M5.56008 27.868L5.00673 27.557C4.71161 26.6862 4.57327 25.7324 4.59172 24.6957C4.61016 23.659 4.56405 20.8702 4.45338 16.3295H1.68663C1.04105 16.2673 0.745933 15.8318 0.801268 15.0232L4.39804 9.05177L2.18464 6.09716C2.00019 5.5788 2.07397 5.12265 2.40598 4.7287C3.84469 2.61382 4.84072 1.24536 5.39407 0.623338C5.68919 0.250124 6.08576 0.104985 6.58378 0.187921L7.13713 0.498934C7.35847 0.789212 7.45069 1.16243 7.4138 1.61858L4.73005 5.53733L5.83675 6.87469C6.18721 6.23193 6.62067 5.70321 7.13713 5.28852L7.96715 5.22632L8.5205 5.53733C8.74184 5.82761 8.83407 6.21119 8.79718 6.68808L4.34271 13.9036L7.52447 13.717C7.19246 13.2193 7.0449 12.7425 7.08179 12.2863L7.35847 11.6643C7.65359 11.374 8.02249 11.2703 8.46517 11.3533L9.01852 11.6643C9.49809 12.4936 9.87621 13.3748 10.1529 14.3079C10.4296 15.2409 10.697 16.1843 10.9552 17.1381L10.6786 17.7601C10.3834 18.0089 10.033 18.1126 9.6272 18.0711L9.01852 17.6979C8.7234 17.2418 8.5205 16.7441 8.40983 16.2051L6.63911 16.1429L6.86045 26.935L6.58378 27.557C6.3071 27.8058 5.96587 27.9095 5.56008 27.868ZM23.2673 26.8728L13.8327 26.7484C13.1502 26.852 12.7767 26.7121 12.7121 26.3285C12.6476 25.9449 12.6153 23.545 12.6153 19.1286C12.6337 18.1333 12.8412 17.6565 13.2378 17.6979C13.6344 17.7394 15.4051 17.7809 18.55 17.8223C21.6948 17.8638 23.461 17.9312 23.8483 18.0245C24.2356 18.1178 24.374 18.5688 24.2633 19.3774L24.3186 25.3799C24.3555 26.4166 24.0051 26.9143 23.2673 26.8728ZM1.35462 24.0737L0.801268 23.7627C0.543038 23.4309 0.450813 23.0162 0.524593 22.5186C0.893493 20.4659 1.20706 19.1493 1.46529 18.5688C1.7973 18.237 2.20309 18.1126 2.68266 18.1955L3.23601 18.5066C3.45735 18.7968 3.54957 19.17 3.51268 19.6262C2.95933 21.8448 2.57199 23.2236 2.35065 23.7627C2.09242 24.0115 1.76041 24.1151 1.35462 24.0737ZM22.1606 25.0067V23.2028L14.7734 23.0162L14.718 24.9445L22.1606 25.0067ZM9.57187 23.7005L9.01852 23.3894C8.09627 21.4197 7.57981 20.0616 7.46914 19.3152L7.74581 18.6932C8.04093 18.4029 8.40983 18.2992 8.85251 18.3821L9.40586 18.6932C9.66409 19.3567 9.96843 20.0046 10.3189 20.637C10.6693 21.2694 10.8446 21.9795 10.8446 22.7674L10.5679 23.3894C10.3097 23.6383 9.97766 23.7419 9.57187 23.7005ZM22.1052 21.3679V19.6884L14.7734 19.5018V21.1813L22.1052 21.3679ZM23.9866 16.796C16.0737 16.8167 11.9789 16.796 11.7023 16.7338C11.4256 16.6716 11.2688 16.2258 11.2319 15.3964C11.2688 12.1204 11.3334 10.2595 11.4256 9.81376C11.5178 9.36797 11.9052 9.12434 12.5876 9.08288L24.374 9.23838C24.8351 9.17618 25.1118 9.48719 25.204 10.1714C25.2778 13.5304 25.2916 15.4794 25.2455 16.0185C25.1994 16.5575 24.7798 16.8167 23.9866 16.796ZM17.1528 14.961L17.2634 10.9801H13.556L13.4453 14.961H17.1528ZM22.9906 14.961L23.0459 10.9178L19.4215 10.9801L19.3662 14.961H22.9906ZM15.4927 14.2768C14.9763 13.7792 14.552 13.1986 14.22 12.5351V12.0375C14.3307 11.7472 14.5151 11.5399 14.7734 11.4155H15.2714C15.8247 11.8716 16.2305 12.4314 16.4887 13.0949V13.6548C16.3781 13.945 16.1936 14.1524 15.9354 14.2768H15.4927ZM20.6665 14.2146C20.3899 14.0902 20.1962 13.8828 20.0855 13.5926V13.0327C20.3991 12.3692 20.7957 11.8094 21.2752 11.3533H21.7732C22.0315 11.4777 22.2159 11.685 22.3266 11.9753V12.5351C21.9946 13.1986 21.5888 13.7584 21.1092 14.2146H20.6665ZM10.5126 8.86517C10.2174 8.8237 9.95921 8.69929 9.73787 8.49195C9.51653 8.20167 9.42431 7.82846 9.4612 7.37231L9.73787 6.75028C14.4229 2.54125 16.9499 0.327877 17.3188 0.110168C17.6877 -0.107541 18.1857 0.0220479 18.8128 0.498934C23.2949 3.89934 25.7758 5.78614 26.2554 6.15936C26.4767 6.47037 26.5689 6.85395 26.532 7.31011L26.2554 7.93213C25.9603 8.22241 25.5914 8.32608 25.1487 8.24314C23.8944 7.41378 21.3951 5.62027 17.6508 2.86263L11.4533 8.49195C11.1581 8.69929 10.8446 8.8237 10.5126 8.86517ZM20.1962 8.18094C19.3108 8.05654 18.407 7.98397 17.4848 7.96323C16.5625 7.9425 15.6956 7.78699 14.884 7.49671C14.7365 7.28937 14.6811 7.01983 14.718 6.68808C14.8287 6.3978 15.0131 6.19046 15.2714 6.06606C16.9314 6.14899 18.1303 6.20083 18.8681 6.22156C19.6059 6.2423 20.3161 6.3978 20.9985 6.68808C21.1461 6.89542 21.2014 7.16497 21.1646 7.49671C21.0539 7.78699 20.8694 7.99433 20.6112 8.11874L20.1962 8.18094Z" fill="#212529"/>
</svg>
