<svg width="160" height="36" viewBox="0 0 160 36" fill="none" xmlns="http://www.w3.org/2000/svg">
<rect width="160" height="20" transform="translate(0 16)" fill="#FEE6B2"/>
<path d="M144.074 35.6808C143.28 35.424 142.473 35.1801 141.653 34.9489C140.833 34.7178 140.078 34.3711 139.39 33.9089C139.073 33.5494 138.941 33.0871 138.994 32.5222L139.39 31.7518C139.814 31.4436 140.317 31.3152 140.899 31.3666C141.64 31.7774 142.407 32.0599 143.201 32.214L143.36 29.7487H134.786C134.363 29.6973 133.979 29.5433 133.635 29.2865C133.318 28.9269 133.185 28.4519 133.238 27.8612L133.635 27.0908L134.469 26.7056H143.201L143.121 24.9337L129.904 25.0107L129.11 24.6255C128.793 24.266 128.661 23.8037 128.714 23.2388L129.11 22.4684C129.64 22.1088 130.222 21.9291 130.857 21.9291H143.042L142.963 20.3112L133.992 20.5423C133.543 20.491 133.159 20.3369 132.841 20.0801C132.524 19.7206 132.392 19.2583 132.444 18.6934L132.841 17.923L133.635 17.5378L142.963 17.3066L142.883 15.3036L133.635 15.6888C133.027 15.432 132.623 15.0725 132.425 14.6102C132.226 14.148 132.114 13.3776 132.087 12.299C132.061 11.2204 132.048 10.1419 132.048 9.06328C132.259 8.6524 132.577 8.35708 133 8.17732L142.724 7.94619L142.566 5.71202L129.11 6.02018C128.687 5.96882 128.317 5.81474 127.999 5.55793C127.682 5.19841 127.549 4.73617 127.602 4.1712L127.999 3.4008C128.528 3.04127 129.163 2.88719 129.904 2.93855L142.328 2.70743C142.222 1.8343 142.38 1.06389 142.804 0.396209C143.174 0.0880465 143.651 -0.0403546 144.233 0.0110058L145.027 0.396209C145.45 1.06389 145.582 1.8343 145.423 2.70743L158.72 2.47631L159.514 2.86151C159.884 3.27239 160.043 3.76032 159.99 4.32528L159.593 5.09569C158.905 5.45521 158.125 5.63497 157.251 5.63497C156.378 5.63497 152.541 5.68634 145.741 5.78906L145.82 7.79211H155.624C155.995 7.94619 156.259 8.21584 156.418 8.60104L156.656 13.9168C156.444 14.6873 155.809 15.0725 154.751 15.0725H145.979L146.059 17.1526C151.033 16.9985 153.898 16.9535 154.652 17.0177C155.406 17.0819 155.809 17.4607 155.862 18.1541V21.775C157.185 21.6209 158.376 21.7493 159.434 22.1602C159.752 22.5197 159.884 22.982 159.831 23.5469L159.434 24.3173C158.376 24.7796 157.159 24.9337 155.783 24.7796C155.783 26.7056 155.77 27.9126 155.743 28.4005C155.717 28.8884 155.366 29.2351 154.691 29.4405C154.017 29.646 151.271 29.723 146.455 29.6717L146.535 34.4482C146.27 35.5781 145.45 35.989 144.074 35.6808ZM152.568 26.5515V24.8566L146.217 24.9337L146.297 26.6286L152.568 26.5515ZM152.727 21.852V20.2342L146.059 20.1571L146.138 21.9291L152.727 21.852ZM142.883 13.0694V10.2189L135.183 10.373L135.421 13.2235L142.883 13.0694ZM153.52 12.7612L153.362 10.0648H145.979V12.8383L153.52 12.7612Z" fill="#212529"/>
<path d="M99.8994 35.989C99.476 35.9376 99.1055 35.7835 98.788 35.5267C98.4705 35.1672 98.3382 34.705 98.3911 34.14L98.788 33.3696C99.476 33.0614 100.124 32.6634 100.733 32.1755C101.341 31.6875 102.016 31.0455 102.757 30.2495C103.498 29.4534 104.305 28.5353 105.178 27.4952C106.051 26.4552 106.806 25.2675 107.441 23.9321C106.594 22.8022 105.827 21.6209 105.139 20.3882C104.451 19.1556 103.816 17.8973 103.233 16.6133H103.075L102.44 17.6918C102.069 18 101.593 18.1284 101.011 18.077L100.217 17.6918C99.8994 17.2809 99.767 16.793 99.82 16.2281C101.037 13.9682 101.857 11.5992 102.281 9.12105C102.704 6.64291 103.18 4.19687 103.71 1.78293C104.08 1.47477 104.556 1.34636 105.139 1.39772L105.932 1.78293C106.303 2.34789 106.435 3.01558 106.329 3.78599L105.774 7.56098L117.562 7.17577L118.356 7.56098C118.673 7.9205 118.806 8.39559 118.753 8.98623L118.356 9.75664C117.721 10.1675 116.953 10.3216 116.054 10.2189C115.63 12.6328 115.075 15.0339 114.387 17.4222C113.699 19.8104 112.72 22.1088 111.449 24.3173C112.085 25.4473 112.772 26.5836 113.513 27.7264C114.254 28.8691 114.916 29.8 115.498 30.5191C116.08 31.2381 116.847 31.8545 117.8 32.3681C118.17 32.779 118.329 33.2669 118.276 33.8318L117.879 34.6023C117.509 34.9104 117.033 35.0388 116.451 34.9875C115.551 34.7307 114.651 34.0886 113.752 33.0614C112.852 32.0342 112.065 31.0263 111.39 30.0376C110.715 29.0489 110.06 28.041 109.425 27.0137C108.499 28.4262 107.335 29.8771 105.932 31.3665C104.53 32.856 103.438 33.9474 102.658 34.6408C101.877 35.3341 100.958 35.7835 99.8994 35.989ZM87.3967 30.2109C86.2853 30.2366 85.6767 29.9862 85.5709 29.4598C85.465 28.9333 85.2798 25.062 85.0152 17.8459C84.9623 17.1525 85.1409 16.6967 85.551 16.4784C85.9612 16.2602 87.5025 16.2024 90.175 16.3051V10.527L85.4121 10.6811L84.6183 10.2959C84.3007 9.9364 84.1684 9.47415 84.2214 8.90919L84.6183 8.10026C85.465 7.74074 86.3779 7.56098 87.357 7.56098C88.336 7.56098 89.3018 7.5353 90.2544 7.48394V4.01711C90.3073 3.60622 90.4661 3.2467 90.7307 2.93854C91.1276 2.63038 91.6171 2.50197 92.1993 2.55333L92.9931 2.93854L93.39 3.70894V7.32986H98.4705L99.2643 7.71506C99.5818 8.07458 99.7141 8.54967 99.6612 9.14031L99.2643 9.91072C98.8938 10.1675 98.4969 10.3216 98.0736 10.373H93.3106V15.9969L97.4385 15.9199C98.444 16.0226 99.0129 16.2666 99.1452 16.6518C99.2775 17.037 99.2908 19.04 99.1849 22.6609C99.0791 26.2819 98.9732 28.439 98.8674 29.1324C98.7615 29.8257 98.3382 30.1339 97.5973 30.0569L87.3967 30.2109ZM95.8509 27.0137L96.0096 18.9245L88.1905 19.1556L88.508 27.1678L95.8509 27.0137ZM109.425 21.2357C110.325 19.4894 111.033 17.7303 111.549 15.9584C112.065 14.1865 112.481 12.3503 112.799 10.45L104.98 10.6811L104.742 12.2219C105.324 13.8141 106.012 15.3678 106.806 16.8829C107.599 18.398 108.473 19.849 109.425 21.2357Z" fill="#212529"/>
<path d="M68.5052 35.9883L67.7114 35.6031C67.4468 35.2436 67.288 34.8327 67.2351 34.3705L67.3145 27.6679L59.8526 27.745C58.4237 27.7963 57.1271 27.5781 55.9629 27.0901C55.6453 26.7306 55.513 26.2684 55.5659 25.7034L55.9629 24.933C56.5979 24.5221 57.3653 24.3937 58.2649 24.5478L59.0191 24.5863L61.9165 19.309C59.7467 19.2063 58.4634 19.0779 58.0665 18.9238C57.6696 18.7697 57.4711 18.3717 57.4711 17.7297C57.4711 17.0877 57.3653 13.4411 57.1536 6.78992C57.2065 5.86544 57.7622 5.30047 58.8206 5.09503H62.8691L65.0918 1.32004C65.5152 1.01187 66.0179 0.883473 66.6001 0.934834L67.3939 1.32004C67.7114 1.67956 67.8437 2.1418 67.7908 2.70677C67.3145 3.68262 66.7588 4.50439 66.1238 5.17207C70.7015 5.17207 73.2616 5.22343 73.804 5.32615C74.3465 5.42887 74.7037 5.77556 74.8757 6.3662C75.0477 6.95685 75.0609 8.88286 74.9154 12.1443C74.7698 15.4056 74.6243 17.4344 74.4788 18.2305C74.3332 19.0265 73.9429 19.4567 73.3079 19.5209C72.6728 19.5851 71.7202 19.5402 70.4501 19.3861L70.3707 24.5478L76.5625 24.933L77.4357 25.3952C77.7533 25.8061 77.8856 26.2941 77.8327 26.859L77.4357 27.6679C76.9594 27.9761 76.4302 28.1302 75.8481 28.1302L70.4501 27.745V34.6016L69.9738 35.6031C69.6034 35.9113 69.1138 36.0397 68.5052 35.9883ZM42.3488 35.4491L41.555 35.0638C41.2375 34.7043 41.1051 34.2421 41.1581 33.6771C42.0048 29.594 42.5473 25.7034 42.7854 22.0055C43.0236 18.3075 43.1889 15.1617 43.2815 12.568C43.3742 9.97427 43.3808 7.20081 43.3014 4.24758C43.3543 3.8367 43.5131 3.47718 43.7777 3.16901C44.1481 2.86085 44.6244 2.73245 45.2066 2.78381L46.0004 3.16901C46.3708 3.63126 46.5296 4.17054 46.4767 4.78687L46.3973 10.5264H50.0092C50.115 5.7242 50.3003 3.16901 50.5649 2.86085C50.9353 2.55269 51.4116 2.42429 51.9937 2.47565L52.7876 2.86085C53.158 3.27173 53.3168 3.78534 53.2639 4.40166L53.1051 10.5264C54.1106 10.3723 54.9838 10.5007 55.7247 10.9116C56.0422 11.2711 56.1745 11.7334 56.1216 12.2983L55.7247 13.0687C55.3543 13.3255 54.9573 13.4796 54.534 13.531H46.3179L46.0798 18.5386L53.9783 18.3845C54.878 18.3845 55.2749 19.232 55.169 20.9269L55.0103 33.6771L54.6134 34.4475C54.2429 34.7557 53.7666 34.8841 53.1845 34.8327L52.3907 34.4475C52.126 34.1394 51.9673 33.7798 51.9144 33.369V21.4662L45.921 21.5432C45.7093 23.8031 45.4976 26.0822 45.2859 28.3806C45.0743 30.6789 44.598 32.881 43.8571 34.9868C43.4337 35.3463 42.9309 35.5004 42.3488 35.4491ZM67.2351 24.6248L67.3145 19.309H65.2506L62.3928 24.7019L67.2351 24.6248ZM71.4027 16.3815L71.5615 13.7621L67.7114 13.6851L67.7908 16.3044L71.4027 16.3815ZM64.6155 16.3044V13.531L60.567 13.3769L60.7258 16.2274L64.6155 16.3044ZM71.6408 10.7575L71.7996 8.40778L67.5527 8.17666L67.7114 10.6805L71.6408 10.7575ZM64.6155 10.5264L64.4567 8.17666L60.3289 8.09962L60.4083 10.3723L64.6155 10.5264Z" fill="#212529"/>
<path d="M2.93714 33.447C1.87871 33.4213 1.28335 33.1966 1.15104 32.7729C1.01874 32.3491 0.635058 28.3238 0 20.6967C0.0793822 19.4898 0.469678 18.8157 1.17089 18.6744C1.8721 18.5332 6.46965 18.4882 14.9635 18.5396C15.8632 18.7194 16.3263 19.0211 16.3527 19.4448C16.3792 19.8686 16.3527 21.8844 16.2734 25.4925C16.194 29.1006 16.0815 31.2577 15.936 31.9639C15.7904 32.6701 15.4465 33.0425 14.904 33.081C14.3616 33.1195 10.3726 33.2415 2.93714 33.447ZM20.7585 32.7536C20.044 32.7022 19.6206 32.3684 19.4883 31.7521C19.356 31.1357 18.9591 27.3479 18.2976 20.3886C18.3505 19.6182 18.6151 19.1688 19.0914 19.0404C19.5677 18.912 21.6383 18.8606 25.3031 18.8863C28.9679 18.912 31.2237 18.9633 32.0704 19.0404C32.9172 19.1174 33.3141 19.4898 33.2612 20.1575C33.2612 27.3222 33.2215 31.2128 33.1421 31.8291C33.0627 32.4454 32.2556 32.6766 30.7209 32.5225L20.7585 32.7536ZM12.8996 30.1342L12.979 21.5442L3.17529 21.6212L3.81035 30.4424L12.8996 30.1342ZM30.0859 29.5179L30.1652 22.0064L21.6317 21.7753L22.3461 29.672L30.0859 29.5179ZM9.56556 15.8432C8.50713 15.8432 7.94484 15.4965 7.87869 14.8031C7.81253 14.1098 7.47516 10.6943 6.86656 4.55672C6.81364 3.40111 7.36932 2.86182 8.53359 2.93886H23.8544C24.7276 2.96454 25.1245 3.34975 25.0451 4.09447C24.7276 10.5916 24.5423 14.129 24.4894 14.7068C24.4365 15.2846 23.8544 15.535 22.743 15.458L9.56556 15.8432ZM21.5523 12.2993L21.9492 5.94345H10.28L11.0738 12.5304L21.5523 12.2993Z" fill="#212529"/>
</svg>
