<svg width="113" height="28" viewBox="0 0 113 28" fill="none" xmlns="http://www.w3.org/2000/svg">
<rect width="112" height="20" transform="translate(1 8)" fill="#FEE6B2"/>
<path d="M101.352 27.7518C100.796 27.552 100.231 27.3623 99.6569 27.1825C99.0827 27.0028 98.5548 26.7331 98.0732 26.3736C97.8509 26.094 97.7583 25.7344 97.7953 25.295L98.0732 24.6958C98.3695 24.4561 98.7215 24.3563 99.129 24.3962C99.6476 24.7158 100.185 24.9355 100.74 25.0553L100.852 23.1379H94.8503C94.5539 23.0979 94.2853 22.9781 94.0445 22.7784C93.8223 22.4987 93.7297 22.1292 93.7667 21.6698L94.0445 21.0706L94.628 20.771H100.74L100.685 19.3928L91.4329 19.4528L90.8772 19.1532C90.6549 18.8735 90.5623 18.514 90.5994 18.0746L90.8772 17.4754C91.2476 17.1958 91.6551 17.0559 92.0997 17.0559H100.629L100.574 15.7976L94.2946 15.9774C93.9797 15.9374 93.7111 15.8176 93.4889 15.6179C93.2666 15.3382 93.174 14.9787 93.211 14.5393L93.4889 13.9401L94.0445 13.6405L100.574 13.4607L100.518 11.9028L94.0445 12.2024C93.6185 12.0026 93.3361 11.723 93.1971 11.3635C93.0582 11.004 92.9795 10.4048 92.961 9.56588C92.9425 8.72699 92.9332 7.88811 92.9332 7.04922C93.0814 6.72964 93.3036 6.49995 93.6 6.36013L100.407 6.18037L100.296 4.44268L90.8772 4.68236C90.5808 4.64241 90.3215 4.52257 90.0993 4.32284C89.877 4.04321 89.7844 3.68368 89.8214 3.24427L90.0993 2.64506C90.4697 2.36543 90.9142 2.24559 91.4329 2.28554L100.129 2.10578C100.055 1.42668 100.166 0.827474 100.463 0.308163C100.722 0.0684806 101.055 -0.0313869 101.463 0.00856007L102.018 0.308163C102.315 0.827474 102.407 1.42668 102.296 2.10578L111.604 1.92602L112.16 2.22562C112.419 2.54519 112.53 2.92469 112.493 3.36411L112.215 3.96331C111.734 4.24294 111.187 4.38276 110.576 4.38276C109.965 4.38276 107.279 4.4227 102.519 4.5026L102.574 6.06053H109.437C109.696 6.18037 109.881 6.39009 109.992 6.6897L110.159 10.8242C110.011 11.4234 109.566 11.723 108.825 11.723H102.685L102.741 13.3409C106.223 13.221 108.228 13.1861 108.756 13.236C109.284 13.2859 109.566 13.5806 109.603 14.1198V16.9361C110.53 16.8163 111.363 16.9161 112.104 17.2357C112.326 17.5153 112.419 17.8749 112.382 18.3143L112.104 18.9135C111.363 19.273 110.511 19.3928 109.548 19.273C109.548 20.771 109.539 21.7098 109.52 22.0893C109.502 22.4688 109.256 22.7384 108.784 22.8982C108.311 23.058 106.39 23.1179 103.019 23.078L103.074 26.793C102.889 27.6719 102.315 27.9914 101.352 27.7518ZM107.297 20.6512V19.3329L102.852 19.3928L102.908 20.7111L107.297 20.6512ZM107.409 16.996V15.7377L102.741 15.6778L102.796 17.0559L107.409 16.996ZM100.518 10.1651V7.94803L95.1281 8.06787L95.2948 10.2849L100.518 10.1651ZM107.964 9.9254L107.853 7.82819H102.685V9.98533L107.964 9.9254Z" fill="#212529"/>
<path d="M70.4293 27.991C70.1329 27.951 69.8736 27.8312 69.6513 27.6315C69.4291 27.3518 69.3365 26.9923 69.3735 26.5529L69.6513 25.9537C70.1329 25.714 70.5867 25.4044 71.0128 25.0249C71.4388 24.6454 71.9111 24.1461 72.4297 23.5269C72.9484 22.9077 73.5133 22.1937 74.1245 21.3848C74.7358 20.5758 75.2637 19.6521 75.7082 18.6134C75.1155 17.7346 74.5783 16.8158 74.0967 15.8571C73.6152 14.8984 73.1706 13.9197 72.7631 12.921H72.652L72.2075 13.7599C71.9481 13.9996 71.6147 14.0994 71.2072 14.0595L70.6516 13.7599C70.4293 13.4403 70.3367 13.0608 70.3737 12.6214C71.2258 10.8637 71.8 9.02116 72.0963 7.09372C72.3927 5.16627 72.7261 3.2638 73.0965 1.38629C73.3558 1.14661 73.6893 1.04674 74.0967 1.08669L74.6524 1.38629C74.9117 1.8257 75.0043 2.34502 74.9303 2.94422L74.5413 5.88033L82.7931 5.58072L83.3487 5.88033C83.571 6.15996 83.6636 6.52946 83.6266 6.98886L83.3487 7.58806C82.9042 7.90764 82.367 8.02748 81.7373 7.94758C81.4409 9.82509 81.0519 11.6926 80.5704 13.5502C80.0888 15.4077 79.4034 17.1953 78.5144 18.913C78.9589 19.7919 79.4405 20.6757 79.9591 21.5645C80.4777 22.4533 80.9408 23.1774 81.3483 23.7366C81.7558 24.2959 82.2929 24.7753 82.9598 25.1747C83.2191 25.4943 83.3302 25.8738 83.2932 26.3132L83.0153 26.9124C82.756 27.1521 82.4226 27.252 82.0151 27.212C81.3853 27.0123 80.7556 26.513 80.1258 25.714C79.4961 24.9151 78.945 24.1311 78.4727 23.3621C78.0004 22.5932 77.5419 21.8092 77.0974 21.0103C76.4491 22.1088 75.6341 23.2373 74.6524 24.3958C73.6707 25.5542 72.9067 26.4031 72.3603 26.9424C71.8138 27.4817 71.1702 27.8312 70.4293 27.991ZM61.6774 23.497C60.8995 23.5169 60.4735 23.3222 60.3994 22.9127C60.3253 22.5033 60.1956 19.4923 60.0104 13.8797C59.9733 13.3404 60.0984 12.9859 60.3855 12.8161C60.6726 12.6464 61.7515 12.6014 63.6223 12.6813V8.18727L60.2882 8.30711L59.7326 8.0075C59.5103 7.72787 59.4177 7.36835 59.4547 6.92893L59.7326 6.29977C60.3253 6.02014 60.9643 5.88033 61.6496 5.88033C62.335 5.88033 63.011 5.86035 63.6778 5.82041V3.12398C63.7149 2.80441 63.826 2.52478 64.0113 2.2851C64.2891 2.04541 64.6318 1.94555 65.0392 1.98549L65.5949 2.2851L65.8728 2.8843V5.70056H69.4291L69.9848 6.00017C70.207 6.2798 70.2996 6.64931 70.2626 7.1087L69.9848 7.7079C69.7254 7.90764 69.4476 8.02748 69.1512 8.06742H65.8172V12.4416L68.7067 12.3817C69.4106 12.4616 69.8088 12.6513 69.9014 12.9509C69.994 13.2505 70.0033 14.8085 69.9292 17.6247C69.8551 20.441 69.781 22.1188 69.7069 22.6581C69.6328 23.1974 69.3365 23.437 68.8178 23.3771L61.6774 23.497ZM67.5954 21.0103L67.7065 14.7186L62.2331 14.8984L62.4554 21.1301L67.5954 21.0103ZM77.0974 16.5162C77.7272 15.158 78.2226 13.7898 78.5838 12.4117C78.945 11.0335 79.2367 9.60538 79.459 8.12735L73.9856 8.30711L73.8189 9.50552C74.2264 10.7439 74.708 11.9523 75.2637 13.1307C75.8193 14.3091 76.4306 15.4376 77.0974 16.5162Z" fill="#212529"/>
<path d="M48.4539 27.9911L47.8982 27.6915C47.713 27.4119 47.6019 27.0923 47.5648 26.7328L47.6204 21.5197L42.3971 21.5796C41.3968 21.6196 40.4892 21.4498 39.6742 21.0703C39.452 20.7907 39.3594 20.4312 39.3964 19.9918L39.6742 19.3926C40.1188 19.073 40.6559 18.9731 41.2857 19.0929L41.8136 19.1229L43.8418 15.0184C42.323 14.9385 41.4246 14.8386 41.1468 14.7188C40.869 14.5989 40.73 14.2893 40.73 13.79C40.73 13.2906 40.6559 10.4544 40.5078 5.28127C40.5448 4.56222 40.9338 4.12281 41.6747 3.96302H44.5086L46.0645 1.02691C46.3609 0.787231 46.7128 0.687363 47.1203 0.72731L47.676 1.02691C47.8982 1.30654 47.9908 1.66606 47.9538 2.10548C47.6204 2.86448 47.2314 3.50363 46.7869 4.02294C49.9913 4.02294 51.7833 4.06289 52.163 4.14278C52.5427 4.22267 52.7928 4.49232 52.9132 4.95171C53.0336 5.4111 53.0429 6.90911 52.941 9.44575C52.8391 11.9824 52.7372 13.5603 52.6354 14.1795C52.5335 14.7986 52.2603 15.1332 51.8157 15.1831C51.3712 15.2331 50.7044 15.1981 49.8153 15.0783L49.7597 19.0929L54.094 19.3926L54.7052 19.7521C54.9275 20.0717 55.0201 20.4511 54.9831 20.8906L54.7052 21.5197C54.3718 21.7594 54.0014 21.8793 53.5939 21.8793L49.8153 21.5796V26.9126L49.4819 27.6915C49.2226 27.9312 48.8799 28.0311 48.4539 27.9911ZM30.1444 27.5717L29.5888 27.2721C29.3665 26.9925 29.2739 26.6329 29.3109 26.1935C29.9036 23.0177 30.2833 19.9918 30.45 17.1156C30.6168 14.2394 30.7325 11.7926 30.7973 9.77531C30.8622 7.75798 30.8668 5.60085 30.8112 3.30389C30.8483 2.98432 30.9594 2.70469 31.1446 2.46501C31.404 2.22532 31.7374 2.12546 32.1449 2.1654L32.7005 2.46501C32.9598 2.82453 33.071 3.24397 33.0339 3.72334L32.9784 8.18741H35.5067C35.5808 4.45237 35.7104 2.46501 35.8957 2.22532C36.155 1.98564 36.4884 1.88577 36.8959 1.92572L37.4516 2.22532C37.7109 2.5449 37.822 2.94437 37.785 3.42373L37.6738 8.18741C38.3777 8.06757 38.9889 8.16744 39.5075 8.48702C39.7298 8.76665 39.8224 9.12617 39.7854 9.56559L39.5075 10.1648C39.2482 10.3645 38.9704 10.4844 38.674 10.5243H32.9228L32.7561 14.4191L38.2851 14.2993C38.9148 14.2993 39.1927 14.9584 39.1186 16.2767L39.0074 26.1935L38.7296 26.7927C38.4703 27.0324 38.1369 27.1323 37.7294 27.0923L37.1737 26.7927C36.9885 26.5531 36.8774 26.2734 36.8403 25.9538V16.6961L32.645 16.756C32.4968 18.5137 32.3486 20.2864 32.2004 22.074C32.0522 23.8616 31.7188 25.5744 31.2002 27.2122C30.9039 27.4918 30.5519 27.6116 30.1444 27.5717ZM47.5648 19.1529L47.6204 15.0184H46.1756L44.1752 19.2128L47.5648 19.1529ZM50.4821 12.7414L50.5933 10.7041L47.8982 10.6442L47.9538 12.6815L50.4821 12.7414ZM45.7311 12.6815V10.5243L42.8972 10.4045L43.0083 12.6215L45.7311 12.6815ZM50.6488 8.36718L50.76 6.5396L47.7871 6.35984L47.8982 8.30726L50.6488 8.36718ZM45.7311 8.18741L45.62 6.35984L42.7305 6.29992L42.786 8.06757L45.7311 8.18741Z" fill="#212529"/>
<path d="M2.556 26.0134C1.8151 25.9935 1.39834 25.8187 1.30573 25.4891C1.21312 25.1596 0.94454 22.0287 0.5 16.0966C0.555567 15.1578 0.828774 14.6335 1.31962 14.5237C1.81047 14.4138 5.02875 14.3789 10.9745 14.4188C11.6042 14.5586 11.9284 14.7933 11.9469 15.1229C11.9654 15.4524 11.9469 17.0204 11.8913 19.8266C11.8358 22.6329 11.757 24.3107 11.6552 24.86C11.5533 25.4092 11.3125 25.6989 10.9328 25.7288C10.5531 25.7588 7.76081 25.8536 2.556 26.0134ZM15.0309 25.4742C14.5308 25.4342 14.2344 25.1745 14.1418 24.6952C14.0492 24.2158 13.7714 21.2697 13.3083 15.8569C13.3453 15.2577 13.5306 14.9082 13.864 14.8083C14.1974 14.7084 15.6468 14.6685 18.2121 14.6885C20.7775 14.7084 22.3565 14.7484 22.9493 14.8083C23.542 14.8682 23.8198 15.1578 23.7828 15.6771C23.7828 21.2498 23.755 24.2757 23.6994 24.7551C23.6438 25.2345 23.0789 25.4142 22.0046 25.2944L15.0309 25.4742ZM9.52971 23.4369L9.58528 16.7557L2.7227 16.8156L3.16724 23.6765L9.52971 23.4369ZM21.5601 22.9575L21.6156 17.1152L15.6421 16.9355L16.1422 23.0773L21.5601 22.9575ZM7.19588 12.3216C6.45498 12.3216 6.06138 12.052 6.01507 11.5127C5.96876 10.9734 5.7326 8.31691 5.30659 3.54325C5.26954 2.64444 5.65851 2.22499 6.4735 2.28491H17.198C17.8093 2.30489 18.0871 2.60449 18.0315 3.18372C17.8093 8.23702 17.6796 10.9884 17.6426 11.4378C17.6055 11.8872 17.198 12.0819 16.4201 12.022L7.19588 12.3216ZM15.5866 9.56526L15.8644 4.62181H7.69599L8.25166 9.74502L15.5866 9.56526Z" fill="#212529"/>
</svg>
