<svg width="114" height="28" viewBox="0 0 114 28" fill="none" xmlns="http://www.w3.org/2000/svg">
<rect width="112" height="20" transform="translate(2 8)" fill="#FEE6B2"/>
<path d="M95.6003 27.172C95.0658 27.2732 94.711 26.9039 94.5359 26.0642C94.3608 25.2246 94.218 23.0343 94.1074 19.4935L91.7022 21.8608C91.3336 22.3261 90.8728 22.5386 90.3199 22.4981L89.7669 22.1946C89.5458 21.8911 89.4536 21.5168 89.4905 21.0717L89.7669 20.4647C91.4626 18.7651 93.278 17.0048 95.2133 15.1838L89.3246 15.3659L88.7717 15.0624C88.5505 14.7387 88.4583 14.3542 88.4952 13.9091L88.7717 13.3021C89.214 13.0188 89.7116 12.8772 90.2646 12.8772L99.8578 12.7558L99.8026 10.085L94.9921 10.2064L94.4392 9.90289C94.218 9.61963 94.1258 9.25543 94.1627 8.81029L94.4392 8.20329C94.8815 7.87956 95.3791 7.71769 95.9321 7.71769H99.8026L99.7473 5.74495L91.5916 5.92705C91.2967 5.88658 91.0387 5.76518 90.8175 5.56285C90.5963 5.27958 90.5042 4.91538 90.541 4.47025L90.8175 3.86325C91.0387 3.66092 91.2967 3.53952 91.5916 3.49905L99.6367 3.37765L99.5814 1.25315L99.8578 0.646155C100.153 0.403356 100.503 0.302189 100.908 0.342656L101.461 0.646155C101.719 1.49595 101.83 2.40645 101.793 3.37765L110.004 3.31695C110.299 3.35742 110.575 3.47882 110.833 3.68115C111.055 3.96442 111.147 4.32862 111.11 4.77375L110.833 5.38075C110.539 5.62355 110.207 5.74495 109.838 5.74495H101.904L101.959 7.71769H106.659L107.212 8.02119C107.433 8.30446 107.525 8.66866 107.488 9.11379L107.212 9.72079C106.954 9.92312 106.677 10.0445 106.382 10.085H101.959L102.014 12.7558H111.386L111.939 13.0593C112.16 13.3426 112.253 13.7068 112.216 14.1519L111.939 14.7589C111.681 14.9612 111.405 15.0826 111.11 15.1231H98.4755L96.2638 17.4297L96.4297 23.6514C96.9826 23.4086 97.471 23.1254 97.895 22.8016C98.3189 22.4779 98.7889 22.316 99.3049 22.316L99.8578 22.6195C100.079 22.9028 100.171 23.267 100.134 23.7121L99.8578 24.3191L95.6003 27.172ZM111.055 27.1113C109.212 26.5852 107.41 25.8467 105.65 24.8958C103.89 23.9448 101.646 22.1845 98.9179 19.6149C98.6967 19.2911 98.6045 18.9067 98.6414 18.4616L98.9179 17.8546C99.2128 17.5713 99.5814 17.4701 100.024 17.5511L100.908 18.0974C102.272 19.5542 103.194 20.404 103.673 20.6468L106.825 17.6725C107.267 17.1869 107.811 16.9441 108.456 16.9441L109.009 17.2476C109.23 17.5308 109.322 17.895 109.285 18.3402L109.009 18.9472C108.382 19.3923 107.267 20.5153 105.664 22.316C106.696 22.8826 107.76 23.3985 108.857 23.8639C109.953 24.3292 111.073 24.7238 112.216 25.0475C112.437 25.3308 112.529 25.695 112.492 26.1401L112.216 26.7471C111.884 26.9899 111.497 27.1113 111.055 27.1113Z" fill="#212529"/>
<path d="M72.4058 27.9913L71.8529 27.6575C71.558 27.0909 71.4382 26.4232 71.4935 25.6544V20.161C68.9501 20.161 66.8812 20.2217 65.2869 20.3431C63.6926 20.4645 62.1214 20.6163 60.5732 20.7984L60.0203 20.4949C59.7991 20.1914 59.7162 19.8272 59.7715 19.4023L60.0479 18.7953C60.8589 18.4311 61.7482 18.2288 62.7158 18.1883C63.6834 18.1478 64.628 18.0871 65.5496 18.0062C65.3284 14.8903 65.2086 12.8467 65.1902 11.8755C65.1349 11.1471 65.3975 10.7475 65.9781 10.6767C66.5587 10.6059 67.3374 10.5856 68.3142 10.616C69.291 10.6463 70.2679 10.6109 71.2447 10.5098L71.2171 7.23196L65.1902 7.14091C64.9874 7.95024 64.7063 8.73428 64.3469 9.49303C63.9875 10.2518 63.5959 10.9954 63.172 11.7238C62.8771 12.007 62.5269 12.1284 62.1214 12.088L61.5685 11.7541C61.3473 11.4708 61.2552 11.1066 61.292 10.6615C62.1951 9.10354 62.8955 7.43429 63.3931 5.65376C63.8908 3.87323 64.2963 2.0927 64.6096 0.312171C64.8676 0.0693713 65.1994 -0.0317952 65.6049 0.00867141L66.1578 0.312171C66.4158 0.73707 66.4987 1.23279 66.4066 1.79932L65.8813 4.80396L79.0686 4.77361L79.6215 5.07711C79.8427 5.36038 79.9257 5.72458 79.8704 6.16971L79.5939 6.80706C79.3359 7.00939 79.0594 7.12068 78.7645 7.14091L73.4288 7.26231L73.4011 10.5401C74.0278 10.5401 74.6498 10.5553 75.2672 10.5856C75.8847 10.616 76.4699 10.7627 77.0228 11.0257C77.244 11.309 77.3361 11.6732 77.2993 12.1183L77.0228 12.7253C76.5252 13.0288 75.963 13.1401 75.3364 13.0592L73.3458 12.9074L73.4564 17.7027L82.0544 17.5813L82.6073 17.8848C82.8285 18.1681 82.9207 18.5323 82.8838 18.9774L82.6073 19.5844C82.3493 19.7867 82.0636 19.9081 81.7503 19.9486L73.6499 20.07L73.6776 27.0808L73.4011 27.6878C73.1431 27.9306 72.8113 28.0318 72.4058 27.9913ZM71.3 17.7937L71.1894 12.8771L67.3742 12.9985L67.8166 17.7937H71.3Z" fill="#212529"/>
<path d="M48.2166 27.9611L47.6637 27.6576C47.4794 27.3743 47.3688 27.0506 47.3319 26.6864L47.3872 21.4055L42.1897 21.4662C41.1945 21.5067 40.2913 21.3347 39.4804 20.9503C39.2592 20.667 39.1671 20.3028 39.2039 19.8577L39.4804 19.2507C39.9227 18.9269 40.4572 18.8258 41.0839 18.9472L41.6092 18.9775L43.6273 14.8196C42.116 14.7387 41.2221 14.6375 40.9456 14.5161C40.6692 14.3947 40.5309 14.0811 40.5309 13.5752C40.5309 13.0694 40.4572 10.1963 40.3098 4.95585C40.3466 4.22745 40.7337 3.78232 41.4709 3.62045H44.2908L45.839 0.646155C46.1339 0.403356 46.4841 0.302189 46.8896 0.342656L47.4425 0.646155C47.6637 0.929422 47.7559 1.29362 47.719 1.73875C47.3872 2.50762 47.0002 3.15508 46.5578 3.68115C49.7464 3.68115 51.5296 3.72162 51.9074 3.80255C52.2852 3.88348 52.5341 4.15663 52.6539 4.622C52.7737 5.08737 52.7829 6.60486 52.6815 9.17449C52.5801 11.7441 52.4788 13.3426 52.3774 13.9698C52.276 14.597 52.0042 14.9359 51.5618 14.9865C51.1195 15.0371 50.456 15.0017 49.5713 14.8803L49.516 18.9472L53.8288 19.2507L54.4371 19.6149C54.6582 19.9386 54.7504 20.323 54.7135 20.7682L54.4371 21.4055C54.1053 21.6483 53.7367 21.7697 53.3312 21.7697L49.5713 21.4662V26.8685L49.2395 27.6576C48.9815 27.9004 48.6405 28.0016 48.2166 27.9611ZM29.9977 27.5362L29.4448 27.2327C29.2236 26.9494 29.1314 26.5852 29.1683 26.1401C29.7581 22.923 30.1359 19.8577 30.3018 16.9441C30.4677 14.0305 30.5829 11.5519 30.6474 9.50834C30.7119 7.46478 30.7165 5.27958 30.6612 2.95275C30.6981 2.62902 30.8087 2.34575 30.993 2.10295C31.251 1.86015 31.5827 1.75899 31.9882 1.79945L32.5412 2.10295C32.7992 2.46715 32.9098 2.89205 32.8729 3.37765L32.8176 7.89979H35.3334C35.4072 4.11617 35.5362 2.10295 35.7205 1.86015C35.9785 1.61735 36.3103 1.51619 36.7158 1.55665L37.2687 1.86015C37.5267 2.18389 37.6373 2.58855 37.6004 3.07415L37.4898 7.89979C38.1902 7.77839 38.7984 7.87956 39.3145 8.20329C39.5357 8.48656 39.6278 8.85076 39.591 9.29589L39.3145 9.90289C39.0565 10.1052 38.78 10.2266 38.4851 10.2671H32.7623L32.5964 14.2126L38.0981 14.0912C38.7247 14.0912 39.0012 14.7589 38.9275 16.0943L38.8169 26.1401L38.5404 26.7471C38.2824 26.9899 37.9506 27.0911 37.5451 27.0506L36.9922 26.7471C36.8079 26.5043 36.6973 26.2211 36.6605 25.8973V16.5192L32.4859 16.5799C32.3384 18.3604 32.191 20.1561 32.0435 21.967C31.8961 23.7779 31.5643 25.5129 31.0483 27.172C30.7534 27.4553 30.4032 27.5767 29.9977 27.5362ZM47.3319 19.0079L47.3872 14.8196H45.9496L43.9591 19.0686L47.3319 19.0079ZM50.2348 12.513L50.3454 10.4492L47.6637 10.3885L47.719 12.4523L50.2348 12.513ZM45.5073 12.4523V10.2671L42.6874 10.1457L42.7979 12.3916L45.5073 12.4523ZM50.4007 8.08189L50.5113 6.23055L47.5531 6.04845L47.6637 8.02119L50.4007 8.08189ZM45.5073 7.89979L45.3967 6.04845L42.5215 5.98775L42.5768 7.77839L45.5073 7.89979Z" fill="#212529"/>
<path d="M2.54583 25.9569C1.80859 25.9367 1.3939 25.7596 1.30174 25.4258C1.20959 25.0919 0.942341 21.9204 0.5 15.9111C0.555293 14.9601 0.827148 14.429 1.31557 14.3177C1.80399 14.2064 5.00635 14.171 10.9227 14.2115C11.5493 14.3531 11.8719 14.5909 11.8903 14.9247C11.9087 15.2586 11.8903 16.8469 11.835 19.6897C11.7797 22.5324 11.7014 24.232 11.6 24.7884C11.4986 25.3449 11.259 25.6382 10.8812 25.6686C10.5034 25.6989 7.72491 25.7951 2.54583 25.9569ZM14.959 25.4106C14.4614 25.3702 14.1665 25.1071 14.0743 24.6215C13.9822 24.1359 13.7057 21.1515 13.245 15.6683C13.2818 15.0613 13.4661 14.7072 13.7979 14.606C14.1296 14.5049 15.5719 14.4644 18.1245 14.4846C20.6772 14.5049 22.2484 14.5453 22.8382 14.606C23.428 14.6667 23.7045 14.9601 23.6676 15.4862C23.6676 21.1313 23.64 24.1966 23.5847 24.6822C23.5294 25.1678 22.9673 25.3499 21.8983 25.2285L14.959 25.4106ZM9.48506 23.3468L9.54035 16.5788L2.71171 16.6395L3.15405 23.5896L9.48506 23.3468ZM21.4559 22.8612L21.5112 16.943L15.5673 16.7609L16.0649 22.9826L21.4559 22.8612ZM7.16277 12.087C6.42553 12.087 6.03387 11.8138 5.9878 11.2675C5.94172 10.7212 5.70673 8.03021 5.28282 3.19445C5.24595 2.28395 5.633 1.85905 6.44396 1.91975H17.1154C17.7237 1.93999 18.0001 2.24349 17.9448 2.83025C17.7237 7.94928 17.5946 10.7364 17.5578 11.1917C17.5209 11.6469 17.1154 11.8442 16.3413 11.7835L7.16277 12.087ZM15.512 9.29479L15.7884 4.28705H7.6604L8.21333 9.47689L15.512 9.29479Z" fill="#212529"/>
</svg>
